<svg xmlns="http://www.w3.org/2000/svg" xmlns:xlink="http://www.w3.org/1999/xlink" viewBox="0 0 823.34 332.79"><defs><filter id="luminosity-noclip" x="0.57" y="-8133.83" width="10.37" height="32766" filterUnits="userSpaceOnUse" color-interpolation-filters="sRGB"><feFlood flood-color="#fff" result="bg"/><feBlend in="SourceGraphic" in2="bg"/></filter><mask id="mask" x="0.57" y="-8133.83" width="10.37" height="32766" maskUnits="userSpaceOnUse"><g style="filter:url(#luminosity-noclip)"/></mask><linearGradient id="linear-gradient" x1="1454.4" y1="-101.48" x2="1880.54" y2="479.99" gradientTransform="matrix(-1, 0, 0, 1, 1716.12, 0)" gradientUnits="userSpaceOnUse"><stop offset="0"/><stop offset="0.05" stop-color="#1e1e1e"/><stop offset="0.15" stop-color="#525252"/><stop offset="0.26" stop-color="gray"/><stop offset="0.37" stop-color="#a7a7a7"/><stop offset="0.48" stop-color="#c7c7c7"/><stop offset="0.6" stop-color="#e0e0e0"/><stop offset="0.72" stop-color="#f1f1f1"/><stop offset="0.85" stop-color="#fcfcfc"/><stop offset="1" stop-color="#fff"/></linearGradient><filter id="luminosity-noclip-2" x="0.57" y="-8133.83" width="603.4" height="32766" filterUnits="userSpaceOnUse" color-interpolation-filters="sRGB"><feFlood flood-color="#fff" result="bg"/><feBlend in="SourceGraphic" in2="bg"/></filter><mask id="mask-2" x="0.57" y="-8133.83" width="603.4" height="32766" maskUnits="userSpaceOnUse"><g style="filter:url(#luminosity-noclip-2)"/></mask><linearGradient id="linear-gradient-2" x1="1206.91" y1="79.9" x2="1633.06" y2="661.37" xlink:href="#linear-gradient"/><filter id="luminosity-noclip-3" x="0.57" y="-8133.83" width="24.68" height="32766" filterUnits="userSpaceOnUse" color-interpolation-filters="sRGB"><feFlood flood-color="#fff" result="bg"/><feBlend in="SourceGraphic" in2="bg"/></filter><mask id="mask-3" x="0.57" y="-8133.83" width="24.68" height="32766" maskUnits="userSpaceOnUse"><g style="filter:url(#luminosity-noclip-3)"/></mask><linearGradient id="linear-gradient-3" x1="1427.67" y1="-81.89" x2="1853.81" y2="499.58" xlink:href="#linear-gradient"/><filter id="luminosity-noclip-5" x="174.44" y="-8133.83" width="12.51" height="32766" filterUnits="userSpaceOnUse" color-interpolation-filters="sRGB"><feFlood flood-color="#fff" result="bg"/><feBlend in="SourceGraphic" in2="bg"/></filter><mask id="mask-5" x="174.44" y="-8133.83" width="12.51" height="32766" maskUnits="userSpaceOnUse"><g style="filter:url(#luminosity-noclip-5)"/></mask><linearGradient id="linear-gradient-5" x1="1345.4" y1="-21.66" x2="1771.61" y2="559.9" xlink:href="#linear-gradient"/><filter id="luminosity-noclip-6" x="480.08" y="-8133.83" width="700.88" height="32766" filterUnits="userSpaceOnUse" color-interpolation-filters="sRGB"><feFlood flood-color="#fff" result="bg"/><feBlend in="SourceGraphic" in2="bg"/></filter><mask id="mask-6" x="480.08" y="-8133.83" width="700.88" height="32766" maskUnits="userSpaceOnUse"><g style="filter:url(#luminosity-noclip-6)"/></mask><linearGradient id="linear-gradient-6" x1="590.15" y1="1173.15" x2="1085.14" y2="1848.55" gradientTransform="matrix(1, 0, 0, -1, 0, 1400.93)" xlink:href="#linear-gradient"/><filter id="luminosity-noclip-10" x="0.57" y="-8133.83" width="196.32" height="32766" filterUnits="userSpaceOnUse" color-interpolation-filters="sRGB"><feFlood flood-color="#fff" result="bg"/><feBlend in="SourceGraphic" in2="bg"/></filter><mask id="mask-10" x="0.57" y="-8133.83" width="196.32" height="32766" maskUnits="userSpaceOnUse"><g style="filter:url(#luminosity-noclip-10)"/></mask><linearGradient id="linear-gradient-10" x1="1477.19" y1="-118.18" x2="1903.33" y2="463.29" xlink:href="#linear-gradient"/><clipPath id="clip-path"><rect y="7.92" width="815.57" height="317" style="fill:none"/></clipPath><filter id="luminosity-noclip-13" x="0.57" y="242.81" width="10.37" height="12.49" filterUnits="userSpaceOnUse" color-interpolation-filters="sRGB"><feFlood flood-color="#fff" result="bg"/><feBlend in="SourceGraphic" in2="bg"/></filter><mask id="mask-13" x="0.57" y="242.81" width="10.37" height="12.49" maskUnits="userSpaceOnUse"><g style="mask:url(#mask);filter:url(#luminosity-noclip-13)"><path d="M.57,244.49a6.16,6.16,0,0,1,5.93-1.43,6.25,6.25,0,0,1-3.51,12,5.94,5.94,0,0,1-2.42-1.38Z" style="mix-blend-mode:multiply;fill:url(#linear-gradient)"/></g></mask><linearGradient id="linear-gradient-13" x1="1454.4" y1="-101.48" x2="1880.54" y2="479.99" gradientTransform="matrix(-1, 0, 0, 1, 1716.12, 0)" gradientUnits="userSpaceOnUse"><stop offset="0" stop-color="#fdb519"/><stop offset="0" stop-color="#fdb61b"/><stop offset="0.11" stop-color="#fdc74f"/><stop offset="0.22" stop-color="#fed67d"/><stop offset="0.34" stop-color="#fee2a4"/><stop offset="0.45" stop-color="#ffedc4"/><stop offset="0.58" stop-color="#fff5dd"/><stop offset="0.7" stop-color="#fffbee"/><stop offset="0.84" stop-color="#fffef9"/><stop offset="1" stop-color="#fffffc"/></linearGradient><filter id="luminosity-noclip-14" x="0.57" y="147.87" width="603.4" height="403.2" filterUnits="userSpaceOnUse" color-interpolation-filters="sRGB"><feFlood flood-color="#fff" result="bg"/><feBlend in="SourceGraphic" in2="bg"/></filter><mask id="mask-14" x="0.57" y="147.87" width="603.4" height="403.2" maskUnits="userSpaceOnUse"><g style="mask:url(#mask-2);filter:url(#luminosity-noclip-14)"><path d="M.57,551.07H7.91c11-5.27,18.5-16.07,18.5-28.54a30.38,30.38,0,0,0-2.06-10.93l11.09-4.49,2.07,44h2.86L38.25,506l41.14-16.64a16.77,16.77,0,0,0,27.49,1.61l30.62,21.6A18.93,18.93,0,0,0,133.12,528l-47.06,6.45a6,6,0,0,0-11.79.91,5.7,5.7,0,0,0,3.81,5.31l-3.7,10.39h3L81,541a5.87,5.87,0,0,0,5-4.27l47.65-6.53a19.73,19.73,0,0,0,8.75,11.33L138,551.07h2.36l3.88-8.51a21.14,21.14,0,0,0,22.39-2.69L177,551.07h2.92l-11.66-12.64a19.46,19.46,0,0,0,4.81-8.15l27.55.76a7.45,7.45,0,0,0,.75,2.48,10.79,10.79,0,0,0,3.32,4.6,10.68,10.68,0,0,0,1.39,1l-.93,12h2.15l.86-11.06a12,12,0,0,0,13-4,12.37,12.37,0,0,0,2.79-8.12l24.54-6.3a13.89,13.89,0,0,0,4.14,5.66,14.62,14.62,0,0,0,17.69.27l13.64,18.62c-.17.18-.35.37-.51.57a9,9,0,0,0-1.94,4.37h16.82a8.21,8.21,0,0,0-.25-1.71l39.89-22.91c.16.17.32.33.49.48a6.66,6.66,0,0,0,4.31,2.28l.51,21.86h1.94l-.51-21.92a7.41,7.41,0,0,0,4.52-2.73,4.24,4.24,0,0,0,.33-.39l61.05,22.06a6,6,0,0,0-.59,3h14.68a4.91,4.91,0,0,0,0-.55,6.66,6.66,0,0,0-4.83-6.31l4-15.11a12.36,12.36,0,0,0,1.73.14,10.73,10.73,0,0,0,11-10.44,9.85,9.85,0,0,0-.67-3.57l18-7.27a5.39,5.39,0,0,0,4.2,2.6,5.19,5.19,0,0,0,5.73-4.58,5,5,0,0,0-1.83-4.24l10.72-20.09a4.16,4.16,0,0,0,1.18.17,4.06,4.06,0,0,0,3.71-2.33l37,8.29a5.58,5.58,0,0,0-.1,1,5.36,5.36,0,0,0,10.72,0,5.13,5.13,0,0,0-2.7-4.47l7.5-18.7a5.62,5.62,0,0,0,.92.08,5.26,5.26,0,0,0,5.36-5.15,5,5,0,0,0-1.3-3.36L550,440.7a6.94,6.94,0,0,0,8.29-.5,7.07,7.07,0,0,0,.4-10,7.41,7.41,0,0,0-4.54-2.48l-1.25-15.24a8.33,8.33,0,0,0,3.78-1.88,8.81,8.81,0,0,0,1.95-10.5l12.46-6.22c.1.12.19.25.3.36a5.14,5.14,0,0,0,7.13.76L596,403.57a3.65,3.65,0,0,0-.08.74,4,4,0,1,0,4-3.87,4.11,4.11,0,0,0-2.94,1.23l-17.12-8.39a5.29,5.29,0,0,0-.92-5.62,5.15,5.15,0,0,0-7.24-.67,5,5,0,0,0-1.18,5.89l-12.44,6.21a9.58,9.58,0,0,0-.87-1.17,9,9,0,0,0-12.64-1.17,8.29,8.29,0,0,0-1.88,2.39l-14.49-7.32a4.49,4.49,0,0,0-.68-4.08,4.23,4.23,0,1,0-.77,6.09,4,4,0,0,0,.93-1l14.53,7.34a9.26,9.26,0,0,0,1.85,9.22,9.37,9.37,0,0,0,7.23,3.25l1.23,15a6.56,6.56,0,0,0-3.76,1.6,7.08,7.08,0,0,0-.4,10,6.88,6.88,0,0,0,.53.55L533.8,456.27a5.37,5.37,0,0,0-2.75-.85l-8.41-17a2.63,2.63,0,0,0,1-2.06,2.83,2.83,0,1,0-2.83,2.71,3.07,3.07,0,0,0,.53-.05l8.18,16.51a5.2,5.2,0,0,0-4.06,5,5.14,5.14,0,0,0,3.07,4.65l-7.46,18.61a5.33,5.33,0,0,0-1.33-.17,5.39,5.39,0,0,0-4.76,2.78l-37.12-8.32c0-.06,0-.12,0-.18a4.06,4.06,0,0,0-8.12,0,3.84,3.84,0,0,0,1.6,3.1l-10.65,20a5.74,5.74,0,0,0-1.83-.48,5.18,5.18,0,0,0-5.72,4.58,4.7,4.7,0,0,0,.13,1.59l-18,7.29a11.05,11.05,0,0,0-9.74-5.6,11.19,11.19,0,0,0-8.6,3.94l-14.46-10.69A7.86,7.86,0,0,0,404,497a8.06,8.06,0,0,0-3.18-6.36l17.25-18.78a5.14,5.14,0,0,0,2.62.71,5,5,0,0,0,5.07-4.86,4.75,4.75,0,0,0-1.68-3.61l29.51-24.88a2.89,2.89,0,0,0,1.57.46,2.72,2.72,0,1,0-2.83-2.72,2.54,2.54,0,0,0,.3,1.2L422.8,463.27a5.21,5.21,0,0,0-2.13-.45,5.55,5.55,0,0,0-1,.09l-3.59-16.49a5.18,5.18,0,0,0,3.82-4.93,5.37,5.37,0,1,0-5.36,5.14h.12l3.65,16.75a4.84,4.84,0,0,0-2.7,4.3,4.77,4.77,0,0,0,1.31,3.26l-17.34,18.88a9.05,9.05,0,0,0-4.26-1.06,8.23,8.23,0,1,0,0,16.43,8.85,8.85,0,0,0,5.81-2.14l14.67,10.86a10,10,0,0,0-1.28,4.89,10.53,10.53,0,0,0,7.9,10l-4,15.14a5.07,5.07,0,0,0-.68,0,7,7,0,0,0-3.65,1,6.16,6.16,0,0,0-2.28,1.35l-61.28-22.14a7,7,0,0,0,.46-2.46,7.52,7.52,0,0,0-15,0,6.87,6.87,0,0,0,.69,3l-39.51,22.69a7.93,7.93,0,0,0-1.86-2.2,8.36,8.36,0,0,0-9.95-.28l-13.62-18.6a17.21,17.21,0,0,0,1.67-1.74c5.32-6.54,4.6-15.94-1.6-21a13.92,13.92,0,0,0-4.44-2.4l7.67-24.93.32,0a8.5,8.5,0,0,0,9-8,8.38,8.38,0,0,0-3.52-7.29l13.62-32a14.9,14.9,0,0,0,10.18,0l12.23,23.43A6.14,6.14,0,0,0,314.4,457a6.25,6.25,0,1,0,6.58-5.84,6.31,6.31,0,0,0-2.18.27l-12.2-23.36a14.65,14.65,0,0,0,6.67-7.56l38.83,10.63c0,.15,0,.31-.05.48a6.23,6.23,0,1,0,.71-2.53l-38.89-10.64a14.61,14.61,0,0,0,.33-2.31,14.32,14.32,0,0,0-2-8.14l27.37-16.76a10.54,10.54,0,1,0,8.55-17.34,10.78,10.78,0,0,0-1.71.06l-3.94-17.79a11.54,11.54,0,0,0,5.53-5.11l28.44,10.45a7.26,7.26,0,0,0,14,3.57,7.6,7.6,0,0,0,.13-4.91l17.48-9.85a4,4,0,0,0,2.65,1,3.74,3.74,0,1,0-3.89-3.74,3.37,3.37,0,0,0,.12.9l-17.29,9.74a7.16,7.16,0,0,0-3.44-2.71,7.35,7.35,0,0,0-8.82,3.3L349,348.4A11.43,11.43,0,0,0,346,337.29l18.47-27.7a3,3,0,0,0,.41.18,4.19,4.19,0,0,0,4.78-1.48l11.07,4.07a4.31,4.31,0,1,0,.44-1.36l-10.86-4a4.33,4.33,0,0,0-.07-2.89l12.28-9.95a2.49,2.49,0,0,0,.82.49,2.77,2.77,0,1,0-1.57-3.52,2.84,2.84,0,0,0,0,1.82l-12.24,9.92a4,4,0,0,0-1.66-1.16,4.15,4.15,0,0,0-3.35.25l-9.5-10.71a2.83,2.83,0,0,0,.28-.58,2.46,2.46,0,0,0-.51-2.35l11.58-21.72a4.21,4.21,0,0,0,1.18.17,4.08,4.08,0,0,0,3.72-2.33l37,8.29a4.81,4.81,0,0,0-.11,1,5.37,5.37,0,0,0,10.73,0,5.12,5.12,0,0,0-2.71-4.47l7.5-18.7a5.64,5.64,0,0,0,.93.08,5.41,5.41,0,0,0,4-1.76l18.68,5v0a2.83,2.83,0,1,0,2.82-2.72,2.86,2.86,0,0,0-2.42,1.33l-18.23-4.91a4.94,4.94,0,0,0,.49-2.14,5,5,0,0,0-1.31-3.36L444.32,225a5.17,5.17,0,0,0,2.63.71,4.86,4.86,0,1,0-5.07-4.86,4.7,4.7,0,0,0,1.32,3.26l-15.75,17.15a5.44,5.44,0,0,0-3-.87,5.26,5.26,0,0,0-5.37,5.15,5.15,5.15,0,0,0,3.07,4.65l-7.46,18.61a5.25,5.25,0,0,0-1.32-.17,5.38,5.38,0,0,0-4.76,2.78l-37.13-8.32c0-.06,0-.12,0-.18a4.06,4.06,0,0,0-8.12,0A3.84,3.84,0,0,0,365,266L353.47,287.6a2.44,2.44,0,0,0-1.24,4.71,2.28,2.28,0,0,0,1.63-.12l9.45,10.64a4.21,4.21,0,0,0-.9,1.48,4.31,4.31,0,0,0,.4,3.83L344.25,336a10.82,10.82,0,0,0-2-1A11.11,11.11,0,0,0,330,338.3l-15.64-11a4.36,4.36,0,0,0-.62-4.74,4.24,4.24,0,0,0-6-.68,3.85,3.85,0,0,0-.76.86,1.47,1.47,0,0,1-.1.13l-14.65-6.24A9.27,9.27,0,0,0,282.59,305l-2.16-14.58a6.5,6.5,0,0,0,3.57-1.8,7.11,7.11,0,1,0-9.78-.27,7.31,7.31,0,0,0,4.6,2.13L281,305.32a8.21,8.21,0,0,0-3.58,2.08,8.64,8.64,0,0,0-1.24,10.38l-11.78,6.87c-.1-.11-.2-.23-.31-.34a4.91,4.91,0,1,0,.18,7.12,4.94,4.94,0,0,0,.77-5.83l11.77-6.86a7.82,7.82,0,0,0,.92,1.09,8.78,8.78,0,0,0,12.42.34,8.09,8.09,0,0,0,1.69-2.45l14.48,6.16c0,.06-.05.11-.07.16a4.23,4.23,0,0,0,2.42,5.46,4,4,0,0,0,3.12-.14,3.64,3.64,0,0,0,1.08-.45l15.87,11.14a12.43,12.43,0,0,0-.87,1.84,11.26,11.26,0,0,0,6.46,14.56,10.71,10.71,0,0,0,6.07.39l3.89,17.55a10.49,10.49,0,0,0-7.34,9.4,10.28,10.28,0,0,0,.73,4.4l-27.71,17a14.68,14.68,0,0,0-9.3-4.29l-5.9-27.32a4.54,4.54,0,1,0-2.14.28l5.84,27a14.69,14.69,0,0,0-9.37,4.25l-9.67-7.43a6.11,6.11,0,0,0,.79-2.69,6.22,6.22,0,1,0-2.16,4.34l9.63,7.4a14.3,14.3,0,0,0-2.83,7.8,1.34,1.34,0,0,0,0,.2l-28.75-.62a1.68,1.68,0,0,0-.06-.24,4.24,4.24,0,0,0-.56-1.57,4.91,4.91,0,0,0-8.43,5,4.71,4.71,0,0,0,1,1.12l-9.6,15.13a10.2,10.2,0,0,0-10.3,1,10.32,10.32,0,0,0-4.33,7.58l-16.57-.26a7.28,7.28,0,0,0-1.36-4.29,8,8,0,1,0-2.07,10.8,8.2,8.2,0,0,0,3.2-4.71l16.83.26a9.18,9.18,0,0,0,1.66,4.35,9.7,9.7,0,0,0,11.29,3.26l5.48,14.32a4,4,0,0,0-.43.28,5.52,5.52,0,1,0,7.92,1.1,5.53,5.53,0,0,0-6.32-1.92L238,451.07a10.13,10.13,0,0,0,1.37-.82A9.89,9.89,0,0,0,242,436.52a9.26,9.26,0,0,0-2.41-2.31l9.56-15.09a4.93,4.93,0,0,0,4.54-.31l.15-.09a4.5,4.5,0,0,0,2.12-2.46l29,.63a14.53,14.53,0,0,0,6.33,10.44l-13.71,32.23a8.83,8.83,0,0,0-1.27-.18,8.44,8.44,0,0,0-3.15,16.45l-7.64,24.84A15.68,15.68,0,0,0,247.67,519l-24.18,6.2a10.89,10.89,0,0,0-3.67-5.69c-4.88-4-12.23-3-16.42,2.13a12.27,12.27,0,0,0-2.78,7.28l-27.07-.74a19.68,19.68,0,0,0,.27-3.18,19.48,19.48,0,0,0-9.92-16.82l12.43-27.65A14.33,14.33,0,0,0,180,481c7.79,0,14.11-6.06,14.11-13.53S187.8,453.92,180,453.92,165.9,460,165.9,467.45a13.37,13.37,0,0,0,6.48,11.37L160,506.4a21.33,21.33,0,0,0-6.64-1.06,20.9,20.9,0,0,0-13.8,5.14l-31.16-22a14.78,14.78,0,0,0,1.44-5.22,15.59,15.59,0,0,0-10.07-15.67l8-30.7a24.54,24.54,0,0,0,3.56.29c12.49,0,22.61-9.61,22.61-21.46a20.36,20.36,0,0,0-1.38-7.33l36.93-14.94a11.08,11.08,0,0,0,8.64,5.34,10.39,10.39,0,1,0,1.77-20.67c-.41,0-.82,0-1.22,0L175.54,360a11.6,11.6,0,0,0,5.75-4.86l27.94,11.74a7.25,7.25,0,0,0,13.85,4.2,7.49,7.49,0,0,0,.6-3l27-2.89a6.07,6.07,0,0,0,5.82,4.14,5.84,5.84,0,1,0-6.06-6.27L223.37,366a7.17,7.17,0,0,0-4.09-4.61,7.34,7.34,0,0,0-9,2.89l-27.85-11.7a11.43,11.43,0,0,0-2.59-11.24l19.72-26.83.4.2a4.18,4.18,0,0,0,4.84-1.26L215.72,318a4.18,4.18,0,0,0,2.43,4.7,4.29,4.29,0,1,0-1.93-6l-10.67-4.48a4.35,4.35,0,0,0,.06-2.89l10.91-8.06a9.66,9.66,0,0,0,5.13,1.45,9.22,9.22,0,0,0,9.44-9,9,9,0,0,0-6.54-8.53l6.3-24.09a17,17,0,0,0,2.59.21c9.11,0,16.49-7,16.49-15.65a15,15,0,0,0-1-5.35l26.94-10.89a8.23,8.23,0,0,0,12.61,1.72l11,8.11a8,8,0,0,0-1,3.93,8.45,8.45,0,0,0,6.35,8l-3.39,12.94-.45,0a4.81,4.81,0,1,0,5.07,4.8,4.84,4.84,0,0,0-3.51-4.57l3.38-12.91a10.43,10.43,0,0,0,1.39.11,8.63,8.63,0,0,0,8.84-8.39,8.09,8.09,0,0,0-.54-2.87L330,234.46a4.35,4.35,0,0,0,3.38,2.09,4.17,4.17,0,0,0,4.6-3.68,4.11,4.11,0,0,0-3.3-4.3l-.34-17.81a5.35,5.35,0,1,0-1.43,0l.34,17.68a4.13,4.13,0,0,0-3.78,3.67,3.9,3.9,0,0,0,.1,1.28l-14.48,5.86a8.9,8.9,0,0,0-7.83-4.5,9,9,0,0,0-6.92,3.17l-10.83-8a7.18,7.18,0,0,0,1.26-3.49,7.77,7.77,0,0,0-7.3-8.22,8.31,8.31,0,0,0-2.6.19l-3-22.29a6.06,6.06,0,0,0,4.74-5.82,5.8,5.8,0,0,0-1-3.23l22.28-17.51a5.13,5.13,0,0,0,3.9,1.77,4.86,4.86,0,1,0-5.06-4.86,4.67,4.67,0,0,0,.39,1.87L280.66,186a6.4,6.4,0,0,0-4.34-1.69,6,6,0,1,0,0,12h.09l3,22.56a7.51,7.51,0,0,0-4.59,6.21,7.29,7.29,0,0,0,.19,2.39l-27,10.93a16.62,16.62,0,0,0-14.61-8.4,16.79,16.79,0,0,0-12.9,5.92l-21.67-16a11.85,11.85,0,0,0,2.27-7,12.07,12.07,0,0,0-4.88-9.61L211,188.18a5.12,5.12,0,0,0,3.88,1.75,4.86,4.86,0,1,0,0-9.72h-.24l-3.54-19a6.9,6.9,0,1,0-1.49-.14l3.62,19.36a4.89,4.89,0,0,0-3.41,4.6,4.71,4.71,0,0,0,.39,1.87l-15.11,15.57a13.38,13.38,0,0,0-6.88-1.89c-7.17,0-13,5.51-13,12.31s5.81,12.32,13,12.32a13.31,13.31,0,0,0,8.7-3.2l22,16.28a15,15,0,0,0-1.92,7.32,15.79,15.79,0,0,0,11.84,15l-6.31,24.12c-.27,0-.55,0-.83,0a9.21,9.21,0,0,0-9.45,9,8.75,8.75,0,0,0,3.11,6.63L204.93,308a3.88,3.88,0,0,0-1.61-1.23,4.07,4.07,0,0,0-3.35.09l-9-11.13a2.6,2.6,0,0,0,.31-.57,2.38,2.38,0,1,0-3.06,1.5,2.29,2.29,0,0,0,1.63,0l8.95,11.06a4.44,4.44,0,0,0-1,1.43,4.33,4.33,0,0,0,.23,3.85l-19.81,27a11.36,11.36,0,0,0-2-1.08,11.09,11.09,0,0,0-12.38,2.77L150,330.88A8.62,8.62,0,0,0,151,328a8.43,8.43,0,0,0-14.81-6.63l-30.87-16.05a15,15,0,0,0,1.21-4.2,14.76,14.76,0,0,0-.43-5.95l24.31-10.39a6.17,6.17,0,0,0,11.35-2.55,6.3,6.3,0,0,0-.46-3.3l10.8-6.3a10.41,10.41,0,0,0,.92,1.09,8.79,8.79,0,0,0,12.43.34,8.18,8.18,0,0,0,1.68-2.45l14.62,6.22a4.41,4.41,0,0,0,.93,3.94,4.14,4.14,0,1,0,.36-6,3.78,3.78,0,0,0-.84,1l-14.67-6.24a9.09,9.09,0,0,0-2.39-8.9,9.19,9.19,0,0,0-7.27-2.71l-2.15-14.58a6.45,6.45,0,0,0,3.56-1.81,7.11,7.11,0,1,0-9.78-.27,7.3,7.3,0,0,0,4.6,2.14l2.19,14.81a8.21,8.21,0,0,0-3.58,2.08,8.64,8.64,0,0,0-1.24,10.38l-10.71,6.25a6.12,6.12,0,0,0-4.31-2.7,6.22,6.22,0,0,0-6.95,5.38,6.39,6.39,0,0,0,.1,2.19l-24.24,10.36a14.57,14.57,0,0,0-7-7.23L111.91,248c.15,0,.31.07.47.09a6.23,6.23,0,1,0-2.46-.9l-13.62,38a15.41,15.41,0,0,0-2.28-.51A14.34,14.34,0,0,0,85.76,286l-14.6-28.58a10.45,10.45,0,1,0-7.63,2,10.2,10.2,0,0,0,4.45-.39L82.76,288a14.72,14.72,0,0,0-5,8.95l-27.69,3.77a4.54,4.54,0,1,0,.11,2.14l27.4-3.72a14.7,14.7,0,0,0,3.51,9.66l-8.15,9.08a6.11,6.11,0,0,0-2.62-1,6.23,6.23,0,1,0,4.16,2.5l8.12-9a14.2,14.2,0,0,0,7.56,3.43l.2,0L87.51,342.4a4.48,4.48,0,1,0,2.12.36l2.87-28.89a14.47,14.47,0,0,0,10.9-5.5l31.08,16.16a8.7,8.7,0,0,0-.28,1.25,8.43,8.43,0,0,0,14.61,6.87l13.77,10.64a12.21,12.21,0,0,0-1,1.79,11.26,11.26,0,0,0,5.78,14.84,10.75,10.75,0,0,0,6.05.67l3.09,17.76a10.43,10.43,0,0,0-8.41,9.19,9.61,9.61,0,0,0,.27,3.27l-37,15a22.78,22.78,0,0,0-20-11.51,23,23,0,0,0-17.69,8.12l-29.7-22a16.26,16.26,0,0,0,3.11-9.53c0-9.32-8-16.89-17.8-16.89-9.06,0-16.53,6.44-17.64,14.75l-30-.83a21.8,21.8,0,0,0,.31-3.64,21.78,21.78,0,0,0-1.37-7.59v15.16c.18-.49.35-1,.5-1.48l30.41.84a17,17,0,0,0,11.61,15.52L40.4,407.65h0a8.58,8.58,0,1,0,8.94,8.57,8.66,8.66,0,0,0-6.8-8.32l2.64-20.59a18.43,18.43,0,0,0,16-3.93L91.36,405.7a20.56,20.56,0,0,0-2.63,10c0,9.75,6.85,18,16.23,20.58l-8,30.47a17.49,17.49,0,0,0-2.07-.31c-9-.77-16.82,5.51-17.56,14a14.87,14.87,0,0,0,.41,4.87L38,501.44l-1.09-23.25A5.63,5.63,0,0,0,40,473.24a5.77,5.77,0,0,0-5.88-5.64,6,6,0,0,0-3,.8l-18-20.92a6,6,0,0,0,1.56-4,6.3,6.3,0,0,0-6.43-6.17,6.31,6.31,0,0,0-6.44,6.17,6.23,6.23,0,0,0,4.53,5.91L.57,484Zm.9-59.43,7-42a6.57,6.57,0,0,0,3-.81l18,21a5.46,5.46,0,0,0-1.24,3.46,5.76,5.76,0,0,0,5.87,5.64l1.11,23.69L22.55,507.7A33.47,33.47,0,0,0,1.47,491.64Z" style="mix-blend-mode:multiply;fill:url(#linear-gradient-2)"/></g></mask><linearGradient id="linear-gradient-14" x1="1252.17" y1="46.67" x2="1678.38" y2="628.23" xlink:href="#linear-gradient-13"/><filter id="luminosity-noclip-15" x="0.57" y="8.53" width="196.32" height="202.32" filterUnits="userSpaceOnUse" color-interpolation-filters="sRGB"><feFlood flood-color="#fff" result="bg"/><feBlend in="SourceGraphic" in2="bg"/></filter><mask id="mask-15" x="0.57" y="8.53" width="196.32" height="202.32" maskUnits="userSpaceOnUse"><g style="mask:url(#mask-10);filter:url(#luminosity-noclip-15)"><path d="M.57,199.41l16.3-9.16a14.45,14.45,0,0,1,2.37-17.35,13.57,13.57,0,0,1,6-3.39L22,144.63a12.13,12.13,0,0,1-7.65-3.7c-4.56-4.73-4.62-12.07-.13-16.4a11.53,11.53,0,0,1,15.52-.08L37.09,116a8,8,0,0,1-2-9.42,7.53,7.53,0,0,1,2.5-2.88L31.33,91.47a6.69,6.69,0,0,1-4.64-.5,6.37,6.37,0,0,1-3.1-8.46A5.6,5.6,0,0,1,24.66,81L10.42,64.75a7.32,7.32,0,0,1-3.08,1.12A7,7,0,0,1,.57,62.73V55.84a7,7,0,0,1,5.16-3.26,7.56,7.56,0,0,1,1.78,0l6-23.36a4.76,4.76,0,0,1-3.06-3.85,4.67,4.67,0,0,1,1.07-3.56L.57,10.58V8.53l12,12.34A5.07,5.07,0,0,1,14.83,20,4.79,4.79,0,1,1,16,29.54a5.37,5.37,0,0,1-1.06,0l-6,23.36a6.7,6.7,0,0,1,4.56,5.48,6.59,6.59,0,0,1-1.93,5.46L25.77,80.11a6.63,6.63,0,0,1,6.43-.25,6.38,6.38,0,0,1,3.1,8.46A6,6,0,0,1,32.72,91L38.9,103a8.46,8.46,0,0,1,7.15.22,8.38,8.38,0,0,1,4.71,7l14.63,1.12a3.61,3.61,0,0,1,.45-1.12,3.81,3.81,0,0,1,4-1.71l15.5-22.72a6.57,6.57,0,0,1-2.57-5.18,6.68,6.68,0,0,1,3.86-6L77.83,52.23a4.59,4.59,0,0,1-1.06.12,4.79,4.79,0,1,1,0-9.58,5.17,5.17,0,0,1,2.33.56L89.43,29.8a3.74,3.74,0,0,1-1.2-2.73,4,4,0,1,1,4,3.83,4.22,4.22,0,0,1-1.59-.32L80.27,44.15a4.69,4.69,0,0,1,1.49,3.41,4.75,4.75,0,0,1-2.58,4.19L88,74.22A7.25,7.25,0,0,1,89.72,74a7,7,0,0,1,6.06,3.4l19.08-7a4.52,4.52,0,0,1-.41-1.91,5,5,0,1,1,5,4.79,5.05,5.05,0,0,1-3.76-1.65l-19.29,7a6.53,6.53,0,0,1,.31,2,6.84,6.84,0,0,1-7,6.69,7.24,7.24,0,0,1-3.19-.75L71.2,109.11l0,0a3.82,3.82,0,1,1-4,6.51,4,4,0,0,1-2-3.17l-14.59-1.11A7.63,7.63,0,0,1,50,114a8.11,8.11,0,0,1-11,3.37,8.34,8.34,0,0,1-1.12-.68l-7.38,8.48.09.08c4.56,4.73,4.62,12.07.13,16.4a10.89,10.89,0,0,1-6,2.93l3.21,24.49a15.38,15.38,0,0,1,12.11,4.75,15.22,15.22,0,0,1,3.76,15l24.4,10.87A6.6,6.6,0,0,1,69.65,198a7.12,7.12,0,0,1,9.89,1.19l28.69-16.27a5.93,5.93,0,0,1-.28-1.79,6.13,6.13,0,0,1,6.26-6,6.2,6.2,0,0,1,6,4.49l30.49.27a6.27,6.27,0,0,1,5.47-3.1q.33,0,.66,0l3.5-20.54a4.53,4.53,0,0,1-3.06-4.21,4.64,4.64,0,0,1,4.76-4.51l.42,0,3.18-12.15a7.94,7.94,0,0,1-6-7.56,7.56,7.56,0,0,1,1-3.68L149.59,116a6.73,6.73,0,0,1-4.38,1.61,6.21,6.21,0,1,1,6.54-6.2,6,6,0,0,1-1.15,3.5L161.51,123a8.49,8.49,0,0,1,6.5-3,8.38,8.38,0,0,1,7.36,4.23l13.6-5.51a3.66,3.66,0,0,1-.1-1.2,4,4,0,1,1,3.68,4.14,4.08,4.08,0,0,1-3.18-2l-13.56,5.49a7.56,7.56,0,0,1,.51,2.69,8.1,8.1,0,0,1-8.31,7.88,9.39,9.39,0,0,1-1.31-.1l-3.17,12.13a4.53,4.53,0,0,1,3.29,4.29,4.64,4.64,0,0,1-4.75,4.52l-.3,0-3.5,20.56a6,6,0,0,1,4.2,5.66,6.27,6.27,0,0,1-12.52,0A6.32,6.32,0,0,1,150,182l-29.58-.27a6.17,6.17,0,0,1-6.22,5.38,6.33,6.33,0,0,1-4.95-2.34L80.68,201a7,7,0,0,1-1.82,8.34,7.13,7.13,0,0,1-10-1.31,7.39,7.39,0,0,1-1.44-6.63L43.1,190.58a13.43,13.43,0,0,1-2.88,4.07c-5.7,5.5-15,5.09-20.82-.92a16.39,16.39,0,0,1-1.51-1.84L.57,201.61Z" style="mix-blend-mode:multiply;fill:url(#linear-gradient-10)"/></g></mask><linearGradient id="linear-gradient-15" x1="1477.19" y1="-118.18" x2="1903.33" y2="463.29" xlink:href="#linear-gradient-13"/><linearGradient id="linear-gradient-16" x1="1241.11" y1="54.84" x2="1667.26" y2="636.3" xlink:href="#linear-gradient-13"/><linearGradient id="linear-gradient-17" x1="1307.89" y1="5.9" x2="1734.03" y2="587.36" xlink:href="#linear-gradient-13"/><linearGradient id="linear-gradient-18" x1="1187.65" y1="94.01" x2="1613.8" y2="675.49" xlink:href="#linear-gradient-13"/><filter id="luminosity-noclip-19" x="0.57" y="282.71" width="24.68" height="39.98" filterUnits="userSpaceOnUse" color-interpolation-filters="sRGB"><feFlood flood-color="#fff" result="bg"/><feBlend in="SourceGraphic" in2="bg"/></filter><mask id="mask-19" x="0.57" y="282.71" width="24.68" height="39.98" maskUnits="userSpaceOnUse"><g style="mask:url(#mask-3);filter:url(#luminosity-noclip-19)"><path d="M9.05,313.77a16.85,16.85,0,0,1-4.23-.55L.57,322.69V285a16.58,16.58,0,0,1,8.48-2.3c9,0,16.2,7,16.2,15.53S18,313.77,9.05,313.77Z" style="mix-blend-mode:multiply;fill:url(#linear-gradient-3)"/></g></mask><linearGradient id="linear-gradient-19" x1="1427.67" y1="-81.89" x2="1853.81" y2="499.58" xlink:href="#linear-gradient-13"/><linearGradient id="linear-gradient-20" x1="1371.32" y1="-40.59" x2="1797.47" y2="540.87" xlink:href="#linear-gradient-13"/><filter id="luminosity-noclip-21" x="174.44" y="231.62" width="12.51" height="12.01" filterUnits="userSpaceOnUse" color-interpolation-filters="sRGB"><feFlood flood-color="#fff" result="bg"/><feBlend in="SourceGraphic" in2="bg"/></filter><mask id="mask-21" x="174.44" y="231.62" width="12.51" height="12.01" maskUnits="userSpaceOnUse"><g style="mask:url(#mask-5);filter:url(#luminosity-noclip-21)"><path d="M187,237.62a6.26,6.26,0,1,1-6.25-6A6.13,6.13,0,0,1,187,237.62Z" style="mix-blend-mode:multiply;fill:url(#linear-gradient-5)"/></g></mask><linearGradient id="linear-gradient-21" x1="1345.4" y1="-21.66" x2="1771.61" y2="559.9" xlink:href="#linear-gradient-13"/><filter id="luminosity-noclip-22" x="480.08" y="-319.5" width="700.88" height="468.33" filterUnits="userSpaceOnUse" color-interpolation-filters="sRGB"><feFlood flood-color="#fff" result="bg"/><feBlend in="SourceGraphic" in2="bg"/></filter><mask id="mask-22" x="480.08" y="-319.5" width="700.88" height="468.33" maskUnits="userSpaceOnUse"><g style="mask:url(#mask-6);filter:url(#luminosity-noclip-22)"><path d="M1181-319.5h-8.53c-12.75,6.12-21.49,18.66-21.49,33.15a35.18,35.18,0,0,0,2.4,12.7l-12.89,5.21-2.4-51.06h-3.32l2.46,52.38-47.79,19.33a19.16,19.16,0,0,0-15-9.24,19.14,19.14,0,0,0-17,7.37l-35.57-25.09a22.14,22.14,0,0,0,5.38-14.44,22.82,22.82,0,0,0-.28-3.53l54.65-7.49a6.82,6.82,0,0,0,6.8,5.56,6.76,6.76,0,0,0,6.9-6.62,6.64,6.64,0,0,0-4.43-6.17l4.3-12.06h-3.53l-4.15,11.68a6.82,6.82,0,0,0-5.78,5l-55.35,7.58a22.87,22.87,0,0,0-10.17-13.15l5.06-11.07h-2.74l-4.51,9.88A24.4,24.4,0,0,0,1003.5-312a24.27,24.27,0,0,0-15.46,5.5l-12-13h-3.39l13.54,14.68a22.52,22.52,0,0,0-5.59,9.47l-32-.89a8.6,8.6,0,0,0-.87-2.88,12.62,12.62,0,0,0-3.85-5.34,13.4,13.4,0,0,0-1.63-1.11l1.09-13.93h-2.5l-1,12.85a13.93,13.93,0,0,0-15,4.66,14.32,14.32,0,0,0-3.24,9.43l-28.51,7.31a16,16,0,0,0-4.8-6.57,17,17,0,0,0-20.55-.31l-15.85-21.63c.21-.22.41-.44.6-.67a10.37,10.37,0,0,0,2.25-5.07H835.17a10.17,10.17,0,0,0,.29,2L789.13-290.9a7.66,7.66,0,0,0-.57-.57A7.85,7.85,0,0,0,786-293.4a7.65,7.65,0,0,0-2.47-.71L783-319.5h-2.26L781.3-294a8.62,8.62,0,0,0-5.25,3.18,5.63,5.63,0,0,0-.38.45L704.76-316a7.12,7.12,0,0,0,.69-3.46H688.39c0,.21,0,.42,0,.64a7.71,7.71,0,0,0,5.61,7.32L689.37-294a13.43,13.43,0,0,0-2-.16c-7.05,0-12.77,5.43-12.77,12.12a11.51,11.51,0,0,0,.78,4.15l-20.87,8.44a6.26,6.26,0,0,0-4.89-3,6,6,0,0,0-6.65,5.32,5.79,5.79,0,0,0,2.12,4.92l-12.44,23.34a4.73,4.73,0,0,0-1.37-.2,4.74,4.74,0,0,0-4.32,2.71L584-246a5.66,5.66,0,0,0,.12-1.17,6.1,6.1,0,0,0-6.22-6,6.1,6.1,0,0,0-6.23,6,5.91,5.91,0,0,0,3.14,5.18l-8.71,21.73a6.38,6.38,0,0,0-1.08-.09,6.1,6.1,0,0,0-6.22,6,5.82,5.82,0,0,0,1.51,3.9l-17.6,19.16a8,8,0,0,0-9.63.58,8.22,8.22,0,0,0-.47,11.6,8.7,8.7,0,0,0,5.28,2.88l1.46,17.7a9.73,9.73,0,0,0-4.4,2.19,10.24,10.24,0,0,0-2.27,12.19l-14.47,7.23c-.11-.15-.22-.29-.34-.43a6,6,0,0,0-8.28-.88l-20.25-9.93a4.14,4.14,0,0,0,.09-.87,4.58,4.58,0,0,0-4.68-4.49,4.58,4.58,0,0,0-4.68,4.49,4.59,4.59,0,0,0,4.68,4.5,4.74,4.74,0,0,0,3.42-1.43l19.88,9.75a6.15,6.15,0,0,0,1.07,6.52,6,6,0,0,0,8.41.78,5.86,5.86,0,0,0,1.37-6.84L533.36-143a10.88,10.88,0,0,0,1,1.36,10.43,10.43,0,0,0,14.68,1.36,9.52,9.52,0,0,0,2.18-2.78l16.83,8.5a5.25,5.25,0,0,0,.8,4.74,5,5,0,0,0,7,1.26,5,5,0,0,0,.9-7.07,5.05,5.05,0,0,0-7-1.26,4.55,4.55,0,0,0-1.08,1.11l-16.88-8.52A10.78,10.78,0,0,0,549.65-155a10.9,10.9,0,0,0-8.4-3.77l-1.43-17.43a7.68,7.68,0,0,0,4.36-1.86,8.22,8.22,0,0,0,.47-11.6c-.2-.22-.4-.43-.61-.63l17.55-19.1a6.28,6.28,0,0,0,3.19,1l9.76,19.71a3.09,3.09,0,0,0-1.17,2.4,3.22,3.22,0,0,0,3.29,3.15,3.23,3.23,0,0,0,3.29-3.15,3.23,3.23,0,0,0-3.29-3.16,3.08,3.08,0,0,0-.61.06l-9.5-19.18a6,6,0,0,0,4.71-5.79,6,6,0,0,0-3.56-5.4l8.67-21.62a6.43,6.43,0,0,0,1.54.19,6.26,6.26,0,0,0,5.52-3.22l43.13,9.67a1.23,1.23,0,0,0,0,.2,4.63,4.63,0,0,0,4.72,4.52,4.62,4.62,0,0,0,4.71-4.52,4.45,4.45,0,0,0-1.85-3.6l12.37-23.19a6.21,6.21,0,0,0,2.11.56,6,6,0,0,0,6.66-5.31,5.6,5.6,0,0,0-.16-1.84L676-276.4a12.85,12.85,0,0,0,11.31,6.51,13,13,0,0,0,10-4.59L714.14-262a9.15,9.15,0,0,0-1.76,5.39,9.35,9.35,0,0,0,3.69,7.38l-20,21.82a6.06,6.06,0,0,0-3-.83,5.77,5.77,0,0,0-5.88,5.65,5.55,5.55,0,0,0,1.94,4.19l-34.27,28.89a3.4,3.4,0,0,0-1.82-.53,3.23,3.23,0,0,0-3.29,3.16,3.22,3.22,0,0,0,3.29,3.15,3.22,3.22,0,0,0,3.28-3.15,3,3,0,0,0-.35-1.39l34.63-29.2A6,6,0,0,0,693-217a6.42,6.42,0,0,0,1.16-.11l4.18,19.16a6,6,0,0,0-4.44,5.72,6.11,6.11,0,0,0,6.23,6,6.11,6.11,0,0,0,6.22-6,6.11,6.11,0,0,0-6.22-6H700l-4.24-19.46a5.6,5.6,0,0,0,3.14-5,5.5,5.5,0,0,0-1.53-3.79l20.15-21.93a10.46,10.46,0,0,0,4.94,1.24,9.81,9.81,0,0,0,10.06-9.54,9.81,9.81,0,0,0-10.06-9.55,10.27,10.27,0,0,0-6.74,2.48l-17.05-12.61a11.56,11.56,0,0,0,1.49-5.68A12.22,12.22,0,0,0,691-293.64l4.6-17.59a6.79,6.79,0,0,0,.78,0,8.21,8.21,0,0,0,4.25-1.18,7.17,7.17,0,0,0,2.65-1.57l71.18,25.71a8.09,8.09,0,0,0-.54,2.87A8.56,8.56,0,0,0,782.6-277a8.55,8.55,0,0,0,8.72-8.37,7.93,7.93,0,0,0-.79-3.47l45.89-26.36a9.36,9.36,0,0,0,2.16,2.56,9.71,9.71,0,0,0,11.55.32L866-290.71a20.66,20.66,0,0,0-1.94,2c-6.18,7.6-5.34,18.51,1.87,24.38a16,16,0,0,0,5.15,2.79l-8.91,28.95-.37,0a9.88,9.88,0,0,0-10.45,9.27,9.77,9.77,0,0,0,4.1,8.47l-15.82,37.19a17.36,17.36,0,0,0-5-1,17.13,17.13,0,0,0-6.85,1l-14.22-27.22a7.14,7.14,0,0,0,2.89-5.34,7.23,7.23,0,0,0-6.86-7.57,7.24,7.24,0,0,0-7.65,6.78,7.23,7.23,0,0,0,6.87,7.56,7.33,7.33,0,0,0,2.53-.31l14.17,27.14a16.85,16.85,0,0,0-7.74,8.78L772.63-180.2a4.87,4.87,0,0,0,.06-.55,7.21,7.21,0,0,0-6.86-7.56,7.22,7.22,0,0,0-7.64,6.77,7.22,7.22,0,0,0,6.86,7.56,7.27,7.27,0,0,0,6.83-3.84l45.17,12.36a15.88,15.88,0,0,0-.39,2.68,16.56,16.56,0,0,0,2.33,9.45L787.2-133.85a12.32,12.32,0,0,0-8.61-4.17,12.25,12.25,0,0,0-13,11.49,12.25,12.25,0,0,0,11.63,12.82,13.1,13.1,0,0,0,2-.07l4.58,20.66a13.35,13.35,0,0,0-6.43,5.94l-33-12.14a8.53,8.53,0,0,0-5.36-9.42,8.59,8.59,0,0,0-10.94,5.27,8.89,8.89,0,0,0-.15,5.71l-20.3,11.44a4.59,4.59,0,0,0-3.09-1.18A4.44,4.44,0,0,0,700-83.16a4.43,4.43,0,0,0,4.52,4.34,4.43,4.43,0,0,0,4.52-4.34,4.56,4.56,0,0,0-.13-1L729-95.51a8.27,8.27,0,0,0,4,3.14,8.51,8.51,0,0,0,10.25-3.83l32.94,12.11a13.28,13.28,0,0,0,3.59,12.9L758.33-39a4,4,0,0,0-.47-.21,4.86,4.86,0,0,0-5.56,1.72l-12.86-4.73a4.87,4.87,0,0,0-3.07-5.33,4.91,4.91,0,0,0-6.25,3,4.91,4.91,0,0,0,2.81,6.34,4.88,4.88,0,0,0,6-2.44L751.54-36a5.08,5.08,0,0,0,.09,3.36L737.37-21.09a3.27,3.27,0,0,0-1-.58,3.17,3.17,0,0,0-4,2,3.18,3.18,0,0,0,1.82,4.1,3.17,3.17,0,0,0,4-2,3.19,3.19,0,0,0,0-2.11l14.21-11.53a4.61,4.61,0,0,0,1.94,1.34,4.69,4.69,0,0,0,3.88-.29l11,12.44A3.26,3.26,0,0,0,769-17a2.84,2.84,0,0,0,.59,2.73L756.15,10.92a4.78,4.78,0,0,0-5.68,2.51L707.54,3.8a5.66,5.66,0,0,0,.12-1.17,6.24,6.24,0,0,0-12.46,0,5.93,5.93,0,0,0,3.14,5.18l-8.71,21.73a6.39,6.39,0,0,0-5.75,1.95l-21.69-5.84v0a3.29,3.29,0,1,0-3.28,3.15,3.32,3.32,0,0,0,2.81-1.54l21.18,5.7a5.75,5.75,0,0,0,1,6.39l-18.33,20a6,6,0,0,0-3-.82,5.65,5.65,0,1,0,5.88,5.64,5.46,5.46,0,0,0-1.53-3.78l18.29-19.91a6.42,6.42,0,0,0,3.45,1,6.11,6.11,0,0,0,6.23-6,6,6,0,0,0-3.56-5.4l8.66-21.62a6.49,6.49,0,0,0,1.54.19A6.28,6.28,0,0,0,707,5.38L750.08,15c0,.07,0,.14,0,.21a4.72,4.72,0,0,0,9.43,0,4.46,4.46,0,0,0-1.86-3.6L771-13.47a2.81,2.81,0,0,0,3.26-1.95,2.8,2.8,0,0,0-1.81-3.52,2.7,2.7,0,0,0-1.9.13l-11-12.36a5.12,5.12,0,0,0,1-1.71,5,5,0,0,0-.47-4.45l21.55-32.32a13.48,13.48,0,0,0,2.35,1.15,12.9,12.9,0,0,0,14.22-3.87L816.49-59.6a5,5,0,0,0,.72,5.51,4.94,4.94,0,0,0,6.93.79,4.41,4.41,0,0,0,.88-1l.12-.14,17,7.24a10.57,10.57,0,0,0,2.77,10.34,10.71,10.71,0,0,0,8.45,3.15l2.51,16.94a7.5,7.5,0,0,0-4.15,2.09A8,8,0,0,0,852-3.33,8,8,0,0,0,863.38-3a8,8,0,0,0-.28-11.36,8.4,8.4,0,0,0-5.34-2.48L855.22-34a9.54,9.54,0,0,0,4.15-2.42,10,10,0,0,0,1.44-12.06l13.68-8a4.49,4.49,0,0,0,.36.39,5.85,5.85,0,0,0,8.27.23,5.85,5.85,0,0,0-.21-8.26,5.84,5.84,0,0,0-8.26-.23,5.71,5.71,0,0,0-.9,6.76l-13.67,8A11.34,11.34,0,0,0,859-50.91a10.21,10.21,0,0,0-14.43-.4,9.34,9.34,0,0,0-2,2.85L825.8-55.62a1.42,1.42,0,0,0,.08-.18,4.91,4.91,0,0,0-2.81-6.34,4.68,4.68,0,0,0-3.62.16,4.63,4.63,0,0,0-1.26.53l-18.43-13a13.88,13.88,0,0,0,1-2.13,13.08,13.08,0,0,0-7.5-16.91,12.46,12.46,0,0,0-7-.46l-4.52-20.38a12.18,12.18,0,0,0,8.53-10.92,12,12,0,0,0-.85-5.12L821.56-150a17.07,17.07,0,0,0,10.81,5l6.85,31.73a5.19,5.19,0,0,0-3.32,4.55,5.21,5.21,0,0,0,5,5.47,5.23,5.23,0,0,0,5.53-4.9,5.23,5.23,0,0,0-4.7-5.45L834.92-145A17.08,17.08,0,0,0,845.8-150L857-141.35a7.09,7.09,0,0,0-.92,3.13,7.2,7.2,0,0,0,6.85,7.56,7.22,7.22,0,0,0,7.65-6.77,7.22,7.22,0,0,0-6.87-7.56,7.28,7.28,0,0,0-5.12,1.72l-11.19-8.58a16.66,16.66,0,0,0,3.29-9.07v-.23l33.39.72a2.29,2.29,0,0,0,.07.28,5.1,5.1,0,0,0,.65,1.82,5.55,5.55,0,0,0,7.65,1.74,5.56,5.56,0,0,0,2.14-7.55,5.22,5.22,0,0,0-1.11-1.31L904.66-183a11.86,11.86,0,0,0,12-1.2,11.94,11.94,0,0,0,5-8.8l19.25.3a8.37,8.37,0,0,0,1.58,5A9,9,0,0,0,955.14-186a9,9,0,0,0,2.41-12.55,9,9,0,0,0-12.65-1.76,9.49,9.49,0,0,0-3.72,5.48l-19.55-.3a10.65,10.65,0,0,0-1.93-5,11.28,11.28,0,0,0-13.11-3.8l-6.37-16.62.51-.33a6.58,6.58,0,0,0,1.75-9.13,6.58,6.58,0,0,0-9.21-1.27,6.56,6.56,0,0,0-1.75,9.12,6.42,6.42,0,0,0,7.34,2.23l6.36,16.61a13.74,13.74,0,0,0-1.6.95c-5.29,3.79-6.66,10.93-3.07,16a10.81,10.81,0,0,0,2.81,2.68l-11.11,17.53a5.74,5.74,0,0,0-5.28.36l-.17.11a5.2,5.2,0,0,0-2.45,2.86l-33.71-.74a16.85,16.85,0,0,0-7.36-12.12l15.93-37.44a10.2,10.2,0,0,0,1.47.21,9.88,9.88,0,0,0,10.45-9.27,9.84,9.84,0,0,0-6.79-9.84L873.21-261a17.88,17.88,0,0,0,16.92-6.49,18,18,0,0,0,3.81-14.77l28.08-7.2a12.74,12.74,0,0,0,4.26,6.61c5.67,4.61,14.22,3.51,19.08-2.47a14.33,14.33,0,0,0,3.23-8.47l31.45.87a21.54,21.54,0,0,0-.32,3.69,22.62,22.62,0,0,0,11.52,19.54l-14.43,32.12a16.8,16.8,0,0,0-4.28-.56c-9,0-16.39,7-16.39,15.71s7.34,15.72,16.39,15.72,16.39-7,16.39-15.72a15.54,15.54,0,0,0-7.53-13.21l14.4-32a24.8,24.8,0,0,0,7.71,1.23,24.25,24.25,0,0,0,16-6l36.2,25.53a17.06,17.06,0,0,0-1.68,6.06,18.09,18.09,0,0,0,11.7,18.19l-9.33,35.67a26.76,26.76,0,0,0-4.13-.34c-14.5,0-26.26,11.16-26.26,24.93a23.49,23.49,0,0,0,1.61,8.51l-42.9,17.36a12.88,12.88,0,0,0-10-6.21c-7-.6-13.11,4.29-13.68,10.92s4.64,12.49,11.62,13.09a13.54,13.54,0,0,0,1.42,0l3.66,21A13.38,13.38,0,0,0,971-91.94l-32.45-13.64a8.52,8.52,0,0,0-4.93-9.65,8.58,8.58,0,0,0-11.16,4.77,8.82,8.82,0,0,0-.7,3.5l-31.41,3.35a7,7,0,0,0-6.75-4.8,6.92,6.92,0,0,0-7.06,6.77,6.93,6.93,0,0,0,7.06,6.78,7,7,0,0,0,7-6.28l31.49-3.36a8.33,8.33,0,0,0,4.75,5.35,8.52,8.52,0,0,0,10.41-3.36l32.35,13.6a13.27,13.27,0,0,0,3,13L949.78-44.7a4,4,0,0,0-.47-.22,4.83,4.83,0,0,0-5.62,1.46l-12.64-5.31a4.88,4.88,0,0,0-2.82-5.47,4.91,4.91,0,0,0-6.38,2.73A4.9,4.9,0,0,0,924.37-45a4.88,4.88,0,0,0,6.1-2.16L942.86-42a5,5,0,0,0-.07,3.35L930.12-29.3a11.28,11.28,0,0,0-6-1.67c-6.06,0-11,4.66-11,10.4a10.48,10.48,0,0,0,7.6,9.91l-7.32,28a20.06,20.06,0,0,0-3-.25c-10.58,0-19.15,8.14-19.15,18.18a17.35,17.35,0,0,0,1.17,6.21L861.19,54.12a9.54,9.54,0,0,0-14.64-2l-12.73-9.42a9.3,9.3,0,0,0,1.2-4.55,9.84,9.84,0,0,0-7.38-9.35l3.93-15,.52,0A5.74,5.74,0,0,0,838,8.21a5.89,5.89,0,0,0-11.76,0,5.61,5.61,0,0,0,4.08,5.31l-3.93,15a10.6,10.6,0,0,0-1.61-.13,10,10,0,0,0-10.27,9.75,9.25,9.25,0,0,0,.63,3.33l-16.78,6.78a5,5,0,0,0-3.92-2.42,4.7,4.7,0,0,0-1.51,9.27l.39,20.68a6.23,6.23,0,1,0,1.66,0l-.39-20.54A4.79,4.79,0,0,0,799,51a4.58,4.58,0,0,0-.12-1.49l16.82-6.81a10.34,10.34,0,0,0,9.1,5.23,10.46,10.46,0,0,0,8-3.68l12.58,9.3a8.43,8.43,0,0,0-1.46,4.06,9,9,0,0,0,8.47,9.55,9.5,9.5,0,0,0,3-.23l3.51,25.89a7,7,0,0,0-5.51,6.76,6.77,6.77,0,0,0,1.14,3.76l-25.88,20.33a6,6,0,0,0-4.54-2.05,5.65,5.65,0,1,0,5.89,5.65,5.46,5.46,0,0,0-.46-2.18l26.07-20.49a7.4,7.4,0,0,0,5,2,7,7,0,1,0,0-14h-.1L857,66.35a8.71,8.71,0,0,0,5.34-7.21,8.53,8.53,0,0,0-.23-2.77L893.5,43.68a19.69,19.69,0,0,0,32,2.87l25.16,18.63A13.73,13.73,0,0,0,948,73.25a14,14,0,0,0,5.67,11.17L936.59,102a6,6,0,0,0-4.51-2,5.65,5.65,0,1,0,0,11.29h.28l4.12,22a7.78,7.78,0,1,0,8.12,7.77,7.84,7.84,0,0,0-6.4-7.6L934,111a5.67,5.67,0,0,0,4-5.33,5.45,5.45,0,0,0-.45-2.18l17.54-18.09a15.53,15.53,0,0,0,8,2.2c8.33,0,15.08-6.41,15.08-14.31S971.38,59,963.05,59a15.44,15.44,0,0,0-10.11,3.72L927.39,43.75a17.46,17.46,0,0,0,2.23-8.5,18.33,18.33,0,0,0-13.75-17.43l7.32-28c.33,0,.65,0,1,0a10.7,10.7,0,0,0,11-10.42,10.12,10.12,0,0,0-3.61-7.7l12.06-8.89a4.76,4.76,0,0,0,1.87,1.42,4.71,4.71,0,0,0,3.89-.11l10.47,12.93a2.53,2.53,0,0,0-.36.67,2.81,2.81,0,0,0,1.64,3.6,2.81,2.81,0,0,0,3.56-1.75A2.8,2.8,0,0,0,963-24a2.75,2.75,0,0,0-1.9.05L950.71-36.8a5.22,5.22,0,0,0,1.12-1.66,5,5,0,0,0-.27-4.47l23-31.31A13,13,0,0,0,976.86-73a12.88,12.88,0,0,0,14.38-3.21l16.11,12.44a9.91,9.91,0,0,0-1.08,3.35,9.88,9.88,0,0,0,8.43,11.13,9.79,9.79,0,0,0,8.77-3.43L1059.32-34a17.43,17.43,0,0,0-1.39,4.87,17.18,17.18,0,0,0,.49,6.92l-28.24,12.07a7.12,7.12,0,0,0-5.11-3.3A7.24,7.24,0,0,0,1017-7.23a7.47,7.47,0,0,0,.53,3.83L1005,3.92a10.59,10.59,0,0,0-1.07-1.27,10.21,10.21,0,0,0-14.43-.4,9.68,9.68,0,0,0-2,2.85l-17-7.22a5.15,5.15,0,0,0-1.07-4.59,4.94,4.94,0,0,0-6.94-.78,4.94,4.94,0,0,0-.43,7,4.93,4.93,0,0,0,6.94.79A4.55,4.55,0,0,0,970-.9l17,7.26a10.55,10.55,0,0,0,2.77,10.33,10.66,10.66,0,0,0,8.45,3.15l2.5,16.94a7.5,7.5,0,0,0-4.14,2.09,8.26,8.26,0,0,0,11.64,11.68,8,8,0,0,0-.28-11.36,8.48,8.48,0,0,0-5.34-2.48l-2.54-17.2a9.5,9.5,0,0,0,4.15-2.42A10,10,0,0,0,1005.72,5l12.45-7.26a7.11,7.11,0,0,0,5,3.14,7.22,7.22,0,0,0,8.07-6.25,7.23,7.23,0,0,0-.12-2.55l28.16-12a17,17,0,0,0,8.15,8.4l-15.8,44a4.86,4.86,0,0,0-.55-.1,7.22,7.22,0,1,0,2.86,1l15.82-44.08a16.44,16.44,0,0,0,2.65.59,16.7,16.7,0,0,0,9.6-1.59l17,33.2a12.14,12.14,0,1,0,8.87-2.35,12.06,12.06,0,0,0-5.17.45l-17.17-33.61a17.07,17.07,0,0,0,5.81-10.39l32.16-4.38a5.22,5.22,0,0,0,4.28,3.67,5.23,5.23,0,0,0,5.84-4.53,5.22,5.22,0,0,0-4.46-5.89,5.2,5.2,0,0,0-5.79,4.26l-31.82,4.33a17.08,17.08,0,0,0-4.09-11.23l9.48-10.54a7,7,0,0,0,3,1.16,7.21,7.21,0,0,0,8.07-6.25,7.21,7.21,0,0,0-6.16-8.14,7.22,7.22,0,0,0-8.07,6.25,7.3,7.3,0,0,0,1.32,5.25l-9.42,10.49a16.55,16.55,0,0,0-8.79-4l-.23,0L1080-77.12a5.24,5.24,0,0,0,4.76-4.56,5.23,5.23,0,0,0-4.46-5.89,5.22,5.22,0,0,0-5.84,4.52,5.24,5.24,0,0,0,3.08,5.51L1074.17-44a16.81,16.81,0,0,0-12.66,6.4l-36.09-18.77a11.62,11.62,0,0,0,.32-1.47A9.89,9.89,0,0,0,1017.31-69a9.78,9.78,0,0,0-8.54,3.17l-16-12.37a13.31,13.31,0,0,0,1.11-2.08,13.1,13.1,0,0,0-6.72-17.24,12.46,12.46,0,0,0-7-.77l-3.6-20.63a12.14,12.14,0,0,0,9.78-10.68,11.4,11.4,0,0,0-.32-3.79l43-17.41a26.46,26.46,0,0,0,23.26,13.37,26.75,26.75,0,0,0,20.54-9.42l34.51,25.53a18.86,18.86,0,0,0-3.61,11.07c0,10.83,9.25,19.62,20.66,19.62,10.53,0,19.21-7.48,20.5-17.13l34.83,1a25.69,25.69,0,0,0-.36,4.23,25.13,25.13,0,0,0,1.6,8.82v-17.61c-.21.56-.41,1.14-.58,1.72l-35.33-1a19.72,19.72,0,0,0-13.48-18l3.12-24.3h0a10.18,10.18,0,0,0,10.38-10,10.18,10.18,0,0,0-10.38-10,10.18,10.18,0,0,0-10.38,10,10.06,10.06,0,0,0,7.9,9.67l-3.07,23.92a21.3,21.3,0,0,0-4.76-.53,21.18,21.18,0,0,0-13.85,5.09l-35-25.93a23.73,23.73,0,0,0,3.06-11.65c0-11.32-8-20.87-18.85-23.91l9.25-35.39a19.06,19.06,0,0,0,2.42.36c10.41.89,19.53-6.4,20.38-16.27a16.93,16.93,0,0,0-.47-5.66l46.16-18.67,1.27,27a6.53,6.53,0,0,0-3.54,5.75,6.69,6.69,0,0,0,6.82,6.55,6.94,6.94,0,0,0,3.49-.93l20.86,24.3a7,7,0,0,0-1.81,4.68,7.32,7.32,0,0,0,7.47,7.17,7.32,7.32,0,0,0,7.47-7.17,7.23,7.23,0,0,0-5.26-6.86l6.75-40.29Zm-1,69-8.17,48.81a7.63,7.63,0,0,0-3.44.93l-20.92-24.36a6.34,6.34,0,0,0,1.44-4,6.69,6.69,0,0,0-6.83-6.55l-1.29-27.52,14.72-5.95A38.9,38.9,0,0,0,1179.91-250.47Z" style="mix-blend-mode:multiply;fill:url(#linear-gradient-6)"/></g></mask><linearGradient id="linear-gradient-22" x1="584.87" y1="1177.01" x2="1079.86" y2="1852.43" gradientTransform="matrix(1, 0, 0, -1, 0, 1400.93)" xlink:href="#linear-gradient-13"/><linearGradient id="linear-gradient-23" x1="646.26" y1="1132.03" x2="1141.24" y2="1807.42" gradientTransform="matrix(1, 0, 0, -1, 0, 1400.93)" xlink:href="#linear-gradient-13"/><linearGradient id="linear-gradient-24" x1="551.65" y1="1201.36" x2="1046.64" y2="1876.77" gradientTransform="matrix(1, 0, 0, -1, 0, 1400.93)" xlink:href="#linear-gradient-13"/></defs><title>Asset 5</title><g id="Layer_2" data-name="Layer 2"><g id="black"><g style="clip-path:url(#clip-path)"><rect y="7.92" width="815.57" height="317" style="fill:#f99e1f"/><path d="M816.57,211.14V325.92H140.3v.64q-15.7-12-29.82-24.77C35.26,233.66-4.68,149.58,8.49,65.7A207.1,207.1,0,0,1,27.51,6v1H816.57Z" style="fill:#f99e1f"/><path d="M816.57,209.7V325.92H155.19v4q-4-2.91-7.87-5.88-15.56-11.87-29.55-24.54C43.26,232,3.7,148.72,16.74,65.63A205.08,205.08,0,0,1,35.58,6.45v.47h781Z" style="fill:#f99e1f"/><path d="M816.57,208.27V325.92H162.13v1.44c-2.63-1.93-5.23-3.86-7.79-5.82q-15.42-11.76-29.27-24.31C51.26,230.37,12.07,147.86,25,65.55A203.06,203.06,0,0,1,43.66,6.93Q45.36,3.47,47.2.06V6.92H816.57Z" style="fill:#f99f1f"/><path d="M816.57,206.83V325.92H177v4.54q-8-5.62-15.64-11.44-15.25-11.64-29-24.07C59.26,228.73,20.45,147,33.24,65.47A201.33,201.33,0,0,1,51.73,7.41C52.85,5.12,54,2.86,55.23.61V6.92H816.57Z" style="fill:#f9a01f"/><path d="M816.57,205.39V325.92H183.86v1.91q-7.94-5.55-15.49-11.33Q153.25,305,139.66,292.66C67.26,227.08,28.82,146.14,41.49,65.4A199.46,199.46,0,0,1,59.8,7.89q1.66-3.39,3.47-6.74V6.92h753.3Z" style="fill:#f9a01f"/><path d="M816.57,204v122H198.66v4.74q-4-2.7-7.94-5.45-7.84-5.5-15.33-11.22-15-11.42-28.43-23.61C75.26,225.43,37.19,145.29,49.74,65.32A197.43,197.43,0,0,1,67.87,8.37C69,6.13,70.12,3.91,71.31,1.7V6.92H816.57Z" style="fill:#f9a11f"/><path d="M816.57,202.52v123.4H205.45V328c-2.65-1.78-5.27-3.59-7.86-5.4q-7.77-5.44-15.18-11.1-14.83-11.31-28.15-23.38C83.26,223.79,45.56,144.43,58,65.25A195.52,195.52,0,0,1,76,8.86c1.09-2.22,2.23-4.43,3.4-6.61V6.92H816.57Z" style="fill:#f9a21f"/><path d="M816.57,201.09V325.92H220.19v4.62a453.52,453.52,0,0,1-58.64-44.72C91.26,222.14,53.94,143.56,66.24,65.17A193.69,193.69,0,0,1,84,9.34C85.1,7.14,86.23,5,87.39,2.8V6.92H816.57Z" style="fill:#f9a21f"/><path d="M816.57,199.65V325.92H226.9v1.89a448.1,448.1,0,0,1-58.05-44.28C99.26,220.5,62.31,142.7,74.49,65.09A192,192,0,0,1,92.09,9.82c1.07-2.18,2.18-4.33,3.34-6.48V6.92H816.57Z" style="fill:#f9a31f"/><path d="M816.57,198.21V325.92h-575v4.18q-4-2.48-8-5a444.32,444.32,0,0,1-57.47-43.83C107.26,218.85,70.68,141.84,82.74,65A189.48,189.48,0,0,1,100.16,10.3q1.59-3.23,3.3-6.41v3H816.57Z" style="fill:#f9a41f"/><path d="M816.57,196.78V325.92H256.24v6.26q-8.12-4.8-15.92-9.83A439.11,439.11,0,0,1,183.44,279C115.26,217.2,79.05,141,91,64.94a187.75,187.75,0,0,1,17.24-54.16q1.58-3.19,3.27-6.34V6.92H816.57Z" style="fill:#f9a51f"/><path d="M816.57,195.35V325.92H262.79v3.44q-8-4.77-15.75-9.74a434.86,434.86,0,0,1-56.3-42.94C123.26,215.56,87.43,140.12,99.24,64.86A185.86,185.86,0,0,1,116.3,11.27c1-2.11,2.13-4.21,3.24-6.28V6.92h697Z" style="fill:#f9a51f"/><path d="M816.57,193.91v132H269.33v.6q-7.95-4.71-15.59-9.63A430.17,430.17,0,0,1,198,274.4C131.26,213.91,95.8,139.26,107.49,64.79a184.09,184.09,0,0,1,16.88-53q1.56-3.13,3.21-6.21V6.92h689Z" style="fill:#f9a61f"/><path d="M816.57,192.48V325.92H291.91v6.87q-16.34-8.87-31.46-18.63a425.71,425.71,0,0,1-55.12-42C139.26,212.27,104.17,138.4,115.74,64.71a182,182,0,0,1,16.71-52.48Q135.5,6,139,0V6.92H816.57Z" style="fill:#f9a71f"/><path d="M816.57,191V325.92H298.29v3.94q-16.16-8.78-31.13-18.43a422,422,0,0,1-54.53-41.59C147.26,210.62,112.55,137.54,124,64.64a180.21,180.21,0,0,1,16.53-51.93q3-6.12,6.5-12.07V6.92H816.57Z" style="fill:#f9a71f"/><path d="M816.57,189.61V325.92H304.66v1q-16-8.7-30.79-18.24a416.61,416.61,0,0,1-53.94-41.15c-64.67-58.58-99-130.87-87.69-203A178.22,178.22,0,0,1,148.59,13.2q3-6.07,6.43-11.95V6.92H816.57Z" style="fill:#f9a81f"/><path d="M816.57,188.17V325.92H327.13v6.46Q319,328.3,311,324q-15.81-8.6-30.45-18a411.58,411.58,0,0,1-53.37-40.7c-64-57.94-97.93-129.45-86.73-200.79a176.49,176.49,0,0,1,16.17-50.8q3-6,6.37-11.81V6.92H816.57Z" style="fill:#f9a91f"/><path d="M816.57,186.73V325.92H333.33v3.44q-8.08-4-15.91-8.28-15.65-8.5-30.12-17.84A407,407,0,0,1,234.52,263c-63.26-57.31-96.86-128-85.78-198.58a174.42,174.42,0,0,1,16-50.25q2.94-5.94,6.3-11.68V6.92H816.57Z" style="fill:#f9a91f"/><path d="M816.57,185.3V325.92h-477v.42q-8-4-15.74-8.19-15.46-8.4-29.78-17.64a403.32,403.32,0,0,1-52.19-39.8C179.26,204,146,134.1,157,64.33a172.4,172.4,0,0,1,15.82-49.69q2.9-5.86,6.22-11.55V6.92H816.57Z" style="fill:#f9aa1f"/><path d="M816.57,183.86V325.35h5.25q-3.2,1.9-6.47,3.77v-3.2H361.82V331c-43.6-19.79-81.78-44.53-112.71-72.55-61.85-56-94.7-125.18-83.87-194.17a170.57,170.57,0,0,1,15.64-49.13Q183.75,9.33,187,3.7V6.92H816.57Z" style="fill:#f9ab1f"/><path d="M816.57,182.43V322.3h6q-3.17,1.9-6.4,3.73v-.11H367.84v1.94c-43.11-19.57-80.85-44-111.43-71.72-61.15-55.39-93.62-123.76-82.92-192A168.24,168.24,0,0,1,189,15.61Q191.79,9.88,195,4.32v2.6H816.57Z" style="fill:#f9ac1f"/><path d="M816.57,181V323h.5c-4.27,2.41-8.63,4.76-13.09,7v-4H390.08v5.87q-8.24-3.41-16.22-7c-42.61-19.35-79.93-43.52-110.15-70.9-60.46-54.76-92.55-122.34-82-189.76a166.22,166.22,0,0,1,15.29-48q2.79-5.67,6-11.16v2H816.57Z" style="fill:#f9ac1f"/><path d="M816.57,179.56v140.3h1.36q-6.33,3.58-12.94,6.94v-.88H395.91v2.67q-8.15-3.34-16-6.94c-42.11-19.12-79-43-108.87-70.08C211.25,197.45,179.53,130.66,190,64A164.45,164.45,0,0,1,205.1,16.57q2.76-5.61,5.94-11V6.92H816.57Z" style="fill:#f9ad1f"/><path d="M816.57,178.12V316.77h2.23q-12.51,7.1-26.14,13.25v-4.1H418.05v5.89q-16.55-6.17-32.16-13.27c-41.62-18.9-78.07-42.5-107.59-69.25C219.25,195.81,187.9,129.8,198.24,64a162.72,162.72,0,0,1,14.93-46.9q2.73-5.54,5.87-10.9v.77H816.57Z" style="fill:#f9ae1f"/><path d="M816.57,176.69v137h3.09q-12.36,7-25.82,13.09v-.86H423.68v2.62q-16.33-6.09-31.77-13.11c-41.13-18.67-77.14-42-106.31-68.42-58.35-52.85-89.33-118.07-79.11-183.13a160.7,160.7,0,0,1,14.75-46.34q2.7-5.47,5.81-10.78v.16H816.57Z" style="fill:#f9ae1f"/><path d="M816.57,175.25V310.6h3.95q-12.21,6.91-25.51,12.94-6.64,3-13.54,5.77v-3.39H445.67v5.14q-8.28-2.78-16.36-5.78-16.14-6-31.39-12.95c-40.63-18.45-76.21-41.5-105-67.6-57.64-52.21-88.24-116.65-78.15-180.93A159,159,0,0,1,229.31,18q2.67-5.41,5.74-10.64,1.53-2.62,3.16-5.2V6.92H816.57Z" style="fill:#f9af1f"/><path d="M816.57,173.82v133.7h4.81q-12.06,6.83-25.2,12.77T769,331.22v-5.3H451.1v1.8Q442.92,325,435,322q-16-5.94-31-12.79c-40.14-18.22-75.28-41-103.75-66.78C243.25,190.87,213,127.22,223,63.72a156.85,156.85,0,0,1,14.4-45.22Q240,13.16,243.05,8q1.51-2.6,3.12-5.13V6.92h570.4Z" style="fill:#f9b01f"/><path d="M816.57,172.38V304.43h5.67q-11.91,6.75-24.88,12.62t-26.9,10.8v-1.93H472.9v3.63A489.56,489.56,0,0,1,410,306.11c-39.64-18-74.35-40.48-102.47-66-56.23-50.94-86.09-113.8-76.24-176.52A154.71,154.71,0,0,1,245.46,19q2.59-5.28,5.59-10.38c1-1.71,2-3.39,3.09-5.07V6.92H816.57Z" style="fill:#f9b11e"/><path d="M816.57,171V301.34h6.54Q811.35,308,798.53,313.8T772,324.46q-6.88,2.44-14,4.64v-3.18H478.12v.23A485.3,485.3,0,0,1,416,303c-39.15-17.78-73.42-40-101.19-65.13-55.53-50.3-85-112.38-75.29-174.31a153,153,0,0,1,14-44.11c1.71-3.47,3.56-6.89,5.52-10.25,1-1.68,2-3.35,3.05-5V6.92H816.57Z" style="fill:#f9b11e"/><path d="M816.57,169.51v132h1.53q-3,1.59-6,3.13-6.06,3.08-12.39,5.93a352.92,352.92,0,0,1-54.22,19.19v-3.83H516.36v5.45q-16.86-3.81-33-8.62A477.41,477.41,0,0,1,422,299.9c-38.64-17.54-72.48-39.47-99.9-64.3-54.83-49.67-83.94-111-74.34-172.11A151.22,151.22,0,0,1,261.6,19.94,164.48,164.48,0,0,1,273.26,0V6.92H816.57Z" style="fill:#fab21e"/><path d="M816.57,168.07v130.3H819c-2,1-3.93,2.08-5.93,3.09q-6,3-12.23,5.86a348.75,348.75,0,0,1-53.54,18.94v-.34H521.17v1.94q-16.63-3.75-32.59-8.5A472.64,472.64,0,0,1,428,296.79c-38.15-17.32-71.56-39-98.63-63.48-54.12-49-82.86-109.53-73.38-169.89a148.9,148.9,0,0,1,13.69-43A160.8,160.8,0,0,1,281.18.77V6.92H816.57Z" style="fill:#fab31e"/><path d="M816.57,166.64v128.6H820q-2.9,1.54-5.84,3.05-5.93,3-12.08,5.78a343.61,343.61,0,0,1-52.84,18.71q-14,3.75-28.82,6.54v-3.4H559.45v4.83C377.7,302.22,245.54,182.5,264.24,63.34a147,147,0,0,1,13.51-42.43A160,160,0,0,1,289.1,1.5V6.92H816.57Z" style="fill:#fab31e"/><path d="M816.57,165.2V292.11h4.34c-1.9,1-3.83,2-5.77,3q-5.83,3-11.92,5.71c-32.4,14.65-69.84,24.75-110.38,29.43v-4.34h-129v1.23C384.46,299,254,180.86,272.49,63.26a145.13,145.13,0,0,1,13.33-41.87A157.83,157.83,0,0,1,297,2.24V6.92H816.57Z" style="fill:#fab41e"/><path d="M816.57,163.77V289h5.28q-2.82,1.51-5.7,3-5.76,2.91-11.75,5.63c-32,14.45-68.92,24.42-108.92,29a473.26,473.26,0,0,1-127.3-3.07c-177-27.77-305.65-144.34-287.44-260.36a143.27,143.27,0,0,1,13.15-41.32A155.71,155.71,0,0,1,305,3V6.92H816.57Z" style="fill:#fab51e"/><path d="M816.57,162.33V288.79h.59q-5.67,2.88-11.59,5.55c-31.54,14.27-68,24.09-107.44,28.64a467.08,467.08,0,0,1-125.59-3C398,292.56,271,177.57,289,63.11a141.61,141.61,0,0,1,13-40.75A153,153,0,0,1,312.87,3.71V6.92h503.7Z" style="fill:#fab61e"/><path d="M816.57,160.9V285.62h1.61q-5.59,2.85-11.44,5.48C744.52,319.23,663,329.88,576.91,316.37,404.73,289.34,279.52,175.92,297.23,63A139.34,139.34,0,0,1,310,22.84,152,152,0,0,1,320.79,4.45V6.92H816.57Z" style="fill:#fab61e"/><path d="M816.57,159.46v123h2.63q-5.54,2.81-11.28,5.41c-61.36,27.74-141.76,38.24-226.65,24.91C411.49,286.13,288,174.28,305.48,63a137.51,137.51,0,0,1,12.63-39.64,149.83,149.83,0,0,1,10.6-18.13V6.92H816.57Z" style="fill:#fab71e"/><path d="M816.57,158V279.29h3.64q-5.44,2.76-11.12,5.32C748.6,312,669.33,322.32,585.64,309.18,418.24,282.9,296.51,172.64,313.73,62.88A135.69,135.69,0,0,1,326.18,23.8,147,147,0,0,1,336.64,5.93v1H816.57Z" style="fill:#fab81e"/><path d="M816.57,156.59V276.12h4.65q-5.37,2.72-11,5.25c-59.64,27-137.77,37.16-220.27,24.21C425,279.68,305,171,322,62.81a133.86,133.86,0,0,1,12.27-38.52A144.65,144.65,0,0,1,344.56,6.67v.25h472Z" style="fill:#fab81e"/><path d="M816.57,155.16V273h5.67q-5.29,2.69-10.8,5.17C752.67,304.7,675.67,314.75,594.37,302,431.76,276.46,313.5,169.35,330.23,62.73a131.93,131.93,0,0,1,12.09-38A143.34,143.34,0,0,1,352.48,7.4q1.44-2.1,2.94-4.15V6.92H816.57Z" style="fill:#fab91e"/><path d="M816.57,153.72V269.78h6.68c-3.47,1.76-7,3.47-10.64,5.1-57.9,26.18-133.77,36.08-213.88,23.51C438.52,273.25,322,167.7,338.48,62.66A129.88,129.88,0,0,1,350.4,25.25a139.1,139.1,0,0,1,10-17.11Q363.23,4,366.36,0v6.9H816.57Z" style="fill:#faba1e"/><path d="M816.57,152.29V269.17h2.51q-2.62,1.26-5.29,2.47c-57,25.79-131.77,35.54-210.69,23.16C445.27,270,330.5,166.06,346.73,62.58a128.15,128.15,0,0,1,11.74-36.85,138.19,138.19,0,0,1,9.86-16.85q2.78-4.08,5.86-8v6H816.57Z" style="fill:#fabb1e"/><path d="M816.57,150.85V266h3.6q-2.58,1.25-5.21,2.43c-56.17,25.4-129.78,35-207.5,22.81C452,266.81,339,164.41,355,62.5a126.11,126.11,0,0,1,11.56-36.29,138.75,138.75,0,0,1,9.71-16.6q2.75-4,5.77-7.87V6.92H816.57Z" style="fill:#fabb1e"/><path d="M816.57,149.41V262.76h4.7q-2.55,1.22-5.14,2.39c-55.31,25-127.78,34.47-204.3,22.46-153-24-264.35-124.84-248.6-225.18a124.24,124.24,0,0,1,11.38-35.74,134.42,134.42,0,0,1,9.57-16.33q2.69-4,5.68-7.77V6.92H816.57Z" style="fill:#fabc1e"/><path d="M816.57,148V261.9h.73C762.86,286.52,691.52,295.84,616.2,284,465.54,260.37,356,161.13,371.48,62.35a122,122,0,0,1,11.2-35.17,131.7,131.7,0,0,1,9.42-16.09q2.65-3.88,5.59-7.64V6.92H816.57Z" style="fill:#fabd1e"/><path d="M816.57,146.54V258.66h1.91c-53.58,24.23-123.78,33.39-197.92,21.76C472.3,257.15,364.48,159.48,379.73,62.27a119.93,119.93,0,0,1,11-34.61A130.73,130.73,0,0,1,400,11.83q2.61-3.83,5.5-7.52V6.92H816.57Z" style="fill:#fabd1d"/><path d="M816.57,145.11V255.42h3.08c-52.71,23.83-121.79,32.85-194.72,21.4C479.05,253.93,373,157.84,388,62.2a118.16,118.16,0,0,1,10.85-34.06,127.77,127.77,0,0,1,9.11-15.57q2.56-3.77,5.42-7.4V6.92H816.57Z" style="fill:#fabe1d"/><path d="M816.57,143.67V252.18h4.25C769,275.62,701,284.49,629.29,273.23c-143.48-22.52-247.82-117-233.06-211.11a116.43,116.43,0,0,1,10.67-33.5,126.54,126.54,0,0,1,9-15.32q2.52-3.71,5.32-7.27v.89H816.57Z" style="fill:#fabf1d"/><path d="M816.57,142.24V248.93H822C771,272,704.2,280.71,633.66,269.64,492.57,247.49,390,154.55,404.48,62c3.63-23.12,14.24-44,30.31-62V6.92H816.57Z" style="fill:#fac01d"/><path d="M816.57,140.8V245.68h6.6C773.05,268.35,707.37,276.93,638,266,499.33,244.27,398.46,152.91,412.73,62c3.57-22.74,14-43.29,29.8-61v6h374Z" style="fill:#fac01d"/><path d="M816.57,139.36V244.49h3.11q-2.35,1-4.75,2c-3.2,1.29-6.45,2.51-9.75,3.69q-9.91,3.51-20.46,6.33a309.27,309.27,0,0,1-44.27,8.34,365.47,365.47,0,0,1-98.06-2.36C506.09,241.05,407,151.26,421,61.89,424.49,39.55,434.74,19.35,450.27,2v5h366.3Z" style="fill:#fac11d"/><path d="M816.57,137.93V241.21h4.37c-1.55.66-3.1,1.3-4.67,1.93q-4.71,1.89-9.58,3.61-9.75,3.47-20.1,6.23a302.22,302.22,0,0,1-43.49,8.19,358.49,358.49,0,0,1-96.35-2.32c-133.91-21-231.3-109.23-217.52-197,3.45-22,13.52-41.8,28.77-58.89v4H816.57Z" style="fill:#fac21d"/><path d="M816.57,136.5V239.82h1q-4.62,1.86-9.41,3.56-9.57,3.39-19.75,6.11a298.24,298.24,0,0,1-42.71,8.05,352.19,352.19,0,0,1-94.62-2.29C519.6,234.61,424,148,437.48,61.74c3.39-21.56,13.28-41,28.26-57.84v3H816.57Z" style="fill:#fac21d"/><path d="M816.57,135.06V236.51H819q-4.55,1.83-9.24,3.49-9.39,3.31-19.39,6a293.94,293.94,0,0,1-41.93,7.9,345.6,345.6,0,0,1-92.91-2.24c-129.12-20.27-223-105.33-209.75-190,3.32-21.16,13-40.3,27.75-56.78v2H816.57Z" style="fill:#fac31d"/><path d="M816.57,133.63V233.2h3.72q-4.47,1.78-9.07,3.42-9.22,3.25-19,5.89A286.49,286.49,0,0,1,751,250.26a339.26,339.26,0,0,1-91.18-2.19C533.11,228.18,440.94,144.68,454,61.59,457.25,40.81,466.77,22,481.21,5.85V6.92H816.57Z" style="fill:#fac41d"/><path d="M816.57,132.19v97.69h5.06c-2.92,1.17-5.89,2.3-8.9,3.36-6,2.14-12.27,4.07-18.67,5.78a281.92,281.92,0,0,1-40.38,7.61,333,333,0,0,1-89.46-2.16C539.87,225,449.44,143,462.23,61.51,465.43,41.13,474.78,22.7,489,6.83v.09H816.57Z" style="fill:#fbc41d"/><path d="M816.57,130.75v95.82H823c-2.86,1.14-5.76,2.25-8.73,3.29q-8.87,3.15-18.3,5.67A275.86,275.86,0,0,1,756.32,243a326.78,326.78,0,0,1-87.74-2.11c-122-19.15-210.65-99.49-198.1-179.45,3.14-20,12.31-38.06,26.2-53.63q2.61-2.91,5.43-5.72V6.92H816.57Z" style="fill:#fbc51d"/><path d="M816.57,129.32v95.59h3.49c-1.43.54-2.86,1.06-4.31,1.57q-8.7,3.09-18,5.56A271.29,271.29,0,0,1,759,239.36a320.94,320.94,0,0,1-86-2.07C553.38,218.52,466.43,139.75,478.73,61.36,481.81,41.76,490.8,24,504.42,8.78c1.7-1.91,3.48-3.78,5.32-5.61V6.92H816.57Z" style="fill:#fbc61d"/><path d="M816.57,127.88v95.23h.69q-8.53,3-17.6,5.44a264.82,264.82,0,0,1-38,7.17,313.89,313.89,0,0,1-84.3-2C560.14,215.3,474.93,138.11,487,61.29c3-19.22,11.82-36.58,25.18-51.54,1.66-1.86,3.4-3.7,5.21-5.49V6.92h299.2Z" style="fill:#fbc71c"/><path d="M816.57,126.45v93.28h2.2q-8.35,3-17.23,5.33a259.28,259.28,0,0,1-37.28,7,307.23,307.23,0,0,1-82.58-2c-114.78-18-198.26-93.63-186.45-168.88,3-18.82,11.59-35.83,24.66-50.48A127.39,127.39,0,0,1,530.51.19V6.92H816.57Z" style="fill:#fbc71c"/><path d="M816.57,125v91.34h3.7q-8.17,2.9-16.87,5.22a254.31,254.31,0,0,1-36.49,6.88,301,301,0,0,1-80.86-1.95c-112.4-17.64-194.13-91.68-182.57-165.37,2.89-18.42,11.34-35.08,24.14-49.43A125.2,125.2,0,0,1,538,1.39V6.92H816.57Z" style="fill:#fbc81c"/><path d="M816.57,123.58V213h5.22q-8,2.84-16.52,5.11a248.24,248.24,0,0,1-35.72,6.73,294.34,294.34,0,0,1-79.14-1.91c-110-17.26-190-89.72-178.68-161.85,2.83-18,11.1-34.33,23.63-48.37a121.41,121.41,0,0,1,10.18-10.1V6.92h271Z" style="fill:#fbc91c"/><path d="M816.57,122.14v87.45h6.73q-7.84,2.78-16.16,5a245.06,245.06,0,0,1-34.94,6.59,288.5,288.5,0,0,1-77.42-1.87C587.17,202.42,508.91,131.53,520,61c2.77-17.64,10.86-33.59,23.12-47.32a117.53,117.53,0,0,1,9.95-9.88V6.92H816.57Z" style="fill:#fbc91c"/><path d="M816.57,120.71v88.08H817q-4,1.23-8,2.31a237.61,237.61,0,0,1-34.17,6.44,281.86,281.86,0,0,1-75.7-1.83C593.93,199.2,517.41,129.89,528.23,60.9c2.71-17.25,10.62-32.84,22.61-46.27A115.3,115.3,0,0,1,560.57,5v2h256Z" style="fill:#fbca1c"/><path d="M816.57,119.27v86.09h2.14c-2.57.79-5.19,1.54-7.83,2.25a232.66,232.66,0,0,1-33.4,6.29,275.52,275.52,0,0,1-74-1.78C600.68,196,525.9,128.25,536.48,60.82c2.65-16.85,10.38-32.09,22.09-45.21a113.3,113.3,0,0,1,9.52-9.45v.76H816.57Z" style="fill:#fbcb1c"/><path d="M816.57,117.84v84.07h3.83q-3.76,1.17-7.65,2.21a227,227,0,0,1-32.62,6.15,269.36,269.36,0,0,1-72.26-1.74C607.44,192.76,534.4,126.6,544.73,60.75c2.59-16.46,10.14-31.35,21.58-44.17a110.84,110.84,0,0,1,9.29-9.22c1.67-1.47,3.39-2.9,5.17-4.31V6.92h235.8Z" style="fill:#fbcb1c"/><path d="M816.57,116.4v82.08h5.52q-3.69,1.14-7.47,2.15a222,222,0,0,1-31.85,6,262.63,262.63,0,0,1-70.53-1.7C614.2,189.54,542.89,125,553,60.67c2.53-16.07,9.89-30.6,21.07-43.11A113.51,113.51,0,0,1,593.52.36V6.92H816.57Z" style="fill:#fbcc1c"/><path d="M816.57,115v81.16h3.58c-1.21.35-2.44.69-3.67,1A214.58,214.58,0,0,1,785.42,203a256,256,0,0,1-68.81-1.65c-95.66-15-165.22-78-155.38-140.74,2.47-15.68,9.65-29.86,20.55-42.07a112,112,0,0,1,19-16.78V6.92H816.57Z" style="fill:#fbcd1b"/><path d="M816.57,113.53v80.12h1.78a211.37,211.37,0,0,1-30.28,5.71,249.81,249.81,0,0,1-67.1-1.62c-93.26-14.63-161.09-76.07-151.49-137.22,2.4-15.29,9.41-29.11,20-41A108.83,108.83,0,0,1,608,3.14V6.92H816.57Z" style="fill:#fbcd1b"/><path d="M816.57,112.09v78.07h3.65a205.3,205.3,0,0,1-29.51,5.56,243.08,243.08,0,0,1-65.37-1.58c-90.88-14.26-157-74.12-147.61-133.69,2.34-14.9,9.17-28.37,19.52-40a106.07,106.07,0,0,1,18-15.94V6.92H816.57Z" style="fill:#fbce1b"/><path d="M816.57,110.66v76h5.52a199.11,199.11,0,0,1-28.73,5.41,236.91,236.91,0,0,1-63.66-1.53C641.22,176.66,576.87,118.38,586,60.37c2.28-14.51,8.93-27.62,19-38.91A103.72,103.72,0,0,1,622.56,5.93v1h194Z" style="fill:#fbcf1b"/><path d="M816.57,109.22v75.63h.64c-2.27.52-4.58,1-6.91,1.44-4.66.87-9.43,1.6-14.3,2.16A230.59,230.59,0,0,1,734.07,187C648,173.45,585.37,116.73,594.23,60.29c2.22-14.11,8.69-26.87,18.5-37.86a100.89,100.89,0,0,1,17.09-15.1Q634.67,3.91,640,.87V6.92H816.57Z" style="fill:#fbd01b"/><path d="M816.57,107.79v73.52h2.7c-2.21.51-4.45,1-6.72,1.4-4.53.85-9.17,1.56-13.9,2.1a224,224,0,0,1-60.22-1.45c-83.7-13.13-144.56-68.27-135.95-123.15,2.15-13.71,8.45-26.12,18-36.8A97.8,97.8,0,0,1,637.08,8.72Q641.79,5.4,647,2.44V6.92H816.57Z" style="fill:#fbd01b"/><path d="M816.57,106.35v71.43h4.76q-3.23.72-6.53,1.35-6.62,1.25-13.51,2.05a217.69,217.69,0,0,1-58.49-1.41C661.49,167,602.36,113.45,610.73,60.14c2.09-13.33,8.21-25.38,17.47-35.76a94.92,94.92,0,0,1,16.14-14.26A113.51,113.51,0,0,1,654,4v2.9H816.57Z" style="fill:#fcd11b"/><path d="M816.57,104.92v70.64h.48c-4.28.8-8.65,1.47-13.11,2a211.12,211.12,0,0,1-56.78-1.37C668.25,163.79,610.86,111.8,619,60.06,623,34.19,642.71,13.28,671.23.39V6.92H816.57Z" style="fill:#fcd21b"/><path d="M816.57,103.48V172h2.73c-4.15.78-8.39,1.43-12.72,1.92a204.79,204.79,0,0,1-55.05-1.32C675,160.57,619.36,110.16,627.23,60c3.94-25.09,23-45.37,50.67-57.87v4.8H816.57Z" style="fill:#fcd21b"/><path d="M816.57,102V168.4h5q-6,1.14-12.31,1.87A198.64,198.64,0,0,1,755.89,169c-74.12-11.63-128-60.46-120.41-109.07C639.3,35.61,657.77,16,684.56,3.85V6.92h132Z" style="fill:#fcd31a"/><path d="M816.57,100.61v65.22h1.32c-2,.3-4,.56-6,.8a192.31,192.31,0,0,1-51.61-1.24c-71.74-11.26-123.91-58.52-116.53-105.56,3.69-23.51,21.57-42.52,47.5-54.25V6.92H816.57Z" style="fill:#fcd41a"/><path d="M816.57,99.18v63h3.77q-2.88.43-5.82.78a185.66,185.66,0,0,1-49.89-1.21c-69.35-10.88-119.79-56.56-112.65-102C655.55,37,672.84,18.65,697.89,7.32A130.82,130.82,0,0,1,718.05.18V6.92h98.52Z" style="fill:#fcd41a"/><path d="M816.57,97.74v61.62h.59A179.42,179.42,0,0,1,769,158.2c-67-10.51-115.65-54.62-108.76-98.52,3.45-22,20.14-39.69,44.33-50.63A125.77,125.77,0,0,1,724,2.16V6.92h92.54Z" style="fill:#fcd51a"/><path d="M816.57,96.3v59.42h3.24a172.74,172.74,0,0,1-46.45-1.11c-64.57-10.14-111.52-52.67-104.88-95,3.32-21.17,19.41-38.28,42.75-48.83A133.74,133.74,0,0,1,751,.19V6.92h65.6Z" style="fill:#fcd61a"/><path d="M816.57,94.87v57.22h5.88A166.53,166.53,0,0,1,777.72,151c-62.17-9.76-107.39-50.72-101-91.48,3.2-20.38,18.7-36.86,41.16-47a129.18,129.18,0,0,1,38.27-10.2V6.92h44.73V3.39a173.3,173.3,0,0,1,22.45,5.06h-6.77Z" style="fill:#fcd61a"/><path d="M816.57,93.43V149H820c-1.72.14-3.45.25-5.2.33q-5.25.24-10.65.12a166.41,166.41,0,0,1-22-2C722.3,138,678.83,98.65,685,59.45c3.07-19.59,18-35.44,39.58-45.2S774.48.78,804.37,5.47c3.73.59,7.41,1.29,11,2.1,1.8.41,3.58.84,5.34,1.31h-4.15Z" style="fill:#fcd71a"/><path d="M816.57,92v53.61h1.27q-5,.22-10.22.11a158.35,158.35,0,0,1-21.17-1.9c-57.39-9-99.13-46.82-93.22-84.44,2.95-18.82,17.26-34,38-43.4s47.91-12.93,76.61-8.43q5.38.85,10.57,2h-1.84Z" style="fill:#fcd81a"/><path d="M816.57,90.56v51.38h4.32c-3.21.15-6.48.18-9.79.11a154.89,154.89,0,0,1-20.28-1.82c-55-8.64-95-44.87-89.34-80.93S756.32,1,811.32,9.64q5.14.81,10.13,1.93h-4.88Z" style="fill:#fcd81a"/><path d="M816.57,89.13V138.4h2.73c-1.57,0-3.14,0-4.72,0a148.24,148.24,0,0,1-19.4-1.75c-52.61-8.25-90.86-42.91-85.45-77.41s52.45-55.76,105.06-47.5c1.64.26,3.27.54,4.89.85h-3.11Z" style="fill:#fcd919"/><path d="M816.57,87.69v47h1.5A139.65,139.65,0,0,1,799.55,133c-50.22-7.89-86.74-41-81.57-73.89S768.05,5.92,818.27,13.8h-1.7Z" style="fill:#fcda19"/><path d="M816.57,86.25V131h5a132.7,132.7,0,0,1-17.63-1.59c-47.83-7.51-82.61-39-77.69-70.37s47.68-50.69,95.51-43.18h-5.17Z" style="fill:#fcda19"/><path d="M816.57,84.82v42.07h.16q-4.18-.37-8.45-1c-45.43-7.14-78.48-37.06-73.8-66.85,2.34-14.9,13.66-26.94,30.08-34.36a94.63,94.63,0,0,1,28-7.46,117.08,117.08,0,0,1,15.93-.72c2.74.07,5.5.22,8.3.47h-.19Z" style="fill:#fcdb19"/><path d="M816.57,83.39v39.85h4.09c-2.65-.24-5.32-.56-8-1-43-6.75-74.35-35.11-69.92-63.33,2.22-14.11,12.94-25.52,28.5-32.55a89.22,89.22,0,0,1,26.49-7.06,110,110,0,0,1,15.1-.68q3.88.07,7.86.44h-4.11Z" style="fill:#fcdc19"/><path d="M816.57,82v36.71H817c-40.65-6.38-70.21-33.16-66-59.82,2.09-13.32,12.22-24.09,26.91-30.74a84.58,84.58,0,0,1,25-6.67,104.22,104.22,0,0,1,14.26-.64h-.6Z" style="fill:#fcdd19"/><path d="M816.57,80.51v34.55h4.81c-38.26-6-66.09-31.2-62.15-56.29,2-12.55,11.5-22.68,25.33-28.94a79.76,79.76,0,0,1,23.55-6.28,100.1,100.1,0,0,1,13.42-.6h-5Z" style="fill:#fddd18"/><path d="M816.57,79.08v31.13h2.57c-2.16-.49-4.28-1-6.35-1.66a91,91,0,0,1-11.8-4.4,74.32,74.32,0,0,1-19.21-12.36c-10.55-9.55-16.15-21.34-14.3-33.1s10.79-21.26,23.75-27.12a74.36,74.36,0,0,1,22.07-5.89q3-.34,6.2-.5h-2.93Z" style="fill:#fdde18"/><path d="M816.57,77.64v27.51H818a87.09,87.09,0,0,1-11-4.1A69.84,69.84,0,0,1,789.07,89.5c-9.84-8.91-15.06-19.91-13.34-30.89S785.8,38.77,797.89,33.3a69.7,69.7,0,0,1,20.61-5.5h-1.93Z" style="fill:#fddf18"/><path d="M816.57,76.21v25.54h6.68A80.39,80.39,0,0,1,813,97.94a64.44,64.44,0,0,1-16.65-10.72c-9.14-8.27-14-18.49-12.39-28.68S793.33,40.11,804.56,35a59.41,59.41,0,0,1,9-3.2c1.6-.43,3.25-.8,4.93-1.12h-2Z" style="fill:#fddf18"/><path d="M816.57,74.77V94.83H819a59.64,59.64,0,0,1-15.38-9.89c-8.43-7.64-12.91-17.07-11.43-26.48s8.63-17,19-21.7a54.23,54.23,0,0,1,8.34-2.95h-3Z" style="fill:#fde018"/><path d="M816.57,73.34V87.58h.84A50.19,50.19,0,0,1,811,82.66c-7.73-7-11.83-15.65-10.48-24.27s7.91-15.6,17.41-19.89h-1.32Z" style="fill:#fde118"/><path d="M816.57,71.9v8.48h1.69c-7-6.37-10.76-14.23-9.53-22.07a20.45,20.45,0,0,1,5.14-10.52,27.59,27.59,0,0,1,4.75-4.19h-2Z" style="fill:#fde118"/><path d="M816.57,70.46v-1.8h1.91A18.51,18.51,0,0,1,817,58.23h-.41Z" style="fill:#fde217"/><path d="M816.57,69v0Z" style="fill:#fde317"/><path d="M816.57,67.59v0Z" style="fill:#fde317"/><path d="M816.57,66.16v0Z" style="fill:#fde417"/><path d="M816.57,64.72v0Z" style="fill:#fde517"/><path d="M816.57,63.29v0Z" style="fill:#fde517"/><path d="M816.57,61.86v0Z" style="fill:#fde616"/><path d="M816.57,60.42v0Z" style="fill:#fde716"/><path d="M816.57,59v0Z" style="fill:#fde816"/></g><path d="M233,324.08a3.08,3.08,0,0,0-.52.24h3.43A3.55,3.55,0,0,0,233,324.08Z" style="fill:#f15b3a;opacity:0.2"/><path d="M118,324.19a7.6,7.6,0,0,0,1.17-4,8.27,8.27,0,0,0-16.53,0,7.6,7.6,0,0,0,1.25,4.17h14.3Z" style="fill:#f15b3a;opacity:0.2"/><path d="M457.2,228.9a5.51,5.51,0,0,0-5.49,4.45L433,232.84a13.28,13.28,0,0,0-6.66-13.79L434.92,200a10,10,0,0,0,2.54.33,9.34,9.34,0,1,0-9.74-9.33,9.22,9.22,0,0,0,4.47,7.84l-8.55,19a14.65,14.65,0,0,0-4.58-.73,14.39,14.39,0,0,0-9.51,3.54l-25.49-18a6.51,6.51,0,0,0,1-3.46A7.08,7.08,0,1,0,378,206a7.23,7.23,0,0,0,4.8-1.81l25.35,17.88a13.19,13.19,0,0,0-3.19,8.58,12.23,12.23,0,0,0,.17,2.1l-28.31,3.87a12.28,12.28,0,0,0-23.63,3.79,11.88,11.88,0,0,0,.85,5.09L322,265.14a17,17,0,0,0-10.76-5l-6.59-30.52a6.14,6.14,0,0,0,3.65-5.53,6.21,6.21,0,0,0-4.5-5.86l4.33-16.56a11.69,11.69,0,0,0,1.79.14c6.26,0,11.33-4.81,11.33-10.76a10.23,10.23,0,0,0-.69-3.67l18.52-7.49a5.53,5.53,0,0,0,3.86,2.6,5.16,5.16,0,0,0,.89.13,5.47,5.47,0,0,0,3.55-9.92v0a8.93,8.93,0,0,1-2.38-.92,5.35,5.35,0,0,0-5.79,2.84,4.84,4.84,0,0,0-.82,2.33,5,5,0,0,0,.13,1.64l-18.57,7.51a11.44,11.44,0,0,0-10-5.77,11.56,11.56,0,0,0-8.87,4.07l-14.9-11a8.16,8.16,0,0,0,1.56-4.78,8.93,8.93,0,1,0-8.92,8.47,9.16,9.16,0,0,0,6-2.2l15.13,11.19a10.25,10.25,0,0,0-1.32,5,10.86,10.86,0,0,0,8.14,10.32L302.35,218a5.44,5.44,0,0,0-.57,0,6.17,6.17,0,1,0,0,12.32l.43,0,6.46,29.9a17,17,0,0,0-10.83,4.92l-11.2-8.59a7,7,0,0,0,.92-3.12,7.24,7.24,0,0,0-13.74-3.48,6.12,6.12,0,0,0-.93,2.08l-24.33-1.32a9.22,9.22,0,0,0-5-7.83l7.68-25.72.35,0a3.38,3.38,0,0,0,3.34-2.27l9.5.51a3.48,3.48,0,1,0,0-1.15l-9.32-.51a3.55,3.55,0,0,0-.74-2.21l7.1-10.58a2,2,0,0,0,.75.19,2.23,2.23,0,1,0-2-2.35,2.26,2.26,0,0,0,.41,1.41l-7.08,10.55a3.23,3.23,0,0,0-1.56-.5,3.32,3.32,0,0,0-2.52,1l-9.86-6a2.09,2.09,0,0,0,.07-.51,1.92,1.92,0,1,0-1.91,2,1.87,1.87,0,0,0,1.23-.48l9.8,6a3.36,3.36,0,0,0-.34,1.34,3.46,3.46,0,0,0,1.21,2.86l-7.71,25.84a8.86,8.86,0,0,0-10.44,5.18l-15-4.87s0-.09,0-.14a3.35,3.35,0,1,0-3.53,3.27,3.31,3.31,0,0,0,2.94-1.5L231,249a9.47,9.47,0,0,0-.24,1.61,9.1,9.1,0,0,0,8.43,9.7,8.66,8.66,0,0,0,4.77-1.14l7.37,13a5.11,5.11,0,0,0-2,3.79,5.23,5.23,0,0,0,9.52,3.23,5.34,5.34,0,0,0,.89-1.25l33.33.73a16.8,16.8,0,0,0,7.33,12.07l-14.27,33.55h4.49L304,292.67a17.17,17.17,0,0,0,11.77,0L330,319.77a7.14,7.14,0,0,0-2.79,4.55h14.27a7.24,7.24,0,0,0-9.26-5.66l-14.12-27a16.82,16.82,0,0,0,7.71-8.75l44.93,12.3c0,.19,0,.37-.05.55a7.19,7.19,0,0,0,6.83,7.54c.31,0,.62,0,.92,0l2.81,11.41a9.86,9.86,0,0,0-1.5.65,9.22,9.22,0,0,0-4.8,9H393a8.39,8.39,0,0,0,.09-2.24L419,315l.15.32a3.37,3.37,0,0,0,3.69,1.63l4,7.34h1.31L424,316.55a3.48,3.48,0,0,0,1.49-1.8l12.74.45a2.05,2.05,0,0,0,.23.74,2.24,2.24,0,1,0,.92-3,2.36,2.36,0,0,0-1,1.09l-12.69-.44a3.26,3.26,0,0,0-2.56-3.21L423,298.86a2.5,2.5,0,0,0,.48-.21,1.92,1.92,0,1,0-2.69-.59,1.89,1.89,0,0,0,1.05.8l.11,11.47a3.53,3.53,0,0,0-3.11,3l-26,7.09a8.38,8.38,0,0,0-.71-1.67,8.93,8.93,0,0,0-9.2-4.46l-2.79-11.33a7.16,7.16,0,1,0-8.64-10.1l-45-12.32a15.61,15.61,0,0,0,.38-2.67,16.59,16.59,0,0,0-2.31-9.41L356.19,249a12.29,12.29,0,0,0,21.48-7.29,12.38,12.38,0,0,0-.35-3.62l28.14-3.86a13.64,13.64,0,0,0,6,7.82l-5.93,13a3.31,3.31,0,0,0-3.75,2,3.21,3.21,0,1,0,5.9,2.5,3.32,3.32,0,0,0-.83-3.82l5.91-12.95a14.55,14.55,0,0,0,6.26,1.41,14.05,14.05,0,0,0,13.6-9.88l19,.52a5.57,5.57,0,1,0,5.54-5.93ZM292.92,276v.22l-32.69-.71a5,5,0,0,0-4.62-4.9,4.76,4.76,0,0,0-2.83.74l-7.45-13.14a9.28,9.28,0,0,0,3-5.25l24.39,1.33a6,6,0,0,0,3.79,4.79,7.29,7.29,0,0,0,8.5-.67L296.2,267A16.6,16.6,0,0,0,292.92,276Z" style="fill:#f15b3a;opacity:0.2"/><path d="M1.19,324.32H14a18.22,18.22,0,0,0,1.76-2l2.68,2h4.18l-5.49-4a19.62,19.62,0,0,0-.61-19.89,19.81,19.81,0,0,0-13.95-9.29l2.69-31.73a14,14,0,0,0,8.39-2c6.66-4.1,8.66-13,4.65-20.1l12.17-8.15a8.65,8.65,0,0,0,3.76,3.16,9.08,9.08,0,0,0,11.87-4.89,9.85,9.85,0,0,0,.52-1.56l15.62,2.37a3.31,3.31,0,0,0,2,2.66,3.46,3.46,0,1,0-1.7-4.51s0,.09-.05.13L46.82,224.1a9,9,0,0,0-5.28-8.76,9.34,9.34,0,0,0-1.73-.54l4.69-26.56a3.51,3.51,0,0,0,2.66-3.37l11.44-.94a1.87,1.87,0,0,0,.89,1,2,2,0,1,0-.83-2.62,2.46,2.46,0,0,0-.17.5l-11.5.95a3.28,3.28,0,0,0-3.43-2.27L42,168.87a2.32,2.32,0,0,0,1-1.08A2.17,2.17,0,1,0,40.08,169a2,2,0,0,0,.75.16l1.61,12.65a3.46,3.46,0,0,0-1.65,1.64l-8.56-3.72a3.44,3.44,0,1,0-.5,1l8.72,3.8a3.37,3.37,0,0,0,2,3.52l.34.13-4.67,26.43a9.2,9.2,0,0,0-8,4.75L7.76,209.65a5.93,5.93,0,0,0-3.31-6.84,5.76,5.76,0,0,0-3.26-.38v11.9a6,6,0,0,0,5.64-2.57l22.4,9.75a9.29,9.29,0,0,0,.37,6.06l-12.27,8.22A15.15,15.15,0,0,0,1.19,229.7v28.79l.6.22-.6,7Z" style="fill:#f15b3a;opacity:0.2"/><path d="M102.48,178.29a9.13,9.13,0,0,0,3.81-5.11l18.79,1.13a10.36,10.36,0,0,0,1.64,4.94,10.87,10.87,0,0,0,12.45,4.21l5.41,16.26-.5.29a6.35,6.35,0,0,0-2.08,8.71,6.11,6.11,0,0,0,5.81,2.68l7.49,38.44a14.47,14.47,0,0,0-2.17.71,14.17,14.17,0,0,0-6.28,5.3L120.22,239.1a10.24,10.24,0,1,0-1.86,3l27,17a14.43,14.43,0,0,0,.28,10l-21.44,17.07a4.39,4.39,0,1,0-1.19,7.34,4.41,4.41,0,0,0,2.37-5.59L146.54,271a14.46,14.46,0,0,0,7.81,6.38L152,289.12a6,6,0,0,0-2.71.47,6.13,6.13,0,1,0,4.76,0l2.31-11.68a14.1,14.1,0,0,0,8.09-.91l.17-.08,11.07,23.64a10.69,10.69,0,0,0-1.45,19.1l-2.09,4.64H176l1.48-3.29a11.63,11.63,0,0,0,3,.39,10.92,10.92,0,1,0,0-21.82,11.77,11.77,0,0,0-2.68.32l-11.23-24a14.22,14.22,0,0,0,6.41-10.1l34.29-2a7.57,7.57,0,0,0,.4,1.19,8.34,8.34,0,1,0-.58-4.69L173,262.31a14.5,14.5,0,0,0-1.09-4.14,14.72,14.72,0,0,0-3.34-4.8l15.26-20.94a6.09,6.09,0,1,0,.3-11.09,6.11,6.11,0,0,0-3.16,8,6.36,6.36,0,0,0,1.19,1.79L166.91,252a14.35,14.35,0,0,0-9.54-2.57l-7.52-38.62a6.84,6.84,0,0,0,1-.51l.43-.31a6.14,6.14,0,0,0-5.34-10.91l-5.39-16.19a11.5,11.5,0,0,0,1.58-.85c5.25-3.41,6.87-10.22,3.63-15.2a10,10,0,0,0-2.59-2.7l11.44-16.39a5.55,5.55,0,0,0,5.09-.11,5.21,5.21,0,1,0-7.29-2,5.16,5.16,0,0,0,1,1.29l-11.47,16.44a11.39,11.39,0,0,0-11.56.63,11.54,11.54,0,0,0-5.21,8.25l-18.5-1.11a8.08,8.08,0,0,0-1.3-4.85,8.94,8.94,0,1,0-2.86,12Z" style="fill:#f15b3a;opacity:0.2"/><path d="M22.69,294.25a3.76,3.76,0,0,1,3.76,3.07l30.19-4.13a12.61,12.61,0,0,1-.15-1.95,12.21,12.21,0,0,1,3-8L35.87,266.62a6.7,6.7,0,0,1-4.46,1.68A6.31,6.31,0,1,1,38,262a6.11,6.11,0,0,1-.93,3.21l23.71,16.73a13.36,13.36,0,0,1,8.85-3.3,13.53,13.53,0,0,1,4.26.68l8-17.7a8.58,8.58,0,0,1-4.16-7.29,9.06,9.06,0,1,1,9,8.68,9.73,9.73,0,0,1-2.36-.31l-8,17.74a12.51,12.51,0,0,1,6.36,10.8,12.36,12.36,0,0,1-.17,2l17.41.48a4.95,4.95,0,1,1,0,1.38l-17.68-.49a13.07,13.07,0,0,1-12.65,9.19,13.57,13.57,0,0,1-5.82-1.3l-5.5,12a3.11,3.11,0,0,1,.77,3.56,3,3,0,1,1-5.49-2.33A3.08,3.08,0,0,1,57.07,314l5.51-12.08A12.69,12.69,0,0,1,57,294.6l-30.58,4.19a3.78,3.78,0,0,1-3.7,2.77,3.66,3.66,0,1,1,0-7.31Z" style="fill:#f4763c;opacity:0.2"/><path d="M4.73,19.87a16.36,16.36,0,0,1,5.77-7.52L7.29,7.77h3l2.31,3.31A16.77,16.77,0,0,1,24.24,9.67l.18-1.9h2.46l-.26,2.67a16.74,16.74,0,0,1,8.65,7.87l36-8.93a12.36,12.36,0,0,1,0-1.61H95.31a11.88,11.88,0,0,1-.71,5.1,12,12,0,0,1-15.54,6.92,12.1,12.1,0,0,1-6.82-6.45L36.7,22.16a16.35,16.35,0,0,1-.61,9.53,16.12,16.12,0,0,1-1.16,2.4l38.64,25a7,7,0,1,1-1.64,2.5c.07-.17.15-.33.22-.5L33.57,36.13a16.65,16.65,0,0,1-9.85,5.92L29,71.67a7,7,0,1,1-6.7,4.53,7,7,0,0,1,4.28-4.15l-5.25-29.7a16.94,16.94,0,0,1-11.07-3.49l-9,10.52V43.12L7.31,36A16.57,16.57,0,0,1,4,22.44l-2.82-1V18.9l3.47,1.18C4.69,20,4.7,19.94,4.73,19.87Z" style="fill:#f4763c;opacity:0.2"/><path d="M35.39,105.23a7.36,7.36,0,0,1,.8,10.38,6.84,6.84,0,0,1-3.69,2.12l3.11,15.37a9.78,9.78,0,0,1,7.87,2.48,9.65,9.65,0,0,1,3,9.32l15.93,5.82a4.11,4.11,0,0,1,.85-1.11,4.64,4.64,0,1,1-.06,6.39,4.69,4.69,0,0,1-1.2-4.13l-15.88-5.81a8.85,8.85,0,0,1-1.65,2.71,9.36,9.36,0,0,1-13.22.32,8.94,8.94,0,0,1-1-1.1l-12.12,7.94a5.23,5.23,0,0,1-.5,6.23,5.36,5.36,0,0,1-7.57.19,5.36,5.36,0,0,1-.58-7.55,5.36,5.36,0,0,1,7.57-.19c.12.11.24.23.35.35l12.13-8a9.18,9.18,0,0,1,.74-11.09,8.64,8.64,0,0,1,3.68-2.42l-3.15-15.61a7.72,7.72,0,0,1-5-2,7.18,7.18,0,1,1,9.6-10.64Z" style="fill:#f4763c;opacity:0.2"/><g id="white"><g style="mask:url(#mask-13)"><path d="M.57,244.49a6.16,6.16,0,0,1,5.93-1.43,6.25,6.25,0,0,1-3.51,12,5.94,5.94,0,0,1-2.42-1.38Z" style="fill:url(#linear-gradient-13)"/></g><g style="mask:url(#mask-14)"><path d="M257,324.12c-.07.06-.11.14-.17.2h7.28A5,5,0,0,0,257,324.12Z" style="fill:url(#linear-gradient-14)"/></g><g style="mask:url(#mask-15)"><path d="M.57,199.41l16.3-9.16a14.45,14.45,0,0,1,2.37-17.35,13.57,13.57,0,0,1,6-3.39L22,144.63a12.13,12.13,0,0,1-7.65-3.7c-4.56-4.73-4.62-12.07-.13-16.4a11.53,11.53,0,0,1,15.52-.08L37.09,116a8,8,0,0,1-2-9.42,7.53,7.53,0,0,1,2.5-2.88L31.33,91.47a6.69,6.69,0,0,1-4.64-.5,6.37,6.37,0,0,1-3.1-8.46A5.6,5.6,0,0,1,24.66,81L10.42,64.75a7.32,7.32,0,0,1-3.08,1.12A7,7,0,0,1,.57,62.73V55.84a7,7,0,0,1,5.16-3.26,7.56,7.56,0,0,1,1.78,0l6-23.36a4.76,4.76,0,0,1-3.06-3.85,4.67,4.67,0,0,1,1.07-3.56L.57,10.58V8.53l12,12.34A5.07,5.07,0,0,1,14.83,20,4.79,4.79,0,1,1,16,29.54a5.37,5.37,0,0,1-1.06,0l-6,23.36a6.7,6.7,0,0,1,4.56,5.48,6.59,6.59,0,0,1-1.93,5.46L25.77,80.11a6.63,6.63,0,0,1,6.43-.25,6.38,6.38,0,0,1,3.1,8.46A6,6,0,0,1,32.72,91L38.9,103a8.46,8.46,0,0,1,7.15.22,8.38,8.38,0,0,1,4.71,7l14.63,1.12a3.61,3.61,0,0,1,.45-1.12,3.81,3.81,0,0,1,4-1.71l15.5-22.72a6.57,6.57,0,0,1-2.57-5.18,6.68,6.68,0,0,1,3.86-6L77.83,52.23a4.59,4.59,0,0,1-1.06.12,4.79,4.79,0,1,1,0-9.58,5.17,5.17,0,0,1,2.33.56L89.43,29.8a3.74,3.74,0,0,1-1.2-2.73,4,4,0,1,1,4,3.83,4.22,4.22,0,0,1-1.59-.32L80.27,44.15a4.69,4.69,0,0,1,1.49,3.41,4.75,4.75,0,0,1-2.58,4.19L88,74.22A7.25,7.25,0,0,1,89.72,74a7,7,0,0,1,6.06,3.4l19.08-7a4.52,4.52,0,0,1-.41-1.91,5,5,0,1,1,5,4.79,5.05,5.05,0,0,1-3.76-1.65l-19.29,7a6.53,6.53,0,0,1,.31,2,6.84,6.84,0,0,1-7,6.69,7.24,7.24,0,0,1-3.19-.75L71.2,109.11l0,0a3.82,3.82,0,1,1-4,6.51,4,4,0,0,1-2-3.17l-14.59-1.11A7.63,7.63,0,0,1,50,114a8.11,8.11,0,0,1-11,3.37,8.34,8.34,0,0,1-1.12-.68l-7.38,8.48.09.08c4.56,4.73,4.62,12.07.13,16.4a10.89,10.89,0,0,1-6,2.93l3.21,24.49a15.38,15.38,0,0,1,12.11,4.75,15.22,15.22,0,0,1,3.76,15l24.4,10.87A6.6,6.6,0,0,1,69.65,198a7.12,7.12,0,0,1,9.89,1.19l28.69-16.27a5.93,5.93,0,0,1-.28-1.79,6.13,6.13,0,0,1,6.26-6,6.2,6.2,0,0,1,6,4.49l30.49.27a6.27,6.27,0,0,1,5.47-3.1q.33,0,.66,0l3.5-20.54a4.53,4.53,0,0,1-3.06-4.21,4.64,4.64,0,0,1,4.76-4.51l.42,0,3.18-12.15a7.94,7.94,0,0,1-6-7.56,7.56,7.56,0,0,1,1-3.68L149.59,116a6.73,6.73,0,0,1-4.38,1.61,6.21,6.21,0,1,1,6.54-6.2,6,6,0,0,1-1.15,3.5L161.51,123a8.49,8.49,0,0,1,6.5-3,8.38,8.38,0,0,1,7.36,4.23l13.6-5.51a3.66,3.66,0,0,1-.1-1.2,4,4,0,1,1,3.68,4.14,4.08,4.08,0,0,1-3.18-2l-13.56,5.49a7.56,7.56,0,0,1,.51,2.69,8.1,8.1,0,0,1-8.31,7.88,9.39,9.39,0,0,1-1.31-.1l-3.17,12.13a4.53,4.53,0,0,1,3.29,4.29,4.64,4.64,0,0,1-4.75,4.52l-.3,0-3.5,20.56a6,6,0,0,1,4.2,5.66,6.27,6.27,0,0,1-12.52,0A6.32,6.32,0,0,1,150,182l-29.58-.27a6.17,6.17,0,0,1-6.22,5.38,6.33,6.33,0,0,1-4.95-2.34L80.68,201a7,7,0,0,1-1.82,8.34,7.13,7.13,0,0,1-10-1.31,7.39,7.39,0,0,1-1.44-6.63L43.1,190.58a13.43,13.43,0,0,1-2.88,4.07c-5.7,5.5-15,5.09-20.82-.92a16.39,16.39,0,0,1-1.51-1.84L.57,201.61Z" style="fill:url(#linear-gradient-15)"/></g><g style="mask:url(#mask-14)"><path d="M267.25,324.32l9.57-5.58a7.82,7.82,0,0,0,.92,1.09,8.78,8.78,0,0,0,12.42.34,8.09,8.09,0,0,0,1.69-2.45l14.48,6.16c0,.06-.05.11-.07.16s0,.19-.07.28h8.45a4.39,4.39,0,0,0-.91-1.75,4.24,4.24,0,0,0-6-.68,3.85,3.85,0,0,0-.76.86,1.47,1.47,0,0,1-.1.13l-14.65-6.24A9.27,9.27,0,0,0,282.59,305l-2.16-14.58a6.5,6.5,0,0,0,3.57-1.8,7.11,7.11,0,1,0-9.78-.27,7.31,7.31,0,0,0,4.6,2.13L281,305.32a8.21,8.21,0,0,0-3.58,2.08,8.64,8.64,0,0,0-1.24,10.38L265,324.32Z" style="fill:url(#linear-gradient-16)"/></g><g style="mask:url(#mask-14)"><path d="M188.17,225.25a13.31,13.31,0,0,0,8.7-3.2l22,16.28a15,15,0,0,0-1.92,7.32,15.79,15.79,0,0,0,11.84,15l-6.31,24.12c-.27,0-.55,0-.83,0a9.21,9.21,0,0,0-9.45,9,8.75,8.75,0,0,0,3.11,6.63L204.93,308a3.88,3.88,0,0,0-1.61-1.23,4.07,4.07,0,0,0-3.35.09l-9-11.13a2.6,2.6,0,0,0,.31-.57,2.38,2.38,0,1,0-3.06,1.5,2.29,2.29,0,0,0,1.63,0l8.95,11.06a4.44,4.44,0,0,0-1,1.43,4.33,4.33,0,0,0,.23,3.85l-8.35,11.36h2.66l7.23-9.84.4.2a4.18,4.18,0,0,0,4.84-1.26L215.72,318a4.18,4.18,0,0,0,2.43,4.7,4.29,4.29,0,1,0-1.93-6l-10.67-4.48a4.35,4.35,0,0,0,.06-2.89l10.91-8.06a9.66,9.66,0,0,0,5.13,1.45,9.22,9.22,0,0,0,9.44-9,9,9,0,0,0-6.54-8.53l6.3-24.09a17,17,0,0,0,2.59.21c9.11,0,16.49-7,16.49-15.65a15,15,0,0,0-1-5.35l26.94-10.89a8.23,8.23,0,0,0,12.61,1.72l11,8.11a8,8,0,0,0-1,3.93,8.45,8.45,0,0,0,6.35,8l-3.39,12.94-.45,0a4.81,4.81,0,1,0,5.07,4.8,4.84,4.84,0,0,0-3.51-4.57l3.38-12.91a10.43,10.43,0,0,0,1.39.11,8.63,8.63,0,0,0,8.84-8.39,8.09,8.09,0,0,0-.54-2.87L330,234.46a4.35,4.35,0,0,0,3.38,2.09,4.17,4.17,0,0,0,4.6-3.68,4.11,4.11,0,0,0-3.3-4.3l-.34-17.81a5.35,5.35,0,1,0-1.43,0l.34,17.68a4.13,4.13,0,0,0-3.78,3.67,3.9,3.9,0,0,0,.1,1.28l-14.48,5.86a8.9,8.9,0,0,0-7.83-4.5,9,9,0,0,0-6.92,3.17l-10.83-8a7.18,7.18,0,0,0,1.26-3.49,7.77,7.77,0,0,0-7.3-8.22,8.31,8.31,0,0,0-2.6.19l-3-22.29a6.06,6.06,0,0,0,4.74-5.82,5.8,5.8,0,0,0-1-3.23l22.28-17.51a5.13,5.13,0,0,0,3.9,1.77,4.86,4.86,0,1,0-5.06-4.86,4.67,4.67,0,0,0,.39,1.87L280.66,186a6.4,6.4,0,0,0-4.34-1.69,6,6,0,1,0,0,12h.09l3,22.56a7.51,7.51,0,0,0-4.59,6.21,7.29,7.29,0,0,0,.19,2.39l-27,10.93a16.62,16.62,0,0,0-14.61-8.4,16.79,16.79,0,0,0-12.9,5.92l-21.67-16a11.85,11.85,0,0,0,2.27-7,12.07,12.07,0,0,0-4.88-9.61L211,188.18a5.12,5.12,0,0,0,3.88,1.75,4.86,4.86,0,1,0,0-9.72h-.24l-3.54-19a6.9,6.9,0,1,0-1.49-.14l3.62,19.36a4.89,4.89,0,0,0-3.41,4.6,4.71,4.71,0,0,0,.39,1.87l-15.11,15.57a13.38,13.38,0,0,0-6.88-1.89c-7.17,0-13,5.51-13,12.31S181,225.25,188.17,225.25Z" style="fill:url(#linear-gradient-17)"/></g><g style="mask:url(#mask-14)"><path d="M352.23,292.31a2.28,2.28,0,0,0,1.63-.12l9.45,10.64a4.21,4.21,0,0,0-.9,1.48,4.31,4.31,0,0,0,.4,3.83L352,324.32h2.57l9.83-14.73a3,3,0,0,0,.41.18,4.19,4.19,0,0,0,4.78-1.48l11.07,4.07a4.31,4.31,0,1,0,.44-1.36l-10.86-4a4.33,4.33,0,0,0-.07-2.89l12.28-9.95a2.49,2.49,0,0,0,.82.49,2.77,2.77,0,1,0-1.57-3.52,2.84,2.84,0,0,0,0,1.82l-12.24,9.92a4,4,0,0,0-1.66-1.16,4.15,4.15,0,0,0-3.35.25l-9.5-10.71a2.83,2.83,0,0,0,.28-.58,2.46,2.46,0,0,0-.51-2.35l11.58-21.72a4.21,4.21,0,0,0,1.18.17,4.08,4.08,0,0,0,3.72-2.33l37,8.29a4.81,4.81,0,0,0-.11,1,5.37,5.37,0,0,0,10.73,0,5.12,5.12,0,0,0-2.71-4.47l7.5-18.7a5.64,5.64,0,0,0,.93.08,5.41,5.41,0,0,0,4-1.76l18.68,5v0a2.83,2.83,0,1,0,2.82-2.72,2.86,2.86,0,0,0-2.42,1.33l-18.23-4.91a4.94,4.94,0,0,0,.49-2.14,5,5,0,0,0-1.31-3.36L444.32,225a5.17,5.17,0,0,0,2.63.71,4.86,4.86,0,1,0-5.07-4.86,4.7,4.7,0,0,0,1.32,3.26l-15.75,17.15a5.44,5.44,0,0,0-3-.87,5.26,5.26,0,0,0-5.37,5.15,5.15,5.15,0,0,0,3.07,4.65l-7.46,18.61a5.25,5.25,0,0,0-1.32-.17,5.38,5.38,0,0,0-4.76,2.78l-37.13-8.32c0-.06,0-.12,0-.18a4.06,4.06,0,0,0-8.12,0A3.84,3.84,0,0,0,365,266L353.47,287.6a2.44,2.44,0,0,0-1.24,4.71Z" style="fill:url(#linear-gradient-18)"/></g><g style="mask:url(#mask-19)"><path d="M9.05,313.77a16.85,16.85,0,0,1-4.23-.55L.57,322.69V285a16.58,16.58,0,0,1,8.48-2.3c9,0,16.2,7,16.2,15.53S18,313.77,9.05,313.77Z" style="fill:url(#linear-gradient-19)"/></g><g style="mask:url(#mask-14)"><path d="M45.2,306.54a4.48,4.48,0,0,0,5-3.67l27.4-3.72a14.7,14.7,0,0,0,3.51,9.66l-8.15,9.08a6.11,6.11,0,0,0-2.62-1,6.21,6.21,0,0,0-6.95,5.39,6.11,6.11,0,0,0,.07,2.05h12.1c0-.14.06-.28.08-.43a6.25,6.25,0,0,0-1.14-4.51l8.12-9a14.2,14.2,0,0,0,7.56,3.43l.2,0-1,10.53h2.16l1-10.45a14.47,14.47,0,0,0,10.9-5.5l30.68,15.95h16.56a8.4,8.4,0,0,0-14.49-2.95l-30.87-16.05a15,15,0,0,0,1.21-4.2,14.76,14.76,0,0,0-.43-5.95l24.31-10.39a6.17,6.17,0,0,0,11.35-2.55,6.3,6.3,0,0,0-.46-3.3l10.8-6.3a10.41,10.41,0,0,0,.92,1.09,8.79,8.79,0,0,0,12.43.34,8.18,8.18,0,0,0,1.68-2.45l14.62,6.22a4.41,4.41,0,0,0,.93,3.94,4.14,4.14,0,1,0,.36-6,3.78,3.78,0,0,0-.84,1l-14.67-6.24a9.09,9.09,0,0,0-2.39-8.9,9.19,9.19,0,0,0-7.27-2.71l-2.15-14.58a6.45,6.45,0,0,0,3.56-1.81,7.11,7.11,0,1,0-9.78-.27,7.3,7.3,0,0,0,4.6,2.14l2.19,14.81a8.21,8.21,0,0,0-3.58,2.08,8.64,8.64,0,0,0-1.24,10.38l-10.71,6.25a6.12,6.12,0,0,0-4.31-2.7,6.22,6.22,0,0,0-6.95,5.38,6.39,6.39,0,0,0,.1,2.19l-24.24,10.36a14.57,14.57,0,0,0-7-7.23L111.91,248c.15,0,.31.07.47.09a6.23,6.23,0,1,0-2.46-.9l-13.62,38a15.41,15.41,0,0,0-2.28-.51A14.34,14.34,0,0,0,85.76,286l-14.6-28.58a10.45,10.45,0,1,0-7.63,2,10.2,10.2,0,0,0,4.45-.39L82.76,288a14.72,14.72,0,0,0-5,8.95l-27.69,3.77a4.49,4.49,0,1,0-4.87,5.81Z" style="fill:url(#linear-gradient-20)"/></g><g style="mask:url(#mask-21)"><path d="M187,237.62a6.26,6.26,0,1,1-6.25-6A6.13,6.13,0,0,1,187,237.62Z" style="fill:url(#linear-gradient-21)"/></g></g><g id="move"><path d="M804.39,8.32c.09.16.17.33.26.48L767.88,31.33a14.26,14.26,0,0,0-24.94,8.47,13.92,13.92,0,0,0,.41,4.2l-32.69,4.48a15.81,15.81,0,0,0-7-9.07l6.88-15.09A3.84,3.84,0,0,0,714.88,22a3.72,3.72,0,1,0-6.85-2.9,3.85,3.85,0,0,0,1,4.43l-6.87,15A16.93,16.93,0,0,0,694.85,37a16.31,16.31,0,0,0-15.78,11.48L657,47.82a6.25,6.25,0,1,0-.06,1.72l21.73.6a15.1,15.1,0,0,0-.21,2.54,15.58,15.58,0,0,0,7.94,13.47L676.45,88.3a12,12,0,0,0-3-.38A10.85,10.85,0,1,0,684.8,98.76a10.72,10.72,0,0,0-5.19-9.11l9.93-22.1a16.92,16.92,0,0,0,5.31.85,16.73,16.73,0,0,0,11.06-4.11l29.6,20.88a7.54,7.54,0,0,0-1.15,4,8.21,8.21,0,1,0,8.2-7.87,8.33,8.33,0,0,0-5.56,2.1L707.54,62.64a15.32,15.32,0,0,0,3.52-12.4l32.87-4.5a14.26,14.26,0,0,0,27.45-4.39,13.89,13.89,0,0,0-1-5.92l37.23-22.82a19.67,19.67,0,0,0,7.94,4.86V8.32Z" style="fill:#f15b3a;opacity:0.2"/><path d="M815.57,87.56a12.43,12.43,0,0,0-7.07,11.08,11.74,11.74,0,0,0,.81,4.27l-21.51,8.7a6.43,6.43,0,0,0-4.48-3,7,7,0,0,0-1-.15A6.36,6.36,0,0,0,778.16,120l-10.28,24.16a11.2,11.2,0,0,0-7.67,0L751,126.44a4.73,4.73,0,1,0-3.09.92,4.74,4.74,0,0,0,1.65-.2l9.2,17.63a11,11,0,0,0-5,5.7l-29.3-8c0-.12,0-.24,0-.36a4.69,4.69,0,1,0-.53,1.9l29.34,8a10.11,10.11,0,0,0-.25,1.75,10.77,10.77,0,0,0,1.51,6.13l-20.64,12.65a8,8,0,0,0-14,4.75,7.88,7.88,0,0,0,4,7.29l-6.52,13.63a10.77,10.77,0,0,0-1.62-.46,10.4,10.4,0,0,0-12.38,7.92,9.69,9.69,0,0,0,0,3.52l-18.42,3.62a5.2,5.2,0,0,0-3.53-3.24,4.89,4.89,0,1,0,3.63,6.1,4.73,4.73,0,0,0,.16-1.53l18.48-3.64a10.73,10.73,0,0,0,8.24,7.12,10.9,10.9,0,0,0,8.91-2.18l11.79,12.82a7.67,7.67,0,0,0-2.29,4.13,8.4,8.4,0,1,0,9.74-6.23,8.56,8.56,0,0,0-5.91,1l-12-13a9.75,9.75,0,0,0,2.11-4.41,10.2,10.2,0,0,0-5.68-11l6.5-13.58a8.32,8.32,0,0,0,2.31.47,8,8,0,0,0,8.41-7.46,7.82,7.82,0,0,0-.55-3.32l20.9-12.81a11.11,11.11,0,0,0,7,3.24l4.45,20.61a3.37,3.37,0,0,0-2.16,3,3.42,3.42,0,1,0,3.77-3.17l-4.4-20.38a11.1,11.1,0,0,0,7.06-3.21l7.3,5.6a4.72,4.72,0,1,0,4.36-2.37,4.78,4.78,0,0,0-3.32,1.12L773,160.88a10.94,10.94,0,0,0,2.14-5.89.75.75,0,0,1,0-.15l21.68.47a3.39,3.39,0,1,0,.15-1.61l-21.9-.48a11,11,0,0,0-4.77-7.88L780.63,121a7.4,7.4,0,0,0,1,.13,6.45,6.45,0,0,0,6-3.39,5.87,5.87,0,0,0,1-2.71,5.47,5.47,0,0,0-.16-1.9L810,104.43a12.88,12.88,0,0,0,5.56,5.27Z" style="fill:#f15b3a;opacity:0.2"/><g style="mask:url(#mask-22)"><path d="M757.64,11.65l1.78-3.33h-1.88l-1.39,2.6a4.78,4.78,0,0,0-5.68,2.51L727.7,8.32h-7.59l30,6.72c0,.07,0,.14,0,.21a4.72,4.72,0,0,0,9.43,0A4.46,4.46,0,0,0,757.64,11.65Z" style="fill:url(#linear-gradient-22)"/></g><g style="mask:url(#mask-22)"><path d="M795,75.75l-.39-20.54A4.79,4.79,0,0,0,799,51a4.58,4.58,0,0,0-.12-1.49l16.74-6.77V33.78a9.2,9.2,0,0,0-.46,7.69l-16.78,6.78a5,5,0,0,0-3.92-2.42,4.7,4.7,0,0,0-1.51,9.27l.39,20.68a6.23,6.23,0,1,0,1.66,0Z" style="fill:url(#linear-gradient-23)"/></g><g style="mask:url(#mask-22)"><path d="M698.14,8.32l-8.51,21.22a6.39,6.39,0,0,0-5.75,1.95l-21.69-5.84v0a3.29,3.29,0,1,0-3.28,3.15,3.32,3.32,0,0,0,2.81-1.54l21.18,5.7a5.75,5.75,0,0,0,1,6.39l-18.33,20a6,6,0,0,0-3-.82,5.65,5.65,0,1,0,5.88,5.64,5.46,5.46,0,0,0-1.53-3.78l18.29-19.91a6.42,6.42,0,0,0,3.45,1,6.11,6.11,0,0,0,6.23-6,6,6,0,0,0-3.56-5.4l8.66-21.62a6.49,6.49,0,0,0,1.54.19,6.29,6.29,0,0,0,1.86-.28Z" style="fill:url(#linear-gradient-24)"/></g></g></g></g></svg>