<svg xmlns="http://www.w3.org/2000/svg" xmlns:xlink="http://www.w3.org/1999/xlink" viewBox="0 0 332.79 823.34"><defs><filter id="luminosity-noclip" x="8.53" y="-8404.54" width="202.32" height="32766" filterUnits="userSpaceOnUse" color-interpolation-filters="sRGB"><feFlood flood-color="#fff" result="bg"/><feBlend in="SourceGraphic" in2="bg"/></filter><mask id="mask" x="8.53" y="-8404.54" width="202.32" height="32766" maskUnits="userSpaceOnUse"><g style="filter:url(#luminosity-noclip)"/></mask><linearGradient id="linear-gradient" x1="1206.92" y1="131.04" x2="1633.07" y2="712.51" gradientTransform="matrix(0, 1, 1, 0, -249.21, -622.51)" gradientUnits="userSpaceOnUse"><stop offset="0"/><stop offset="0.05" stop-color="#1e1e1e"/><stop offset="0.15" stop-color="#525252"/><stop offset="0.26" stop-color="gray"/><stop offset="0.37" stop-color="#a7a7a7"/><stop offset="0.48" stop-color="#c7c7c7"/><stop offset="0.6" stop-color="#e0e0e0"/><stop offset="0.72" stop-color="#f1f1f1"/><stop offset="0.85" stop-color="#fcfcfc"/><stop offset="1" stop-color="#fff"/></linearGradient><filter id="luminosity-noclip-2" x="147.87" y="-8404.54" width="403.2" height="32766" filterUnits="userSpaceOnUse" color-interpolation-filters="sRGB"><feFlood flood-color="#fff" result="bg"/><feBlend in="SourceGraphic" in2="bg"/></filter><mask id="mask-2" x="147.87" y="-8404.54" width="403.2" height="32766" maskUnits="userSpaceOnUse"><g style="filter:url(#luminosity-noclip-2)"/></mask><linearGradient id="linear-gradient-2" x1="936.65" y1="329.11" x2="1362.79" y2="910.58" xlink:href="#linear-gradient"/><filter id="luminosity-noclip-4" x="282.71" y="-8404.54" width="39.98" height="32766" filterUnits="userSpaceOnUse" color-interpolation-filters="sRGB"><feFlood flood-color="#fff" result="bg"/><feBlend in="SourceGraphic" in2="bg"/></filter><mask id="mask-4" x="282.71" y="-8404.54" width="39.98" height="32766" maskUnits="userSpaceOnUse"><g style="filter:url(#luminosity-noclip-4)"/></mask><linearGradient id="linear-gradient-4" x1="1157.41" y1="167.32" x2="1583.55" y2="748.79" xlink:href="#linear-gradient"/><filter id="luminosity-noclip-5" x="231.62" y="-8404.54" width="12.01" height="32766" filterUnits="userSpaceOnUse" color-interpolation-filters="sRGB"><feFlood flood-color="#fff" result="bg"/><feBlend in="SourceGraphic" in2="bg"/></filter><mask id="mask-5" x="231.62" y="-8404.54" width="12.01" height="32766" maskUnits="userSpaceOnUse"><g style="filter:url(#luminosity-noclip-5)"/></mask><linearGradient id="linear-gradient-5" x1="1075.14" y1="227.56" x2="1501.35" y2="809.11" xlink:href="#linear-gradient"/><filter id="luminosity-noclip-6" x="-319.5" y="-8404.54" width="468.33" height="32766" filterUnits="userSpaceOnUse" color-interpolation-filters="sRGB"><feFlood flood-color="#fff" result="bg"/><feBlend in="SourceGraphic" in2="bg"/></filter><mask id="mask-6" x="-319.5" y="-8404.54" width="468.33" height="32766" maskUnits="userSpaceOnUse"><g style="filter:url(#luminosity-noclip-6)"/></mask><linearGradient id="linear-gradient-6" x1="348.71" y1="1465.35" x2="843.69" y2="2140.75" gradientTransform="matrix(0, -1, -1, 0, 1693.13, 581.9)" xlink:href="#linear-gradient"/><filter id="luminosity-noclip-7" x="242.81" y="-8404.54" width="12.49" height="32766" filterUnits="userSpaceOnUse" color-interpolation-filters="sRGB"><feFlood flood-color="#fff" result="bg"/><feBlend in="SourceGraphic" in2="bg"/></filter><mask id="mask-7" x="242.81" y="-8404.54" width="12.49" height="32766" maskUnits="userSpaceOnUse"><g style="filter:url(#luminosity-noclip-7)"/></mask><linearGradient id="linear-gradient-7" x1="1184.14" y1="147.74" x2="1610.28" y2="729.2" xlink:href="#linear-gradient"/><clipPath id="clip-path"><rect x="7.92" y="7.77" width="317" height="815.57" style="fill:none"/></clipPath><filter id="luminosity-noclip-13" x="8.53" y="626.46" width="202.32" height="196.32" filterUnits="userSpaceOnUse" color-interpolation-filters="sRGB"><feFlood flood-color="#fff" result="bg"/><feBlend in="SourceGraphic" in2="bg"/></filter><mask id="mask-13" x="8.53" y="626.46" width="202.32" height="196.32" maskUnits="userSpaceOnUse"><g style="mask:url(#mask);filter:url(#luminosity-noclip-13)"><path d="M199.41,822.78l-9.16-16.3a14.46,14.46,0,0,1-17.35-2.37,13.6,13.6,0,0,1-3.39-6.05l-24.88,3.26a12.18,12.18,0,0,1-3.7,7.65c-4.73,4.56-12.07,4.61-16.4.13a11.53,11.53,0,0,1-.08-15.52L116,786.26a8,8,0,0,1-9.42,2,7.55,7.55,0,0,1-2.88-2.51L91.47,792a6.69,6.69,0,0,1-.5,4.64,6.37,6.37,0,0,1-8.46,3.09,5.8,5.8,0,0,1-1.5-1.06L64.75,812.93A7.22,7.22,0,0,1,65.87,816a7,7,0,0,1-3.14,6.78H55.84a7.08,7.08,0,0,1-3.26-5.17,7.48,7.48,0,0,1,0-1.77l-23.36-6a4.68,4.68,0,0,1-7.41,2l-11.24,11H8.53l12.34-12a5,5,0,0,1-.84-2.24,4.79,4.79,0,1,1,9.51-1.15,5.47,5.47,0,0,1,0,1.07l23.36,6a6.56,6.56,0,0,1,10.94-2.63l16.26-14.24a6.63,6.63,0,0,1-.25-6.43,6.37,6.37,0,0,1,8.46-3.09A6,6,0,0,1,91,790.63L103,784.44a8.44,8.44,0,0,1,.22-7.14,8.34,8.34,0,0,1,7-4.71L111.42,758a3.58,3.58,0,0,1-1.12-.44,3.82,3.82,0,0,1-1.71-4L85.87,738a6.59,6.59,0,0,1-5.18,2.56,6.66,6.66,0,0,1-6-3.86l-22.47,8.78a4.66,4.66,0,0,1,.12,1.06,4.79,4.79,0,1,1-9.58,0,5.2,5.2,0,0,1,.56-2.33L29.8,733.92a3.77,3.77,0,0,1-2.73,1.19,4,4,0,1,1,3.83-4,4.14,4.14,0,0,1-.32,1.59l13.57,10.36a4.68,4.68,0,0,1,7.6,1.1l22.47-8.79a7.25,7.25,0,0,1-.23-1.76,7,7,0,0,1,3.4-6.06l-7-19.08a4.52,4.52,0,0,1-1.91.42,5,5,0,1,1,4.79-5,5,5,0,0,1-1.65,3.76l7,19.29a6.53,6.53,0,0,1,2-.31,6.84,6.84,0,0,1,6.69,7,7.2,7.2,0,0,1-.75,3.19l22.48,15.33,0,0a3.81,3.81,0,1,1,6.51,3.95,4.08,4.08,0,0,1-3.17,2l-1.11,14.59a7.41,7.41,0,0,1,2.64.74,8.1,8.1,0,0,1,3.37,10.94,9.15,9.15,0,0,1-.68,1.13l8.48,7.38.08-.09c4.73-4.56,12.07-4.62,16.4-.13a10.86,10.86,0,0,1,2.93,6l24.49-3.21a15.39,15.39,0,0,1,4.75-12.11,15.19,15.19,0,0,1,15-3.75l10.87-24.4a6.65,6.65,0,0,1-1.65-1.45,7.11,7.11,0,0,1,1.19-9.88l-16.27-28.7a5.93,5.93,0,0,1-1.79.28,6.13,6.13,0,0,1-6-6.25,6.22,6.22,0,0,1,4.49-6l.27-30.48a6.3,6.3,0,0,1-3.1-5.48c0-.22,0-.44,0-.65L156.29,663a4.53,4.53,0,0,1-4.21,3.06,4.64,4.64,0,0,1-4.51-4.76c0-.14,0-.28,0-.42l-12.15-3.17a8,8,0,0,1-7.56,6,7.57,7.57,0,0,1-3.68-1L116,673.75a6.75,6.75,0,0,1,1.61,4.38,6.21,6.21,0,1,1-6.2-6.53,6,6,0,0,1,3.5,1.14L123,661.83a8.48,8.48,0,0,1-3-6.5,8.37,8.37,0,0,1,4.23-7.35l-5.51-13.61a3.41,3.41,0,0,1-1.2.1,4,4,0,1,1,4.14-3.67,4.07,4.07,0,0,1-2,3.17l5.49,13.57a7.35,7.35,0,0,1,2.69-.51,8.1,8.1,0,0,1,7.88,8.3,9.39,9.39,0,0,1-.1,1.31l12.13,3.17a4.53,4.53,0,0,1,4.29-3.29,4.65,4.65,0,0,1,4.52,4.75,2.83,2.83,0,0,1,0,.3l20.56,3.51a6,6,0,0,1,5.66-4.2,6.26,6.26,0,0,1,0,12.51,4.77,4.77,0,0,1-.76-.06l-.27,29.59a6.17,6.17,0,0,1,5.38,6.22,6.32,6.32,0,0,1-2.34,4.94L201,742.66a7,7,0,0,1,8.34,1.82,7.13,7.13,0,0,1-1.31,10,7.39,7.39,0,0,1-6.63,1.44l-10.84,24.33a13.47,13.47,0,0,1,4.07,2.89c5.5,5.7,5.09,15-.92,20.81a15.36,15.36,0,0,1-1.84,1.51l9.72,17.33Z" style="mix-blend-mode:multiply;fill:url(#linear-gradient)"/></g></mask><linearGradient id="linear-gradient-13" x1="1206.92" y1="131.04" x2="1633.07" y2="712.51" gradientTransform="matrix(0, 1, 1, 0, -249.21, -622.51)" gradientUnits="userSpaceOnUse"><stop offset="0" stop-color="#fdb519"/><stop offset="0" stop-color="#fdb61b"/><stop offset="0.11" stop-color="#fdc74f"/><stop offset="0.22" stop-color="#fed67d"/><stop offset="0.34" stop-color="#fee2a4"/><stop offset="0.45" stop-color="#ffedc4"/><stop offset="0.58" stop-color="#fff5dd"/><stop offset="0.7" stop-color="#fffbee"/><stop offset="0.84" stop-color="#fffef9"/><stop offset="1" stop-color="#fffffc"/></linearGradient><filter id="luminosity-noclip-14" x="242.81" y="812.41" width="12.49" height="10.37" filterUnits="userSpaceOnUse" color-interpolation-filters="sRGB"><feFlood flood-color="#fff" result="bg"/><feBlend in="SourceGraphic" in2="bg"/></filter><mask id="mask-14" x="242.81" y="812.41" width="12.49" height="10.37" maskUnits="userSpaceOnUse"><g style="mask:url(#mask-7);filter:url(#luminosity-noclip-14)"><path d="M244.49,822.78a6.2,6.2,0,1,1,10.57-2.43,6,6,0,0,1-1.38,2.43Z" style="mix-blend-mode:multiply;fill:url(#linear-gradient-7)"/></g></mask><linearGradient id="linear-gradient-14" x1="1184.14" y1="147.74" x2="1610.28" y2="729.2" xlink:href="#linear-gradient-13"/><filter id="luminosity-noclip-15" x="147.87" y="219.37" width="403.2" height="603.4" filterUnits="userSpaceOnUse" color-interpolation-filters="sRGB"><feFlood flood-color="#fff" result="bg"/><feBlend in="SourceGraphic" in2="bg"/></filter><mask id="mask-15" x="147.87" y="219.37" width="403.2" height="603.4" maskUnits="userSpaceOnUse"><g style="mask:url(#mask-2);filter:url(#luminosity-noclip-15)"><path d="M551.07,822.78v-7.34c-5.27-11-16.07-18.5-28.54-18.5A30.38,30.38,0,0,0,511.6,799l-4.49-11.09,44-2.07V783L506,785.1,489.33,744a16.76,16.76,0,0,0,1.61-27.48l21.6-30.63A19.06,19.06,0,0,0,525,690.47a20.22,20.22,0,0,0,3-.24l6.45,47a6,6,0,0,0,.91,11.8,5.72,5.72,0,0,0,5.31-3.81L551.07,749v-3L541,742.35a5.86,5.86,0,0,0-4.27-5l-6.53-47.65A19.79,19.79,0,0,0,541.54,681l9.53,4.35V683l-8.51-3.89a21.14,21.14,0,0,0-2.69-22.39l11.2-10.33v-2.91L538.43,655.1a19.46,19.46,0,0,0-8.15-4.81l.76-27.55a7.43,7.43,0,0,0,2.48-.74,10.87,10.87,0,0,0,4.6-3.32,11.5,11.5,0,0,0,1-1.4l12,.93v-2.15L540,615.2a12,12,0,0,0-4-13,12.36,12.36,0,0,0-8.13-2.78l-6.29-24.55a13.89,13.89,0,0,0,5.66-4.14,14.62,14.62,0,0,0,.27-17.69l18.62-13.64c.18.18.37.35.57.52a9,9,0,0,0,4.37,1.93V525.08a8.93,8.93,0,0,0-1.71.25l-22.91-39.89a5.55,5.55,0,0,0,.48-.49,6.58,6.58,0,0,0,1.67-2.18,6.74,6.74,0,0,0,.61-2.13l21.86-.5v-1.95l-21.92.51a7.41,7.41,0,0,0-2.73-4.52l-.39-.33,22.06-61a6.22,6.22,0,0,0,3,.59V398.71c-.18,0-.36,0-.55,0a6.65,6.65,0,0,0-6.31,4.83l-15.11-4a12.24,12.24,0,0,0,.14-1.73c0-6.07-4.68-11-10.44-11a10.07,10.07,0,0,0-3.57.67l-7.27-18a5.42,5.42,0,0,0,2.6-4.21,5.2,5.2,0,0,0-4.58-5.73,5,5,0,0,0-4.24,1.83l-20.09-10.71a4.21,4.21,0,0,0,.17-1.18,4.08,4.08,0,0,0-2.33-3.72l8.29-37a4.81,4.81,0,0,0,1,.11,5.37,5.37,0,0,0,0-10.73,5.12,5.12,0,0,0-4.47,2.71l-18.7-7.5a5.74,5.74,0,0,0,.08-.93,5.26,5.26,0,0,0-5.15-5.36,5,5,0,0,0-3.36,1.31L440.7,273.3a6.94,6.94,0,0,0-.5-8.29,7.07,7.07,0,0,0-10-.4,7.41,7.41,0,0,0-2.48,4.55l-15.24,1.25a8.37,8.37,0,0,0-1.88-3.79,8.81,8.81,0,0,0-10.5-1.95l-6.22-12.46c.12-.09.25-.19.36-.29a5.14,5.14,0,0,0,.76-7.13l8.56-17.43a3.64,3.64,0,0,0,.74.07,4,4,0,1,0-3.87-4,4.13,4.13,0,0,0,1.23,2.95l-8.39,17.11a5.31,5.31,0,0,0-5.62.92,5.15,5.15,0,0,0-.67,7.24,5,5,0,0,0,5.89,1.18l6.21,12.44a9.58,9.58,0,0,0-1.17.87,9,9,0,0,0-1.17,12.64,8,8,0,0,0,2.39,1.88l-7.32,14.49a4.52,4.52,0,0,0-4.08.68,4.23,4.23,0,1,0,6.09.77,4,4,0,0,0-1-.93l7.34-14.53a9.28,9.28,0,0,0,9.22-1.84,9.41,9.41,0,0,0,3.25-7.24l15-1.23a6.56,6.56,0,0,0,1.6,3.76,7.06,7.06,0,0,0,10,.4c.19-.17.38-.34.55-.52l16.45,15.11a5.34,5.34,0,0,0-.85,2.75l-17,8.4a2.66,2.66,0,0,0-2.06-1,2.83,2.83,0,1,0,2.71,2.83,3,3,0,0,0-.05-.52l16.51-8.18a5.19,5.19,0,0,0,5,4.05,5.13,5.13,0,0,0,4.65-3.06l18.61,7.46a5.25,5.25,0,0,0-.17,1.32,5.38,5.38,0,0,0,2.78,4.76l-8.32,37.13h-.18a4.06,4.06,0,0,0,0,8.12A3.84,3.84,0,0,0,481,352l20,10.65a5.75,5.75,0,0,0-.48,1.82,5.2,5.2,0,0,0,4.58,5.73,5.27,5.27,0,0,0,1.59-.13l7.29,18a11.31,11.31,0,0,0-1.66,18.34l-10.69,14.46a7.92,7.92,0,0,0-4.64-1.51,8.06,8.06,0,0,0-6.36,3.18L471.83,405.3a5.2,5.2,0,0,0,.71-2.63,5,5,0,0,0-4.86-5.06,4.74,4.74,0,0,0-3.61,1.67l-24.88-29.5a2.89,2.89,0,0,0,.46-1.57,2.72,2.72,0,1,0-2.72,2.82,2.54,2.54,0,0,0,1.2-.3l25.14,29.82a5.13,5.13,0,0,0-.45,2.12,5.47,5.47,0,0,0,.09,1l-16.49,3.6a5.18,5.18,0,0,0-4.93-3.82,5.36,5.36,0,1,0,5.14,5.36v-.13L463.38,405a4.75,4.75,0,0,0,7.56,1.39l18.88,17.35a9,9,0,0,0-1.06,4.25,8.23,8.23,0,1,0,16.43,0,8.88,8.88,0,0,0-2.14-5.8l10.86-14.68a10,10,0,0,0,4.89,1.28,10.52,10.52,0,0,0,10-7.9l15.14,4a5.17,5.17,0,0,0,0,.68,7.08,7.08,0,0,0,1,3.66,6.33,6.33,0,0,0,1.35,2.28l-22.14,61.28a6.76,6.76,0,0,0-2.46-.46,7.51,7.51,0,0,0,0,15,7,7,0,0,0,3-.68l22.69,39.5a8,8,0,0,0-2.2,1.87,8.34,8.34,0,0,0-.28,9.94l-18.6,13.62a17.21,17.21,0,0,0-1.74-1.67c-6.54-5.32-15.94-4.6-21,1.61a13.88,13.88,0,0,0-2.4,4.43l-24.93-7.67c0-.11,0-.21,0-.32a8.51,8.51,0,0,0-8-9A8.41,8.41,0,0,0,461,542.5l-32-13.62a14.9,14.9,0,0,0,0-10.18l23.43-12.24a6.14,6.14,0,0,0,4.61,2.48,6.26,6.26,0,1,0-5.57-4.4l-23.36,12.2a14.59,14.59,0,0,0-7.56-6.66l10.63-38.84.48.05a6.2,6.2,0,1,0-2.53-.7l-10.64,38.89a14.61,14.61,0,0,0-2.31-.34,14.32,14.32,0,0,0-8.14,2l-16.76-27.37A10.55,10.55,0,1,0,374,476.94l-17.79,3.95a11.5,11.5,0,0,0-5.11-5.53l10.45-28.45a7.25,7.25,0,0,0,3.57-14,7.67,7.67,0,0,0-4.91-.14l-9.85-17.48a4,4,0,0,0,1-2.65,3.74,3.74,0,1,0-3.74,3.89,3.37,3.37,0,0,0,.9-.12l9.74,17.3a7.13,7.13,0,0,0-2.71,3.43,7.35,7.35,0,0,0,3.3,8.82L348.4,474.3a11.41,11.41,0,0,0-11.11,3.1l-27.7-18.48a2.87,2.87,0,0,0,.18-.4,4.19,4.19,0,0,0-1.48-4.78l4.07-11.08a4.31,4.31,0,1,0-1.36-.44l-4,10.86a4.4,4.4,0,0,0-2.89.07l-9.95-12.27a2.67,2.67,0,0,0-1.18-4.3,2.69,2.69,0,1,0-1.85,5,2.78,2.78,0,0,0,1.82,0l9.92,12.23a4.06,4.06,0,0,0-1.16,1.67,4.13,4.13,0,0,0,.25,3.34l-10.71,9.51a2.07,2.07,0,0,0-.58-.28,2.44,2.44,0,0,0-2.35.51L266.6,457.05a4.16,4.16,0,0,0,.17-1.18,4.06,4.06,0,0,0-2.33-3.71l8.29-37a5.58,5.58,0,0,0,1,.1,5.36,5.36,0,0,0,0-10.72,5.13,5.13,0,0,0-4.47,2.7l-18.7-7.5a5.62,5.62,0,0,0,.08-.92,5.42,5.42,0,0,0-1.76-4l5-18.67h0a2.83,2.83,0,1,0-2.72-2.83,2.86,2.86,0,0,0,1.33,2.42L247.64,394a4.81,4.81,0,0,0-2.14-.49,5,5,0,0,0-3.36,1.3L225,379a5.14,5.14,0,0,0,.71-2.62,4.86,4.86,0,1,0-4.86,5.06,4.74,4.74,0,0,0,3.26-1.31l17.15,15.74a5.45,5.45,0,0,0-.87,3,5.26,5.26,0,0,0,5.15,5.36,5.15,5.15,0,0,0,4.65-3.07l18.61,7.46a5.33,5.33,0,0,0-.17,1.33,5.4,5.4,0,0,0,2.78,4.76l-8.32,37.12h-.18a4.06,4.06,0,0,0,0,8.11,3.84,3.84,0,0,0,3.1-1.6l21.63,11.54a2.44,2.44,0,0,0,4.71,1.25,2.28,2.28,0,0,0-.12-1.63L302.83,460a4.52,4.52,0,0,0,1.48.9,4.32,4.32,0,0,0,3.83-.41L336,479.09a10.82,10.82,0,0,0-1,2,11.1,11.1,0,0,0,3.32,12.24l-11,15.65a4.35,4.35,0,0,0-4.74.61,4.26,4.26,0,0,0-.68,6,4.07,4.07,0,0,0,.86.75l.13.1-6.24,14.66a9.08,9.08,0,0,0-8.9,2.38,9.22,9.22,0,0,0-2.71,7.28l-14.58,2.15a6.5,6.5,0,0,0-1.8-3.56,7.11,7.11,0,1,0-.27,9.78,7.34,7.34,0,0,0,2.13-4.6l14.81-2.19a8.12,8.12,0,0,0,2.08,3.57,8.63,8.63,0,0,0,10.38,1.25l6.87,11.77-.34.31a4.91,4.91,0,1,0,7.12-.17,4.93,4.93,0,0,0-5.83-.78l-6.86-11.76a9.48,9.48,0,0,0,1.09-.92,8.79,8.79,0,0,0,.34-12.43,8.06,8.06,0,0,0-2.45-1.68L323.88,517l.16.06a4.22,4.22,0,0,0,5.46-2.42,4,4,0,0,0-.14-3.12,3.75,3.75,0,0,0-.45-1.08l11.14-15.87a11.5,11.5,0,0,0,1.84.87A11.26,11.26,0,0,0,356.45,489a10.68,10.68,0,0,0,.39-6.06l17.55-3.9a10.49,10.49,0,0,0,9.4,7.35,10.29,10.29,0,0,0,4.4-.74l17,27.71a14.71,14.71,0,0,0-4.29,9.31l-27.32,5.9a4.53,4.53,0,1,0,.28,2.13l27-5.83a14.68,14.68,0,0,0,4.25,9.36l-7.43,9.68a6,6,0,0,0-2.69-.8,6.24,6.24,0,1,0,4.34,2.17l7.4-9.64a14.31,14.31,0,0,0,7.8,2.84h.2l-.62,28.74a2.27,2.27,0,0,0-.25.06,4.65,4.65,0,0,0-1.56.56,4.91,4.91,0,0,0,5,8.43,4.49,4.49,0,0,0,1.12-1l15.13,9.6a10.42,10.42,0,0,0,8.61,14.63l-.26,16.58a7.27,7.27,0,0,0-4.29,1.35,8,8,0,1,0,10.8,2.08,8.17,8.17,0,0,0-4.71-3.21l.26-16.82a9.3,9.3,0,0,0,4.35-1.67,9.69,9.69,0,0,0,3.26-11.28l14.32-5.49a4.08,4.08,0,0,0,.28.44,5.52,5.52,0,1,0,1.1-7.93,5.53,5.53,0,0,0-1.92,6.32l-14.3,5.47a10.78,10.78,0,0,0-.82-1.37,9.9,9.9,0,0,0-13.73-2.64,9.15,9.15,0,0,0-2.31,2.42l-15.09-9.57a4.93,4.93,0,0,0-.31-4.54l-.09-.15a4.52,4.52,0,0,0-2.46-2.11l.63-29a14.51,14.51,0,0,0,10.44-6.34l32.23,13.71a9,9,0,0,0-.18,1.28,8.44,8.44,0,0,0,16.45,3.14l24.84,7.64A15.69,15.69,0,0,0,519,575.68l6.2,24.17a11,11,0,0,0-5.69,3.67c-4,4.88-3,12.24,2.13,16.42a12.35,12.35,0,0,0,7.28,2.79l-.74,27.07a18.61,18.61,0,0,0-3.18-.27,19.46,19.46,0,0,0-16.82,9.92L480.5,647a14.45,14.45,0,0,0,.48-3.68c0-7.8-6.06-14.12-13.53-14.12s-13.53,6.32-13.53,14.12,6.06,14.11,13.53,14.11A13.39,13.39,0,0,0,478.82,651l27.58,12.39a21.38,21.38,0,0,0-1.06,6.64,20.88,20.88,0,0,0,5.14,13.8L488.5,715a14.78,14.78,0,0,0-5.22-1.44,15.59,15.59,0,0,0-15.67,10.07l-30.7-8a24.43,24.43,0,0,0,.29-3.56c0-12.48-9.61-22.61-21.46-22.61a20.37,20.37,0,0,0-7.33,1.39l-14.94-36.93a11.1,11.1,0,0,0,5.34-8.65,10.39,10.39,0,1,0-20.67-1.77c0,.41,0,.82,0,1.22L360,647.81a11.58,11.58,0,0,0-4.86-5.76l11.74-27.94a7.32,7.32,0,0,0,8.3-4.23,7.4,7.4,0,0,0-4.1-9.62,7.85,7.85,0,0,0-3-.6l-2.89-27a6.06,6.06,0,0,0,4.14-5.81,5.84,5.84,0,1,0-6.27,6.05L366,600a7.2,7.2,0,0,0-4.61,4.09,7.34,7.34,0,0,0,2.89,9l-11.7,27.86a11.42,11.42,0,0,0-11.24,2.58l-26.83-19.71.2-.4a4.18,4.18,0,0,0-1.26-4.84L318,607.63a4.15,4.15,0,0,0,2.36-7.93,4.15,4.15,0,0,0-3.7,7.42l-4.48,10.67a4.35,4.35,0,0,0-2.89-.06l-8.06-10.9a9.69,9.69,0,0,0,1.45-5.13,9.21,9.21,0,0,0-9-9.44,9,9,0,0,0-8.53,6.54l-24.09-6.3a17.1,17.1,0,0,0,.21-2.6c0-9.11-7-16.49-15.65-16.49a15,15,0,0,0-5.35,1l-10.89-26.94a8,8,0,0,0,3.89-6.3,8.13,8.13,0,0,0-2.17-6.31l8.11-11a8.11,8.11,0,0,0,3.93,1,8.45,8.45,0,0,0,8-6.35L264.15,522c0,.15,0,.3,0,.45a4.82,4.82,0,1,0,4.81-5.06,4.83,4.83,0,0,0-4.57,3.5l-12.91-3.37a10.72,10.72,0,0,0,.11-1.4,8.63,8.63,0,0,0-8.39-8.84,7.88,7.88,0,0,0-2.87.55l-5.84-14.45a4.33,4.33,0,0,0,2.09-3.38,4.17,4.17,0,0,0-3.68-4.6,4.12,4.12,0,0,0-4.3,3.3l-17.81.34a5.35,5.35,0,1,0,0,1.43l17.68-.33a4.13,4.13,0,0,0,3.67,3.78,4.19,4.19,0,0,0,1.28-.11l5.86,14.49a8.87,8.87,0,0,0-4.5,7.82A9,9,0,0,0,238,523l-8,10.83a7.28,7.28,0,0,0-3.49-1.26,7.78,7.78,0,0,0-8.22,7.3,8.37,8.37,0,0,0,.19,2.61l-22.29,3a6.06,6.06,0,0,0-5.82-4.75,5.81,5.81,0,0,0-3.23,1l-17.51-22.28a5.15,5.15,0,0,0,1.77-3.91,4.86,4.86,0,1,0-4.86,5.06,4.67,4.67,0,0,0,1.87-.39L186,542.69A6.37,6.37,0,0,0,184.3,547a6,6,0,1,0,12,0v-.09l22.56-3.06a7.51,7.51,0,0,0,6.21,4.6,7.29,7.29,0,0,0,2.39-.2l10.93,27a16.59,16.59,0,0,0-8.4,14.6,16.79,16.79,0,0,0,5.92,12.9l-16,21.67a11.85,11.85,0,0,0-7-2.27,12.07,12.07,0,0,0-9.61,4.88L188.18,612.4a5.14,5.14,0,0,0,1.75-3.89,4.86,4.86,0,1,0-9.72,0,2.09,2.09,0,0,0,0,.25l-19,3.54a6.91,6.91,0,1,0-.14,1.48l19.36-3.62a4.88,4.88,0,0,0,4.6,3.41,4.54,4.54,0,0,0,1.87-.39l15.57,15.11a13.42,13.42,0,0,0-1.89,6.89c0,7.16,5.51,13,12.31,13s12.32-5.81,12.32-13a13.33,13.33,0,0,0-3.2-8.71l16.28-22a15,15,0,0,0,7.32,1.92,15.79,15.79,0,0,0,15-11.84l24.12,6.31c0,.28,0,.56,0,.84a9.21,9.21,0,0,0,9,9.44,8.72,8.72,0,0,0,6.63-3.11L308,618.41a4,4,0,0,0-1.23,1.61,4.07,4.07,0,0,0,.09,3.35l-11.13,9a2.21,2.21,0,0,0-.57-.3,2.37,2.37,0,1,0,1.5,3.06,2.31,2.31,0,0,0,0-1.64l11.06-9a4.63,4.63,0,0,0,1.43,1,4.36,4.36,0,0,0,3.85-.23l27,19.8a11,11,0,0,0,1.69,14.36l-10.72,13.86a8.39,8.39,0,0,0-2.88-.92,8.43,8.43,0,0,0-6.63,14.8l-16.05,30.87a14.89,14.89,0,0,0-10.15-.78L284.78,693a6.14,6.14,0,0,0,2.83-4.4,6.26,6.26,0,0,0-8.68-6.49l-6.3-10.8a9.32,9.32,0,0,0,1.09-.92,8.79,8.79,0,0,0,.34-12.43,8.37,8.37,0,0,0-2.45-1.68l6.22-14.62a4.4,4.4,0,0,0,3.94-.92,4.14,4.14,0,1,0-6-.37,3.64,3.64,0,0,0,1,.85l-6.24,14.66a9.09,9.09,0,0,0-8.9,2.39,9.19,9.19,0,0,0-2.71,7.27l-14.58,2.16a6.45,6.45,0,0,0-1.81-3.57,7.11,7.11,0,1,0-.27,9.78,7.28,7.28,0,0,0,2.14-4.6l14.81-2.19a8.21,8.21,0,0,0,2.08,3.58,8.64,8.64,0,0,0,10.38,1.24l6.25,10.72a6.12,6.12,0,0,0-2.7,4.3,6.24,6.24,0,0,0,7.57,6.85L293.15,718a14.57,14.57,0,0,0-7.23,7L248,711.44c0-.16.07-.31.09-.47a6.23,6.23,0,1,0-.9,2.45l38,13.63a15.13,15.13,0,0,0-.51,2.28,14.37,14.37,0,0,0,1.37,8.26l-28.58,14.6a10.44,10.44,0,1,0,2,7.63,10.19,10.19,0,0,0-.39-4.45L288,740.59a14.72,14.72,0,0,0,8.95,5l3.77,27.69a4.53,4.53,0,1,0,2.14-.12l-3.72-27.39a14.66,14.66,0,0,0,9.66-3.52l9.08,8.16a6.06,6.06,0,0,0-1,2.62,6.25,6.25,0,1,0,7-5.31,6.3,6.3,0,0,0-4.51,1.14l-9-8.11a14.27,14.27,0,0,0,3.43-7.57c0-.06,0-.13,0-.19l28.61,2.84a4.48,4.48,0,1,0,.36-2.12l-28.89-2.87a14.49,14.49,0,0,0-5.5-10.9l16.16-31.07a10.28,10.28,0,0,0,1.25.27,8.51,8.51,0,0,0,9.59-7.26,8.42,8.42,0,0,0-2.72-7.34l10.64-13.78a11.43,11.43,0,0,0,16.63-4.83,10.74,10.74,0,0,0,.67-6l17.76-3.09a10.44,10.44,0,0,0,9.19,8.42,10.14,10.14,0,0,0,3.27-.27l15,37a22.78,22.78,0,0,0-11.51,20,23,23,0,0,0,8.12,17.69l-22,29.71a16.19,16.19,0,0,0-9.53-3.11c-9.32,0-16.89,8-16.89,17.79,0,9.06,6.44,16.54,14.75,17.65l-.83,30a21.8,21.8,0,0,0-3.64-.31,21.56,21.56,0,0,0-7.59,1.38h15.16c-.49-.19-1-.36-1.48-.5l.84-30.42a17,17,0,0,0,15.52-11.6l20.93,2.68h0a8.58,8.58,0,1,0,8.57-8.93,8.66,8.66,0,0,0-8.32,6.8l-20.59-2.65a18.41,18.41,0,0,0-3.93-16L405.7,732a20.45,20.45,0,0,0,10,2.63c9.75,0,18-6.85,20.58-16.23l30.47,8a17.66,17.66,0,0,0-.31,2.08c-.77,9,5.51,16.82,14,17.55a14.6,14.6,0,0,0,4.87-.41l16.08,39.74-23.25,1.09a5.65,5.65,0,0,0-4.95-3,5.77,5.77,0,0,0-5.64,5.88,6,6,0,0,0,.8,3l-20.92,18a6,6,0,0,0-4-1.56,6.44,6.44,0,0,0,0,12.87,6.23,6.23,0,0,0,5.91-4.53L484,822.78Zm-59.43-.91-42-7a6.5,6.5,0,0,0-.81-3l21-18a5.52,5.52,0,0,0,3.46,1.24,5.76,5.76,0,0,0,5.64-5.88l23.69-1.11,5.13,12.67A33.52,33.52,0,0,0,491.64,821.87Z" style="mix-blend-mode:multiply;fill:url(#linear-gradient-2)"/></g></mask><linearGradient id="linear-gradient-15" x1="970.85" y1="304.05" x2="1396.99" y2="885.51" xlink:href="#linear-gradient-13"/><linearGradient id="linear-gradient-16" x1="981.9" y1="295.88" x2="1408.11" y2="877.44" xlink:href="#linear-gradient-13"/><linearGradient id="linear-gradient-17" x1="1037.63" y1="255.11" x2="1463.77" y2="836.58" xlink:href="#linear-gradient-13"/><linearGradient id="linear-gradient-18" x1="917.39" y1="343.23" x2="1343.53" y2="924.7" xlink:href="#linear-gradient-13"/><linearGradient id="linear-gradient-19" x1="1101.06" y1="208.62" x2="1527.2" y2="790.09" xlink:href="#linear-gradient-13"/><filter id="luminosity-noclip-20" x="282.71" y="798.09" width="39.98" height="24.68" filterUnits="userSpaceOnUse" color-interpolation-filters="sRGB"><feFlood flood-color="#fff" result="bg"/><feBlend in="SourceGraphic" in2="bg"/></filter><mask id="mask-20" x="282.71" y="798.09" width="39.98" height="24.68" maskUnits="userSpaceOnUse"><g style="mask:url(#mask-4);filter:url(#luminosity-noclip-20)"><path d="M313.77,814.29a16.79,16.79,0,0,1-.55,4.23l9.47,4.26H285a16.65,16.65,0,0,1-2.3-8.49c0-8.94,7-16.2,15.53-16.2S313.77,805.35,313.77,814.29Z" style="mix-blend-mode:multiply;fill:url(#linear-gradient-4)"/></g></mask><linearGradient id="linear-gradient-20" x1="1157.41" y1="167.32" x2="1583.55" y2="748.79" xlink:href="#linear-gradient-13"/><filter id="luminosity-noclip-21" x="231.62" y="636.39" width="12.01" height="12.51" filterUnits="userSpaceOnUse" color-interpolation-filters="sRGB"><feFlood flood-color="#fff" result="bg"/><feBlend in="SourceGraphic" in2="bg"/></filter><mask id="mask-21" x="231.62" y="636.39" width="12.01" height="12.51" maskUnits="userSpaceOnUse"><g style="mask:url(#mask-5);filter:url(#luminosity-noclip-21)"><path d="M237.62,636.39a6.26,6.26,0,1,1-6,6.26A6.14,6.14,0,0,1,237.62,636.39Z" style="mix-blend-mode:multiply;fill:url(#linear-gradient-5)"/></g></mask><linearGradient id="linear-gradient-21" x1="1075.14" y1="227.56" x2="1501.35" y2="809.11" xlink:href="#linear-gradient-13"/><filter id="luminosity-noclip-22" x="-319.5" y="-357.61" width="468.33" height="700.88" filterUnits="userSpaceOnUse" color-interpolation-filters="sRGB"><feFlood flood-color="#fff" result="bg"/><feBlend in="SourceGraphic" in2="bg"/></filter><mask id="mask-22" x="-319.5" y="-357.61" width="468.33" height="700.88" maskUnits="userSpaceOnUse"><g style="mask:url(#mask-6);filter:url(#luminosity-noclip-22)"><path d="M-319.5-357.61v8.52c6.12,12.75,18.66,21.49,33.15,21.49a35.39,35.39,0,0,0,12.7-2.39l5.21,12.88-51.06,2.4v3.33l52.38-2.47,19.33,47.8a19.13,19.13,0,0,0-9.24,15,19.12,19.12,0,0,0,7.37,17l-25.09,35.58a22.09,22.09,0,0,0-14.44-5.38,21.65,21.65,0,0,0-3.53.28l-7.49-54.65a6.83,6.83,0,0,0,5.56-6.81,6.76,6.76,0,0,0-6.62-6.9,6.64,6.64,0,0,0-6.17,4.43l-12.06-4.3v3.53l11.68,4.16a6.8,6.8,0,0,0,5,5.77l7.58,55.35a22.91,22.91,0,0,0-13.15,10.17l-11.07-5v2.73l9.88,4.51A24.4,24.4,0,0,0-312-180.16a24.27,24.27,0,0,0,5.5,15.46l-13,12v3.39l14.68-13.54a22.62,22.62,0,0,0,9.47,5.59l-.89,32a8.59,8.59,0,0,0-2.88.86,12.65,12.65,0,0,0-5.34,3.86,12.56,12.56,0,0,0-1.11,1.62L-319.5-120v2.5l12.85,1a13.91,13.91,0,0,0,4.66,15,14.27,14.27,0,0,0,9.43,3.24l7.31,28.51a16,16,0,0,0-6.57,4.81,17,17,0,0,0-.31,20.55l-21.63,15.84c-.22-.2-.44-.41-.67-.6a10.56,10.56,0,0,0-5.07-2.25v19.54a9.47,9.47,0,0,0,2-.29l26.62,46.33c-.2.19-.39.38-.57.58a7.81,7.81,0,0,0-1.93,2.52,7.71,7.71,0,0,0-.71,2.48l-25.39.59v2.25L-294,42a8.6,8.6,0,0,0,3.18,5.25,4.11,4.11,0,0,0,.45.38L-316,118.58a7.11,7.11,0,0,0-3.46-.68v17c.21,0,.42,0,.64,0a7.71,7.71,0,0,0,7.32-5.6L-294,134a13.3,13.3,0,0,0-.16,2c0,7.06,5.43,12.78,12.12,12.78a11.51,11.51,0,0,0,4.15-.79l8.44,20.88a6.25,6.25,0,0,0-3,4.88,6,6,0,0,0,5.32,6.65,5.73,5.73,0,0,0,4.92-2.12l23.34,12.45a4.71,4.71,0,0,0-.2,1.36,4.74,4.74,0,0,0,2.71,4.32L-246,239.33a5.66,5.66,0,0,0-1.17-.12,6.1,6.1,0,0,0-6,6.23,6.1,6.1,0,0,0,6,6.23,5.93,5.93,0,0,0,5.18-3.14l21.73,8.71a6.26,6.26,0,0,0-.09,1.07,6.11,6.11,0,0,0,6,6.23,5.83,5.83,0,0,0,3.9-1.52l19.16,17.6a8,8,0,0,0,.58,9.63,8.22,8.22,0,0,0,11.6.47,8.67,8.67,0,0,0,2.88-5.28l17.7-1.45a9.7,9.7,0,0,0,2.19,4.39,10.24,10.24,0,0,0,12.19,2.27l7.23,14.47-.43.34a6,6,0,0,0-.88,8.28L-148.17,334a4.14,4.14,0,0,0-.87-.09,4.59,4.59,0,0,0-4.49,4.68,4.59,4.59,0,0,0,4.49,4.69,4.6,4.6,0,0,0,4.5-4.69,4.76,4.76,0,0,0-1.43-3.42l9.75-19.87a6.14,6.14,0,0,0,6.52-1.08,6,6,0,0,0,.78-8.41,5.86,5.86,0,0,0-6.84-1.37L-143,290a11.87,11.87,0,0,0,1.36-1,10.44,10.44,0,0,0,1.36-14.69,9.52,9.52,0,0,0-2.78-2.18l8.5-16.83a5.25,5.25,0,0,0,4.74-.79,5,5,0,0,0,1.26-7,5,5,0,0,0-7.07-.89,5,5,0,0,0-1.26,7,4.55,4.55,0,0,0,1.11,1.08l-8.52,16.88A10.8,10.8,0,0,0-155,273.69a10.94,10.94,0,0,0-3.77,8.41l-17.43,1.43a7.71,7.71,0,0,0-1.86-4.37,8.21,8.21,0,0,0-11.6-.46q-.33.29-.63.6l-19.1-17.54a6.34,6.34,0,0,0,1-3.2l19.71-9.76a3.09,3.09,0,0,0,2.4,1.17,3.22,3.22,0,0,0,3.15-3.29,3.22,3.22,0,0,0-3.15-3.28,3.22,3.22,0,0,0-3.16,3.28,3.08,3.08,0,0,0,.06.61l-19.18,9.5a6,6,0,0,0-5.79-4.71,6,6,0,0,0-5.4,3.56L-241.38,247a6.56,6.56,0,0,0,.19-1.54,6.27,6.27,0,0,0-3.22-5.53l9.67-43.12h.2a4.62,4.62,0,0,0,4.52-4.72,4.62,4.62,0,0,0-4.52-4.71,4.46,4.46,0,0,0-3.6,1.86l-23.19-12.37a6.21,6.21,0,0,0,.56-2.12,6,6,0,0,0-5.31-6.65,5.34,5.34,0,0,0-1.84.15l-8.48-20.94A12.84,12.84,0,0,0-269.89,136a13,13,0,0,0-4.59-10L-262,109.21a9.21,9.21,0,0,0,5.39,1.75,9.35,9.35,0,0,0,7.38-3.69l21.82,20a6,6,0,0,0-.83,3.05,5.77,5.77,0,0,0,5.65,5.88,5.56,5.56,0,0,0,4.19-2l28.89,34.27a3.44,3.44,0,0,0-.53,1.83,3.23,3.23,0,0,0,3.16,3.29,3.22,3.22,0,0,0,3.15-3.29,3.22,3.22,0,0,0-3.15-3.29,3.11,3.11,0,0,0-1.39.35l-29.2-34.63a5.93,5.93,0,0,0,.53-2.46,6.25,6.25,0,0,0-.11-1.16l19.16-4.18a6,6,0,0,0,5.72,4.44,6.11,6.11,0,0,0,6-6.23,6.11,6.11,0,0,0-6-6.23,6.11,6.11,0,0,0-6,6.23s0,.09,0,.14l-19.46,4.24a5.62,5.62,0,0,0-5-3.14,5.55,5.55,0,0,0-3.79,1.53l-21.93-20.15a10.46,10.46,0,0,0,1.24-4.94,9.81,9.81,0,0,0-9.54-10,9.81,9.81,0,0,0-9.55,10,10.27,10.27,0,0,0,2.48,6.74l-12.61,17a11.56,11.56,0,0,0-5.68-1.49,12.23,12.23,0,0,0-11.62,9.18l-17.59-4.6a6.85,6.85,0,0,0,0-.79,8.27,8.27,0,0,0-1.18-4.25,7.06,7.06,0,0,0-1.57-2.64l25.71-71.18a8.08,8.08,0,0,0,2.87.53A8.55,8.55,0,0,0-277,40.74,8.55,8.55,0,0,0-285.36,32a8.07,8.07,0,0,0-3.47.79l-26.36-45.89a9.36,9.36,0,0,0,2.56-2.16,9.71,9.71,0,0,0,.32-11.55l21.6-15.82a19.55,19.55,0,0,0,2,1.94c7.6,6.18,18.51,5.34,24.38-1.87a15.93,15.93,0,0,0,2.79-5.14l28.95,8.9c0,.13,0,.25,0,.38A9.87,9.87,0,0,0-223.34-28a9.75,9.75,0,0,0,8.47-4.1l37.19,15.82a17.36,17.36,0,0,0-1,5,17.21,17.21,0,0,0,1,6.86L-204.89,9.8a7.13,7.13,0,0,0-5.34-2.88,7.22,7.22,0,0,0-7.57,6.86A7.23,7.23,0,0,0-211,21.42a7.22,7.22,0,0,0,7.56-6.86,7.3,7.3,0,0,0-.31-2.53l27.14-14.18a16.91,16.91,0,0,0,8.78,7.75L-180.2,50.71c-.18,0-.36-.05-.55-.06a7.22,7.22,0,0,0-7.56,6.86,7.21,7.21,0,0,0,6.77,7.64A7.21,7.21,0,0,0-174,58.29a7.26,7.26,0,0,0-3.84-6.82L-165.46,6.3a17,17,0,0,0,2.68.38,16.56,16.56,0,0,0,9.45-2.33l19.48,31.79A12.32,12.32,0,0,0-138,44.75a12.23,12.23,0,0,0,11.49,13,12.24,12.24,0,0,0,12.82-11.63,13,13,0,0,0-.07-2l20.66-4.58a13.37,13.37,0,0,0,5.94,6.42L-99.32,79a8.54,8.54,0,0,0-9.42,5.37,8.58,8.58,0,0,0,5.27,10.93,8.82,8.82,0,0,0,5.71.15l11.44,20.31a4.57,4.57,0,0,0-1.18,3.08,4.43,4.43,0,0,0,4.34,4.52,4.43,4.43,0,0,0,4.34-4.52,4.43,4.43,0,0,0-4.34-4.52,4.07,4.07,0,0,0-1,.14L-95.51,94.33a8.23,8.23,0,0,0,3.14-4A8.52,8.52,0,0,0-96.2,80.09l12.11-32.94a13.26,13.26,0,0,0,12.9-3.59L-39,65a4.1,4.1,0,0,0-.21.48A4.85,4.85,0,0,0-37.5,71L-42.23,83.9A4.88,4.88,0,0,0-47.56,87a4.91,4.91,0,0,0,3,6.25,4.91,4.91,0,0,0,6.34-2.81,4.86,4.86,0,0,0-2.44-6L-36,71.8a5.08,5.08,0,0,0,3.36-.08L-21.09,86a3.15,3.15,0,0,0-.58,1,3.17,3.17,0,0,0,2,4,3.16,3.16,0,0,0,4.1-1.81,3.18,3.18,0,0,0-2-4,3.25,3.25,0,0,0-2.11,0L-31.21,70.86a4.55,4.55,0,0,0,1.34-1.94A4.69,4.69,0,0,0-30.16,65l12.44-11a3.29,3.29,0,0,0,.68.33,2.86,2.86,0,0,0,2.73-.59L10.92,67.19a4.78,4.78,0,0,0-.2,1.37,4.72,4.72,0,0,0,2.71,4.31L3.8,115.81a5.66,5.66,0,0,0-1.17-.12,6.23,6.23,0,0,0,0,12.45A5.91,5.91,0,0,0,7.81,125l21.73,8.71a6.38,6.38,0,0,0-.09,1.08,6.3,6.3,0,0,0,2,4.67l-5.84,21.69h0a3.29,3.29,0,1,0,3.15,3.29,3.29,3.29,0,0,0-1.54-2.81l5.7-21.19a5.65,5.65,0,0,0,2.49.57,5.82,5.82,0,0,0,3.9-1.51l20,18.32a6,6,0,0,0-.82,3.05A5.65,5.65,0,1,0,64.1,155a5.46,5.46,0,0,0-3.78,1.53L40.41,138.23a6.39,6.39,0,0,0,1-3.44,6.1,6.1,0,0,0-6-6.23,6,6,0,0,0-5.4,3.56L8.41,123.45a6.43,6.43,0,0,0,.19-1.54,6.25,6.25,0,0,0-3.22-5.52L15,73.26h.21a4.71,4.71,0,0,0,0-9.42,4.45,4.45,0,0,0-3.6,1.85L-13.47,52.3a2.79,2.79,0,0,0-1.95-3.25,2.8,2.8,0,0,0-3.52,1.8,2.69,2.69,0,0,0,.13,1.9l-12.36,11a5.1,5.1,0,0,0-1.71-1,5,5,0,0,0-4.45.46L-69.65,41.59a13.14,13.14,0,0,0,1.15-2.35A12.88,12.88,0,0,0-72.37,25L-59.6,6.85a5.06,5.06,0,0,0,5.51-.71A5,5,0,0,0-53.3-.8a4.61,4.61,0,0,0-1-.87,1.49,1.49,0,0,0-.14-.12l7.24-17a10.54,10.54,0,0,0,10.34-2.77A10.7,10.7,0,0,0-33.72-30l16.94-2.5a7.5,7.5,0,0,0,2.09,4.14,8,8,0,0,0,11.36-.28A8,8,0,0,0-3-40a8,8,0,0,0-11.36.28,8.43,8.43,0,0,0-2.48,5.35L-34-31.87A9.63,9.63,0,0,0-36.47-36a10,10,0,0,0-12.06-1.44l-8-13.68a4.4,4.4,0,0,0,.39-.35,5.85,5.85,0,0,0,.23-8.27,5.84,5.84,0,0,0-8.26.2,5.85,5.85,0,0,0-.23,8.27,5.73,5.73,0,0,0,6.76.9l8,13.66a11.34,11.34,0,0,0-1.26,1.07,10.21,10.21,0,0,0-.4,14.43,9.56,9.56,0,0,0,2.85,2L-55.62-2.46l-.18-.08A4.91,4.91,0,0,0-62.14.27,4.7,4.7,0,0,0-62,3.9a4.57,4.57,0,0,0,.53,1.25l-13,18.44a13,13,0,0,0-2.13-1,13.08,13.08,0,0,0-16.91,7.5,12.45,12.45,0,0,0-.46,7.05l-20.38,4.52a12.18,12.18,0,0,0-10.92-8.53,12,12,0,0,0-5.12.85L-150,1.78A17.07,17.07,0,0,0-145-9l31.73-6.85a5.19,5.19,0,0,0,4.55,3.32,5.21,5.21,0,0,0,5.47-5A5.21,5.21,0,0,0-108.2-23a5.22,5.22,0,0,0-5.45,4.69L-145-11.58A17,17,0,0,0-150-22.45l8.62-11.25a7.1,7.1,0,0,0,3.13.93,7.22,7.22,0,0,0,7.56-6.86,7.21,7.21,0,0,0-6.77-7.64A7.21,7.21,0,0,0-145-40.41a7.26,7.26,0,0,0,1.72,5.12l-8.58,11.19a16.73,16.73,0,0,0-9.07-3.29h-.23l.72-33.39a2.3,2.3,0,0,0,.28-.06,5.12,5.12,0,0,0,1.82-.66,5.55,5.55,0,0,0,1.74-7.65,5.56,5.56,0,0,0-7.55-2.14,5.43,5.43,0,0,0-1.31,1.11L-183-81.32a11.86,11.86,0,0,0-1.2-12,12,12,0,0,0-8.8-5l.3-19.25a8.43,8.43,0,0,0,5-1.57A9,9,0,0,0-186-131.79a9,9,0,0,0-12.55-2.42,9,9,0,0,0-1.76,12.66,9.54,9.54,0,0,0,5.48,3.72l-.3,19.54a10.75,10.75,0,0,0-5,1.93A11.28,11.28,0,0,0-204-83.25l-16.62,6.37c-.11-.17-.21-.34-.33-.5A6.58,6.58,0,0,0-230-79.14a6.58,6.58,0,0,0-1.27,9.21,6.57,6.57,0,0,0,9.12,1.76A6.44,6.44,0,0,0-220-75.52l16.61-6.35a13.62,13.62,0,0,0,.95,1.59c3.79,5.29,10.93,6.66,16,3.07A10.51,10.51,0,0,0-183.77-80l17.53,11.11a5.74,5.74,0,0,0,.36,5.28,1.63,1.63,0,0,0,.11.17A5.21,5.21,0,0,0-162.91-61l-.74,33.71a16.84,16.84,0,0,0-12.12,7.35l-37.44-15.92a10.14,10.14,0,0,0,.21-1.48,9.9,9.9,0,0,0-9.27-10.45,9.83,9.83,0,0,0-9.84,6.8L-261-49.87a17.86,17.86,0,0,0-6.49-16.91,18,18,0,0,0-14.77-3.82l-7.2-28.08a12.74,12.74,0,0,0,6.61-4.26c4.61-5.67,3.51-14.21-2.47-19.07a14.35,14.35,0,0,0-8.47-3.24l.87-31.44a22.59,22.59,0,0,0,3.69.31,22.62,22.62,0,0,0,19.54-11.52l32.12,14.44a16.66,16.66,0,0,0-.56,4.27c0,9.06,7,16.4,15.71,16.4s15.72-7.34,15.72-16.4-7-16.39-15.72-16.39A15.54,15.54,0,0,0-235.59-158l-32-14.4a24.8,24.8,0,0,0,1.23-7.71,24.29,24.29,0,0,0-6-16l25.53-36.19a17,17,0,0,0,6.06,1.67,18.08,18.08,0,0,0,18.19-11.7l35.67,9.33a26.79,26.79,0,0,0-.34,4.14c0,14.5,11.16,26.26,24.93,26.26a23.71,23.71,0,0,0,8.51-1.61l17.36,42.89a12.9,12.9,0,0,0-6.21,10.05c-.6,7,4.29,13.1,10.92,13.67s12.49-4.63,13.09-11.62a13.54,13.54,0,0,0,0-1.42l21-3.66a13.36,13.36,0,0,0,5.65,6.69l-13.64,32.45a8.52,8.52,0,0,0-9.65,4.92,8.59,8.59,0,0,0,4.77,11.17,9,9,0,0,0,3.5.7l3.35,31.4a7,7,0,0,0-4.8,6.76,6.92,6.92,0,0,0,6.77,7.06,6.93,6.93,0,0,0,6.78-7.06,6.93,6.93,0,0,0-6.28-7l-3.36-31.5a8.34,8.34,0,0,0,5.35-4.74A8.53,8.53,0,0,0-102.51-114l13.6-32.35a13.25,13.25,0,0,0,13-3l31.16,22.9a3.88,3.88,0,0,0-.22.46,4.85,4.85,0,0,0,1.46,5.63l-5.31,12.63a4.89,4.89,0,0,0-5.47,2.83,4.91,4.91,0,0,0,2.73,6.38A4.9,4.9,0,0,0-45-101a4.88,4.88,0,0,0-2.16-6.11L-42-119.52a5.08,5.08,0,0,0,3.35.08l9.35,12.66a11.31,11.31,0,0,0-1.67,6c0,6.06,4.66,11,10.4,11a10.48,10.48,0,0,0,9.91-7.6l28,7.31a20.06,20.06,0,0,0-.25,3C17.07-76.54,25.21-68,35.25-68a17.14,17.14,0,0,0,6.21-1.17L54.12-37.85a9.4,9.4,0,0,0-4.53,7.32,9.48,9.48,0,0,0,2.52,7.33L42.69-10.48a9.3,9.3,0,0,0-4.55-1.19A9.83,9.83,0,0,0,28.79-4.3l-15-3.93c0-.17,0-.34,0-.52a5.74,5.74,0,0,0-5.58-5.88A5.74,5.74,0,0,0,2.63-8.75,5.74,5.74,0,0,0,8.21-2.87a5.61,5.61,0,0,0,5.31-4.07L28.52-3a10.84,10.84,0,0,0-.13,1.62A10,10,0,0,0,38.14,8.87a9.25,9.25,0,0,0,3.33-.63L48.25,25a5,5,0,0,0-2.42,3.93,4.7,4.7,0,0,0,9.27,1.51l20.68-.39a6,6,0,0,0,5.9,5.28,6.23,6.23,0,1,0-5.93-6.94l-20.54.39A4.79,4.79,0,0,0,51,24.39a4.58,4.58,0,0,0-1.49.13L42.65,7.69A10.32,10.32,0,0,0,47.88-1.4a10.48,10.48,0,0,0-3.68-8L53.5-22a8.54,8.54,0,0,0,4.06,1.46A9,9,0,0,0,67.11-29a9.53,9.53,0,0,0-.23-3l25.89-3.51A7,7,0,0,0,99.53-30a6.78,6.78,0,0,0,3.76-1.15L123.62-5.32a6,6,0,0,0-2.05,4.54,5.77,5.77,0,0,0,5.65,5.88,5.77,5.77,0,0,0,5.64-5.88,5.77,5.77,0,0,0-5.64-5.88,5.45,5.45,0,0,0-2.18.45L104.55-32.28a7.4,7.4,0,0,0,2-5,7.13,7.13,0,0,0-7-7.27,7.13,7.13,0,0,0-7,7.27v.11L66.35-33.66A8.69,8.69,0,0,0,59.14-39a8,8,0,0,0-2.77.23L43.68-70.16a19.29,19.29,0,0,0,9.75-17,19.48,19.48,0,0,0-6.88-15l18.63-25.17a13.73,13.73,0,0,0,8.07,2.63,14,14,0,0,0,11.17-5.67L102-113.25a6,6,0,0,0-2,4.51,5.78,5.78,0,0,0,5.65,5.89,5.77,5.77,0,0,0,5.64-5.89c0-.09,0-.18,0-.28l22-4.11a7.92,7.92,0,0,0,7.77,8.06,7.93,7.93,0,0,0,7.77-8.09,7.94,7.94,0,0,0-7.77-8.1,7.85,7.85,0,0,0-7.6,6.41l-22.5,4.2a5.67,5.67,0,0,0-5.33-4,5.46,5.46,0,0,0-2.18.46L85.36-131.71a15.53,15.53,0,0,0,2.2-8c0-8.32-6.41-15.07-14.31-15.07S59-148,59-139.71a15.4,15.4,0,0,0,3.72,10.11L43.75-104a17.35,17.35,0,0,0-8.5-2.23A18.32,18.32,0,0,0,17.82-92.52l-28-7.33c0-.32,0-.65,0-1a10.7,10.7,0,0,0-10.42-11,10.15,10.15,0,0,0-7.7,3.61l-8.89-12a4.79,4.79,0,0,0,1.42-1.88,4.71,4.71,0,0,0-.11-3.89l12.93-10.46a2.83,2.83,0,0,0,.67.35,2.8,2.8,0,0,0,3.6-1.64,2.81,2.81,0,0,0-1.75-3.56,2.81,2.81,0,0,0-3.6,1.65,2.75,2.75,0,0,0,.05,1.9l-12.85,10.4a5.09,5.09,0,0,0-1.66-1.13,5,5,0,0,0-4.47.27l-31.31-23A12.65,12.65,0,0,0-73-153.52a12.88,12.88,0,0,0-3.21-14.38L-63.75-184a10.12,10.12,0,0,0,3.35,1.07,9.87,9.87,0,0,0,11.13-8.43,9.8,9.8,0,0,0-3.43-8.77L-34-236a17.11,17.11,0,0,0,4.87,1.4,17.18,17.18,0,0,0,6.92-.5l12.07,28.24a7.12,7.12,0,0,0-3.3,5.11,7.23,7.23,0,0,0,6.26,8.07,7.27,7.27,0,0,0,3.83-.53l7.32,12.54a10.59,10.59,0,0,0-1.27,1.07,10.23,10.23,0,0,0-.4,14.44,9.65,9.65,0,0,0,2.85,1.95l-7.22,17a5.16,5.16,0,0,0-4.59,1.08,4.93,4.93,0,0,0-.78,6.93,4.92,4.92,0,0,0,7,.43,4.93,4.93,0,0,0,.79-6.94,4.51,4.51,0,0,0-1.16-1l7.26-17a10.55,10.55,0,0,0,10.33-2.78,10.64,10.64,0,0,0,3.15-8.44l16.94-2.51a7.5,7.5,0,0,0,2.09,4.14,8,8,0,0,0,11.37-.28,8,8,0,0,0,.31-11.36,8,8,0,0,0-11.36.29,8.43,8.43,0,0,0-2.48,5.34l-17.2,2.54a9.53,9.53,0,0,0-2.42-4.16A10,10,0,0,0,5-182.38l-7.26-12.44a7.13,7.13,0,0,0,3.14-5,7.23,7.23,0,0,0-6.25-8.08,7.47,7.47,0,0,0-2.55.12l-12-28.15a17,17,0,0,0,8.4-8.16l44,15.8a4.86,4.86,0,0,0-.1.55,7.22,7.22,0,0,0,6.25,8.07,7.23,7.23,0,0,0,8.15-6.16,7.23,7.23,0,0,0-6.26-8.08,7.28,7.28,0,0,0-7.1,3.31l-44.08-15.82a16.32,16.32,0,0,0,.59-2.64,16.69,16.69,0,0,0-1.59-9.6l33.2-17a12.36,12.36,0,0,0,8.26,4.82,12.24,12.24,0,0,0,13.8-10.45A12.24,12.24,0,0,0,33-294.93a12.23,12.23,0,0,0-13.8,10.45,12,12,0,0,0,.45,5.16l-33.61,17.17a17.05,17.05,0,0,0-10.39-5.8l-4.38-32.17A5.2,5.2,0,0,0-25-304.4a5.23,5.23,0,0,0-4.53-5.84,5.22,5.22,0,0,0-5.89,4.46,5.21,5.21,0,0,0,4.26,5.8l4.33,31.82a17.07,17.07,0,0,0-11.23,4.08l-10.54-9.47a7.11,7.11,0,0,0,1.16-3.05,7.22,7.22,0,0,0-6.25-8.07,7.23,7.23,0,0,0-8.14,6.16,7.23,7.23,0,0,0,6.25,8.08,7.3,7.3,0,0,0,5.25-1.33l10.49,9.43a16.51,16.51,0,0,0-4,8.79c0,.07,0,.15,0,.22l-33.23-3.31a5.25,5.25,0,0,0-4.56-4.76,5.23,5.23,0,0,0-5.89,4.46A5.23,5.23,0,0,0-83-251.08a5.26,5.26,0,0,0,5.51-3.08L-44-250.82a16.79,16.79,0,0,0,6.4,12.65l-18.77,36.1a10.1,10.1,0,0,0-1.47-.32A9.88,9.88,0,0,0-69-194a9.79,9.79,0,0,0,3.17,8.54l-12.37,16a14.17,14.17,0,0,0-2.08-1.1,13.08,13.08,0,0,0-17.24,6.72,12.44,12.44,0,0,0-.77,7l-20.63,3.59A12.13,12.13,0,0,0-129.56-163a11.14,11.14,0,0,0-3.79.31l-17.41-43a26.45,26.45,0,0,0,13.37-23.25,26.75,26.75,0,0,0-9.42-20.55L-121.28-284a18.8,18.8,0,0,0,11.07,3.62c10.83,0,19.62-9.26,19.62-20.67,0-10.53-7.48-19.21-17.13-20.5l1-34.83a24.64,24.64,0,0,0,4.23.36,25.13,25.13,0,0,0,8.82-1.59h-17.61c.56.21,1.14.41,1.72.58l-1,35.32a19.72,19.72,0,0,0-18,13.48l-24.3-3.12h0a10.18,10.18,0,0,0-10-10.38,10.18,10.18,0,0,0-10,10.38,10.18,10.18,0,0,0,10,10.39,10.06,10.06,0,0,0,9.67-7.91l23.92,3.08a21.15,21.15,0,0,0-.53,4.75,21.22,21.22,0,0,0,5.09,13.86l-25.93,35a23.83,23.83,0,0,0-11.65-3c-11.32,0-20.87,7.95-23.91,18.85l-35.39-9.26a19.06,19.06,0,0,0,.36-2.42c.89-10.4-6.4-19.53-16.27-20.38a16.93,16.93,0,0,0-5.66.47l-18.67-46.15,27-1.27a6.53,6.53,0,0,0,5.75,3.54,6.69,6.69,0,0,0,6.55-6.83,6.91,6.91,0,0,0-.93-3.48l24.3-20.87a7,7,0,0,0,4.68,1.82,7.33,7.33,0,0,0,7.17-7.48,7.33,7.33,0,0,0-7.17-7.47,7.23,7.23,0,0,0-6.86,5.26l-40.29-6.74Zm69,1.05,48.81,8.17a7.63,7.63,0,0,0,.93,3.44L-225.09-324a6.34,6.34,0,0,0-4-1.44,6.69,6.69,0,0,0-6.55,6.82l-27.52,1.29-5.95-14.71A39,39,0,0,0-250.47-356.56Z" style="mix-blend-mode:multiply;fill:url(#linear-gradient-6)"/></g></mask><linearGradient id="linear-gradient-22" x1="343.42" y1="1469.21" x2="838.42" y2="2144.63" gradientTransform="matrix(0, -1, -1, 0, 1693.13, 581.9)" xlink:href="#linear-gradient-13"/><linearGradient id="linear-gradient-23" x1="404.82" y1="1424.23" x2="899.79" y2="2099.62" gradientTransform="matrix(0, -1, -1, 0, 1693.13, 581.9)" xlink:href="#linear-gradient-13"/><linearGradient id="linear-gradient-24" x1="310.2" y1="1493.56" x2="805.19" y2="2168.97" gradientTransform="matrix(0, -1, -1, 0, 1693.13, 581.9)" xlink:href="#linear-gradient-13"/></defs><title>Asset 2</title><g id="Layer_2" data-name="Layer 2"><g id="Layer_1-2" data-name="Layer 1"><g style="clip-path:url(#clip-path)"><rect x="7.92" y="7.77" width="317" height="815.57" style="fill:#f99e1f"/><path d="M211.14,6.77H325.92V683.05h.64q-12,15.71-24.77,29.82C233.66,788.08,149.58,828,65.7,814.85A207.1,207.1,0,0,1,6,795.83h1V6.77Z" style="fill:#f99e1f"/><path d="M209.7,6.77H325.92V668.16h4q-2.91,4-5.88,7.87-11.87,15.56-24.54,29.54C232,780.08,148.72,819.64,65.63,806.6A205.08,205.08,0,0,1,6.45,787.76h.47V6.77Z" style="fill:#f99e1f"/><path d="M208.27,6.77H325.92V661.21h1.44c-1.93,2.63-3.86,5.23-5.82,7.8q-11.76,15.4-24.31,29.26c-66.86,73.81-149.37,113-231.68,100.08A203,203,0,0,1,6.93,779.69Q3.47,778,.06,776.15H6.92V6.77Z" style="fill:#f99f1f"/><path d="M206.83,6.77H325.92V646.36h4.54q-5.62,8-11.44,15.63Q307.38,677.26,295,691C228.73,764.08,147,802.9,65.47,790.11A201.63,201.63,0,0,1,7.41,771.62c-2.29-1.13-4.55-2.3-6.8-3.51H6.92V6.77Z" style="fill:#f9a01f"/><path d="M205.39,6.77H325.92V639.49h1.91q-5.56,7.92-11.33,15.49-11.52,15.1-23.84,28.7c-65.58,72.4-146.52,110.85-227.26,98.18A199.48,199.48,0,0,1,7.89,763.54q-3.39-1.66-6.74-3.47H6.92V6.77Z" style="fill:#f9a01f"/><path d="M204,6.77h122V624.69h4.74q-2.7,4-5.45,7.93Q319.71,640.47,314,648q-11.42,15-23.61,28.43c-64.95,71.7-145.09,109.77-225.06,97.22A197.75,197.75,0,0,1,8.37,755.47Q5,753.82,1.7,752H6.92V6.77Z" style="fill:#f9a11f"/><path d="M202.52,6.77h123.4V617.89H328c-1.78,2.65-3.59,5.27-5.4,7.86q-5.44,7.77-11.1,15.19-11.31,14.82-23.38,28.15c-64.31,71-143.67,108.69-222.85,96.26a195.19,195.19,0,0,1-56.39-18c-2.22-1.1-4.43-2.23-6.61-3.41H6.92V6.77Z" style="fill:#f9a21f"/><path d="M201.09,6.77H325.92V603.15h4.62a452.83,452.83,0,0,1-44.72,58.64c-63.68,70.3-142.26,107.62-220.65,95.31A193.36,193.36,0,0,1,9.34,739.33C7.14,738.24,5,737.12,2.8,736H6.92V6.77Z" style="fill:#f9a21f"/><path d="M199.65,6.77H325.92V596.44h1.89a448.21,448.21,0,0,1-44.28,58.06C220.5,724.09,142.7,761,65.09,748.86A191.67,191.67,0,0,1,9.82,731.25c-2.18-1.07-4.33-2.18-6.48-3.34H6.92V6.77Z" style="fill:#f9a31f"/><path d="M198.21,6.77H325.92v575h4.18q-2.48,4-5,8a443.64,443.64,0,0,1-43.83,57.47C218.85,716.09,141.84,752.66,65,740.61A189.81,189.81,0,0,1,10.3,723.18q-3.23-1.59-6.41-3.3h3V6.77Z" style="fill:#f9a41f"/><path d="M196.78,6.77H325.92V567.1h6.26q-4.8,8.13-9.83,15.92A438.43,438.43,0,0,1,279,639.9c-61.76,68.19-138,104.39-214,92.46a188.08,188.08,0,0,1-54.16-17.25q-3.19-1.58-6.34-3.27H6.92V6.77Z" style="fill:#f9a51f"/><path d="M195.35,6.77H325.92V560.56h3.44q-4.77,8-9.74,15.75a435.55,435.55,0,0,1-42.94,56.3c-61.12,67.48-136.56,103.31-211.82,91.5A186.18,186.18,0,0,1,11.27,707c-2.11-1-4.21-2.12-6.28-3.24H6.92V6.77Z" style="fill:#f9a51f"/><path d="M193.91,6.77h132V554h.6q-4.71,7.95-9.63,15.59a431,431,0,0,1-42.49,55.71c-60.49,66.78-135.14,102.23-209.61,90.55a184.42,184.42,0,0,1-53-16.89q-3.13-1.54-6.21-3.21H6.92V6.77Z" style="fill:#f9a61f"/><path d="M192.48,6.77H325.92V531.43h6.87q-8.88,16.34-18.63,31.46a425.71,425.71,0,0,1-42,55.12c-59.85,66.08-133.72,101.16-207.41,89.6a182.3,182.3,0,0,1-52.48-16.72q-6.2-3-12.2-6.57H6.92V6.77Z" style="fill:#f9a71f"/><path d="M191,6.77H325.92V525.05h3.94q-8.78,16.17-18.43,31.13a422,422,0,0,1-41.59,54.53c-59.22,65.38-132.3,100.09-205.2,88.65a180.54,180.54,0,0,1-51.93-16.54q-6.12-3-12.07-6.5H6.92V6.77Z" style="fill:#f9a71f"/><path d="M189.61,6.77H325.92V518.68h1q-8.7,16-18.24,30.79a416.73,416.73,0,0,1-41.15,53.95c-58.58,64.67-130.87,99-203,87.69A178.24,178.24,0,0,1,13.2,674.75q-6.07-3-11.95-6.43H6.92V6.77Z" style="fill:#f9a81f"/><path d="M188.17,6.77H325.92V496.21h6.46Q328.3,504.4,324,512.3q-8.6,15.81-18,30.46a411.47,411.47,0,0,1-40.7,53.36c-57.94,64-129.45,97.93-200.79,86.74a176.51,176.51,0,0,1-50.8-16.18q-6-3-11.81-6.36H6.92V6.77Z" style="fill:#f9a91f"/><path d="M186.73,6.77H325.92V490h3.44q-4,8.1-8.28,15.92-8.5,15.63-17.84,30.12A406.89,406.89,0,0,1,263,588.82c-57.31,63.27-128,96.86-198.58,85.79a174.43,174.43,0,0,1-50.25-16q-5.94-2.93-11.68-6.29H6.92V6.77Z" style="fill:#f9a91f"/><path d="M185.3,6.77H325.92v477h.42q-4,8-8.19,15.74-8.4,15.46-17.64,29.79a404,404,0,0,1-39.8,52.19C204,644.09,134.1,677.3,64.33,666.36a172.7,172.7,0,0,1-49.69-15.82q-5.86-2.89-11.55-6.23H6.92V6.77Z" style="fill:#f9aa1f"/><path d="M183.86,6.77H325.35V1.52c1.27,2.14,2.53,4.29,3.77,6.48h-3.2V461.52H331c-19.79,43.6-44.53,81.78-72.55,112.71-56,61.86-125.18,94.7-194.17,83.88a170.59,170.59,0,0,1-49.13-15.65q-5.79-2.87-11.42-6.15H6.92V6.77Z" style="fill:#f9ab1f"/><path d="M182.43,6.77H322.3v-6q1.9,3.17,3.73,6.41h-.11V455.5h1.94c-19.57,43.11-44,80.86-71.72,111.43-55.39,61.16-123.76,93.63-192,82.93a168.56,168.56,0,0,1-48.57-15.47q-5.73-2.83-11.29-6.08h2.6V6.77Z" style="fill:#f9ac1f"/><path d="M181,6.77H323v-.5c2.41,4.27,4.76,8.64,7,13.1h-4v413.9h5.87q-3.41,8.22-7,16.22c-19.35,42.61-43.52,79.92-70.9,110.15-54.76,60.45-122.34,92.55-189.76,82a166.83,166.83,0,0,1-48-15.29q-5.67-2.8-11.16-6h2V6.77Z" style="fill:#f9ac1f"/><path d="M179.56,6.77h140.3V5.41q3.58,6.33,6.94,12.94h-.88V427.44h2.67q-3.34,8.13-6.94,16c-19.12,42.12-43,79-70.08,108.87-54.12,59.75-120.91,91.47-187.54,81a165.07,165.07,0,0,1-47.46-15.11q-5.61-2.76-11-6H6.92V6.77Z" style="fill:#f9ad1f"/><path d="M178.12,6.77H316.77V4.55Q323.87,17,330,30.68h-4.1V405.3h5.89q-6.17,16.53-13.27,32.16C299.64,479.07,276,515.52,249.29,545,195.81,604.09,129.8,635.44,64,625.11a163,163,0,0,1-46.9-14.94q-5.54-2.73-10.9-5.87h.77V6.77Z" style="fill:#f9ae1f"/><path d="M176.69,6.77h137V3.68q7,12.36,13.09,25.83h-.86V399.66h2.62q-6.09,16.35-13.11,31.78c-18.67,41.12-42,77.14-68.42,106.31-52.85,58.34-118.07,89.32-183.13,79.11A160.71,160.71,0,0,1,17.54,602.1q-5.47-2.7-10.78-5.8h.16V6.77Z" style="fill:#f9ae1f"/><path d="M175.25,6.77H310.6V2.82Q317.52,15,323.54,28.34q3,6.63,5.77,13.54h-3.39v335.8h5.14Q328.29,386,325.28,394q-6,16.14-12.95,31.39c-18.45,40.63-41.5,76.21-67.6,105C192.52,588.09,128.08,618.7,63.8,608.61A158.68,158.68,0,0,1,18,594q-5.41-2.67-10.64-5.73c-1.75-1-3.48-2.08-5.2-3.17H6.92V6.77Z" style="fill:#f9af1f"/><path d="M173.82,6.77h133.7V2q6.83,12.06,12.77,25.2T331.22,54.4h-5.3V372.24h1.8Q325,380.43,322,388.4q-5.94,15.94-12.79,31c-18.22,40.13-41,75.28-66.78,103.74-51.57,56.94-115.22,87.17-178.72,77.21A157.16,157.16,0,0,1,18.5,586Q13.16,583.32,8,580.29c-1.73-1-3.44-2-5.13-3.12H6.92V6.77Z" style="fill:#f9b01f"/><path d="M172.38,6.77H304.43V1.1Q311.18,13,317.05,26t10.8,26.9h-1.93V350.45h3.63a490,490,0,0,1-23.44,62.94c-18,39.64-40.48,74.35-66,102.47C189.22,572.09,126.36,602,63.64,592.11A155,155,0,0,1,19,577.89q-5.28-2.61-10.38-5.6c-1.71-1-3.39-2-5.07-3.08H6.92V6.77Z" style="fill:#f9b11e"/><path d="M171,6.77H301.34V.24Q308,12,313.8,24.81t10.66,26.57q2.44,6.87,4.64,14h-3.18V345.22h.23A485.45,485.45,0,0,1,303,407.38c-17.78,39.14-40,73.42-65.13,101.18-50.3,55.53-112.38,85-174.31,75.3a153.06,153.06,0,0,1-44.11-14.05q-5.21-2.56-10.25-5.52c-1.68-1-3.35-2-5-3H6.92V6.77Z" style="fill:#f9b11e"/><path d="M169.51,6.77h132V5.24q1.59,3,3.13,6,3.08,6.08,5.93,12.39a353,353,0,0,1,19.19,54.23h-3.83V307h5.45q-3.81,16.86-8.62,33a477.26,477.26,0,0,1-22.85,61.37c-17.54,38.65-39.47,72.49-64.3,99.9-49.67,54.83-111,83.94-172.11,74.35a151.23,151.23,0,0,1-43.55-13.87A165.72,165.72,0,0,1,0,550.09H6.92V6.77Z" style="fill:#fab21e"/><path d="M168.07,6.77h130.3V4.31c1,2,2.08,3.93,3.09,5.92q3,6,5.86,12.24A348.25,348.25,0,0,1,326.26,76h-.34V302.18h1.94q-3.75,16.63-8.5,32.58a472.09,472.09,0,0,1-22.57,60.58c-17.32,38.16-39,71.57-63.48,98.63-49,54.12-109.53,82.86-169.89,73.39a149.21,149.21,0,0,1-43-13.69A162.18,162.18,0,0,1,.77,542.16H6.92V6.77Z" style="fill:#fab31e"/><path d="M166.64,6.77h128.6V3.37q1.54,2.89,3.05,5.85,3,5.91,5.78,12.07a344,344,0,0,1,18.71,52.84q3.75,14,6.54,28.83h-3.4V263.9h4.83C302.22,445.64,182.5,577.81,63.34,559.11A147.58,147.58,0,0,1,20.91,545.6,160.1,160.1,0,0,1,1.5,534.24H6.92V6.77Z" style="fill:#fab31e"/><path d="M165.2,6.77H292.11V2.43c1,1.91,2,3.83,3,5.78,2,3.88,3.88,7.86,5.71,11.91C315.48,52.53,325.58,90,330.26,130.5h-4.34v129h1.23C299,438.88,180.86,569.31,63.26,550.86a145.15,145.15,0,0,1-41.87-13.34,157.83,157.83,0,0,1-19.15-11.2H6.92V6.77Z" style="fill:#fab41e"/><path d="M163.77,6.77H289V1.5c1,1.88,2,3.77,3,5.7q2.91,5.75,5.63,11.75c14.45,32,24.42,68.91,29,108.91a473.34,473.34,0,0,1-3.07,127.31c-27.77,177-144.34,305.65-260.36,287.44a143.29,143.29,0,0,1-41.32-13.16A155.63,155.63,0,0,1,3,518.4H6.92V6.77Z" style="fill:#fab51e"/><path d="M162.33,6.77H288.79V6.18q2.88,5.67,5.55,11.59c14.27,31.55,24.09,68,28.64,107.44a467.07,467.07,0,0,1-3,125.59C292.56,425.37,177.57,552.32,63.11,534.36a141.3,141.3,0,0,1-40.75-13,154.22,154.22,0,0,1-18.65-10.9H6.92V6.77Z" style="fill:#fab61e"/><path d="M160.9,6.77H285.62V5.16q2.85,5.61,5.48,11.44c28.13,62.22,38.78,143.75,25.27,229.84C289.34,418.61,175.92,543.82,63,526.11a139.63,139.63,0,0,1-40.2-12.8A152.1,152.1,0,0,1,4.45,502.55H6.92V6.77Z" style="fill:#fab61e"/><path d="M159.46,6.77h123V4.15q2.81,5.52,5.41,11.28c27.74,61.35,38.24,141.75,24.91,226.64C286.12,411.86,174.28,535.33,63,517.86a137.51,137.51,0,0,1-39.64-12.63,149.83,149.83,0,0,1-18.13-10.6H6.92V6.77Z" style="fill:#fab71e"/><path d="M158,6.77H279.29V3.13q2.76,5.46,5.32,11.12C312,74.75,322.32,154,309.18,237.71,282.9,405.1,172.64,526.84,62.88,509.61A135.69,135.69,0,0,1,23.8,497.16,146.87,146.87,0,0,1,5.93,486.71h1V6.77Z" style="fill:#fab81e"/><path d="M156.59,6.77H276.12V2.12q2.72,5.37,5.25,11c27,59.63,37.16,137.76,24.21,220.26-25.9,165-134.59,285-242.77,268a133.86,133.86,0,0,1-38.52-12.27,144.58,144.58,0,0,1-17.62-10.3h.25V6.77Z" style="fill:#fab81e"/><path d="M155.16,6.77H273V1.11q2.69,5.28,5.17,10.8C304.7,70.67,314.75,147.67,302,229,276.46,391.59,169.35,509.84,62.73,493.11a131.62,131.62,0,0,1-38-12.09A143.34,143.34,0,0,1,7.4,470.86q-2.1-1.42-4.15-2.94H6.92V6.77Z" style="fill:#fab91e"/><path d="M153.72,6.77H269.78V.09c1.76,3.48,3.47,7,5.1,10.64C301.06,68.63,311,144.5,298.39,224.61,273.25,384.83,167.7,501.34,62.66,484.86A129.86,129.86,0,0,1,25.25,473a141.69,141.69,0,0,1-17.11-10Q4,460.12,0,457h6.9V6.77Z" style="fill:#faba1e"/><path d="M152.29,6.77H269.17V4.27c.84,1.74,1.66,3.51,2.47,5.29,25.79,57,35.54,131.77,23.16,210.68C270,378.07,166.06,492.85,62.58,476.61a127.82,127.82,0,0,1-36.85-11.73A139.5,139.5,0,0,1,8.88,455q-4.08-2.79-8-5.86h6V6.77Z" style="fill:#fabb1e"/><path d="M150.85,6.77H266V3.17q1.25,2.58,2.43,5.22c25.4,56.17,35,129.77,22.81,207.49C266.81,371.31,164.41,484.35,62.5,468.36A125.8,125.8,0,0,1,26.21,456.8a137.42,137.42,0,0,1-16.6-9.71q-4-2.73-7.87-5.77H6.92V6.77Z" style="fill:#fabb1e"/><path d="M149.41,6.77H262.76V2.08q1.22,2.54,2.39,5.13c25,55.31,34.47,127.78,22.46,204.3-24,153.05-124.84,264.35-225.18,248.6a123.94,123.94,0,0,1-35.74-11.38,134.34,134.34,0,0,1-16.33-9.56q-4-2.69-7.77-5.68H6.92V6.77Z" style="fill:#fabc1e"/><path d="M148,6.77H261.9V6C286.52,60.48,295.84,131.82,284,207.15,260.37,357.8,161.12,467.36,62.35,451.86a122,122,0,0,1-35.17-11.2,132.93,132.93,0,0,1-16.09-9.41q-3.88-2.65-7.64-5.59H6.92V6.77Z" style="fill:#fabd1e"/><path d="M146.54,6.77H258.66V4.87c24.23,53.58,33.39,123.78,21.76,197.91C257.15,351,159.48,458.87,62.27,443.61a120.22,120.22,0,0,1-34.61-11,130.81,130.81,0,0,1-15.83-9.27q-3.83-2.6-7.52-5.5H6.92V6.77Z" style="fill:#fabd1d"/><path d="M145.11,6.77H255.42V3.7c23.83,52.71,32.85,121.78,21.4,194.71-22.89,145.88-119,252-214.62,237a118.45,118.45,0,0,1-34.06-10.84,129.16,129.16,0,0,1-15.57-9.12q-3.77-2.56-7.4-5.41H6.92V6.77Z" style="fill:#fabe1d"/><path d="M143.67,6.77H252.18V2.52c23.44,51.85,32.31,119.79,21.05,191.53-22.52,143.48-117,247.83-211.11,233.06a116.41,116.41,0,0,1-33.5-10.66,127.86,127.86,0,0,1-15.32-9Q9.59,405,6,402.15h.89V6.77Z" style="fill:#fabf1d"/><path d="M142.24,6.77H248.93V1.35c23.05,51,31.78,117.79,20.71,188.34C247.49,330.77,154.55,433.38,62,418.86c-23.12-3.63-44-14.23-62-30.31H6.92V6.77Z" style="fill:#fac01d"/><path d="M140.8,6.77H245.68V.17C268.35,50.3,276.93,116,266,185.32,244.27,324,152.91,424.88,62,410.61c-22.74-3.57-43.29-14-61-29.8h6V6.77Z" style="fill:#fac01d"/><path d="M139.36,6.77H244.49V3.66q1,2.36,2,4.75c1.29,3.2,2.51,6.45,3.69,9.75q3.51,9.93,6.33,20.47a309.13,309.13,0,0,1,8.34,44.26A365.47,365.47,0,0,1,262.45,181C241.05,317.26,151.26,416.39,61.89,402.36,39.55,398.85,19.35,388.61,2,373.08h5V6.77Z" style="fill:#fac11d"/><path d="M137.93,6.77H241.21V2.41q1,2.31,1.93,4.66,1.89,4.71,3.61,9.59,3.47,9.73,6.23,20.1a301.7,301.7,0,0,1,8.19,43.49,358.41,358.41,0,0,1-2.32,96.34c-21,133.91-109.23,231.3-197,217.52-22-3.45-41.8-13.51-58.89-28.77h4V6.77Z" style="fill:#fac21d"/><path d="M136.5,6.77H239.82v-1q1.86,4.64,3.56,9.41,3.39,9.57,6.11,19.75a298.5,298.5,0,0,1,8.05,42.71,352.19,352.19,0,0,1-2.29,94.62C234.61,303.75,148,399.39,61.74,385.86c-21.56-3.38-41-13.27-57.84-28.25h3V6.77Z" style="fill:#fac21d"/><path d="M135.06,6.77H236.51V4.39q1.83,4.54,3.49,9.25Q243.32,23,246,33A293.94,293.94,0,0,1,253.9,75a345.59,345.59,0,0,1-2.24,92.91c-20.27,129.13-105.33,223-190,209.75-21.16-3.32-40.3-13-56.78-27.74h2V6.77Z" style="fill:#fac31d"/><path d="M133.63,6.77H233.2V3.06q1.78,4.46,3.42,9.07c2.17,6.14,4.14,12.5,5.89,19a286.49,286.49,0,0,1,7.75,41.16,339.26,339.26,0,0,1-2.19,91.18C228.18,290.23,144.68,382.4,61.59,369.36,40.81,366.1,22,356.57,5.85,342.13H6.92V6.77Z" style="fill:#fac41d"/><path d="M132.19,6.77h97.69v-5c1.17,2.91,2.3,5.88,3.36,8.9q3.21,9,5.78,18.66a281.92,281.92,0,0,1,7.61,40.38,333.11,333.11,0,0,1-2.16,89.47C225,283.48,143,373.91,61.51,361.11c-20.38-3.2-38.81-12.55-54.68-26.71h.09V6.77Z" style="fill:#fbc41d"/><path d="M130.75,6.77h95.82V.38c1.14,2.86,2.25,5.77,3.29,8.73Q233,18,235.53,27.41A275.86,275.86,0,0,1,243,67a326.78,326.78,0,0,1-2.11,87.74c-19.15,122-99.49,210.65-179.45,198.1-20-3.14-38.06-12.31-53.63-26.2q-2.91-2.61-5.72-5.43H6.92V6.77Z" style="fill:#fbc51d"/><path d="M129.32,6.77h95.59V3.28c.54,1.43,1.06,2.87,1.57,4.32q3.09,8.7,5.56,18a270.76,270.76,0,0,1,7.32,38.83,320.88,320.88,0,0,1-2.07,86C218.52,270,139.75,356.91,61.36,344.61,41.76,341.54,24,332.55,8.78,318.93c-1.91-1.71-3.78-3.48-5.61-5.33H6.92V6.77Z" style="fill:#fbc61d"/><path d="M127.88,6.77h95.23V6.09q3,8.52,5.44,17.59a264.82,264.82,0,0,1,7.17,38.05,313.89,313.89,0,0,1-2,84.3C215.3,263.2,138.11,348.42,61.29,336.36c-19.22-3-36.58-11.82-51.54-25.17-1.86-1.67-3.7-3.41-5.49-5.21H6.92V6.77Z" style="fill:#fbc71c"/><path d="M126.45,6.77h93.28V4.58q3,8.36,5.33,17.23a258.76,258.76,0,0,1,7,37.28,307.16,307.16,0,0,1-2,82.57c-18,114.79-93.63,198.26-168.88,186.45-18.82-2.95-35.83-11.58-50.48-24.66A125.88,125.88,0,0,1,.19,292.83H6.92V6.77Z" style="fill:#fbc71c"/><path d="M125,6.77h91.34V3.07q2.9,8.17,5.22,16.87a254.18,254.18,0,0,1,6.88,36.5,301,301,0,0,1-1.95,80.86C208.86,249.69,134.82,331.43,61.13,319.86,42.71,317,26.05,308.52,11.7,295.72a125.06,125.06,0,0,1-10.31-10.4H6.92V6.77Z" style="fill:#fbc81c"/><path d="M123.58,6.77H213V1.56c1.89,5.33,3.6,10.85,5.11,16.51a248.5,248.5,0,0,1,6.73,35.72,294.34,294.34,0,0,1-1.91,79.14c-17.26,110-89.72,190-161.85,178.68-18-2.83-34.33-11.1-48.37-23.63A119.91,119.91,0,0,1,2.58,277.8H6.92V6.77Z" style="fill:#fbc91c"/><path d="M122.14,6.77h87.45V.05q2.78,7.83,5,16.15a244.93,244.93,0,0,1,6.59,35,288.51,288.51,0,0,1-1.87,77.42C202.42,236.18,131.53,314.43,61,303.36c-17.64-2.77-33.59-10.86-47.32-23.11a117.67,117.67,0,0,1-9.88-10H6.92V6.77Z" style="fill:#fbc91c"/><path d="M120.71,6.77h88.08V6.32c.82,2.63,1.59,5.31,2.31,8a237.21,237.21,0,0,1,6.44,34.16,281.85,281.85,0,0,1-1.83,75.7C199.2,229.42,129.89,305.94,60.9,295.11c-17.25-2.71-32.84-10.62-46.27-22.6A115.43,115.43,0,0,1,5,262.77h2V6.77Z" style="fill:#fbca1c"/><path d="M119.27,6.77h86.09V4.63q1.19,3.87,2.25,7.84a232.52,232.52,0,0,1,6.29,33.39,275.61,275.61,0,0,1-1.78,74c-16.14,102.82-83.87,177.6-151.3,167C44,284.21,28.73,276.48,15.61,264.77a113.3,113.3,0,0,1-9.45-9.52h.76V6.77Z" style="fill:#fbcb1c"/><path d="M117.84,6.77h84.07V3q1.17,3.76,2.21,7.65a226.83,226.83,0,0,1,6.15,32.61,269.35,269.35,0,0,1-1.74,72.26C192.76,215.91,126.6,289,60.75,278.61,44.29,276,29.4,268.48,16.58,257a111,111,0,0,1-9.22-9.3c-1.47-1.66-2.9-3.38-4.31-5.16H6.92V6.77Z" style="fill:#fbcb1c"/><path d="M116.4,6.77h82.08V1.26q1.14,3.68,2.15,7.47a221.88,221.88,0,0,1,6,31.84,262.72,262.72,0,0,1-1.7,70.54c-15.39,98-80,169.34-144.26,159.25-16.07-2.52-30.6-9.89-43.11-21.06A114.27,114.27,0,0,1,.36,229.83H6.92V6.77Z" style="fill:#fbcc1c"/><path d="M115,6.77h81.16V3.19c.35,1.22.69,2.44,1,3.67A214.58,214.58,0,0,1,203,37.92a256,256,0,0,1-1.65,68.82c-15,95.65-78,165.21-140.74,155.37-15.68-2.46-29.86-9.65-42.07-20.55a112.35,112.35,0,0,1-16.78-19H6.92V6.77Z" style="fill:#fbcd1b"/><path d="M113.53,6.77h80.12V5a211.51,211.51,0,0,1,5.71,30.29,249.82,249.82,0,0,1-1.62,67.1c-14.63,93.25-76.07,161.08-137.22,151.48-15.29-2.4-29.11-9.41-41-20A108.52,108.52,0,0,1,3.14,215.3H6.92V6.77Z" style="fill:#fbcd1b"/><path d="M112.09,6.77h78.07V3.13a204.91,204.91,0,0,1,5.56,29.5A243.17,243.17,0,0,1,194.14,98C179.88,188.88,120,255,60.45,245.61c-14.9-2.34-28.37-9.17-40-19.52a106.38,106.38,0,0,1-15.94-18H6.92V6.77Z" style="fill:#fbce1b"/><path d="M110.66,6.77h76V1.25A199.5,199.5,0,0,1,192.08,30a236.83,236.83,0,0,1-1.53,63.65c-13.89,88.48-72.17,152.83-130.18,143.72-14.51-2.27-27.62-8.93-38.91-19A103.8,103.8,0,0,1,5.93,200.78h1V6.77Z" style="fill:#fbcf1b"/><path d="M109.22,6.77h75.63V6.13q.78,3.42,1.44,6.91c.87,4.67,1.6,9.44,2.16,14.3A230.66,230.66,0,0,1,187,89.28C173.45,175.36,116.73,238,60.29,229.11c-14.11-2.21-26.87-8.68-37.86-18.49a101,101,0,0,1-15.1-17.1A119.66,119.66,0,0,1,.87,183.31H6.92V6.77Z" style="fill:#fbd01b"/><path d="M107.79,6.77h73.52V4.07c.51,2.22,1,4.45,1.4,6.72.85,4.54,1.56,9.18,2.1,13.91a223.94,223.94,0,0,1-1.45,60.21c-13.13,83.7-68.27,144.57-123.15,136-13.71-2.15-26.12-8.44-36.8-18A97.42,97.42,0,0,1,8.72,186.26c-2.21-3.13-4.31-6.45-6.28-9.92H6.92V6.77Z" style="fill:#fbd01b"/><path d="M106.35,6.77h71.43V2q.72,3.21,1.35,6.53c.83,4.4,1.51,8.91,2.05,13.5a217.77,217.77,0,0,1-1.41,58.5C167,161.85,113.45,221,60.14,212.61c-13.33-2.09-25.38-8.2-35.76-17.46A94.61,94.61,0,0,1,10.12,179,113.51,113.51,0,0,1,4,169.36h2.9V6.77Z" style="fill:#fcd11b"/><path d="M104.92,6.77h70.64V6.3c.8,4.27,1.47,8.65,2,13.11a211,211,0,0,1-1.37,56.77c-12.38,78.91-64.37,136.3-116.11,128.18C34.19,200.3,13.28,180.63.39,152.12H6.92V6.77Z" style="fill:#fcd21b"/><path d="M103.48,6.77H172V4.05c.78,4.15,1.43,8.39,1.92,12.71a204.78,204.78,0,0,1-1.32,55.05C160.57,148.34,110.16,204,60,196.11c-25.09-3.94-45.37-23-57.87-50.66h4.8V6.77Z" style="fill:#fcd21b"/><path d="M102,6.77H168.4v-5q1.14,6,1.87,12.32A198.57,198.57,0,0,1,169,67.45c-11.63,74.13-60.46,128-109.07,120.41C35.61,184.05,16,165.57,3.85,138.78H6.92V6.77Z" style="fill:#fcd31a"/><path d="M100.61,6.77h65.22V5.45c.3,2,.56,4,.8,6a192.3,192.3,0,0,1-1.24,51.61C154.13,134.82,106.87,187,59.83,179.61,36.32,175.92,17.31,158,5.58,132.11H6.92V6.77Z" style="fill:#fcd41a"/><path d="M99.18,6.77h63V3q.43,2.89.78,5.82a185.74,185.74,0,0,1-1.21,49.9c-10.88,69.35-56.56,119.78-102,112.64C37,167.79,18.65,150.51,7.32,125.45A130.82,130.82,0,0,1,.18,105.29H6.92V6.77Z" style="fill:#fcd41a"/><path d="M97.74,6.77h61.62V6.18a179.41,179.41,0,0,1-1.16,48.17c-10.51,67-54.62,115.65-98.52,108.76C37.73,159.67,20,143,9.05,118.78A126,126,0,0,1,2.16,99.32H6.92V6.77Z" style="fill:#fcd51a"/><path d="M96.3,6.77h59.42V3.54A172.67,172.67,0,0,1,154.61,50c-10.14,64.57-52.67,111.53-95,104.88-21.17-3.32-38.28-19.41-48.83-42.74A133.91,133.91,0,0,1,.19,72.38H6.92V6.77Z" style="fill:#fcd61a"/><path d="M94.87,6.77h57.22V.89A166.51,166.51,0,0,1,151,45.62c-9.76,62.18-50.72,107.39-91.48,101-20.38-3.2-36.86-18.69-47-41.16A129.18,129.18,0,0,1,2.31,67.18H6.92V22.45H3.39A173.3,173.3,0,0,1,8.45,0V6.77Z" style="fill:#fcd61a"/><path d="M93.43,6.77H149V3.36c.14,1.72.25,3.46.33,5.21.16,3.49.2,7,.12,10.64a166.71,166.71,0,0,1-2,22c-9.39,59.78-48.77,103.26-88,97.1-19.59-3.07-35.44-18-45.2-39.58S.78,48.87,5.47,19q.88-5.61,2.1-11C8,6.16,8.41,4.38,8.88,2.62V6.77Z" style="fill:#fcd71a"/><path d="M92,6.77h53.61V5.51q.22,5,.11,10.22a158.2,158.2,0,0,1-1.9,21.16C134.81,94.28,97,136,59.38,130.11c-18.82-3-34-17.25-43.4-38S3.05,44.2,7.55,15.5q.85-5.38,2-10.57V6.77Z" style="fill:#fcd81a"/><path d="M90.56,6.77h51.38V2.45c.15,3.22.18,6.49.11,9.8a154.58,154.58,0,0,1-1.82,20.27c-8.64,55-44.87,95-80.93,89.34S1,67,9.64,12q.81-5.16,1.93-10.13V6.77Z" style="fill:#fcd81a"/><path d="M89.13,6.77H138.4V4.05c0,1.56,0,3.13,0,4.71a148.24,148.24,0,0,1-1.75,19.4C128.38,80.77,93.72,119,59.22,113.61S3.46,61.16,11.72,8.55c.26-1.64.54-3.27.85-4.89V6.77Z" style="fill:#fcd919"/><path d="M87.69,6.77h47V5.28A139.5,139.5,0,0,1,133,23.79c-7.89,50.22-41,86.74-73.89,81.57S5.92,55.3,13.8,5.08V6.77Z" style="fill:#fcda19"/><path d="M86.25,6.77H131v-5a133,133,0,0,1-1.59,17.64c-7.51,47.82-39,82.61-70.37,77.68S8.38,49.43,15.89,1.61V6.77Z" style="fill:#fcda19"/><path d="M84.82,6.77h42.07V6.61q-.37,4.19-1,8.45C118.71,60.5,88.79,93.54,59,88.86,44.1,86.52,32.06,75.2,24.64,58.78a94.56,94.56,0,0,1-7.46-28,117.31,117.31,0,0,1-.72-15.94c.07-2.73.22-5.5.47-8.29v.18Z" style="fill:#fcdb19"/><path d="M83.39,6.77h39.85V2.69c-.24,2.65-.56,5.32-1,8C115.5,53.74,87.14,85,58.92,80.61,44.81,78.4,33.4,67.67,26.37,52.12a89.3,89.3,0,0,1-7.06-26.49,110,110,0,0,1-.68-15.11c.05-2.58.2-5.21.44-7.86V6.77Z" style="fill:#fcdc19"/><path d="M82,6.77h36.71V6.33C112.28,47,85.5,76.55,58.84,72.36,45.52,70.27,34.75,60.14,28.1,45.45a84.49,84.49,0,0,1-6.67-25,104.22,104.22,0,0,1-.64-14.26v.6Z" style="fill:#fcdd19"/><path d="M80.51,6.77h34.55V2c-6,38.27-31.2,66.09-56.29,62.15-12.55-2-22.68-11.5-28.94-25.33a79.68,79.68,0,0,1-6.28-23.55A100,100,0,0,1,23,1.81v5Z" style="fill:#fddd18"/><path d="M79.08,6.77h31.13V4.21c-.49,2.16-1,4.27-1.66,6.34a91.19,91.19,0,0,1-4.4,11.81A74.49,74.49,0,0,1,91.79,41.57c-9.55,10.54-21.34,16.14-33.1,14.29S37.43,45.08,31.57,32.12A74.43,74.43,0,0,1,25.68,10c-.23-2-.4-4.09-.5-6.2V6.77Z" style="fill:#fdde18"/><path d="M77.64,6.77h27.51V5.32a86.52,86.52,0,0,1-4.1,11A69.84,69.84,0,0,1,89.5,34.27c-8.91,9.84-19.91,15.07-30.89,13.34S38.77,37.55,33.3,25.45A69.62,69.62,0,0,1,27.8,4.84V6.77Z" style="fill:#fddf18"/><path d="M76.21,6.77h25.54V.09a80.39,80.39,0,0,1-3.81,10.23A64.1,64.1,0,0,1,87.22,27C79,36.11,68.73,41,58.54,39.36S40.11,30,35,18.78a59,59,0,0,1-3.2-9q-.64-2.4-1.12-4.93v2Z" style="fill:#fddf18"/><path d="M74.77,6.77H94.83V4.31a59.74,59.74,0,0,1-9.89,15.37C77.3,28.11,67.87,32.59,58.46,31.12s-17-8.64-21.7-19a54.74,54.74,0,0,1-2.95-8.35v3Z" style="fill:#fde018"/><path d="M73.34,6.77H87.58V5.93a49.51,49.51,0,0,1-4.92,6.45c-7,7.73-15.65,11.84-24.27,10.49S42.79,15,38.5,5.45V6.77Z" style="fill:#fde118"/><path d="M71.9,6.77h8.48V5.09c-6.37,7-14.23,10.75-22.07,9.52A20.51,20.51,0,0,1,47.79,9.48,28,28,0,0,1,43.6,4.73v2Z" style="fill:#fde118"/><path d="M70.46,6.77h-1.8V4.86a18.34,18.34,0,0,1-10.43,1.5v.41Z" style="fill:#fde217"/><path d="M69,6.77h0Z" style="fill:#fde317"/><path d="M67.59,6.77h0Z" style="fill:#fde317"/><path d="M66.16,6.77h0Z" style="fill:#fde417"/><path d="M64.72,6.77h0Z" style="fill:#fde517"/><path d="M63.29,6.77h0Z" style="fill:#fde517"/><path d="M61.86,6.77h0Z" style="fill:#fde616"/><path d="M60.42,6.77h0Z" style="fill:#fde716"/><path d="M59,6.77h0Z" style="fill:#fde816"/></g><path d="M324.08,590.34a3,3,0,0,0,.24.51v-3.43A3.57,3.57,0,0,0,324.08,590.34Z" style="fill:#f15b3a;opacity:0.2"/><path d="M324.19,705.34a7.68,7.68,0,0,0-4-1.16,8.27,8.27,0,0,0,0,16.52,7.6,7.6,0,0,0,4.17-1.25v-14.3Z" style="fill:#f15b3a;opacity:0.2"/><path d="M228.9,366.14a5.53,5.53,0,0,0,4.45,5.5l-.51,18.71A13.19,13.19,0,0,0,219.05,397L200,388.43a10.1,10.1,0,0,0,.33-2.54,9.34,9.34,0,1,0-9.33,9.73,9.22,9.22,0,0,0,7.84-4.47l19,8.55a14.74,14.74,0,0,0-.73,4.58,14.4,14.4,0,0,0,3.54,9.52l-18,25.48a6.51,6.51,0,0,0-3.46-1,7.08,7.08,0,1,0,6.78,7.07,7.19,7.19,0,0,0-1.81-4.79l17.88-25.36a13.14,13.14,0,0,0,8.58,3.2,13.32,13.32,0,0,0,2.1-.17l3.87,28.3a12.28,12.28,0,0,0,3.79,23.63,11.88,11.88,0,0,0,5.09-.85l19.64,32.06a17.06,17.06,0,0,0-5,10.76l-30.52,6.6a6,6,0,0,0-11.39.84l-16.56-4.33a11.56,11.56,0,0,0,.14-1.78c0-6.26-4.81-11.34-10.76-11.34a10.23,10.23,0,0,0-3.67.69l-7.49-18.51a5.55,5.55,0,0,0,2.6-3.86,5.31,5.31,0,0,0,.13-.89,5.51,5.51,0,0,0-5.18-5.84,5.44,5.44,0,0,0-4.74,2.29l0,0a8.8,8.8,0,0,1-.92,2.38c0,.2-.07.39-.08.59a5.55,5.55,0,0,0,2.92,5.21,5.05,5.05,0,0,0,2.33.82,5,5,0,0,0,1.64-.14l7.51,18.58a11.42,11.42,0,0,0-5.77,10,11.58,11.58,0,0,0,4.07,8.87l-11,14.89a8.16,8.16,0,0,0-4.78-1.56,8.94,8.94,0,1,0,8.47,8.92,9.16,9.16,0,0,0-2.2-6l11.19-15.13a10.25,10.25,0,0,0,5,1.32,10.85,10.85,0,0,0,10.32-8.13L218,521a5.49,5.49,0,0,0,0,.58,6.17,6.17,0,1,0,12.32,0c0-.15,0-.29,0-.44l29.9-6.45a17,17,0,0,0,4.92,10.83l-8.59,11.2a7,7,0,0,0-3.12-.93,7.25,7.25,0,0,0-3.48,13.75,6.32,6.32,0,0,0,2.08.93l-1.32,24.32a9.21,9.21,0,0,0-7.83,5l-25.72-7.68c0-.12,0-.24,0-.36a3.36,3.36,0,0,0-2.27-3.33l.51-9.5a3.48,3.48,0,1,0-1.15,0l-.51,9.32a3.48,3.48,0,0,0-2.21.73l-10.58-7.1a1.89,1.89,0,0,0,.19-.75,2.23,2.23,0,1,0-2.35,2,2.25,2.25,0,0,0,1.41-.4l10.55,7.08a3.17,3.17,0,0,0-.5,1.56,3.28,3.28,0,0,0,1,2.51l-6,9.86a2.09,2.09,0,0,0-.51-.07,1.92,1.92,0,1,0,2,1.92,1.9,1.9,0,0,0-.48-1.24l6-9.8a3.54,3.54,0,0,0,1.34.35,3.5,3.5,0,0,0,2.86-1.22l25.84,7.72a8.69,8.69,0,0,0-.28,1.79,8.94,8.94,0,0,0,5.46,8.64l-4.87,15h-.14a3.35,3.35,0,1,0,3.27,3.53,3.31,3.31,0,0,0-1.5-2.94l4.89-15a9.47,9.47,0,0,0,1.61.24,9.08,9.08,0,0,0,9.7-8.42,8.62,8.62,0,0,0-1.14-4.77l13-7.38a5.07,5.07,0,0,0,3.79,2,5.23,5.23,0,0,0,3.23-9.51,4.82,4.82,0,0,0-1.25-.89l.73-33.34A16.77,16.77,0,0,0,290.77,523l33.55,14.27v-4.49l-31.65-13.47a16.83,16.83,0,0,0,1-4.94,17.06,17.06,0,0,0-1-6.83l27.11-14.16a7.14,7.14,0,0,0,4.55,2.79V481.9a7.24,7.24,0,0,0-5.66,9.26l-27,14.12a16.82,16.82,0,0,0-8.75-7.71l12.3-44.93.55.06a7.2,7.2,0,0,0,7.54-6.84c0-.31,0-.61,0-.92l11.41-2.81a9.86,9.86,0,0,0,.65,1.5,9.23,9.23,0,0,0,9,4.81V430.3a8.82,8.82,0,0,0-2.24-.09L315,404.31a2.3,2.3,0,0,0,.32-.15,3.37,3.37,0,0,0,1.63-3.69l7.34-4v-1.32l-7.77,4.27a3.53,3.53,0,0,0-1.8-1.49l.45-12.73a2.29,2.29,0,0,0,.74-.24,2.23,2.23,0,1,0-3-.92,2.26,2.26,0,0,0,1.09,1l-.44,12.69a3.26,3.26,0,0,0-3.21,2.57l-11.54.11a2.06,2.06,0,0,0-.21-.48,1.92,1.92,0,1,0-.59,2.68,1.89,1.89,0,0,0,.8-1.05l11.47-.11a3.53,3.53,0,0,0,3,3.11l7.09,26a8.34,8.34,0,0,0-1.67.7,8.93,8.93,0,0,0-4.46,9.2l-11.33,2.79A7.13,7.13,0,0,0,289,445.09a7.24,7.24,0,0,0,3.83,6.8l-12.32,45a16.37,16.37,0,0,0-12.08,1.94L249,467.15a12.29,12.29,0,0,0-7.29-21.47,11.74,11.74,0,0,0-3.62.35l-3.86-28.15a13.62,13.62,0,0,0,7.82-6l13,5.92a3.36,3.36,0,0,0,6.32,2.1,3.27,3.27,0,0,0-1.83-4.25,3.32,3.32,0,0,0-3.82.83l-12.95-5.91a14.52,14.52,0,0,0,1.41-6.26,14,14,0,0,0-9.88-13.59l.52-19a5.56,5.56,0,1,0-5.93-5.54ZM276,530.42h.22l-.71,32.69a5,5,0,0,0-4.9,4.62,4.74,4.74,0,0,0,.74,2.83L258.2,578A9.24,9.24,0,0,0,253,575l1.33-24.39a6,6,0,0,0,4.79-3.78,7.29,7.29,0,0,0-.67-8.5L267,527.14A16.52,16.52,0,0,0,276,530.42Z" style="fill:#f15b3a;opacity:0.2"/><path d="M324.32,822.15V809.4a18.31,18.31,0,0,0-2-1.77l2-2.68v-4.18l-4,5.49a20,20,0,0,0-29.18,14.56l-31.73-2.68a14,14,0,0,0-2-8.4c-4.1-6.65-13-8.65-20.1-4.65l-8.15-12.17a8.68,8.68,0,0,0,3.16-3.75,9.09,9.09,0,0,0-4.89-11.88,8.89,8.89,0,0,0-1.56-.51l2.37-15.62a3.33,3.33,0,0,0,2.66-2,3.46,3.46,0,1,0-4.51,1.69l.13.05-2.36,15.59a8.94,8.94,0,0,0-8.76,5.27,9.34,9.34,0,0,0-.54,1.73l-26.56-4.68a3.47,3.47,0,0,0-2-2.37,3.52,3.52,0,0,0-1.36-.3l-.94-11.43a1.87,1.87,0,0,0,1-.89,2,2,0,1,0-2.12,1l.95,11.51a3.27,3.27,0,0,0-2.27,3.42l-12.59,1.61a2.29,2.29,0,0,0-1.08-1,2.17,2.17,0,1,0,1.18,2.88,2,2,0,0,0,.16-.76l12.65-1.6a3.54,3.54,0,0,0,1.64,1.65l-3.72,8.55a3.44,3.44,0,1,0,1,.5l3.8-8.72a3.37,3.37,0,0,0,3.52-2,3.42,3.42,0,0,0,.13-.34l26.43,4.67a9.22,9.22,0,0,0,4.75,8l-9.72,22.34a5.91,5.91,0,0,0-6.84,3.3,5.76,5.76,0,0,0-.38,3.26h11.9a6,6,0,0,0-2.57-5.63l9.75-22.4a9.35,9.35,0,0,0,6.06-.37L235.79,806a15.14,15.14,0,0,0-6.09,16.13h28.79c.07-.2.15-.39.22-.59l7,.59Z" style="fill:#f15b3a;opacity:0.2"/><path d="M178.29,720.86a9.13,9.13,0,0,0-5.11-3.81l1.13-18.79a10.15,10.15,0,0,0,4.94-1.64,10.87,10.87,0,0,0,4.21-12.45l16.26-5.41c.09.17.19.34.29.5a6.33,6.33,0,0,0,8.71,2.08,6.11,6.11,0,0,0,2.68-5.81L249.84,668a15,15,0,0,0,.71,2.18,14.09,14.09,0,0,0,5.3,6.27L239.1,703.12a10.33,10.33,0,1,0,3,1.87l17-27a14.32,14.32,0,0,0,10-.28l17.07,21.44a4.38,4.38,0,0,0,5,7,4.38,4.38,0,0,0-3.24-8.14L271,676.8a14.42,14.42,0,0,0,6.38-7.81l11.73,2.32a6,6,0,0,0,.47,2.71,6.11,6.11,0,1,0,0-4.76L277.93,667a14.11,14.11,0,0,0-.91-8.09,1.3,1.3,0,0,1-.08-.17l23.64-11.07a10.69,10.69,0,0,0,19.1,1.46l4.64,2.08v-3.79L321,645.89a11.57,11.57,0,0,0,.39-3,10.92,10.92,0,1,0-21.82,0,11.86,11.86,0,0,0,.32,2.69l-24,11.23a14.23,14.23,0,0,0-10.1-6.42l-2-34.28a8.76,8.76,0,0,0,1.19-.4,8.37,8.37,0,1,0-4.69.57l1.95,34.05a14.86,14.86,0,0,0-4.14,1.1,14.42,14.42,0,0,0-4.8,3.34l-20.94-15.27a6.09,6.09,0,1,0-11.09-.29,6.13,6.13,0,0,0,9.82,2L252,656.43a14.35,14.35,0,0,0-2.57,9.54l-38.62,7.53a6.33,6.33,0,0,0-.51-1c-.1-.15-.21-.29-.31-.43a6.13,6.13,0,0,0-10.91,5.33l-16.19,5.39a11.5,11.5,0,0,0-.85-1.58c-3.41-5.24-10.22-6.87-15.2-3.63a10.11,10.11,0,0,0-2.7,2.59l-16.39-11.43a5.57,5.57,0,0,0-.11-5.1,5.21,5.21,0,1,0-2,7.29,4.94,4.94,0,0,0,1.29-1l16.44,11.47A11.39,11.39,0,0,0,164,693a11.52,11.52,0,0,0,8.25,5.22l-1.11,18.5a8,8,0,0,0-4.85,1.3,8.93,8.93,0,1,0,12,2.85Z" style="fill:#f15b3a;opacity:0.2"/><path d="M294.25,800.65a3.77,3.77,0,0,1,3.07-3.76l-4.13-30.19a12.61,12.61,0,0,1-1.95.15,12.21,12.21,0,0,1-8-3l-16.64,23.59a6.72,6.72,0,0,1,1.68,4.46,6.31,6.31,0,1,1-6.3-6.57,6,6,0,0,1,3.21.93l16.73-23.71a13.41,13.41,0,0,1-3.3-8.86,13.62,13.62,0,0,1,.68-4.26l-17.7-8a8.56,8.56,0,0,1-7.29,4.16,9.06,9.06,0,1,1,8.68-9,9.6,9.6,0,0,1-.31,2.36l17.74,8a12.5,12.5,0,0,1,10.8-6.37,11.35,11.35,0,0,1,2,.18l.48-17.41a5,5,0,1,1,1.38,0l-.49,17.68a13.07,13.07,0,0,1,9.19,12.65,13.65,13.65,0,0,1-1.3,5.83l12,5.5a3.11,3.11,0,0,1,3.56-.78,3,3,0,1,1-4.18,2l-12.08-5.51a12.71,12.71,0,0,1-7.27,5.62L298.79,797a3.77,3.77,0,0,1,2.77,3.69,3.66,3.66,0,1,1-7.31,0Z" style="fill:#f4763c;opacity:0.2"/><path d="M19.87,818.61a16.34,16.34,0,0,1-7.52-5.76l-4.58,3.2v-3l3.31-2.32A16.77,16.77,0,0,1,9.67,799.1l-1.9-.18v-2.45l2.67.25a16.82,16.82,0,0,1,7.87-8.65l-8.93-36a12.36,12.36,0,0,1-1.61,0V728a11.74,11.74,0,0,1,5.1.72,12,12,0,0,1,6.92,15.53,12.15,12.15,0,0,1-6.45,6.83l8.82,35.53a16.35,16.35,0,0,1,9.53.62,17.12,17.12,0,0,1,2.4,1.15l25-38.63a7,7,0,1,1,2.5,1.63,5.44,5.44,0,0,1-.5-.22L36.13,789.78a16.59,16.59,0,0,1,5.92,9.85l29.62-5.23a7,7,0,1,1,.38,2.41l-29.7,5.25a16.94,16.94,0,0,1-3.49,11.07l10.52,9H43.12L36,816a16.5,16.5,0,0,1-13.54,3.3l-1,2.82H18.9l1.18-3.47Z" style="fill:#f4763c;opacity:0.2"/><path d="M105.23,788a7.37,7.37,0,0,1,10.38-.8,6.87,6.87,0,0,1,2.12,3.69l15.37-3.1a9.8,9.8,0,0,1,2.48-7.88,9.67,9.67,0,0,1,9.32-3l5.82-15.93a4.07,4.07,0,0,1-1.11-.84,4.64,4.64,0,1,1,6.39.05,4.67,4.67,0,0,1-4.13,1.21l-5.81,15.88a8.48,8.48,0,0,1,2.71,1.65,9.36,9.36,0,0,1,.32,13.22,10.76,10.76,0,0,1-1.1,1l7.94,12.11a5.26,5.26,0,0,1,6.23.5,5.5,5.5,0,1,1-7.55.58c.11-.12.23-.23.35-.34l-8-12.13a9.16,9.16,0,0,1-11.09-.75,8.64,8.64,0,0,1-2.42-3.68l-15.61,3.15a7.72,7.72,0,0,1-2,5A7.18,7.18,0,1,1,105.23,788Z" style="fill:#f4763c;opacity:0.2"/><g style="mask:url(#mask-13)"><path d="M199.41,822.78l-9.16-16.3a14.46,14.46,0,0,1-17.35-2.37,13.6,13.6,0,0,1-3.39-6.05l-24.88,3.26a12.18,12.18,0,0,1-3.7,7.65c-4.73,4.56-12.07,4.61-16.4.13a11.53,11.53,0,0,1-.08-15.52L116,786.26a8,8,0,0,1-9.42,2,7.55,7.55,0,0,1-2.88-2.51L91.47,792a6.69,6.69,0,0,1-.5,4.64,6.37,6.37,0,0,1-8.46,3.09,5.8,5.8,0,0,1-1.5-1.06L64.75,812.93A7.22,7.22,0,0,1,65.87,816a7,7,0,0,1-3.14,6.78H55.84a7.08,7.08,0,0,1-3.26-5.17,7.48,7.48,0,0,1,0-1.77l-23.36-6a4.68,4.68,0,0,1-7.41,2l-11.24,11H8.53l12.34-12a5,5,0,0,1-.84-2.24,4.79,4.79,0,1,1,9.51-1.15,5.47,5.47,0,0,1,0,1.07l23.36,6a6.56,6.56,0,0,1,10.94-2.63l16.26-14.24a6.63,6.63,0,0,1-.25-6.43,6.37,6.37,0,0,1,8.46-3.09A6,6,0,0,1,91,790.63L103,784.44a8.44,8.44,0,0,1,.22-7.14,8.34,8.34,0,0,1,7-4.71L111.42,758a3.58,3.58,0,0,1-1.12-.44,3.82,3.82,0,0,1-1.71-4L85.87,738a6.59,6.59,0,0,1-5.18,2.56,6.66,6.66,0,0,1-6-3.86l-22.47,8.78a4.66,4.66,0,0,1,.12,1.06,4.79,4.79,0,1,1-9.58,0,5.2,5.2,0,0,1,.56-2.33L29.8,733.92a3.77,3.77,0,0,1-2.73,1.19,4,4,0,1,1,3.83-4,4.14,4.14,0,0,1-.32,1.59l13.57,10.36a4.68,4.68,0,0,1,7.6,1.1l22.47-8.79a7.25,7.25,0,0,1-.23-1.76,7,7,0,0,1,3.4-6.06l-7-19.08a4.52,4.52,0,0,1-1.91.42,5,5,0,1,1,4.79-5,5,5,0,0,1-1.65,3.76l7,19.29a6.53,6.53,0,0,1,2-.31,6.84,6.84,0,0,1,6.69,7,7.2,7.2,0,0,1-.75,3.19l22.48,15.33,0,0a3.81,3.81,0,1,1,6.51,3.95,4.08,4.08,0,0,1-3.17,2l-1.11,14.59a7.41,7.41,0,0,1,2.64.74,8.1,8.1,0,0,1,3.37,10.94,9.15,9.15,0,0,1-.68,1.13l8.48,7.38.08-.09c4.73-4.56,12.07-4.62,16.4-.13a10.86,10.86,0,0,1,2.93,6l24.49-3.21a15.39,15.39,0,0,1,4.75-12.11,15.19,15.19,0,0,1,15-3.75l10.87-24.4a6.65,6.65,0,0,1-1.65-1.45,7.11,7.11,0,0,1,1.19-9.88l-16.27-28.7a5.93,5.93,0,0,1-1.79.28,6.13,6.13,0,0,1-6-6.25,6.22,6.22,0,0,1,4.49-6l.27-30.48a6.3,6.3,0,0,1-3.1-5.48c0-.22,0-.44,0-.65L156.29,663a4.53,4.53,0,0,1-4.21,3.06,4.64,4.64,0,0,1-4.51-4.76c0-.14,0-.28,0-.42l-12.15-3.17a8,8,0,0,1-7.56,6,7.57,7.57,0,0,1-3.68-1L116,673.75a6.75,6.75,0,0,1,1.61,4.38,6.21,6.21,0,1,1-6.2-6.53,6,6,0,0,1,3.5,1.14L123,661.83a8.48,8.48,0,0,1-3-6.5,8.37,8.37,0,0,1,4.23-7.35l-5.51-13.61a3.41,3.41,0,0,1-1.2.1,4,4,0,1,1,4.14-3.67,4.07,4.07,0,0,1-2,3.17l5.49,13.57a7.35,7.35,0,0,1,2.69-.51,8.1,8.1,0,0,1,7.88,8.3,9.39,9.39,0,0,1-.1,1.31l12.13,3.17a4.53,4.53,0,0,1,4.29-3.29,4.65,4.65,0,0,1,4.52,4.75,2.83,2.83,0,0,1,0,.3l20.56,3.51a6,6,0,0,1,5.66-4.2,6.26,6.26,0,0,1,0,12.51,4.77,4.77,0,0,1-.76-.06l-.27,29.59a6.17,6.17,0,0,1,5.38,6.22,6.32,6.32,0,0,1-2.34,4.94L201,742.66a7,7,0,0,1,8.34,1.82,7.13,7.13,0,0,1-1.31,10,7.39,7.39,0,0,1-6.63,1.44l-10.84,24.33a13.47,13.47,0,0,1,4.07,2.89c5.5,5.7,5.09,15-.92,20.81a15.36,15.36,0,0,1-1.84,1.51l9.72,17.33Z" style="fill:url(#linear-gradient-13)"/></g><g style="mask:url(#mask-14)"><path d="M244.49,822.78a6.2,6.2,0,1,1,10.57-2.43,6,6,0,0,1-1.38,2.43Z" style="fill:url(#linear-gradient-14)"/></g><g style="mask:url(#mask-15)"><path d="M324.32,556.09l-5.58-9.56a9.48,9.48,0,0,0,1.09-.92,8.79,8.79,0,0,0,.34-12.43,8.06,8.06,0,0,0-2.45-1.68L323.88,517l.16.06c.09,0,.19,0,.28.08V508.7a4.67,4.67,0,0,0-1.75.91,4.26,4.26,0,0,0-.68,6,4.07,4.07,0,0,0,.86.75l.13.1-6.24,14.66a9.08,9.08,0,0,0-8.9,2.38,9.22,9.22,0,0,0-2.71,7.28l-14.58,2.15a6.5,6.5,0,0,0-1.8-3.56,7.11,7.11,0,1,0-.27,9.78,7.34,7.34,0,0,0,2.13-4.6l14.81-2.19a8.12,8.12,0,0,0,2.08,3.57,8.63,8.63,0,0,0,10.38,1.25l6.54,11.21Z" style="fill:url(#linear-gradient-15)"/></g><g style="mask:url(#mask-15)"><path d="M324.12,566.36l.2.17v-7.3h0A5,5,0,0,0,324.12,566.36Z" style="fill:url(#linear-gradient-16)"/></g><g style="mask:url(#mask-15)"><path d="M225.25,635.18a13.33,13.33,0,0,0-3.2-8.71l16.28-22a15,15,0,0,0,7.32,1.92,15.79,15.79,0,0,0,15-11.84l24.12,6.31c0,.28,0,.56,0,.84a9.21,9.21,0,0,0,9,9.44,8.72,8.72,0,0,0,6.63-3.11L308,618.41a4,4,0,0,0-1.23,1.61,4.07,4.07,0,0,0,.09,3.35l-11.13,9a2.21,2.21,0,0,0-.57-.3,2.37,2.37,0,1,0,1.5,3.06,2.31,2.31,0,0,0,0-1.64l11.06-9a4.63,4.63,0,0,0,1.43,1,4.36,4.36,0,0,0,3.85-.23l11.36,8.35V631l-9.84-7.23.2-.4a4.18,4.18,0,0,0-1.26-4.84L318,607.63a4.15,4.15,0,0,0,2.36-7.93,4.15,4.15,0,0,0-3.7,7.42l-4.48,10.67a4.35,4.35,0,0,0-2.89-.06l-8.06-10.9a9.69,9.69,0,0,0,1.45-5.13,9.21,9.21,0,0,0-9-9.44,9,9,0,0,0-8.53,6.54l-24.09-6.3a17.1,17.1,0,0,0,.21-2.6c0-9.11-7-16.49-15.65-16.49a15,15,0,0,0-5.35,1l-10.89-26.94a8,8,0,0,0,3.89-6.3,8.13,8.13,0,0,0-2.17-6.31l8.11-11a8.11,8.11,0,0,0,3.93,1,8.45,8.45,0,0,0,8-6.35L264.15,522c0,.15,0,.3,0,.45a4.82,4.82,0,1,0,4.81-5.06,4.83,4.83,0,0,0-4.57,3.5l-12.91-3.37a10.72,10.72,0,0,0,.11-1.4,8.63,8.63,0,0,0-8.39-8.84,7.88,7.88,0,0,0-2.87.55l-5.84-14.45a4.33,4.33,0,0,0,2.09-3.38,4.17,4.17,0,0,0-3.68-4.6,4.12,4.12,0,0,0-4.3,3.3l-17.81.34a5.35,5.35,0,1,0,0,1.43l17.68-.33a4.13,4.13,0,0,0,3.67,3.78,4.19,4.19,0,0,0,1.28-.11l5.86,14.49a8.87,8.87,0,0,0-4.5,7.82A9,9,0,0,0,238,523l-8,10.83a7.28,7.28,0,0,0-3.49-1.26,7.78,7.78,0,0,0-8.22,7.3,8.37,8.37,0,0,0,.19,2.61l-22.29,3a6.06,6.06,0,0,0-5.82-4.75,5.81,5.81,0,0,0-3.23,1l-17.51-22.28a5.15,5.15,0,0,0,1.77-3.91,4.86,4.86,0,1,0-4.86,5.06,4.67,4.67,0,0,0,1.87-.39L186,542.69A6.37,6.37,0,0,0,184.3,547a6,6,0,1,0,12,0v-.09l22.56-3.06a7.51,7.51,0,0,0,6.21,4.6,7.29,7.29,0,0,0,2.39-.2l10.93,27a16.59,16.59,0,0,0-8.4,14.6,16.79,16.79,0,0,0,5.92,12.9l-16,21.67a11.85,11.85,0,0,0-7-2.27,12.07,12.07,0,0,0-9.61,4.88L188.18,612.4a5.14,5.14,0,0,0,1.75-3.89,4.86,4.86,0,1,0-9.72,0,2.09,2.09,0,0,0,0,.25l-19,3.54a6.91,6.91,0,1,0-.14,1.48l19.36-3.62a4.88,4.88,0,0,0,4.6,3.41,4.54,4.54,0,0,0,1.87-.39l15.57,15.11a13.42,13.42,0,0,0-1.89,6.89c0,7.16,5.51,13,12.31,13S225.25,642.34,225.25,635.18Z" style="fill:url(#linear-gradient-17)"/></g><g style="mask:url(#mask-15)"><path d="M292.31,471.12a2.28,2.28,0,0,0-.12-1.63L302.83,460a4.52,4.52,0,0,0,1.48.9,4.32,4.32,0,0,0,3.83-.41l16.18,10.8v-2.58l-14.73-9.83a2.87,2.87,0,0,0,.18-.4,4.19,4.19,0,0,0-1.48-4.78l4.07-11.08a4.31,4.31,0,1,0-1.36-.44l-4,10.86a4.4,4.4,0,0,0-2.89.07l-9.95-12.27a2.67,2.67,0,0,0-1.18-4.3,2.69,2.69,0,1,0-1.85,5,2.78,2.78,0,0,0,1.82,0l9.92,12.23a4.06,4.06,0,0,0-1.16,1.67,4.13,4.13,0,0,0,.25,3.34l-10.71,9.51a2.07,2.07,0,0,0-.58-.28,2.44,2.44,0,0,0-2.35.51L266.6,457.05a4.16,4.16,0,0,0,.17-1.18,4.06,4.06,0,0,0-2.33-3.71l8.29-37a5.58,5.58,0,0,0,1,.1,5.36,5.36,0,0,0,0-10.72,5.13,5.13,0,0,0-4.47,2.7l-18.7-7.5a5.62,5.62,0,0,0,.08-.92,5.42,5.42,0,0,0-1.76-4l5-18.67h0a2.83,2.83,0,1,0-2.72-2.83,2.86,2.86,0,0,0,1.33,2.42L247.64,394a4.81,4.81,0,0,0-2.14-.49,5,5,0,0,0-3.36,1.3L225,379a5.14,5.14,0,0,0,.71-2.62,4.86,4.86,0,1,0-4.86,5.06,4.74,4.74,0,0,0,3.26-1.31l17.15,15.74a5.45,5.45,0,0,0-.87,3,5.26,5.26,0,0,0,5.15,5.36,5.15,5.15,0,0,0,4.65-3.07l18.61,7.46a5.33,5.33,0,0,0-.17,1.33,5.4,5.4,0,0,0,2.78,4.76l-8.32,37.12h-.18a4.06,4.06,0,0,0,0,8.11,3.84,3.84,0,0,0,3.1-1.6l21.63,11.54a2.44,2.44,0,0,0,4.71,1.25Z" style="fill:url(#linear-gradient-18)"/></g><g style="mask:url(#mask-15)"><path d="M306.54,778.15a4.49,4.49,0,0,0-3.67-5l-3.72-27.39a14.66,14.66,0,0,0,9.66-3.52l9.08,8.16a6.06,6.06,0,0,0-1,2.62,6.22,6.22,0,0,0,5.39,7,6.38,6.38,0,0,0,2.05-.07V747.8l-.43-.08a6.3,6.3,0,0,0-4.51,1.14l-9-8.11a14.27,14.27,0,0,0,3.43-7.57c0-.06,0-.13,0-.19l10.53,1v-2.15l-10.45-1a14.49,14.49,0,0,0-5.5-10.9l15.95-30.68V672.7a8.4,8.4,0,0,0-2.95,14.49l-16.05,30.87a14.89,14.89,0,0,0-10.15-.78L284.78,693a6.14,6.14,0,0,0,2.83-4.4,6.26,6.26,0,0,0-8.68-6.49l-6.3-10.8a9.32,9.32,0,0,0,1.09-.92,8.79,8.79,0,0,0,.34-12.43,8.37,8.37,0,0,0-2.45-1.68l6.22-14.62a4.4,4.4,0,0,0,3.94-.92,4.14,4.14,0,1,0-6-.37,3.64,3.64,0,0,0,1,.85l-6.24,14.66a9.09,9.09,0,0,0-8.9,2.39,9.19,9.19,0,0,0-2.71,7.27l-14.58,2.16a6.45,6.45,0,0,0-1.81-3.57,7.11,7.11,0,1,0-.27,9.78,7.28,7.28,0,0,0,2.14-4.6l14.81-2.19a8.21,8.21,0,0,0,2.08,3.58,8.64,8.64,0,0,0,10.38,1.24l6.25,10.72a6.12,6.12,0,0,0-2.7,4.3,6.24,6.24,0,0,0,7.57,6.85L293.15,718a14.57,14.57,0,0,0-7.23,7L248,711.44c0-.16.07-.31.09-.47a6.23,6.23,0,1,0-.9,2.45l38,13.63a15.13,15.13,0,0,0-.51,2.28,14.37,14.37,0,0,0,1.37,8.26l-28.58,14.6a10.44,10.44,0,1,0,2,7.63,10.19,10.19,0,0,0-.39-4.45L288,740.59a14.72,14.72,0,0,0,8.95,5l3.77,27.69a4.48,4.48,0,1,0,5.81,4.87Z" style="fill:url(#linear-gradient-19)"/></g><g style="mask:url(#mask-20)"><path d="M313.77,814.29a16.79,16.79,0,0,1-.55,4.23l9.47,4.26H285a16.65,16.65,0,0,1-2.3-8.49c0-8.94,7-16.2,15.53-16.2S313.77,805.35,313.77,814.29Z" style="fill:url(#linear-gradient-20)"/></g><g style="mask:url(#mask-21)"><path d="M237.62,636.39a6.26,6.26,0,1,1-6,6.26A6.14,6.14,0,0,1,237.62,636.39Z" style="fill:url(#linear-gradient-21)"/></g><path d="M8.32,19l.48-.26L31.33,55.46A14.26,14.26,0,0,0,39.8,80.4,13.92,13.92,0,0,0,44,80l4.48,32.68a15.83,15.83,0,0,0-9.07,7l-15.09-6.89A3.84,3.84,0,0,0,22,108.46a3.73,3.73,0,1,0-2.9,6.86,3.87,3.87,0,0,0,4.43-1l15,6.86A17,17,0,0,0,37,128.49a16.32,16.32,0,0,0,11.48,15.79l-.61,22.07a6.25,6.25,0,1,0,1.72.06l.6-21.74a15.09,15.09,0,0,0,2.54.22,15.57,15.57,0,0,0,13.47-7.95l22.15,10a11.92,11.92,0,0,0-.38,2.95,10.85,10.85,0,1,0,10.84-11.31,10.73,10.73,0,0,0-9.11,5.2l-22.1-9.93a17,17,0,0,0,.85-5.32,16.77,16.77,0,0,0-4.11-11.06l20.88-29.6a7.55,7.55,0,0,0,4,1.16,8.22,8.22,0,1,0-7.87-8.21,8.38,8.38,0,0,0,2.1,5.57L62.64,115.8a15.18,15.18,0,0,0-12.4-3.51l-4.5-32.88A14.26,14.26,0,0,0,41.35,52a13.74,13.74,0,0,0-5.92,1L12.61,15.71a19.61,19.61,0,0,0,4.86-7.94H8.32Z" style="fill:#f15b3a;opacity:0.2"/><path d="M87.56,7.77a12.43,12.43,0,0,0,11.08,7.07,12,12,0,0,0,4.27-.8l8.7,21.51a6.39,6.39,0,0,0-3,4.48,6.91,6.91,0,0,0-.15,1,6.42,6.42,0,0,0,6,6.79,6.34,6.34,0,0,0,5.5-2.67l24.16,10.28a11.24,11.24,0,0,0,0,7.68l-17.67,9.23a4.84,4.84,0,1,0,.72,1.45l17.63-9.21a11,11,0,0,0,5.7,5l-8,29.3-.36,0a4.69,4.69,0,1,0,1.9.53l8-29.33a12.5,12.5,0,0,0,1.75.25,10.78,10.78,0,0,0,6.13-1.52l12.65,20.65a8,8,0,0,0,4.75,14,7.89,7.89,0,0,0,7.29-4L198.24,106a10.9,10.9,0,0,0-.46,1.63A10.39,10.39,0,0,0,205.7,120a9.47,9.47,0,0,0,3.52,0l3.62,18.43a5.19,5.19,0,0,0-3.24,3.52,4.89,4.89,0,1,0,6.1-3.62,4.48,4.48,0,0,0-1.53-.17l-3.64-18.48a10.73,10.73,0,0,0,7.12-8.24,10.9,10.9,0,0,0-2.18-8.91l12.82-11.79A7.61,7.61,0,0,0,232.42,93a8.39,8.39,0,1,0-6.23-9.74,8.6,8.6,0,0,0,1,5.92l-13,12a9.65,9.65,0,0,0-4.41-2.11,10.21,10.21,0,0,0-11,5.67l-13.58-6.49a8.39,8.39,0,0,0,.47-2.31,8,8,0,0,0-7.46-8.42,7.83,7.83,0,0,0-3.32.56L162.06,67.16a11.11,11.11,0,0,0,3.24-7l20.61-4.45a3.34,3.34,0,0,0,3,2.16,3.41,3.41,0,1,0-3.17-3.76l-20.38,4.4a11.12,11.12,0,0,0-3.21-7.07l5.6-7.3a4.72,4.72,0,1,0-2.37-4.36,4.81,4.81,0,0,0,1.12,3.33l-5.57,7.27A10.78,10.78,0,0,0,155,48.22h-.15l.47-21.69a3.37,3.37,0,1,0-1.61-.14l-.48,21.89a11,11,0,0,0-7.88,4.78L121,42.71a7.4,7.4,0,0,0,.13-1,6.44,6.44,0,0,0-3.39-6,5.77,5.77,0,0,0-2.71-1,6,6,0,0,0-1.9.16l-8.73-21.57a13,13,0,0,0,5.27-5.57Z" style="fill:#f15b3a;opacity:0.2"/><g style="mask:url(#mask-22)"><path d="M11.65,65.7,8.32,63.93v1.88l2.6,1.38a4.78,4.78,0,0,0-.2,1.37,4.72,4.72,0,0,0,2.71,4.31L8.32,95.64v7.59l6.72-30h.21a4.71,4.71,0,0,0,0-9.42A4.45,4.45,0,0,0,11.65,65.7Z" style="fill:url(#linear-gradient-22)"/></g><g style="mask:url(#mask-22)"><path d="M75.75,28.4l-20.54.39A4.79,4.79,0,0,0,51,24.39a4.58,4.58,0,0,0-1.49.13L42.69,7.77H33.78a9.22,9.22,0,0,0,4.36,1.1,9.25,9.25,0,0,0,3.33-.63L48.25,25a5,5,0,0,0-2.42,3.93,4.7,4.7,0,0,0,9.27,1.51l20.68-.39a6,6,0,0,0,5.9,5.28,6.23,6.23,0,1,0-5.93-6.94Z" style="fill:url(#linear-gradient-23)"/></g><g style="mask:url(#mask-22)"><path d="M8.32,125.21l21.22,8.5a6.38,6.38,0,0,0-.09,1.08,6.3,6.3,0,0,0,2,4.67l-5.84,21.69h0a3.29,3.29,0,1,0,3.15,3.29,3.29,3.29,0,0,0-1.54-2.81l5.7-21.19a5.65,5.65,0,0,0,2.49.57,5.82,5.82,0,0,0,3.9-1.51l20,18.32a6,6,0,0,0-.82,3.05A5.65,5.65,0,1,0,64.1,155a5.46,5.46,0,0,0-3.78,1.53L40.41,138.23a6.39,6.39,0,0,0,1-3.44,6.1,6.1,0,0,0-6-6.23,6,6,0,0,0-5.4,3.56L8.41,123.45a6.43,6.43,0,0,0,.19-1.54,6.34,6.34,0,0,0-.28-1.86Z" style="fill:url(#linear-gradient-24)"/></g></g></g></svg>