<svg xmlns="http://www.w3.org/2000/svg" viewBox="0 0 64 64"><title>Asset 1</title><g id="Layer_2" data-name="Layer 2"><g id="Capa_1" data-name="Capa 1"><rect width="64" height="64" style="fill:none"/><path d="M48.55,46.72,35.1,32,48.55,17.28a2.29,2.29,0,0,0,.59-1.71A2.26,2.26,0,0,0,48.31,14L32,.52a2.29,2.29,0,0,0-3.75,1.77V24.46L18.84,14.19a2.29,2.29,0,1,0-3.39,3.09l12.77,14v1.48l-12.77,14a2.29,2.29,0,0,0,3.39,3.09l9.38-10.27V61.71a2.3,2.3,0,0,0,1.31,2.07,2.26,2.26,0,0,0,1,.22A2.33,2.33,0,0,0,32,63.48L48.31,50a2.26,2.26,0,0,0,.83-1.61A2.29,2.29,0,0,0,48.55,46.72ZM32.8,7.14,43.54,16,32.8,27.72Zm0,49.72V36.28L43.54,48Z" style="fill:#fff"/></g></g></svg>