<svg xmlns="http://www.w3.org/2000/svg" viewBox="0 0 64 64"><title>Asset 1</title><g id="Layer_2" data-name="Layer 2"><g id="Capa_1" data-name="Capa 1"><rect width="64" height="64" style="fill:none"/><g id="Micro_USB_Cable" data-name="Micro USB Cable"><path d="M64,6.66H52.51V4.57H23.77A5.23,5.23,0,0,0,18.55,9.8v2H13.84a6.53,6.53,0,0,0-6.53,6.53v7.05a6.53,6.53,0,0,0,6.53,6.53H50.16a3.91,3.91,0,0,1,3.91,3.92V48.52a3.91,3.91,0,0,1-3.91,3.92H25.6V49.37a1.3,1.3,0,0,0-1.31-1.3H8.62v2.09H0v7.05H8.62v2.22H24.29a1.31,1.31,0,0,0,1.31-1.31V55.05H50.16a6.53,6.53,0,0,0,6.53-6.53V35.79a6.53,6.53,0,0,0-6.53-6.53H13.84a3.92,3.92,0,0,1-3.91-3.92v-7a3.91,3.91,0,0,1,3.91-3.92h4.71v2a5.22,5.22,0,0,0,5.22,5.22H52.51V19.46H64ZM8.62,55.9H1.31V51.46H8.62ZM62.69,18.16H52.51V8H62.69Z" style="fill:#fff"/><rect x="55.77" y="14.5" width="4.96" height="1.31" style="fill:#fff"/><rect x="55.77" y="10.32" width="4.96" height="1.31" style="fill:#fff"/><rect x="3.4" y="52.38" width="1.31" height="2.61" style="fill:#fff"/></g></g></g></svg>