<svg xmlns="http://www.w3.org/2000/svg" viewBox="0 0 64 64"><title>Asset 5</title><g id="Layer_2" data-name="Layer 2"><g id="Calque_2" data-name="Calque 2"><path d="M26.55,34h10.9a4.78,4.78,0,0,0,4.76-4.76V23.83a4.79,4.79,0,0,0-4.76-4.77H26.55a4.79,4.79,0,0,0-4.76,4.77v5.45A4.78,4.78,0,0,0,26.55,34Zm-.68-10.21a.68.68,0,0,1,.68-.68h10.9a.68.68,0,0,1,.68.68v5.45a.69.69,0,0,1-.68.68H26.55a.69.69,0,0,1-.68-.68Z" style="fill:#fff"/><path d="M2,46.3a2,2,0,1,0,0,4.08H8.17v3.41a2.06,2.06,0,0,0,2,2h3.41V62a2,2,0,1,0,4.08,0V55.83h6.81V62a2,2,0,0,0,4.09,0V55.83h6.8V62a2,2,0,0,0,4.09,0V55.83H46.3V62a2,2,0,1,0,4.08,0V55.83h3.41a2.06,2.06,0,0,0,2-2V50.38H62a2,2,0,0,0,0-4.08H55.83V39.49H62a2,2,0,0,0,0-4.09H55.83V28.6H62a2,2,0,0,0,0-4.09H55.83V17.7H62a2,2,0,0,0,0-4.08H55.83V10.21a2.06,2.06,0,0,0-2-2H50.38V2A2,2,0,1,0,46.3,2V8.17H39.49V2A2,2,0,0,0,35.4,2V8.17H28.6V2a2,2,0,0,0-4.09,0V8.17H17.7V2a2,2,0,1,0-4.08,0V8.17H10.21a2.06,2.06,0,0,0-2,2v3.41H2A2,2,0,1,0,2,17.7H8.17v6.81H2A2,2,0,0,0,2,28.6H8.17v6.8H2a2,2,0,0,0,0,4.09H8.17V46.3Zm13.62-34H51.74V51.74H12.26V12.26Z" style="fill:#fff"/><path d="M40.17,40.85H37.45a2,2,0,1,0,0,4.09h2.72a2,2,0,0,0,0-4.09Z" style="fill:#fff"/><path d="M23.83,44.94h5.45a2,2,0,0,0,0-4.09H23.83a2,2,0,0,0,0,4.09Z" style="fill:#fff"/></g></g></svg>