<svg xmlns="http://www.w3.org/2000/svg" viewBox="0 0 173.61 184.61"><title>encryption</title><g id="Layer_2" data-name="Layer 2"><g id="Key"><g id="Shield"><g id="Shield-2" data-name="Shield"><path d="M100.91,8.26C85,22.53,71.3,21.78,62.72,15.17,54.16,31.68,40.44,48.26,24.55,52.34l-9.07,24.5s4.86,5.6,4.86,19a66.8,66.8,0,0,1-2.24,16.63c-1.66,6.61-3.79,13.45-3.79,24.87,0,7.75,1,15.28,4.94,22.13a27.2,27.2,0,0,0,9.93,9.95l-13.79-8A27.54,27.54,0,0,1,4.94,151.21C1,144.35,0,136.83,0,129.08c0-11.42,2.13-18.26,3.79-24.88A66.65,66.65,0,0,0,6,87.58c0-13.4-4.86-19-4.86-19l9.06-24.5C26.13,40,39.85,23.42,48.41,6.91,57,13.52,70.71,14.27,86.6,0Z" style="fill:#f1b500"/><path d="M53.44,9.82l-5-2.91A22.38,22.38,0,0,0,53.44,9.82Z" style="fill:#fff;opacity:0.8"/><path d="M86.6,0C73.52,11.74,61.92,13.31,53.44,9.82l9.28,5.35c8.58,6.61,22.3,7.36,38.19-6.91Z" style="fill:#fff;opacity:0.85"/><path d="M48.41,6.91C39.85,23.42,26.13,40,10.24,44.08l14.31,8.26c15.89-4.08,29.61-20.66,38.17-37.17Z" style="fill:#fff;opacity:0.65"/><polygon points="10.24 44.08 1.18 68.58 15.48 76.84 24.55 52.34 10.24 44.08" style="fill:#fff;opacity:0.55"/><path d="M19.25,159.47c-3.92-6.85-4.94-14.38-4.94-22.13,0-11.42,2.13-18.26,3.79-24.87a66.8,66.8,0,0,0,2.24-16.63c0-13.4-4.86-19-4.86-19L1.18,68.58S6,74.18,6,87.58A66.65,66.65,0,0,1,3.79,104.2C2.13,110.82,0,117.66,0,129.08c0,7.75,1,15.27,4.94,22.13a27.54,27.54,0,0,0,10.45,10.25l13.79,8A27.2,27.2,0,0,1,19.25,159.47Z" style="fill:#fff;opacity:0.4"/><path d="M19.25,159.47c-3.92-6.85-4.94-14.38-4.94-22.13,0-11.42,2.13-18.26,3.79-24.87a66.8,66.8,0,0,0,2.24-16.63c0-13.4-4.86-19-4.86-19L1.18,68.58S6,74.18,6,87.58A66.65,66.65,0,0,1,3.79,104.2C2.13,110.82,0,117.66,0,129.08c0,7.75,1,15.27,4.94,22.13a27.54,27.54,0,0,0,10.45,10.25l13.79,8A27.2,27.2,0,0,1,19.25,159.47Z" style="opacity:0.05"/><path d="M62.73,176.25c-23.73.26-37.32-6-43.48-16.78-3.92-6.85-4.94-14.38-4.94-22.13,0-11.42,2.13-18.26,3.78-24.88a66.57,66.57,0,0,0,2.26-16.61c0-13.41-4.87-19-4.87-19l9.07-24.5c15.88-4.08,29.6-20.66,38.18-37.17C71.3,21.78,85,22.52,100.9,8.26l9.07,14a69.07,69.07,0,0,0-4.86,24.62,40.18,40.18,0,0,0,2.25,14c1.66,4.7,3.78,9.09,3.78,20.51a82.34,82.34,0,0,1-4.93,27.83C100,127.17,86.45,149.12,62.73,176.25Z" style="fill:#f1b500"/><path d="M62.73,176.25c-23.73.26-37.32-6-43.48-16.78-3.92-6.85-4.94-14.38-4.94-22.13,0-11.42,2.13-18.26,3.78-24.88a66.57,66.57,0,0,0,2.26-16.61c0-13.41-4.87-19-4.87-19l9.07-24.5c15.88-4.08,29.6-20.66,38.18-37.17C71.3,21.78,85,22.52,100.9,8.26l9.07,14a69.07,69.07,0,0,0-4.86,24.62,40.18,40.18,0,0,0,2.25,14c1.66,4.7,3.78,9.09,3.78,20.51a82.34,82.34,0,0,1-4.93,27.83C100,127.17,86.45,149.12,62.73,176.25Z" style="fill:#fff;opacity:0.75"/><path d="M59.92,170.09c-18.38-.22-30.26-4.82-35.32-13.68-2.85-5-4.12-10.87-4.12-19.07a75.85,75.85,0,0,1,3-21.13q.3-1.14.57-2.25a71.85,71.85,0,0,0,2.44-18.11c0-9.77-2.34-16.16-4.2-19.7l7-18.8c17-5.91,29.29-22.7,35.8-33.71a28.1,28.1,0,0,0,11.09,2.24c7.69,0,15.5-2.86,23.29-8.51L103.1,23a75.83,75.83,0,0,0-4.16,23.88A46.55,46.55,0,0,0,101.54,63l.59,1.62c1.46,4,2.85,7.77,2.85,16.84a76.4,76.4,0,0,1-4.6,25.82C94.31,124.88,80.7,146,59.92,170.09Z" style="fill:#f1b500;opacity:0.75"/><path d="M59.92,170.09c-18.38-.22-30.26-4.82-35.32-13.68-2.85-5-4.12-10.87-4.12-19.07a75.85,75.85,0,0,1,3-21.13q.3-1.14.57-2.25a71.85,71.85,0,0,0,2.44-18.11c0-9.77-2.34-16.16-4.2-19.7l7-18.8c17-5.91,29.29-22.7,35.8-33.71a28.1,28.1,0,0,0,11.09,2.24c7.69,0,15.5-2.86,23.29-8.51L103.1,23a75.83,75.83,0,0,0-4.16,23.88A46.55,46.55,0,0,0,101.54,63l.59,1.62c1.46,4,2.85,7.77,2.85,16.84a76.4,76.4,0,0,1-4.6,25.82C94.31,124.88,80.7,146,59.92,170.09Z" style="fill:#fff;opacity:0.4"/><path d="M59.92,170.09c-18.38-.22-30.26-4.82-35.32-13.68-2.85-5-4.12-10.87-4.12-19.07a75.85,75.85,0,0,1,3-21.13q.3-1.14.57-2.25a71.85,71.85,0,0,0,2.44-18.11c0-9.77-2.34-16.16-4.2-19.7l7-18.8c17-5.91,29.29-22.7,35.8-33.71a28.1,28.1,0,0,0,11.09,2.24c7.69,0,15.5-2.86,23.29-8.51L103.1,23a75.83,75.83,0,0,0-4.16,23.88A46.55,46.55,0,0,0,101.54,63l.59,1.62c1.46,4,2.85,7.77,2.85,16.84a76.4,76.4,0,0,1-4.6,25.82C94.31,124.88,80.7,146,59.92,170.09Z" style="opacity:0.15"/><path d="M28.81,161.51c6.26,5.52,16.67,8.41,31.11,8.58l-9.22-5.25A67.63,67.63,0,0,1,28.81,161.51Z" style="fill:#fff;opacity:0.8"/><polygon points="98.31 20.26 103.11 23.03 99.45 17.37 97.37 18.8 98.31 20.26" style="opacity:0.15"/><path d="M96.74,60.21a46.55,46.55,0,0,1-2.6-16.07,75.49,75.49,0,0,1,4.17-23.88l-.94-1.46c-7.1,4.7-14.21,7.08-21.21,7.08a28.1,28.1,0,0,1-11.09-2.24c-6.51,11-18.8,27.8-35.8,33.71l-7,18.8c1.86,3.54,4.2,9.93,4.2,19.7A71.85,71.85,0,0,1,24.07,114q-.27,1.11-.57,2.25a75.85,75.85,0,0,0-3,21.13c0,8.2,1.27,14.08,4.12,19.07a20.64,20.64,0,0,0,6,6.51c6.14,2.8,14.34,4.28,24.54,4.4,20.79-24.08,34.39-45.21,40.46-62.83a76.4,76.4,0,0,0,4.6-25.82c0-9.07-1.38-12.84-2.85-16.84Z" style="fill:#455a64"/><path d="M29.27,57.35l-7,18.8c1.86,3.54,4.2,9.93,4.2,19.7A71.85,71.85,0,0,1,24.07,114q-.27,1.11-.57,2.25a75.85,75.85,0,0,0-3,21.13c0,8.2,1.27,14.08,4.12,19.07a20.64,20.64,0,0,0,6,6.51c6.14,2.8,14.34,4.28,24.54,4.4V98l9.95-3V23.64a109.66,109.66,0,0,1-9.95,14.24C48.46,45.9,39.77,53.7,29.27,57.35Z" style="fill:#37474f"/></g><path id="Shadow" d="M79.14,72.43a2.54,2.54,0,0,0-.38-.54l0-.06a4.47,4.47,0,0,0-1-.81L74.35,69.1a7.23,7.23,0,0,0-1.92-.74,9.42,9.42,0,0,0-1.22-.19V58.31c0-5-1.87-8.86-5.13-10.75C63,45.77,59.13,46,55.25,48.25c-7.12,4.11-12.69,14.14-12.69,22.83V82.72l-6.63,3.83a5.13,5.13,0,0,0-.57.38l-.18.15,0,0a2.45,2.45,0,0,0-.91,1.81v39.93a2.24,2.24,0,0,0,.07.51A3,3,0,0,0,35.56,131a4,4,0,0,0,.37.24l1.62.93,1.71,1a7.22,7.22,0,0,0,2.15.77,9,9,0,0,0,6-.78l30.23-17.45a2.88,2.88,0,0,0,1.7-2.37V73.39A2.13,2.13,0,0,0,79.14,72.43Zm-30-1.35c0-6.36,4.32-14.22,9.43-17.17,1.74-1,3.31-1.26,4.3-.69,1.16.68,1.86,2.58,1.86,5.09V70l-8.6,5-7,4Z" style="fill:#263238"/><g id="Padlock"><path d="M82.9,75.15a2.88,2.88,0,0,0-1.69-2.37l-3.34-1.92a9,9,0,0,0-8.19,0L39.45,88.31a2.9,2.9,0,0,0-1.7,2.37h0v39.93h0a2.88,2.88,0,0,0,1.7,2.37l3.33,1.92a9,9,0,0,0,8.19,0l30.24-17.45a2.87,2.87,0,0,0,1.69-2.37h0V75.15Z" style="fill:#f1b500"/><path d="M42.78,95,39.45,93c-2.26-1.3-2.26-3.42,0-4.73L69.68,70.86a9,9,0,0,1,8.19,0l3.34,1.92c2.26,1.31,2.26,3.43,0,4.73L51,95A9.09,9.09,0,0,1,42.78,95Z" style="fill:#fff;opacity:0.4"/><path d="M46.88,95.94v39.94a8.36,8.36,0,0,1-4.09-1L39.45,133a2.87,2.87,0,0,1-1.7-2.38V90.68A2.85,2.85,0,0,0,39.45,93L42.79,95A8.36,8.36,0,0,0,46.88,95.94Z" style="opacity:0.1"/><path d="M68.88,115.7l-7.22,4.17,1.12-13.06c-.86-.46-1.41-1.58-1.41-3.19,0-2.88,1.75-6.22,3.9-7.46s3.91.07,3.91,3a9.73,9.73,0,0,1-1.42,4.82Z" style="fill:#455a64"/><polygon points="68.88 115.7 62.34 111.92 61.66 119.87 68.88 115.7" style="fill:#37474f"/><path d="M65.27,96.16a8.51,8.51,0,0,0-3.33,4.41l5.82,3.36h0a9.73,9.73,0,0,0,1.42-4.82C69.18,96.23,67.43,94.91,65.27,96.16Z" style="fill:#37474f"/><path d="M74.73,76h0v-16c0-5-1.87-8.86-5.12-10.74s-7-1.56-10.84.68c-7.11,4.11-12.69,14.14-12.69,22.83v16h0a1.61,1.61,0,0,0,1,1.33,5.08,5.08,0,0,0,4.62,0,1.63,1.63,0,0,0,1-1.33h0v-16c0-6.36,4.31-14.22,9.42-17.17,1.74-1,3.31-1.26,4.3-.69,1.16.68,1.86,2.58,1.86,5.09V76h0a1.67,1.67,0,0,0,1,1.32,5.13,5.13,0,0,0,4.61,0,1.62,1.62,0,0,0,1-1.32h0Z" style="fill:#e0e0e0"/></g></g><g id="Key-2" data-name="Key"><polyline points="113.59 146.22 117.99 143.68 119.73 141.57 115.33 144.11 113.59 146.22" style="fill:#f1b500"/><polyline points="113.59 146.22 117.99 143.68 119.73 141.57 115.33 144.11 113.59 146.22" style="opacity:0.4"/><polyline points="125.56 153.14 129.97 150.6 133.64 147.34 129.24 149.88 125.56 153.14" style="fill:#f1b500"/><polyline points="125.56 153.14 129.97 150.6 133.64 147.34 129.24 149.88 125.56 153.14" style="opacity:0.4"/><path d="M163,161.92a9.39,9.39,0,0,1,1.82,4.78A9.3,9.3,0,0,1,163,161.92Zm10.23.13c-1.48-10.08-6.9-20.05-13.36-23.78-3.09-1.79-6-1.86-8.26-.51l-4.14,2.39a1.71,1.71,0,0,0-.23.13c-.18.1-.36.22-.54.34a7,7,0,0,0-1,.79l-.14.13a5.14,5.14,0,0,0-.38.42c-.15.17-.3.35-.44.54a10.2,10.2,0,0,0-.81,1.24q-.18.33-.36.69l-36.19-20.89L103,126.07v2.8l.37.22.35.2v.6l-.72.41v1.64l5.31,11.25,5.26,3,1.75-2.12,4.63,2.77,2.67,4.57,2.93,1.69,3.67-3.26,4.52,2.61,1.51,6.25,7.56,4.36a43.3,43.3,0,0,0,1.43,4.7c.05.16.11.32.18.5,2.51,6.6,6.51,12.26,11,14.86a10.88,10.88,0,0,0,1.69.82,9.65,9.65,0,0,0,.95.32,6.3,6.3,0,0,0,.84.18,7.31,7.31,0,0,0,2.68,0l.37-.09a2.74,2.74,0,0,0,.51-.15l.39-.15a3,3,0,0,0,.41-.19l.37-.19.19-.11.09,0,4.15-2.39c3.34-1.94,5.51-6.84,5.51-13.77A37,37,0,0,0,173.21,162.05Z" style="fill:#f1b500"/><path d="M161.69,170.42c-1.74-1-3.15-4-3.15-6.65s1.41-4,3.15-3,3.14,4,3.14,6.65S163.42,171.42,161.69,170.42Zm7.12-5.84c-1.48-10.07-6.9-20-13.35-23.77-3-1.72-5.76-1.86-8-.66a1.71,1.71,0,0,0-.23.13c-.18.1-.36.22-.54.34a7,7,0,0,0-1,.79l-.14.13a5.14,5.14,0,0,0-.38.42c-.15.17-.3.35-.44.54a10.2,10.2,0,0,0-.81,1.24q-.18.33-.36.69a17.13,17.13,0,0,0-1.39,4.27L103,126.07v2.8l.37.22.35.2v.6l-.72.41v1.64l5.31,11.25,5.26,3,1.75-2.12,4.63,2.77,2.67,4.57,2.93,1.69,3.67-3.26,4.52,2.61,1.51,6.25,7.56,4.36a43.3,43.3,0,0,0,1.43,4.7c.05.16.11.32.18.5,2.51,6.6,6.51,12.26,11,14.86a10.88,10.88,0,0,0,1.69.82,9.65,9.65,0,0,0,.95.32,6.3,6.3,0,0,0,.84.18,7.31,7.31,0,0,0,2.68,0l.37-.09a2.74,2.74,0,0,0,.51-.15l.39-.15a3,3,0,0,0,.41-.19l.37-.19.19-.11.09,0c3.21-2,5.26-6.86,5.26-13.62A37.26,37.26,0,0,0,168.81,164.58Z" style="fill:#f1b500"/><path d="M164.83,167.39c0,2.67-1.41,4-3.14,3s-3.15-4-3.15-6.65,1.41-4,3.15-3a4.41,4.41,0,0,1,1.28,1.18,9.55,9.55,0,0,0,1.82,4.79A5.27,5.27,0,0,1,164.83,167.39Z" style="opacity:0.4"/><path d="M173.61,167.39c0,6.93-2.17,11.83-5.51,13.77L164,183.55c3.21-2,5.26-6.86,5.26-13.62a37.26,37.26,0,0,0-.4-5.35c-1.48-10.07-6.9-20-13.35-23.77-3-1.72-5.76-1.86-8-.66l4.14-2.39c2.3-1.35,5.17-1.28,8.26.51,6.46,3.73,11.88,13.7,13.36,23.78A37,37,0,0,1,173.61,167.39Z" style="fill:#fff;opacity:0.4"/><path d="M169.21,169.93c0,6.76-2.05,11.59-5.26,13.62l4.15-2.39c3.34-1.94,5.51-6.84,5.51-13.77,0-.26,0-.52,0-.78l-4.4,2.54C169.2,169.41,169.21,169.67,169.21,169.93Z" style="fill:#f1b500"/><path d="M169.21,169.93c0,6.76-2.05,11.59-5.26,13.62l4.15-2.39c3.34-1.94,5.51-6.84,5.51-13.77,0-.26,0-.52,0-.78l-4.4,2.54C169.2,169.41,169.21,169.67,169.21,169.93Z" style="opacity:0.1"/><polygon points="142.37 151.59 142.37 153.02 103.02 130.3 103.74 129.88 103.74 129.29 142.37 151.59" style="opacity:0.15"/><polygon points="142.37 152.18 142.37 153.02 103.02 130.3 103.74 129.88 103.74 129.88 142.37 152.18" style="opacity:0.15"/><ellipse cx="155.46" cy="161.98" rx="10.39" ry="19.44" transform="translate(-40.69 52.75) rotate(-17.06)" style="fill:none;stroke:#000;stroke-miterlimit:10;stroke-width:0.731513px;opacity:0.15"/><path d="M143.6,144.43a17.13,17.13,0,0,0-1.39,4.27L103,126.07l4.39-2.53Z" style="fill:#fff;opacity:0.5"/></g></g></g></svg>