<svg xmlns="http://www.w3.org/2000/svg" viewBox="0 0 30.4 24.32"><title>Asset 2</title><g style="isolation:isolate"><g id="Layer_2" data-name="Layer 2"><g id="Calque_2" data-name="Calque 2"><path d="M11.8,12.94a1.19,1.19,0,0,0,1.42.79A48.9,48.9,0,0,1,29.06,13a1.16,1.16,0,0,0,1.33-.9.76.76,0,0,0,0-.15,1.1,1.1,0,0,0-1-1,51.39,51.39,0,0,0-16.7.72A1.07,1.07,0,0,0,11.8,12.94Zm6.64,2.45a1.15,1.15,0,0,0,1.28.95,42,42,0,0,1,9.06.2,1.16,1.16,0,0,0,1.34-.89.78.78,0,0,0,0-.16,1.1,1.1,0,0,0-1-1,44.72,44.72,0,0,0-9.63-.21A1.09,1.09,0,0,0,18.44,15.39ZM8,13.73a4.62,4.62,0,0,0,2.28,2.85,5.59,5.59,0,0,0,3.85.58c.65-.14,1.29-.26,1.94-.36A1.07,1.07,0,0,0,17,15.57a1.16,1.16,0,0,0-1.37-.85c-.68.11-1.36.24-2,.38a3,3,0,0,1-2.07-.31,2.5,2.5,0,0,1-1.23-1.54,2.47,2.47,0,0,1,2.06-2.95,52.44,52.44,0,0,1,16.19-.88,1.17,1.17,0,0,0,1.31-.93s0-.09,0-.13a1.1,1.1,0,0,0-1.05-1,55.19,55.19,0,0,0-17,.92A4.6,4.6,0,0,0,8,13.73Zm.84,3.66a1.28,1.28,0,0,0-1.66.18,1,1,0,0,0,.2,1.48,8.73,8.73,0,0,0,.82.52,9.83,9.83,0,0,0,6.82,1A39.86,39.86,0,0,1,27.86,20a1.18,1.18,0,0,0,1.33-.91c0-.05,0-.09,0-.14a1.11,1.11,0,0,0-1-1.05,42.56,42.56,0,0,0-13.72.65,7.27,7.27,0,0,1-5-.76A4.17,4.17,0,0,1,8.81,17.39ZM19.61,4.68a1.13,1.13,0,0,0,1.23,1,53.92,53.92,0,0,1,6.49.09,1.15,1.15,0,0,0,1.27-1s0-.06,0-.09a1.12,1.12,0,0,0-1.09-1,59.05,59.05,0,0,0-6.79-.09A1.11,1.11,0,0,0,19.61,4.68ZM18,4.94a.57.57,0,0,0,0-.13,1.16,1.16,0,0,0-1.31-.92c-1.92.21-3.86.53-5.76.92a8.43,8.43,0,0,0-7,7.94,7,7,0,0,0,.23,1.77,7.12,7.12,0,0,0,.51,1.4,1.23,1.23,0,0,0,1.55.55,1,1,0,0,0,.61-1.39,5.39,5.39,0,0,1-.38-1,5.07,5.07,0,0,1-.16-1.29,6.23,6.23,0,0,1,5.16-5.88C13.26,6.49,15.11,6.19,17,6A1.11,1.11,0,0,0,18,4.94ZM10,1.38A13.27,13.27,0,0,0,3.87,4.45a1,1,0,0,0,0,1.5A1.3,1.3,0,0,0,5.55,6a10.88,10.88,0,0,1,5-2.51A63.39,63.39,0,0,1,24.88,2.13a1.2,1.2,0,0,0,1.3-1v0A1.2,1.2,0,0,0,25,0,66,66,0,0,0,10,1.38ZM19.66,22.5a.86.86,0,0,0,0-.16,1.17,1.17,0,0,0-1.34-.89c-1,.13-2,.3-3,.51a11.58,11.58,0,0,1-8-1.2,9.54,9.54,0,0,1-4.72-5.92,8.62,8.62,0,0,1,.87-6.37A1,1,0,0,0,3,7.05a1.25,1.25,0,0,0-1.58.47,10.55,10.55,0,0,0-1.07,7.8,11.77,11.77,0,0,0,5.77,7.24A14.13,14.13,0,0,0,15.88,24c.94-.19,1.87-.35,2.78-.47A1.1,1.1,0,0,0,19.66,22.5Zm1.8-.32v0a1,1,0,0,0,1,1,31.09,31.09,0,0,1,3.76.1,1.13,1.13,0,0,0,1.28-.94.41.41,0,0,0,0-.11,1,1,0,0,0-1-1.05,33.52,33.52,0,0,0-4.15-.11A1,1,0,0,0,21.46,22.18Z" style="fill:#fff;mix-blend-mode:color-dodge"/></g></g></g></svg>