<svg xmlns="http://www.w3.org/2000/svg" viewBox="0 0 275.74 436.4"><title>Asset 2</title><g style="isolation:isolate"><g id="Layer_2" data-name="Layer 2"><g id="Layer_1-2" data-name="Layer 1"><path d="M217.33,331.67a1.25,1.25,0,0,1-.46-.09,1.17,1.17,0,0,1-.61-1.53,86.07,86.07,0,0,0-25.89-101.52l-.17-.17c-5.48-6.47-14.66-18.33-14.66-24.93a1.17,1.17,0,1,1,2.33,0c0,4.21,5.25,12.93,14,23.34A88.4,88.4,0,0,1,218.4,331,1.16,1.16,0,0,1,217.33,331.67Z" style="fill:#fff"/><path d="M137.23,384.45l-2.14,0A88.35,88.35,0,0,1,57.17,258.78a1.16,1.16,0,0,1,1.55-.57,1.18,1.18,0,0,1,.56,1.56A86,86,0,0,0,209.2,343.19a1.17,1.17,0,0,1,2,1.28A87.92,87.92,0,0,1,137.23,384.45Z" style="fill:#fff"/><path d="M65.41,247.9a1.17,1.17,0,0,1-1-1.83,88.9,88.9,0,0,1,32.49-28.56,5.34,5.34,0,0,0,2.93-4.76V193.83a7.69,7.69,0,0,1,7.68-7.68h2.59a5.32,5.32,0,0,0,4.51-2.47l.76-1.2a5.31,5.31,0,0,0,.84-2.87v-60.1a1.17,1.17,0,1,1,2.33,0v60.1a7.7,7.7,0,0,1-1.2,4.12l-.76,1.2a7.64,7.64,0,0,1-6.48,3.55h-2.59a5.35,5.35,0,0,0-5.34,5.35v18.92a7.67,7.67,0,0,1-4.2,6.84,86.52,86.52,0,0,0-31.64,27.8A1.17,1.17,0,0,1,65.41,247.9Z" style="fill:#fff"/><path d="M176.71,191.23a1.17,1.17,0,0,1-1.17-1.17V167a3.52,3.52,0,0,0-1-2.52,3.56,3.56,0,0,0-2.52-1.05h-6.16a4.5,4.5,0,0,1-4.52-4.35l-.36-9.95a2.32,2.32,0,0,0-.66-1.55l-10.76-11.21a4.69,4.69,0,0,1-1.31-3.25v-1.52a4.71,4.71,0,0,1,1.53-3.46l13.36-12.26a.29.29,0,0,0,.09-.2v-3.18a.27.27,0,0,0-.08-.19l-1.62-1.62a2.58,2.58,0,0,1-.76-1.84V107.2a2.58,2.58,0,0,1,.76-1.84l2.16-2.17a.27.27,0,0,0,.08-.19V99.14a.27.27,0,0,0-.06-.17L153.17,85.55a6,6,0,0,1-1.27-3.68V78a5.94,5.94,0,0,1,1-3.25l4.53-7a3.67,3.67,0,0,0,.59-2V65a3.64,3.64,0,0,0-.88-2.37l-3.77-4.42a6,6,0,0,1-1.43-3.89V35.55a6,6,0,0,1,2.49-4.86L157,28.82a3.63,3.63,0,0,0,1.52-3v-.29A3.61,3.61,0,0,0,157.43,23L138.77,4.33A7.82,7.82,0,0,0,128,4.59L120.64,12a7,7,0,0,0-2.06,5V99.1a1.17,1.17,0,1,1-2.33,0V16.93A9.3,9.3,0,0,1,119,10.31l7.37-7.37a10.2,10.2,0,0,1,14.06-.26l18.66,18.66a6,6,0,0,1,1.76,4.23v.29a6,6,0,0,1-2.49,4.86l-2.6,1.87a3.65,3.65,0,0,0-1.52,3V54.28a3.62,3.62,0,0,0,.88,2.37l3.77,4.43A6,6,0,0,1,160.31,65v.77a6,6,0,0,1-1,3.25l-4.53,7a3.65,3.65,0,0,0-.59,2v3.92a3.68,3.68,0,0,0,.78,2.25L165.5,97.54a2.56,2.56,0,0,1,.55,1.6V103a2.58,2.58,0,0,1-.76,1.84L163.13,107a.27.27,0,0,0-.08.19v1.61a.27.27,0,0,0,.08.19l1.61,1.62a2.56,2.56,0,0,1,.77,1.84v3.18a2.6,2.6,0,0,1-.85,1.92L151.3,129.82a2.34,2.34,0,0,0-.76,1.74v1.52a2.35,2.35,0,0,0,.65,1.63L162,145.92a4.69,4.69,0,0,1,1.3,3.08l.36,10a2.18,2.18,0,0,0,2.19,2.1H172a5.91,5.91,0,0,1,5.9,5.9v23.1A1.17,1.17,0,0,1,176.71,191.23Z" style="fill:#fff"/><path d="M127.75,321.56a1,1,0,0,1-.45-.1,27.16,27.16,0,1,1,34.61-37.65,1.16,1.16,0,0,1-2.06,1.08,24.83,24.83,0,1,0-31.64,34.43,1.16,1.16,0,0,1,.62,1.52A1.18,1.18,0,0,1,127.75,321.56Z" style="fill:#fff"/><g style="mix-blend-mode:overlay"><path d="M137.87,323.6a1.17,1.17,0,1,1,0-2.33,24.85,24.85,0,0,0,24.82-24.83,1.17,1.17,0,0,1,2.33,0A27.18,27.18,0,0,1,137.87,323.6Z" style="fill:#fff"/></g><g style="mix-blend-mode:overlay"><path d="M166.94,314.71a1.16,1.16,0,0,1-1-1.76,32.58,32.58,0,0,0-16.28-46.87,1.16,1.16,0,0,1,.84-2.17A34.92,34.92,0,0,1,168,314.14,1.17,1.17,0,0,1,166.94,314.71Z" style="fill:#fff"/></g><g style="mix-blend-mode:overlay"><path d="M104.14,297.61a1.16,1.16,0,0,1-1.16-1.17,34.93,34.93,0,0,1,34.89-34.89,1.17,1.17,0,0,1,0,2.33,32.6,32.6,0,0,0-32.56,32.56A1.17,1.17,0,0,1,104.14,297.61Z" style="fill:#fff"/></g><path d="M137.87,331.33a34.84,34.84,0,0,1-33.1-23.82,1.17,1.17,0,0,1,.73-1.48,1.18,1.18,0,0,1,1.48.74,32.57,32.57,0,0,0,53,13.62,1.16,1.16,0,1,1,1.58,1.71A34.75,34.75,0,0,1,137.87,331.33Z" style="fill:#fff"/><path d="M113.94,331.48a1.12,1.12,0,0,1-.67-.22,42.63,42.63,0,1,1,57-62.52,1.17,1.17,0,0,1-1.78,1.51,40.3,40.3,0,1,0-53.87,59.11,1.17,1.17,0,0,1-.68,2.12Z" style="fill:#fff"/><g style="mix-blend-mode:overlay"><path d="M137.87,339.07a42.46,42.46,0,0,1-16.3-3.22,1.18,1.18,0,0,1-.63-1.53,1.17,1.17,0,0,1,1.52-.63,40.32,40.32,0,0,0,52.3-53.47,1.17,1.17,0,1,1,2.14-.94,42.25,42.25,0,0,1,3.6,17.16A42.68,42.68,0,0,1,137.87,339.07Z" style="fill:#fff"/></g><path d="M187.07,297.61a1.17,1.17,0,0,1-1.17-1.17,48.09,48.09,0,0,0-48-48,1.17,1.17,0,1,1,0-2.33,50.42,50.42,0,0,1,50.36,50.36A1.16,1.16,0,0,1,187.07,297.61Z" style="fill:#fff"/><g style="mix-blend-mode:overlay"><path d="M90.53,311.08a1.18,1.18,0,0,1-1.12-.85A50.44,50.44,0,0,1,124,248a1.16,1.16,0,0,1,.64,2.24,48.07,48.07,0,0,0-32.94,59.33,1.17,1.17,0,0,1-.81,1.44A1.13,1.13,0,0,1,90.53,311.08Z" style="fill:#fff"/></g><g style="mix-blend-mode:overlay"><path d="M137.87,346.81a50.56,50.56,0,0,1-43.7-25.3,1.16,1.16,0,0,1,.43-1.59,1.18,1.18,0,0,1,1.6.43A48,48,0,0,0,184.74,307a1.16,1.16,0,1,1,2.27.51A50.68,50.68,0,0,1,137.87,346.81Z" style="fill:#fff"/></g><g style="mix-blend-mode:overlay"><path d="M168.3,345.74a1.17,1.17,0,0,1-.63-2.15,55.78,55.78,0,0,0,9.38-86.84,1.16,1.16,0,0,1,1.63-1.66,58.11,58.11,0,0,1-9.76,90.47A1.17,1.17,0,0,1,168.3,345.74Z" style="fill:#fff"/></g><path d="M84.3,278.28a1.4,1.4,0,0,1-.4-.07,1.18,1.18,0,0,1-.7-1.5,58.14,58.14,0,0,1,83.61-30.66,1.16,1.16,0,1,1-1.16,2A55.8,55.8,0,0,0,85.4,277.51,1.18,1.18,0,0,1,84.3,278.28Z" style="fill:#fff"/><path d="M137.87,354.54a58.17,58.17,0,0,1-57.22-68.25,1.17,1.17,0,0,1,2.3.41,55.81,55.81,0,0,0,74.79,61.87,1.17,1.17,0,0,1,.83,2.18A57.87,57.87,0,0,1,137.87,354.54Z" style="fill:#fff"/><g style="mix-blend-mode:overlay"><path d="M73.2,297.61A1.17,1.17,0,0,1,72,296.44,65.6,65.6,0,0,1,102.4,241a1.17,1.17,0,0,1,1.26,2,63.28,63.28,0,0,0-29.3,53.51A1.16,1.16,0,0,1,73.2,297.61Z" style="fill:#fff"/></g><g style="mix-blend-mode:overlay"><path d="M137.87,362.28a65.51,65.51,0,0,1-65-55.39,1.17,1.17,0,0,1,2.31-.36A63.19,63.19,0,0,0,137.87,360a1.17,1.17,0,0,1,0,2.33Z" style="fill:#fff"/></g><path d="M150.9,361a1.17,1.17,0,0,1-.23-2.31,63.61,63.61,0,0,0,48.39-79.27,1.16,1.16,0,1,1,2.24-.63,65.88,65.88,0,0,1-50.17,82.18A.85.85,0,0,1,150.9,361Z" style="fill:#fff"/><path d="M195.17,267.59a1.19,1.19,0,0,1-1-.62A63.57,63.57,0,0,0,114,237.57a1.17,1.17,0,0,1-1.52-.65,1.16,1.16,0,0,1,.64-1.51,65.89,65.89,0,0,1,83.06,30.47,1.17,1.17,0,0,1-.49,1.58A1.19,1.19,0,0,1,195.17,267.59Z" style="fill:#fff"/><g style="mix-blend-mode:overlay"><path d="M137.87,370A72.88,72.88,0,0,1,92.92,354.7a1.17,1.17,0,0,1,1.43-1.85,71.27,71.27,0,0,0,86.78.2,1.16,1.16,0,0,1,1.63.22,1.18,1.18,0,0,1-.22,1.64A72.9,72.9,0,0,1,137.87,370Z" style="fill:#fff"/></g><g style="mix-blend-mode:overlay"><path d="M191.16,346.63a1.21,1.21,0,0,1-.79-.31,1.18,1.18,0,0,1-.07-1.65,71.24,71.24,0,0,0-4.66-101.08,1.16,1.16,0,0,1,1.56-1.73A73.58,73.58,0,0,1,192,346.25,1.16,1.16,0,0,1,191.16,346.63Z" style="fill:#fff"/></g><g style="mix-blend-mode:overlay"><path d="M83.47,249.82a1.12,1.12,0,0,1-.77-.29,1.16,1.16,0,0,1-.11-1.64,73.62,73.62,0,0,1,93.29-14.46,1.17,1.17,0,0,1-1.21,2,71.27,71.27,0,0,0-90.33,14A1.16,1.16,0,0,1,83.47,249.82Z" style="fill:#fff"/></g><path d="M85.07,347.16a1.15,1.15,0,0,1-.85-.37,73.6,73.6,0,0,1-9.85-87.54,1.17,1.17,0,0,1,1.6-.41,1.16,1.16,0,0,1,.41,1.59,71.31,71.31,0,0,0,9.54,84.77,1.16,1.16,0,0,1-.85,2Z" style="fill:#fff"/><path d="M105.1,216.76a1.17,1.17,0,0,1-.44-2.25,89.34,89.34,0,0,1,14.28-4.42,1.17,1.17,0,1,1,.49,2.28,86.82,86.82,0,0,0-13.89,4.3A1.12,1.12,0,0,1,105.1,216.76Z" style="fill:#fff"/><path d="M177.4,219.85a1.12,1.12,0,0,1-.53-.13,85.22,85.22,0,0,0-30.47-8.91,1.17,1.17,0,1,1,.23-2.32,87.62,87.62,0,0,1,31.3,9.15,1.17,1.17,0,0,1-.53,2.21Z" style="fill:#fff"/><g style="mix-blend-mode:overlay"><path d="M104.91,209.24a1.18,1.18,0,0,1-1.09-.75,1.16,1.16,0,0,1,.69-1.5,94.68,94.68,0,0,1,13.83-4,1.17,1.17,0,0,1,.48,2.29,93,93,0,0,0-13.5,3.89A1.14,1.14,0,0,1,104.91,209.24Z" style="fill:#fff"/></g><g style="mix-blend-mode:overlay"><path d="M168.31,208.35a1.26,1.26,0,0,1-.38-.06,92,92,0,0,0-16.16-3.93,1.17,1.17,0,1,1,.35-2.31,95.13,95.13,0,0,1,16.57,4,1.17,1.17,0,0,1-.38,2.27Z" style="fill:#fff"/></g><path d="M168.8,201.06a1.49,1.49,0,0,1-.36-.05,99.76,99.76,0,0,0-23.51-4.51,1.17,1.17,0,0,1-1.09-1.24,1.19,1.19,0,0,1,1.25-1.09,102.7,102.7,0,0,1,24.06,4.61,1.18,1.18,0,0,1,.76,1.47A1.16,1.16,0,0,1,168.8,201.06Z" style="fill:#fff"/><path d="M105.89,201.4a1.16,1.16,0,0,1-.37-2.27,100.8,100.8,0,0,1,12-3.18,1.17,1.17,0,1,1,.47,2.29,99.56,99.56,0,0,0-11.69,3.1A1.24,1.24,0,0,1,105.89,201.4Z" style="fill:#fff"/><path d="M171.5,194.5a1.49,1.49,0,0,1-.36-.05,106.26,106.26,0,0,0-21.62-4.64,1.17,1.17,0,1,1,.25-2.32,109.39,109.39,0,0,1,22.09,4.74,1.16,1.16,0,0,1-.36,2.27Z" style="fill:#fff"/><g style="mix-blend-mode:overlay"><path d="M106.72,193.73a1.17,1.17,0,0,1-.33-2.29,109.4,109.4,0,0,1,12-2.87,1.16,1.16,0,0,1,1.35.94,1.18,1.18,0,0,1-.94,1.36,105.43,105.43,0,0,0-11.8,2.81A1.26,1.26,0,0,1,106.72,193.73Z" style="fill:#fff"/></g><g style="mix-blend-mode:overlay"><path d="M164.76,185.26a1.24,1.24,0,0,1-.27,0,115,115,0,0,0-19.93-2.92,1.17,1.17,0,1,1,.14-2.33A117.84,117.84,0,0,1,165,183a1.17,1.17,0,0,1-.27,2.3Z" style="fill:#fff"/></g><path d="M171.24,179.64a1.12,1.12,0,0,1-.32,0c-3.2-.9-6.48-1.68-9.76-2.32a1.17,1.17,0,0,1-.92-1.37,1.15,1.15,0,0,1,1.36-.92c3.34.65,6.69,1.44,10,2.37a1.16,1.16,0,0,1-.31,2.28Z" style="fill:#fff"/><g style="mix-blend-mode:overlay"><path d="M154.64,176.19l-.15,0c-3.28-.44-6.63-.76-9.94-.94a1.16,1.16,0,0,1-1.1-1.23,1.18,1.18,0,0,1,1.22-1.1c3.38.18,6.79.51,10.13,1a1.17,1.17,0,0,1-.16,2.33Z" style="fill:#fff"/></g><path d="M170.21,172a1.53,1.53,0,0,1-.3,0,128.18,128.18,0,0,0-24.23-3.8,1.16,1.16,0,0,1-1.09-1.23,1.18,1.18,0,0,1,1.23-1.1,130.52,130.52,0,0,1,24.68,3.87,1.16,1.16,0,0,1-.29,2.29Z" style="fill:#fff"/><g style="mix-blend-mode:overlay"><path d="M157.08,162.25l-.17,0c-3.95-.55-8-.94-12-1.14a1.17,1.17,0,1,1,.11-2.33c4.07.21,8.17.6,12.2,1.17a1.15,1.15,0,0,1,1,1.31A1.17,1.17,0,0,1,157.08,162.25Z" style="fill:#fff"/></g><g style="mix-blend-mode:overlay"><path d="M139.55,210.66a1.16,1.16,0,0,1-1.16-1.16V176.07a1.17,1.17,0,1,1,2.33,0V209.5A1.16,1.16,0,0,1,139.55,210.66Z" style="fill:#fff"/></g><g style="mix-blend-mode:overlay"><path d="M139.55,210.66a1.16,1.16,0,0,1-1.16-1.16V176.07a1.17,1.17,0,1,1,2.33,0V209.5A1.16,1.16,0,0,1,139.55,210.66Z" style="fill:#fff"/></g><g style="mix-blend-mode:overlay"><path d="M139.55,166.74a1.16,1.16,0,0,1-1.16-1.17V92.11a1.17,1.17,0,1,1,2.33,0v73.46A1.17,1.17,0,0,1,139.55,166.74Z" style="fill:#fff"/></g><path d="M139.55,79.67a1.17,1.17,0,0,1-1.16-1.17V16.7a3.83,3.83,0,0,0-4.08-3.5c-2.25,0-4.09,1.57-4.09,3.5v8.16a1.17,1.17,0,1,1-2.33,0V16.7c0-3.22,2.88-5.83,6.42-5.83s6.41,2.61,6.41,5.83V78.5A1.17,1.17,0,0,1,139.55,79.67Z" style="fill:#fff"/><path d="M129.06,148.47a1.17,1.17,0,0,1-1.17-1.17V36.91a1.17,1.17,0,1,1,2.33,0V147.3A1.16,1.16,0,0,1,129.06,148.47Z" style="fill:#fff"/><g style="mix-blend-mode:overlay"><path d="M129.06,204.83a1.16,1.16,0,0,1-1.17-1.16V160.13a1.17,1.17,0,1,1,2.33,0v43.54A1.16,1.16,0,0,1,129.06,204.83Z" style="fill:#fff"/></g><g style="mix-blend-mode:overlay"><path d="M123.23,59.84a1.16,1.16,0,0,1-1.17-1.16v-40a1.17,1.17,0,1,1,2.33,0v40A1.16,1.16,0,0,1,123.23,59.84Z" style="fill:#fff"/></g><path d="M123.23,124.76a1.17,1.17,0,0,1-1.17-1.17V71.89a1.17,1.17,0,0,1,2.33,0v51.7A1.16,1.16,0,0,1,123.23,124.76Z" style="fill:#fff"/><path d="M123.23,209.3a1.17,1.17,0,0,1-1.17-1.17V136a1.17,1.17,0,1,1,2.33,0v72.1A1.16,1.16,0,0,1,123.23,209.3Z" style="fill:#fff"/><g style="mix-blend-mode:overlay"><path d="M134.5,57.51a1.17,1.17,0,0,1-1.17-1.16v-35a1.17,1.17,0,0,1,2.34,0v35A1.16,1.16,0,0,1,134.5,57.51Z" style="fill:#fff"/></g><g style="mix-blend-mode:overlay"><path d="M134.5,116.21a1.18,1.18,0,0,1-1.17-1.17V68.4a1.17,1.17,0,1,1,2.34,0V115A1.17,1.17,0,0,1,134.5,116.21Z" style="fill:#fff"/></g><path d="M134.5,194.34a1.18,1.18,0,0,1-1.17-1.17v-68.8a1.17,1.17,0,1,1,2.34,0v68.8A1.17,1.17,0,0,1,134.5,194.34Z" style="fill:#fff"/><path d="M150.63,26.51a1.13,1.13,0,0,1-.82-.34l-6.42-6.41a1.18,1.18,0,0,1,0-1.65,1.16,1.16,0,0,1,1.65,0l6.42,6.41a1.18,1.18,0,0,1,0,1.65A1.16,1.16,0,0,1,150.63,26.51Z" style="fill:#fff"/><g style="mix-blend-mode:overlay"><path d="M152.09,66.16a1.17,1.17,0,0,1-.93-.46l-5.78-7.6V28.84a1.17,1.17,0,0,1,2.34,0V57.31l5.3,7a1.16,1.16,0,0,1-.22,1.63A1.19,1.19,0,0,1,152.09,66.16Z" style="fill:#fff"/></g><path d="M157.92,100a1.16,1.16,0,0,1-.9-.43L144.8,84.65V65.29a1.17,1.17,0,1,1,2.33,0V83.82l11.69,14.25a1.17,1.17,0,0,1-.9,1.91Z" style="fill:#fff"/><path d="M144.8,136.71a1.17,1.17,0,0,1-1.17-1.17v-11l9.33-9.33V108l4.11-4.41a1.16,1.16,0,1,1,1.7,1.58l-3.47,3.75v7.31L146,125.53v10A1.17,1.17,0,0,1,144.8,136.71Z" style="fill:#fff"/><g style="mix-blend-mode:overlay"><path d="M145.38,116.3a1.16,1.16,0,0,1-1.16-1.16V91.81a1.17,1.17,0,0,1,2.33,0v23.33A1.16,1.16,0,0,1,145.38,116.3Z" style="fill:#fff"/></g><g style="mix-blend-mode:overlay"><path d="M150.63,107a1.16,1.16,0,0,1-1.16-1.16V97.94a1.17,1.17,0,1,1,2.33,0v7.87A1.16,1.16,0,0,1,150.63,107Z" style="fill:#fff"/></g><g style="mix-blend-mode:overlay"><path d="M157.05,154.2a1.18,1.18,0,0,1-.84-.35L144,141.32a1.17,1.17,0,0,1,1.67-1.63l12.24,12.53a1.16,1.16,0,0,1-.83,2Z" style="fill:#fff"/></g><g style="mix-blend-mode:overlay"><path d="M104.91,209.24a1.18,1.18,0,0,1-1.09-.75,1.16,1.16,0,0,1,.69-1.5,94.68,94.68,0,0,1,13.83-4,1.17,1.17,0,0,1,.48,2.29,93,93,0,0,0-13.5,3.89A1.14,1.14,0,0,1,104.91,209.24Z" style="fill:#fff"/></g><g style="mix-blend-mode:overlay"><path d="M168.31,208.35a1.26,1.26,0,0,1-.38-.06,92,92,0,0,0-16.16-3.93,1.17,1.17,0,1,1,.35-2.31,95.13,95.13,0,0,1,16.57,4,1.17,1.17,0,0,1-.38,2.27Z" style="fill:#fff"/></g><g style="mix-blend-mode:overlay"><path d="M106.72,193.73a1.17,1.17,0,0,1-.33-2.29,109.4,109.4,0,0,1,12-2.87,1.16,1.16,0,0,1,1.35.94,1.18,1.18,0,0,1-.94,1.36,105.43,105.43,0,0,0-11.8,2.81A1.26,1.26,0,0,1,106.72,193.73Z" style="fill:#fff"/></g><g style="mix-blend-mode:overlay"><path d="M164.76,185.26a1.24,1.24,0,0,1-.27,0,115,115,0,0,0-19.93-2.92,1.17,1.17,0,1,1,.14-2.33A117.84,117.84,0,0,1,165,183a1.17,1.17,0,0,1-.27,2.3Z" style="fill:#fff"/></g><g style="mix-blend-mode:overlay"><path d="M154.64,176.19l-.15,0c-3.28-.44-6.63-.76-9.94-.94a1.16,1.16,0,0,1-1.1-1.23,1.18,1.18,0,0,1,1.22-1.1c3.38.18,6.79.51,10.13,1a1.17,1.17,0,0,1-.16,2.33Z" style="fill:#fff"/></g><g style="mix-blend-mode:overlay"><path d="M157.08,162.25l-.17,0c-3.95-.55-8-.94-12-1.14a1.17,1.17,0,1,1,.11-2.33c4.07.21,8.17.6,12.2,1.17a1.15,1.15,0,0,1,1,1.31A1.17,1.17,0,0,1,157.08,162.25Z" style="fill:#fff"/></g><g style="mix-blend-mode:overlay"><path d="M139.55,166.74a1.16,1.16,0,0,1-1.16-1.17V92.11a1.17,1.17,0,1,1,2.33,0v73.46A1.17,1.17,0,0,1,139.55,166.74Z" style="fill:#fff"/></g><g style="mix-blend-mode:overlay"><path d="M129.06,204.83a1.16,1.16,0,0,1-1.17-1.16V160.13a1.17,1.17,0,1,1,2.33,0v43.54A1.16,1.16,0,0,1,129.06,204.83Z" style="fill:#fff"/></g><g style="mix-blend-mode:overlay"><path d="M123.23,59.84a1.16,1.16,0,0,1-1.17-1.16v-40a1.17,1.17,0,1,1,2.33,0v40A1.16,1.16,0,0,1,123.23,59.84Z" style="fill:#fff"/></g><g style="mix-blend-mode:overlay"><path d="M134.5,57.51a1.17,1.17,0,0,1-1.17-1.16v-35a1.17,1.17,0,0,1,2.34,0v35A1.16,1.16,0,0,1,134.5,57.51Z" style="fill:#fff"/></g><g style="mix-blend-mode:overlay"><path d="M134.5,116.21a1.18,1.18,0,0,1-1.17-1.17V68.4a1.17,1.17,0,1,1,2.34,0V115A1.17,1.17,0,0,1,134.5,116.21Z" style="fill:#fff"/></g><g style="mix-blend-mode:overlay"><path d="M152.09,66.16a1.17,1.17,0,0,1-.93-.46l-5.78-7.6V28.84a1.17,1.17,0,0,1,2.34,0V57.31l5.3,7a1.16,1.16,0,0,1-.22,1.63A1.19,1.19,0,0,1,152.09,66.16Z" style="fill:#fff"/></g><g style="mix-blend-mode:overlay"><path d="M145.38,116.3a1.16,1.16,0,0,1-1.16-1.16V91.81a1.17,1.17,0,0,1,2.33,0v23.33A1.16,1.16,0,0,1,145.38,116.3Z" style="fill:#fff"/></g><g style="mix-blend-mode:overlay"><path d="M150.63,107a1.16,1.16,0,0,1-1.16-1.16V97.94a1.17,1.17,0,1,1,2.33,0v7.87A1.16,1.16,0,0,1,150.63,107Z" style="fill:#fff"/></g><g style="mix-blend-mode:overlay"><path d="M157.05,154.2a1.18,1.18,0,0,1-.84-.35L144,141.32a1.17,1.17,0,0,1,1.67-1.63l12.24,12.53a1.16,1.16,0,0,1-.83,2Z" style="fill:#fff"/></g><path d="M150.92,153.91h-7V147.5a1.17,1.17,0,1,1,2.33,0v4.08h4.66a1.17,1.17,0,1,1,0,2.33Z" style="fill:#fff"/><g style="mix-blend-mode:overlay"><path d="M62.18,324a1.17,1.17,0,0,1-1.1-.78,81.44,81.44,0,0,1,39.22-98.94,1.17,1.17,0,1,1,1.08,2.07,79.1,79.1,0,0,0-38.1,96.1,1.18,1.18,0,0,1-.72,1.49A1.21,1.21,0,0,1,62.18,324Z" style="fill:#fff"/></g><g style="mix-blend-mode:overlay"><path d="M137.87,377.75a81,81,0,0,1-72.51-44.47,1.17,1.17,0,1,1,2.08-1.06,79.11,79.11,0,0,0,92.93,39.95,1.16,1.16,0,0,1,1.45.79,1.18,1.18,0,0,1-.79,1.45A81.38,81.38,0,0,1,137.87,377.75Z" style="fill:#fff"/></g><g style="mix-blend-mode:overlay"><path d="M172.68,369.82a1.17,1.17,0,0,1-.51-2.22A78.88,78.88,0,0,0,216,308a1.14,1.14,0,0,1,1.32-1,1.16,1.16,0,0,1,1,1.32,81.17,81.17,0,0,1-45.13,61.39A1.19,1.19,0,0,1,172.68,369.82Z" style="fill:#fff"/></g><g style="mix-blend-mode:overlay"><path d="M137.87,323.6a1.17,1.17,0,1,1,0-2.33,24.85,24.85,0,0,0,24.82-24.83,1.17,1.17,0,0,1,2.33,0A27.18,27.18,0,0,1,137.87,323.6Z" style="fill:#fff"/></g><g style="mix-blend-mode:overlay"><path d="M166.94,314.71a1.16,1.16,0,0,1-1-1.76,32.58,32.58,0,0,0-16.28-46.87,1.16,1.16,0,0,1,.84-2.17A34.92,34.92,0,0,1,168,314.14,1.17,1.17,0,0,1,166.94,314.71Z" style="fill:#fff"/></g><g style="mix-blend-mode:overlay"><path d="M104.14,297.61a1.16,1.16,0,0,1-1.16-1.17,34.93,34.93,0,0,1,34.89-34.89,1.17,1.17,0,0,1,0,2.33,32.6,32.6,0,0,0-32.56,32.56A1.17,1.17,0,0,1,104.14,297.61Z" style="fill:#fff"/></g><g style="mix-blend-mode:overlay"><path d="M137.87,339.07a42.46,42.46,0,0,1-16.3-3.22,1.18,1.18,0,0,1-.63-1.53,1.17,1.17,0,0,1,1.52-.63,40.32,40.32,0,0,0,52.3-53.47,1.17,1.17,0,1,1,2.14-.94,42.25,42.25,0,0,1,3.6,17.16A42.68,42.68,0,0,1,137.87,339.07Z" style="fill:#fff"/></g><g style="mix-blend-mode:overlay"><path d="M90.53,311.08a1.18,1.18,0,0,1-1.12-.85A50.44,50.44,0,0,1,124,248a1.16,1.16,0,0,1,.64,2.24,48.07,48.07,0,0,0-32.94,59.33,1.17,1.17,0,0,1-.81,1.44A1.13,1.13,0,0,1,90.53,311.08Z" style="fill:#fff"/></g><g style="mix-blend-mode:overlay"><path d="M137.87,346.81a50.56,50.56,0,0,1-43.7-25.3,1.16,1.16,0,0,1,.43-1.59,1.18,1.18,0,0,1,1.6.43A48,48,0,0,0,184.74,307a1.16,1.16,0,1,1,2.27.51A50.68,50.68,0,0,1,137.87,346.81Z" style="fill:#fff"/></g><g style="mix-blend-mode:overlay"><path d="M168.3,345.74a1.17,1.17,0,0,1-.63-2.15,55.78,55.78,0,0,0,9.38-86.84,1.16,1.16,0,0,1,1.63-1.66,58.11,58.11,0,0,1-9.76,90.47A1.17,1.17,0,0,1,168.3,345.74Z" style="fill:#fff"/></g><g style="mix-blend-mode:overlay"><path d="M73.2,297.61A1.17,1.17,0,0,1,72,296.44,65.6,65.6,0,0,1,102.4,241a1.17,1.17,0,0,1,1.26,2,63.28,63.28,0,0,0-29.3,53.51A1.16,1.16,0,0,1,73.2,297.61Z" style="fill:#fff"/></g><g style="mix-blend-mode:overlay"><path d="M137.87,362.28a65.51,65.51,0,0,1-65-55.39,1.17,1.17,0,0,1,2.31-.36A63.19,63.19,0,0,0,137.87,360a1.17,1.17,0,0,1,0,2.33Z" style="fill:#fff"/></g><g style="mix-blend-mode:overlay"><path d="M137.87,370A72.88,72.88,0,0,1,92.92,354.7a1.17,1.17,0,0,1,1.43-1.85,71.27,71.27,0,0,0,86.78.2,1.16,1.16,0,0,1,1.63.22,1.18,1.18,0,0,1-.22,1.64A72.9,72.9,0,0,1,137.87,370Z" style="fill:#fff"/></g><g style="mix-blend-mode:overlay"><path d="M191.16,346.63a1.21,1.21,0,0,1-.79-.31,1.18,1.18,0,0,1-.07-1.65,71.24,71.24,0,0,0-4.66-101.08,1.16,1.16,0,0,1,1.56-1.73A73.58,73.58,0,0,1,192,346.25,1.16,1.16,0,0,1,191.16,346.63Z" style="fill:#fff"/></g><g style="mix-blend-mode:overlay"><path d="M83.47,249.82a1.12,1.12,0,0,1-.77-.29,1.16,1.16,0,0,1-.11-1.64,73.62,73.62,0,0,1,93.29-14.46,1.17,1.17,0,0,1-1.21,2,71.27,71.27,0,0,0-90.33,14A1.16,1.16,0,0,1,83.47,249.82Z" style="fill:#fff"/></g><g style="mix-blend-mode:overlay"><path d="M62.18,324a1.17,1.17,0,0,1-1.1-.78,81.44,81.44,0,0,1,39.22-98.94,1.17,1.17,0,1,1,1.08,2.07,79.1,79.1,0,0,0-38.1,96.1,1.18,1.18,0,0,1-.72,1.49A1.21,1.21,0,0,1,62.18,324Z" style="fill:#fff"/></g><g style="mix-blend-mode:overlay"><path d="M137.87,377.75a81,81,0,0,1-72.51-44.47,1.17,1.17,0,1,1,2.08-1.06,79.11,79.11,0,0,0,92.93,39.95,1.16,1.16,0,0,1,1.45.79,1.18,1.18,0,0,1-.79,1.45A81.38,81.38,0,0,1,137.87,377.75Z" style="fill:#fff"/></g><g style="mix-blend-mode:overlay"><path d="M172.68,369.82a1.17,1.17,0,0,1-.51-2.22A78.88,78.88,0,0,0,216,308a1.14,1.14,0,0,1,1.32-1,1.16,1.16,0,0,1,1,1.32,81.17,81.17,0,0,1-45.13,61.39A1.19,1.19,0,0,1,172.68,369.82Z" style="fill:#fff"/></g><path d="M218,297.61a1.16,1.16,0,0,1-1.16-1.17,79,79,0,0,0-103.31-75.16,1.17,1.17,0,1,1-.72-2.22,81.38,81.38,0,0,1,106.36,77.38A1.17,1.17,0,0,1,218,297.61Z" style="fill:#fff"/><path d="M164.39,388.11a1.12,1.12,0,0,0,.32,0,95.83,95.83,0,0,0,56.87-45.79h.14a3.51,3.51,0,1,0-3.5-3.51,3.46,3.46,0,0,0,1.19,2.62,93.52,93.52,0,0,1-55.35,44.43,1.16,1.16,0,0,0,.33,2.28Z" style="fill:#fff;mix-blend-mode:overlay"/><path d="M259.59,274.14a1.17,1.17,0,0,0-2.3.42,122,122,0,0,1,2,21.88,120.35,120.35,0,0,1-11.12,50.81l-.18,0a3.54,3.54,0,1,0,2.34.91,122.62,122.62,0,0,0,11.3-51.7A124.89,124.89,0,0,0,259.59,274.14Z" style="fill:#fff;mix-blend-mode:overlay"/><path d="M262.52,243.2a3.49,3.49,0,1,0,2.35-.92l-.2,0a137.4,137.4,0,0,0-23.3-36.93,1.16,1.16,0,1,0-1.74,1.54A135.4,135.4,0,0,1,262.52,243.2Z" style="fill:#fff;mix-blend-mode:overlay"/><path d="M271,260.56a3.51,3.51,0,1,0-2.24.67,135.68,135.68,0,0,1,4.62,34h-4.74a130.4,130.4,0,0,0-34.55-87.4,1.16,1.16,0,1,0-1.71,1.58,128.07,128.07,0,0,1,33.93,87v1.17h9.41v-1.17A138.2,138.2,0,0,0,271,260.56Z" style="fill:#fff;mix-blend-mode:overlay"/><path d="M7.07,296.44a129.36,129.36,0,0,0,13.42,57.73,4.21,4.21,0,1,0,1.89-1.45,127,127,0,0,1-13-56.28,130.24,130.24,0,0,1,.71-13.28l.13-1.28H3.11a134.9,134.9,0,0,1,7.37-31.82,3,3,0,0,0,.51.06A4.09,4.09,0,1,0,6.91,246a4,4,0,0,0,1.44,3.09,137.14,137.14,0,0,0-7.7,33.81l-.12,1.28H7.66C7.27,288.4,7.07,292.51,7.07,296.44Zm18.5,60.08a1.75,1.75,0,1,1-3.11-1.09,1.13,1.13,0,0,0,.39-.36,1.71,1.71,0,0,1,1-.3A1.76,1.76,0,0,1,25.57,356.52ZM11,244.28A1.75,1.75,0,1,1,9.24,246,1.76,1.76,0,0,1,11,244.28Z" style="fill:#fff;mix-blend-mode:overlay"/><path d="M52.49,200.48a1.17,1.17,0,0,0-1.56-1.74A131.71,131.71,0,0,0,29,224a3.8,3.8,0,0,0-.59-.06,3.51,3.51,0,1,0,3.5,3.51,3.47,3.47,0,0,0-.87-2.3A128.64,128.64,0,0,1,52.49,200.48Z" style="fill:#fff;mix-blend-mode:overlay"/><path d="M14.49,305.88A1.17,1.17,0,0,0,15.66,307h.08a1.17,1.17,0,0,0,1.08-1.25c-.23-3.06-.35-6.18-.35-9.27a120.39,120.39,0,0,1,9.4-46.91,3.07,3.07,0,0,0,.53.05,3.51,3.51,0,1,0-3.51-3.5,3.45,3.45,0,0,0,.92,2.34,122.68,122.68,0,0,0-9.67,48C14.14,299.59,14.26,302.77,14.49,305.88Z" style="fill:#fff;mix-blend-mode:overlay"/><path d="M182.24,395.41a1.18,1.18,0,0,0,1.06.67,1.19,1.19,0,0,0,.49-.1,110.46,110.46,0,0,0,17.06-9.85l1.14-.79-5.08-5.08a102.58,102.58,0,0,0,39.17-54.33,3.5,3.5,0,1,0-2.27-.54,100.17,100.17,0,0,1-39.37,53.74l-1.16.8,5.09,5.09a107.1,107.1,0,0,1-15.56,8.84A1.17,1.17,0,0,0,182.24,395.41Z" style="fill:#fff;mix-blend-mode:overlay"/><path d="M182.24,395.41a1.18,1.18,0,0,0,1.06.67,1.19,1.19,0,0,0,.49-.1,110.46,110.46,0,0,0,17.06-9.85l1.14-.79-5.08-5.08a102.58,102.58,0,0,0,39.17-54.33,3.5,3.5,0,1,0-2.27-.54,100.17,100.17,0,0,1-39.37,53.74l-1.16.8,5.09,5.09a107.1,107.1,0,0,1-15.56,8.84A1.17,1.17,0,0,0,182.24,395.41Z" style="fill:#fff;mix-blend-mode:overlay"/><path d="M224.07,230.66a1.16,1.16,0,0,0-.24,1.63,106.29,106.29,0,0,1,21.29,63h-7.06v1.16a101.5,101.5,0,0,1-.66,11.44,4.08,4.08,0,1,0,2.3.45,103.52,103.52,0,0,0,.68-10.72h7.08v-1.17a108.7,108.7,0,0,0-21.76-65.55A1.17,1.17,0,0,0,224.07,230.66Zm13.73,83a1.75,1.75,0,1,1,1.75-1.75A1.75,1.75,0,0,1,237.8,313.67Z" style="fill:#fff;mix-blend-mode:overlay"/><path d="M224.07,230.66a1.16,1.16,0,0,0-.24,1.63,106.29,106.29,0,0,1,21.29,63h-7.06v1.16a101.5,101.5,0,0,1-.66,11.44,4.08,4.08,0,1,0,2.3.45,103.52,103.52,0,0,0,.68-10.72h7.08v-1.17a108.7,108.7,0,0,0-21.76-65.55A1.17,1.17,0,0,0,224.07,230.66Zm13.73,83a1.75,1.75,0,1,1,1.75-1.75A1.75,1.75,0,0,1,237.8,313.67Z" style="fill:#fff;mix-blend-mode:overlay"/><path d="M100.18,399.36c0,.12,0,.23,0,.35a3.51,3.51,0,1,0,3.5-3.5,3.47,3.47,0,0,0-2.48,1,107.21,107.21,0,0,1-46.39-33l3.37-3.37a102.64,102.64,0,0,0,28.58,24.42l.78.44,6.92-6.92-1.36-.74a94.51,94.51,0,0,1-12.75-8.45,3.42,3.42,0,0,0,.31-1.42,3.55,3.55,0,1,0-1.93,3.11,95,95,0,0,0,11.89,8l-3.46,3.47a100,100,0,0,1-28-24.42l-.82-1-6.7,6.71.65.81A109.54,109.54,0,0,0,100.18,399.36Z" style="fill:#fff;mix-blend-mode:overlay"/><path d="M100.18,399.36c0,.12,0,.23,0,.35a3.51,3.51,0,1,0,3.5-3.5,3.47,3.47,0,0,0-2.48,1,107.21,107.21,0,0,1-46.39-33l3.37-3.37a102.64,102.64,0,0,0,28.58,24.42l.78.44,6.92-6.92-1.36-.74a94.51,94.51,0,0,1-12.75-8.45,3.42,3.42,0,0,0,.31-1.42,3.55,3.55,0,1,0-1.93,3.11,95,95,0,0,0,11.89,8l-3.46,3.47a100,100,0,0,1-28-24.42l-.82-1-6.7,6.71.65.81A109.54,109.54,0,0,0,100.18,399.36Z" style="fill:#fff;mix-blend-mode:overlay"/><path d="M93,197.72a1.17,1.17,0,0,0-1.55-.56A110,110,0,0,0,71.82,209l-1.07.81,6.72,6.72.81-.6c2.53-1.87,5.15-3.62,7.81-5.24a3.47,3.47,0,0,0,1.57.39,3.49,3.49,0,1,0-3.21-2.1c-2.29,1.41-4.55,2.89-6.75,4.48L74.3,210a107.75,107.75,0,0,1,18.09-10.76A1.18,1.18,0,0,0,93,197.72Z" style="fill:#fff;mix-blend-mode:overlay"/><path d="M93,197.72a1.17,1.17,0,0,0-1.55-.56A110,110,0,0,0,71.82,209l-1.07.81,6.72,6.72.81-.6c2.53-1.87,5.15-3.62,7.81-5.24a3.47,3.47,0,0,0,1.57.39,3.49,3.49,0,1,0-3.21-2.1c-2.29,1.41-4.55,2.89-6.75,4.48L74.3,210a107.75,107.75,0,0,1,18.09-10.76A1.18,1.18,0,0,0,93,197.72Z" style="fill:#fff;mix-blend-mode:overlay"/><path d="M184.61,199.88a107.26,107.26,0,0,1,28.54,20.18,4.1,4.1,0,1,0,1.58-1.72,109.62,109.62,0,0,0-29.1-20.56,1.17,1.17,0,1,0-1,2.1Zm33.95,22a1.75,1.75,0,1,1-1.75-1.75A1.76,1.76,0,0,1,218.56,221.84Z" style="fill:#fff;mix-blend-mode:overlay"/><path d="M229.75,368.32a4.07,4.07,0,1,0-3-3.93,4,4,0,0,0,1,2.69,113.65,113.65,0,0,1-89.89,43.69,115.68,115.68,0,0,1-18.25-1.45,1.16,1.16,0,0,0-.37,2.3,118.08,118.08,0,0,0,18.62,1.48A115.93,115.93,0,0,0,229.75,368.32Zm1.05-5.67a1.75,1.75,0,1,1-1.75,1.74A1.74,1.74,0,0,1,230.8,362.65Z" style="fill:#fff;mix-blend-mode:overlay"/><path d="M229.75,368.32a4.07,4.07,0,1,0-3-3.93,4,4,0,0,0,1,2.69,113.65,113.65,0,0,1-89.89,43.69,115.68,115.68,0,0,1-18.25-1.45,1.16,1.16,0,0,0-.37,2.3,118.08,118.08,0,0,0,18.62,1.48A115.93,115.93,0,0,0,229.75,368.32Zm1.05-5.67a1.75,1.75,0,1,1-1.75,1.74A1.74,1.74,0,0,1,230.8,362.65Z" style="fill:#fff;mix-blend-mode:overlay"/><path d="M107,176.61A121.56,121.56,0,0,0,90,182.34a4.05,4.05,0,1,0,.86,2.47,2.85,2.85,0,0,0,0-.29,119.75,119.75,0,0,1,16.7-5.65,1.17,1.17,0,0,0-.58-2.26Zm-20.17,9.95a1.75,1.75,0,1,1,1.58-2.48,1.06,1.06,0,0,0,0,.19l.06.1a1.62,1.62,0,0,1,.07.44A1.75,1.75,0,0,1,86.79,186.56Z" style="fill:#fff;mix-blend-mode:overlay"/><path d="M55.47,224.2a1.17,1.17,0,1,0,1.75,1.54c2.21-2.52,4.55-4.94,7-7.22a3.5,3.5,0,1,0-1.89-3.1,3.61,3.61,0,0,0,.29,1.4C60.12,219.15,57.72,221.63,55.47,224.2Z" style="fill:#fff;mix-blend-mode:overlay"/><path d="M55.47,224.2a1.17,1.17,0,1,0,1.75,1.54c2.21-2.52,4.55-4.94,7-7.22a3.5,3.5,0,1,0-1.89-3.1,3.61,3.61,0,0,0,.29,1.4C60.12,219.15,57.72,221.63,55.47,224.2Z" style="fill:#fff;mix-blend-mode:overlay"/><path d="M45.82,224.76l-.63.82,5.06,5a109.34,109.34,0,0,0-15.19,27.8,4,4,0,0,0-1-.15,4.08,4.08,0,1,0,4.08,4.08,4,4,0,0,0-1-2.67,106.81,106.81,0,0,1,15.64-28.45l.62-.81-5-5a114.52,114.52,0,0,1,27.25-24.81,1.17,1.17,0,0,0-1.27-2A117,117,0,0,0,45.82,224.76ZM34,264.11a1.75,1.75,0,1,1,1.75-1.75A1.76,1.76,0,0,1,34,264.11Z" style="fill:#fff;mix-blend-mode:overlay"/><path d="M45.82,224.76l-.63.82,5.06,5a109.34,109.34,0,0,0-15.19,27.8,4,4,0,0,0-1-.15,4.08,4.08,0,1,0,4.08,4.08,4,4,0,0,0-1-2.67,106.81,106.81,0,0,1,15.64-28.45l.62-.81-5-5a114.52,114.52,0,0,1,27.25-24.81,1.17,1.17,0,0,0-1.27-2A117,117,0,0,0,45.82,224.76ZM34,264.11a1.75,1.75,0,1,1,1.75-1.75A1.76,1.76,0,0,1,34,264.11Z" style="fill:#fff;mix-blend-mode:overlay"/><path d="M60.41,392.93a123,123,0,0,0,65.27,26.64,4.1,4.1,0,1,0,.14-2.33,120.7,120.7,0,0,1-62.93-25.32l5-5-1-.82a114.22,114.22,0,0,1-27.35-31.3,3.5,3.5,0,1,0-2.37.93l.19,0a116.62,116.62,0,0,0,27.06,31.4l-5,5Zm69.23,23.94a1.75,1.75,0,1,1-1.75,1.75A1.75,1.75,0,0,1,129.64,416.87Z" style="fill:#fff;mix-blend-mode:overlay"/><path d="M242.51,358l-.77,1.27A121.89,121.89,0,0,1,228,377.73a1.17,1.17,0,0,0,.08,1.65,1.16,1.16,0,0,0,.78.3,1.18,1.18,0,0,0,.87-.38A125.55,125.55,0,0,0,243,361.78l5.13,5.13.78-1.25a129,129,0,0,0,18.64-51.78,3.49,3.49,0,1,0-2.33-.18,126.56,126.56,0,0,1-17.52,49.48Z" style="fill:#fff;mix-blend-mode:overlay"/><path d="M187.77,170.39a134.82,134.82,0,0,1,41.65,26.11l-3.35,3.36a130.94,130.94,0,0,0-18.34-14,3.75,3.75,0,0,0,.05-.47,3.51,3.51,0,1,0-3.51,3.5,3.45,3.45,0,0,0,2.39-.95,128.54,128.54,0,0,1,18.65,14.39l.82.76,6.65-6.65-.88-.82a137.48,137.48,0,0,0-43.27-27.4,1.17,1.17,0,0,0-1.51.66A1.16,1.16,0,0,0,187.77,170.39Z" style="fill:#fff;mix-blend-mode:overlay"/><path d="M199.32,405.79a4.08,4.08,0,0,0-4.08,4.08,4.23,4.23,0,0,0,.25,1.39,127.64,127.64,0,0,1-15.24,6.48,1.17,1.17,0,0,0,.39,2.27,1.06,1.06,0,0,0,.38-.07,129.36,129.36,0,0,0,15.9-6.78,4.08,4.08,0,1,0,2.4-7.37Zm0,5.83a1.75,1.75,0,1,1,1.75-1.75A1.75,1.75,0,0,1,199.32,411.62Z" style="fill:#fff;mix-blend-mode:overlay"/><path d="M141,393.84a4.08,4.08,0,0,0-3.85,2.78,99.35,99.35,0,0,1-41-9.06,1.17,1.17,0,0,0-1,2.12A101.62,101.62,0,0,0,137.08,399a4.07,4.07,0,1,0,3.93-5.11Zm0,5.83a1.75,1.75,0,1,1,1.75-1.75A1.76,1.76,0,0,1,141,399.67Z" style="fill:#fff;mix-blend-mode:overlay"/><path d="M122.06,428.24a4.06,4.06,0,0,0-3.67,2.34,133.79,133.79,0,0,1-55.34-21.11,1.17,1.17,0,0,0-1.29,1.95A136.07,136.07,0,0,0,118,432.88a4.07,4.07,0,1,0,4-4.64Zm0,5.83a1.75,1.75,0,1,1,1.75-1.75A1.75,1.75,0,0,1,122.06,434.07Z" style="fill:#fff;mix-blend-mode:overlay"/><path d="M54.14,390.05a4.08,4.08,0,1,0-2-7.64A120.39,120.39,0,0,1,18.3,317.54h4.82a115.64,115.64,0,0,0,7,23.76,1.17,1.17,0,1,0,2.15-.9,113.91,113.91,0,0,1-7.06-24.23l-.17-1H15.54l.23,1.35a122.64,122.64,0,0,0,34.77,67.52,4,4,0,0,0-.49,1.89A4.09,4.09,0,0,0,54.14,390.05Zm0-5.83A1.75,1.75,0,1,1,52.39,386,1.74,1.74,0,0,1,54.14,384.22Z" style="fill:#fff;mix-blend-mode:overlay"/><path d="M104.28,382.47a4.1,4.1,0,1,0-1.2,2.88,96,96,0,0,0,47.34,5.72v7.13l1.32-.18a101.76,101.76,0,0,0,31.17-9.49,3.6,3.6,0,1,0-1.31-1.95,99.21,99.21,0,0,1-28.85,8.94v-7.13l-1.33.19a94.28,94.28,0,0,1-13.55,1,92.75,92.75,0,0,1-33.67-6.28A4.36,4.36,0,0,0,104.28,382.47Zm-4.08,1.75a1.75,1.75,0,1,1,1.75-1.75A1.75,1.75,0,0,1,100.2,384.22Z" style="fill:#fff;mix-blend-mode:overlay"/><path d="M104.28,382.47a4.1,4.1,0,1,0-1.2,2.88,96,96,0,0,0,47.34,5.72v7.13l1.32-.18a101.76,101.76,0,0,0,31.17-9.49,3.6,3.6,0,1,0-1.31-1.95,99.21,99.21,0,0,1-28.85,8.94v-7.13l-1.33.19a94.28,94.28,0,0,1-13.55,1,92.75,92.75,0,0,1-33.67-6.28A4.36,4.36,0,0,0,104.28,382.47Zm-4.08,1.75a1.75,1.75,0,1,1,1.75-1.75A1.75,1.75,0,0,1,100.2,384.22Z" style="fill:#fff;mix-blend-mode:overlay"/><path d="M48.6,361.77a4.08,4.08,0,1,0,0-8.16,4,4,0,0,0-1.34.24,106.89,106.89,0,0,1-16.65-57.41,108,108,0,0,1,2.82-24.55l.15-.63-5.79-5.79A114,114,0,0,1,42.08,234a1.16,1.16,0,1,0-1.95-1.27A116.16,116.16,0,0,0,25.36,265.5l-.18.66L31,272a109.86,109.86,0,0,0,14.35,83.23,4,4,0,0,0-.85,2.47A4.08,4.08,0,0,0,48.6,361.77Zm1.75-4.08a1.75,1.75,0,1,1-1.75-1.75A1.76,1.76,0,0,1,50.35,357.69Z" style="fill:#fff;mix-blend-mode:overlay"/><path d="M63.76,185.4a4.09,4.09,0,0,0,4.08-4.09,4,4,0,0,0-.1-.85,134.44,134.44,0,0,1,38.88-15.93,1.17,1.17,0,1,0-.53-2.27,136.7,136.7,0,0,0-39.47,16.15,4.08,4.08,0,1,0-2.86,7Zm0-5.83A1.75,1.75,0,1,1,62,181.31,1.75,1.75,0,0,1,63.76,179.57Z" style="fill:#fff;mix-blend-mode:overlay"/><path d="M255.87,280.43a4.08,4.08,0,1,0-4.3,4.06,116.2,116.2,0,0,1,.62,11.95A114,114,0,0,1,234.89,357l-5.15-5.15-.77,1.25a107.61,107.61,0,0,1-19.88,23.58,4.24,4.24,0,1,0,1.36,1.91s0,0,0,0a109.32,109.32,0,0,0,19.67-23l5.13,5.13.78-1.22a116.18,116.18,0,0,0,18.46-63,118.39,118.39,0,0,0-.67-12.5A4.08,4.08,0,0,0,255.87,280.43ZM206.61,381.59a1.75,1.75,0,1,1,1.74-1.74A1.74,1.74,0,0,1,206.61,381.59ZM250,280.43a1.75,1.75,0,1,1,1.75,1.75A1.76,1.76,0,0,1,250,280.43Z" style="fill:#fff;mix-blend-mode:overlay"/><path d="M235.18,287.43a4.08,4.08,0,1,0,4.37-4.05,101.53,101.53,0,0,0-6-23.78,1.16,1.16,0,0,0-2.17.84,100.28,100.28,0,0,1,5.88,23.45A4.05,4.05,0,0,0,235.18,287.43Zm5.83,0a1.75,1.75,0,1,1-1.75-1.75A1.75,1.75,0,0,1,241,287.43Z" style="fill:#fff;mix-blend-mode:overlay"/><path d="M260,353.61a4.06,4.06,0,0,0-2.7,7.12,1.83,1.83,0,0,0-.13.16,136.31,136.31,0,0,1-46.56,50l-3.45-3.44a130.8,130.8,0,0,0,35.45-32.58,4.08,4.08,0,1,0-2.44-3.73,4,4,0,0,0,.67,2.22,128.5,128.5,0,0,1-36.15,32.87l-1.27.78,6.85,6.85.79-.5A138.63,138.63,0,0,0,259.18,362a1.21,1.21,0,0,0,.09-.31,3.84,3.84,0,0,0,.69.07,4.08,4.08,0,1,0,0-8.16Zm-15.75,15.74a1.75,1.75,0,1,1-1.75,1.75A1.75,1.75,0,0,1,244.21,369.35ZM260,359.44a1.75,1.75,0,1,1,1.74-1.75A1.75,1.75,0,0,1,260,359.44Z" style="fill:#fff;mix-blend-mode:overlay"/><path d="M198.4,220.71a3.51,3.51,0,1,0,0,7,3.41,3.41,0,0,0,1.74-.48,92.93,92.93,0,0,1,20,25.57l.33.62H231l-.82-1.67a102.33,102.33,0,0,0-41.63-44.47,1.16,1.16,0,1,0-1.16,2,100.11,100.11,0,0,1,39.86,41.79h-5.34a95,95,0,0,0-20.22-25.63,3.47,3.47,0,0,0-3.26-4.76Z" style="fill:#fff;mix-blend-mode:overlay"/><path d="M198.4,220.71a3.51,3.51,0,1,0,0,7,3.41,3.41,0,0,0,1.74-.48,92.93,92.93,0,0,1,20,25.57l.33.62H231l-.82-1.67a102.33,102.33,0,0,0-41.63-44.47,1.16,1.16,0,1,0-1.16,2,100.11,100.11,0,0,1,39.86,41.79h-5.34a95,95,0,0,0-20.22-25.63,3.47,3.47,0,0,0-3.26-4.76Z" style="fill:#fff;mix-blend-mode:overlay"/><path d="M40.13,260a3.51,3.51,0,1,0,5.55-2.85A100.87,100.87,0,0,1,71.92,221a1.17,1.17,0,1,0-1.54-1.75,103.17,103.17,0,0,0-27,37.25A3.51,3.51,0,0,0,40.13,260Z" style="fill:#fff;mix-blend-mode:overlay"/><path d="M18.23,359.77l-.2,0a135.72,135.72,0,0,1-15.7-63.35c0-.86,0-1.71,0-2.57a1.16,1.16,0,0,0-1.15-1.18A1.22,1.22,0,0,0,0,293.83c0,.87,0,1.74,0,2.61A138,138,0,0,0,15.87,360.7a3.47,3.47,0,0,0-1.14,2.57,3.51,3.51,0,1,0,3.5-3.5Z" style="fill:#fff;mix-blend-mode:overlay"/><path d="M146.51,421.28a3.51,3.51,0,1,0,2.91,5.45,129.93,129.93,0,0,0,23.93-4.37l1.92-.54-7.65-7.65-.64.16a122,122,0,0,1-29.11,3.51H136.7v7.06A127.43,127.43,0,0,1,88.26,415a1.17,1.17,0,0,0-.91,2.15,130,130,0,0,0,50.52,10.11H139v-7.07a124.61,124.61,0,0,0,27.87-3.42l3.89,3.89a128.61,128.61,0,0,1-20.82,3.7A3.5,3.5,0,0,0,146.51,421.28Z" style="fill:#fff;mix-blend-mode:overlay"/><path d="M177.66,413.62a122.84,122.84,0,0,0,42.8-25.05,1.17,1.17,0,1,0-1.56-1.74,120.52,120.52,0,0,1-41.71,24.49,3.47,3.47,0,0,0-3-1.7,3.51,3.51,0,1,0,3.46,4Z" style="fill:#fff;mix-blend-mode:overlay"/><path d="M53.37,350.28A98.89,98.89,0,0,1,39,312.47h7.15l-.21-1.35a94.56,94.56,0,0,1-1.15-14.68,93.1,93.1,0,0,1,4.17-27.64l.47-1.51H39.56l-.24.84a102.47,102.47,0,0,0-4,28.31c0,.27,0,.53,0,.79a3.45,3.45,0,1,0,2.33-.26c0-.18,0-.35,0-.53a100.22,100.22,0,0,1,3.64-26.82h4.92a96.4,96.4,0,0,0-2.85,40.51H36.25l.19,1.34a101.47,101.47,0,0,0,15,40.07,1.2,1.2,0,0,0,1,.54,1.1,1.1,0,0,0,.62-.19A1.16,1.16,0,0,0,53.37,350.28Z" style="fill:#fff;mix-blend-mode:overlay"/><path d="M53.37,350.28A98.89,98.89,0,0,1,39,312.47h7.15l-.21-1.35a94.56,94.56,0,0,1-1.15-14.68,93.1,93.1,0,0,1,4.17-27.64l.47-1.51H39.56l-.24.84a102.47,102.47,0,0,0-4,28.31c0,.27,0,.53,0,.79a3.45,3.45,0,1,0,2.33-.26c0-.18,0-.35,0-.53a100.22,100.22,0,0,1,3.64-26.82h4.92a96.4,96.4,0,0,0-2.85,40.51H36.25l.19,1.34a101.47,101.47,0,0,0,15,40.07,1.2,1.2,0,0,0,1,.54,1.1,1.1,0,0,0,.62-.19A1.16,1.16,0,0,0,53.37,350.28Z" style="fill:#fff;mix-blend-mode:overlay"/><path d="M257.49,264.73a122.68,122.68,0,0,0-12.89-30.89l-.34-.58H236A117.69,117.69,0,0,0,198.4,196.7a1.16,1.16,0,1,0-1.21,2,115.41,115.41,0,0,1,37.14,36.37l.35.54h8.25a120.69,120.69,0,0,1,12.13,29.08l-3.89,3.89a115.71,115.71,0,0,0-8.72-23.85,3.61,3.61,0,1,0-2.24.72,113.24,113.24,0,0,1,9.17,25.69l.47,2.06,7.81-7.82Z" style="fill:#fff;mix-blend-mode:overlay"/><path d="M257.49,264.73a122.68,122.68,0,0,0-12.89-30.89l-.34-.58H236A117.69,117.69,0,0,0,198.4,196.7a1.16,1.16,0,1,0-1.21,2,115.41,115.41,0,0,1,37.14,36.37l.35.54h8.25a120.69,120.69,0,0,1,12.13,29.08l-3.89,3.89a115.71,115.71,0,0,0-8.72-23.85,3.61,3.61,0,1,0-2.24.72,113.24,113.24,0,0,1,9.17,25.69l.47,2.06,7.81-7.82Z" style="fill:#fff;mix-blend-mode:overlay"/><path d="M52.09,205.22A3.47,3.47,0,0,0,49,210.35a123.83,123.83,0,0,0-19.27,25.89h-8l-.32.63a129.59,129.59,0,0,0-12,35,1.16,1.16,0,0,0,.92,1.36l.22,0a1.18,1.18,0,0,0,1.15-1,127.61,127.61,0,0,1,11.49-33.71h7.94l.33-.61a121.75,121.75,0,0,1,19.26-26,3.5,3.5,0,1,0,1.37-6.72Z" style="fill:#fff;mix-blend-mode:overlay"/></g></g></g></svg>