<svg xmlns="http://www.w3.org/2000/svg" viewBox="0 0 64 64"><title>Asset 1</title><g id="Layer_2" data-name="Layer 2"><g id="Layer_1-2" data-name="Layer 1"><rect width="64" height="64" style="fill:none"/><path d="M64,16H0V48H64ZM60,44H4V20H60Z" style="fill:#fff"/><path d="M14.59,39.41A2,2,0,0,0,16,40H48a2,2,0,0,0,1.41-.59l6-6A2,2,0,0,0,56,32V26a2,2,0,0,0-2-2H10a2,2,0,0,0-2,2v6a2,2,0,0,0,.59,1.41ZM12,28h6v2a2,2,0,0,0,4,0V28h4v2a2,2,0,0,0,4,0V28h4v2a2,2,0,0,0,4,0V28h4v2a2,2,0,0,0,4,0V28h6v3.17L47.17,36H16.83L12,31.17Z" style="fill:#fff"/></g></g></svg>