<svg xmlns="http://www.w3.org/2000/svg" viewBox="0 0 64 64"><title>Asset 6</title><g id="Layer_2" data-name="Layer 2"><g id="Calque_2" data-name="Calque 2"><rect width="64" height="64" style="fill:none"/><path d="M29.45,54.16h-5a.67.67,0,0,1-.66-.66v-43a.67.67,0,0,1,.66-.66h5a.91.91,0,1,0,0-1.82h-5a2.48,2.48,0,0,0-2.48,2.48v43A2.48,2.48,0,0,0,24.42,56h5a.91.91,0,0,0,0-1.82Z" style="fill:#fff"/><path d="M39.58,8h-5.5a.91.91,0,0,0,0,1.82h5.5a.67.67,0,0,1,.66.66v43a.67.67,0,0,1-.66.66H34.09a.91.91,0,1,0,0,1.82h5.49a2.48,2.48,0,0,0,2.48-2.48v-43A2.48,2.48,0,0,0,39.58,8Z" style="fill:#fff"/><path d="M55.88,24.72A2.72,2.72,0,0,0,58.59,22V19.6a2.71,2.71,0,0,0-2.71-2.71h-5.8V13.52h5.8a2.71,2.71,0,0,0,2.71-2.71V8.4a2.71,2.71,0,0,0-2.71-2.71h-5.8V3.53A3.54,3.54,0,0,0,46.54,0H17.46a3.54,3.54,0,0,0-3.54,3.53V5.69H8.12A2.71,2.71,0,0,0,5.41,8.4v2.41a2.71,2.71,0,0,0,2.71,2.71h5.8v3.37H8.12A2.71,2.71,0,0,0,5.41,19.6V22a2.72,2.72,0,0,0,2.71,2.71h5.8v3.36H8.12a2.72,2.72,0,0,0-2.71,2.71v2.42a2.72,2.72,0,0,0,2.71,2.71h5.8v3.36H8.12A2.72,2.72,0,0,0,5.41,42V44.4a2.71,2.71,0,0,0,2.71,2.71h5.8v3.37H8.12a2.71,2.71,0,0,0-2.71,2.71V55.6a2.71,2.71,0,0,0,2.71,2.71h5.8v2.16A3.54,3.54,0,0,0,17.46,64H46.54a3.54,3.54,0,0,0,3.54-3.53V58.31h5.8a2.71,2.71,0,0,0,2.71-2.71V53.19a2.71,2.71,0,0,0-2.71-2.71h-5.8V47.11h5.8a2.71,2.71,0,0,0,2.71-2.71V42a2.72,2.72,0,0,0-2.71-2.71h-5.8V35.92h5.8a2.72,2.72,0,0,0,2.71-2.71V30.79a2.72,2.72,0,0,0-2.71-2.71h-5.8V24.72ZM50.08,7.51h5.8a.89.89,0,0,1,.89.89v2.41a.89.89,0,0,1-.89.89h-5.8Zm0,11.2h5.8a.89.89,0,0,1,.89.89V22a.89.89,0,0,1-.89.89h-5.8ZM13.92,56.49H8.12a.89.89,0,0,1-.89-.89V53.19a.89.89,0,0,1,.89-.89h5.8v4.19Zm0-11.2H8.12a.89.89,0,0,1-.89-.89V42a.89.89,0,0,1,.89-.89h5.8v4.19Zm0-11.2H8.12a.88.88,0,0,1-.89-.88V30.79a.88.88,0,0,1,.89-.88h5.8v4.18Zm0-11.19H8.12A.89.89,0,0,1,7.23,22V19.6a.89.89,0,0,1,.89-.89h5.8V22.9Zm0-11.2H8.12a.89.89,0,0,1-.89-.89V8.4a.89.89,0,0,1,.89-.89h5.8V11.7ZM48.26,60.47a1.72,1.72,0,0,1-1.72,1.71H17.46a1.72,1.72,0,0,1-1.72-1.71V3.53a1.72,1.72,0,0,1,1.72-1.71H46.54a1.72,1.72,0,0,1,1.72,1.71Zm7.62-8.17a.89.89,0,0,1,.89.89V55.6a.89.89,0,0,1-.89.89h-5.8V52.3Zm0-11.2a.89.89,0,0,1,.89.89V44.4a.89.89,0,0,1-.89.89h-5.8V41.1Zm0-11.19a.88.88,0,0,1,.89.88v2.42a.89.89,0,0,1-.89.89h-5.8V29.91Z" style="fill:#fff"/></g></g></svg>