<svg xmlns="http://www.w3.org/2000/svg" viewBox="0 0 64 64"><title>Asset 7</title><g id="Layer_2" data-name="Layer 2"><g id="Calque_2" data-name="Calque 2"><path d="M0,0V64H64V0ZM57,16.74a1.39,1.39,0,0,1-2.78,0v-5L11.75,54.22h5a1.39,1.39,0,0,1,0,2.77H8.4A1.38,1.38,0,0,1,7,55.61H7V47.28a1.39,1.39,0,1,1,2.78,0v5L52.24,9.8h-5a1.39,1.39,0,1,1,0-2.77H55.5a1.1,1.1,0,0,1,.31,0h.09a1.78,1.78,0,0,1,.43.18l.06,0a.71.71,0,0,1,.18.12,1.43,1.43,0,0,1,.14.2l0,.07a1.49,1.49,0,0,1,.17.39l0,.13a2.45,2.45,0,0,1,0,.27Z" style="fill:#fff"/></g></g></svg>