<svg xmlns="http://www.w3.org/2000/svg" viewBox="0 0 64 64"><title>Asset 4</title><g id="Layer_2" data-name="Layer 2"><g id="Calque_2" data-name="Calque 2"><rect width="64" height="64" style="fill:none"/><path d="M11.86,7.45H9.2A9,9,0,0,0,.09,16.3v5.49H11.86Z" style="fill:#fff;fill-rule:evenodd"/><path d="M31.6,46.91a9.21,9.21,0,0,0,9.34-9.06,8.88,8.88,0,0,0-2.5-6.13l-.37-.38.37-.39a8.88,8.88,0,0,0,2.5-6.13,9.34,9.34,0,0,0-18.68,0A8.88,8.88,0,0,0,24.76,31l.37.39-.37.38a8.88,8.88,0,0,0-2.5,6.13A9.21,9.21,0,0,0,31.6,46.91Z" style="fill:#fff;fill-rule:evenodd"/><path d="M21.63,21.79a10.42,10.42,0,0,1,9.78-7.15V7.45H13V21.79Z" style="fill:#fff;fill-rule:evenodd"/><path d="M41.58,21.79h9.47V7.45H32.58v7.27A10.39,10.39,0,0,1,41.58,21.79Z" style="fill:#fff;fill-rule:evenodd"/><path d="M21.1,24.82a10,10,0,0,1,.19-1.9H13V39h8.2a8.64,8.64,0,0,1-.12-1.14,9.93,9.93,0,0,1,2.46-6.51A10,10,0,0,1,21.1,24.82Z" style="fill:#fff;fill-rule:evenodd"/><path d="M55.77,39V22.92H41.91a9.68,9.68,0,0,1-2.27,8.42,9.89,9.89,0,0,1,2.47,6.51A10.74,10.74,0,0,1,42,39Z" style="fill:#fff;fill-rule:evenodd"/><path d="M.09,40.12V47.7A9,9,0,0,0,9.2,56.55h2.66V40.12Z" style="fill:#fff;fill-rule:evenodd"/><rect x="56.94" y="22.92" width="6.97" height="16.06" style="fill:#fff"/><path d="M54.79,7.45H52.22V21.79H63.91V16.3A9,9,0,0,0,54.79,7.45Z" style="fill:#fff;fill-rule:evenodd"/><path d="M52.22,56.55h2.57a9,9,0,0,0,9.12-8.85V40.12H52.22Z" style="fill:#fff;fill-rule:evenodd"/><path d="M21.38,40.12H13V56.55H31.41V48A10.42,10.42,0,0,1,21.38,40.12Z" style="fill:#fff;fill-rule:evenodd"/><rect x="0.09" y="22.92" width="11.77" height="16.06" style="fill:#fff"/><path d="M41.82,40.12A10.4,10.4,0,0,1,32.58,48v8.6H51.05V40.12Z" style="fill:#fff;fill-rule:evenodd"/></g></g></svg>