<svg xmlns="http://www.w3.org/2000/svg" viewBox="0 0 64 64"><title>Asset 1</title><g id="Layer_2" data-name="Layer 2"><g id="Capa_1" data-name="Capa 1"><rect width="64" height="64" style="fill:none"/><path d="M33.57,35.11a3.17,3.17,0,0,0-1.29-.23,2.17,2.17,0,0,0-1.46.51,3.08,3.08,0,0,0-.91,1.39,6.08,6.08,0,0,0-.31,2v.31a6.44,6.44,0,0,0,.29,2,3.14,3.14,0,0,0,.88,1.38,2.16,2.16,0,0,0,1.48.51,2.89,2.89,0,0,0,1.67-.43,1.92,1.92,0,0,0,.46-.44V35.75A2,2,0,0,0,33.57,35.11Z" style="fill:#fff"/><path d="M37,39.16V39s0,.06,0,.09S37,39.13,37,39.16Z" style="fill:#fff"/><path d="M61.31,60.23,54.52,22.32a3.22,3.22,0,0,0-3.16-2.63H40.06a11.5,11.5,0,1,0-16.12,0H12.64a3.22,3.22,0,0,0-3.16,2.63L2.69,60.23A3.21,3.21,0,0,0,5.84,64H58.16a3.21,3.21,0,0,0,3.15-3.77ZM32,6.4a5.1,5.1,0,1,1-5.09,5.1A5.1,5.1,0,0,1,32,6.4Zm7.81,40a6.78,6.78,0,0,1-1.06,3.86,6.61,6.61,0,0,1-3,2.4,11.21,11.21,0,0,1-4.42.81,9.77,9.77,0,0,1-2.23-.27A9.46,9.46,0,0,1,27,52.36a5.93,5.93,0,0,1-1.68-1.28l2.25-3.34A5.7,5.7,0,0,0,29,48.8a4.7,4.7,0,0,0,2.15.47,3.29,3.29,0,0,0,2.38-.79,2.9,2.9,0,0,0,.81-2.19v-.45l-.33.35a4.47,4.47,0,0,1-3.19,1.16,6,6,0,0,1-3.55-1.07A6.92,6.92,0,0,1,25,43.35a10.48,10.48,0,0,1-.81-4.22v-.31A10.82,10.82,0,0,1,25,34.49a6.74,6.74,0,0,1,2.31-2.91,6.12,6.12,0,0,1,3.58-1,5.24,5.24,0,0,1,2.77.66,5,5,0,0,1,1.07.93l.18-1.29h4.9Z" style="fill:#fff"/></g></g></svg>