<svg xmlns="http://www.w3.org/2000/svg" width="21425" height="5926.752" viewBox="0 0 21425 5926.752">
  <g id="FlashDapp_To_FlashX" transform="translate(-1231 -6172)">
    <rect id="Rectangle_20" data-name="Rectangle 20" width="21280" height="5704" transform="translate(1231 6172)" fill="none"/>
    <g id="arrow1" transform="translate(13357.646 17556.5) rotate(180)">
      <line id="Line_21" data-name="Line 21" x2="2574.47" transform="translate(4071.5 8956.5)" fill="none" stroke="#707070" stroke-width="100"/>
      <g id="Polygon_1" data-name="Polygon 1" transform="translate(7330.146 8557.5) rotate(90)">
        <path id="Path_1" data-name="Path 1" d="M398.5,0,797,726.21H0Z" fill="none"/>
        <path id="Path_2" data-name="Path 2" d="M398.5,207.87,168.94,626.21H628.06L398.5,207.87M398.5,0,797,726.21H0Z" fill="#707070"/>
      </g>
    </g>
    <g id="Flash_Dapp" data-name="Flash Dapp" transform="translate(1638 6330)">
      <g id="Group_27" data-name="Group 27">
        <path id="Path_16" data-name="Path 16" d="M2870,2705V4133c0,197.17-159.83,357-357,357H407c-197.17,0-357-159.83-357-357V407C50,209.83,209.83,50,407,50H2513c197.17,0,357,159.83,357,357v825" fill="none" stroke="#707070" stroke-width="100"/>
        <path id="Path_17" data-name="Path 17" d="M2731,2705" fill="none" stroke="#707070" stroke-width="100"/>
        <path id="Path_18" data-name="Path 18" d="M2731,2705V3843a41,41,0,0,1-41,41H231a41,41,0,0,1-41-41V481a41,41,0,0,1,41-41H2690a41,41,0,0,1,41,41v751" fill="none" stroke="#707070" stroke-width="100"/>
        <ellipse id="Ellipse_1" data-name="Ellipse 1" cx="161" cy="162" rx="161" ry="162" transform="translate(1299 4064)" fill="none" stroke="#707070" stroke-width="50"/>
        <path id="Rectangle_3" data-name="Rectangle 3" d="M1059,166h805a47,47,0,0,1,47,47h0a47,47,0,0,1-47,47H1059a47,47,0,0,1-47-47h0a47,47,0,0,1,47-47Z" fill="none" stroke="#707070" stroke-width="50"/>
      </g>
      <g id="Group_29" data-name="Group 29">
        <g id="Rectangle_8" data-name="Rectangle 8">
          <path id="Path_19" data-name="Path 19" d="M3984,1182H1757a138,138,0,0,0-138,138.006V2617a138,138,0,0,0,138.006,138H3984a138,138,0,0,0,138-138.006V1320a138,138,0,0,0-138.006-138Z" fill="none"/>
          <path id="Path_20" data-name="Path 20" d="M2981.2,2705H1757a88,88,0,0,1-88-88V1320a88,88,0,0,1,88-88H2942.88" fill="none" stroke="#707070" stroke-width="100"/>
          <path id="Path_21" data-name="Path 21" d="M2870,1232" fill="none" stroke="#707070" stroke-width="100"/>
          <path id="Path_22" data-name="Path 22" d="M2870,1232H3984a88,88,0,0,1,88,88V2617a88,88,0,0,1-88,88H2870" fill="none" stroke="#707070" stroke-width="100"/>
        </g>
        <g id="Rectangle_9" data-name="Rectangle 9">
          <rect id="Rectangle_21" data-name="Rectangle 21" width="372" height="290" rx="90" transform="translate(1893 1736)" fill="none"/>
          <rect id="Rectangle_22" data-name="Rectangle 22" width="352" height="270" rx="80" transform="translate(1903 1746)" fill="none" stroke="#707070" stroke-width="20"/>
        </g>
        <g id="Rectangle_10" data-name="Rectangle 10">
          <rect id="Rectangle_23" data-name="Rectangle 23" width="638" height="447" transform="translate(3313 2091)" fill="none"/>
          <rect id="Rectangle_24" data-name="Rectangle 24" width="618" height="427" transform="translate(3323 2101)" fill="none" stroke="#707070" stroke-width="20"/>
        </g>
        <g id="Rectangle_11" data-name="Rectangle 11">
          <rect id="Rectangle_25" data-name="Rectangle 25" width="512" height="333" transform="translate(3376 2148)" fill="none"/>
          <rect id="Rectangle_26" data-name="Rectangle 26" width="492" height="313" transform="translate(3386 2158)" fill="none" stroke="#707070" stroke-width="20"/>
        </g>
        <g id="Path_14" data-name="Path 14">
          <path id="Path_23" data-name="Path 23" d="M3313.48,1581.62h637.792v444.5H3313.48Z" fill="none"/>
          <path id="Path_24" data-name="Path 24" d="M3333.48,1601.62v404.5h597.792v-404.5Zm-20-20h637.792v444.5H3313.48Z" fill="#707070"/>
        </g>
        <path id="Path_15" data-name="Path 15" d="M1862.6,2590.35q-22.5,0-36.045-14.831t-13.541-38.587q0-25.531,13.8-40.731t37.558-15.2q21.915,0,35.307,14.758t13.393,38.591q0,25.9-13.725,40.952T1862.6,2590.35Zm.885-98.138q-16.675,0-27.08,12.027t-10.4,31.581q0,19.554,10.146,31.47t26.453,11.917q17.415,0,27.449-11.363t10.035-31.8q0-20.957-9.74-32.393t-26.868-11.431Zm135.77-6.493-61.982,91.644h60.506v11.216h-79.027v-3.468l61.462-91.128H1923.7v-11.216h75.559Zm82.569,8.264h-30.549v94.6h-12.4v-94.6H2008.4v-11.216h73.419Zm81.609,90.169q-11.732,6.2-29.22,6.2-22.579,0-36.156-14.536t-13.577-38.148q0-25.383,15.274-41.026T2138.49,2481q15.052,0,24.94,4.353v13.208a50.578,50.578,0,0,0-25.088-6.346q-18.227,0-29.552,12.175t-11.327,32.543q0,19.332,10.589,30.806t27.781,11.474q15.938,0,27.6-7.084Zm103.451,4.427h-13.726l-11.216-29.663H2197.08l-10.552,29.663h-13.8l40.586-105.812h12.839Zm-29-40.8-16.6-45.084a43.2,43.2,0,0,1-1.623-7.084h-.3a39.451,39.451,0,0,1-1.7,7.084l-16.447,45.079Zm120.422,40.8h-14.758l-17.709-29.663a64.546,64.546,0,0,0-4.722-7.047,26.894,26.894,0,0,0-4.686-4.759,16.232,16.232,0,0,0-5.165-2.693,21.242,21.242,0,0,0-6.235-.849h-10.183v45.011h-12.4V2482.77h31.581a44.951,44.951,0,0,1,12.8,1.734,28.648,28.648,0,0,1,10.185,5.276,24.5,24.5,0,0,1,6.752,8.818,29.237,29.237,0,0,1,2.435,12.359,29.735,29.735,0,0,1-1.66,10.146,26.5,26.5,0,0,1-4.722,8.227,28.627,28.627,0,0,1-7.379,6.161,37.668,37.668,0,0,1-9.7,3.948v.3a22.329,22.329,0,0,1,4.612,2.693,25.314,25.314,0,0,1,3.726,3.579,47.313,47.313,0,0,1,3.5,4.686q1.734,2.618,3.874,6.087Zm-63.458-94.6v38.37h16.824a25.512,25.512,0,0,0,8.6-1.4,19.882,19.882,0,0,0,6.825-4.021,18.237,18.237,0,0,0,4.5-6.42,21.491,21.491,0,0,0,1.623-8.522q0-8.485-5.5-13.245t-15.9-4.759Zm77.994,94.6V2482.77h29.22q55.93,0,55.931,51.578,0,24.5-15.532,39.366t-41.579,14.868Zm12.4-94.6v83.38h15.791q20.808,0,32.393-11.142t11.585-31.581q0-40.657-43.24-40.657Z" transform="translate(0 -75)" fill="#707070"/>
        <rect id="Rectangle_13" data-name="Rectangle 13" width="538" height="88" transform="translate(3363 1881)" fill="#707070"/>
        <g id="Group_26" data-name="Group 26">
          <g id="Group_2" data-name="Group 2">
            <line id="Line_10" data-name="Line 10" x1="24.744" y2="29.163" transform="translate(3378.598 1636.687)" fill="none" stroke="#707070" stroke-width="20"/>
            <line id="Line_11" data-name="Line 11" x1="28.279" y1="29.605" transform="translate(3375.063 1663.64)" fill="none" stroke="#707070" stroke-width="20"/>
          </g>
          <g id="Group_3" data-name="Group 3">
            <line id="Line_10-2" data-name="Line 10-2" x2="26.732" y2="29.163" transform="translate(3859.783 1636.687)" fill="none" stroke="#707070" stroke-width="20"/>
            <line id="Line_11-2" data-name="Line 11-2" y1="29.605" x2="30.267" transform="translate(3859.783 1663.64)" fill="none" stroke="#707070" stroke-width="20"/>
          </g>
          <rect id="Rectangle_14" data-name="Rectangle 14" width="149.997" height="30.487" transform="translate(3567.875 1649.908)" fill="#707070"/>
        </g>
        <line id="Line_12" data-name="Line 12" y2="248.325" transform="translate(1967.848 1756.873)" fill="none" stroke="#707070" stroke-width="20"/>
        <line id="Line_13" data-name="Line 13" x1="0.442" y2="36.674" transform="translate(2079.639 1968.524)" fill="none" stroke="#707070" stroke-width="20"/>
        <line id="Line_14" data-name="Line 14" y2="248.325" transform="translate(2201.149 1756.873)" fill="none" stroke="#707070" stroke-width="20"/>
        <line id="Line_15" data-name="Line 15" x1="114.883" transform="translate(1910.849 1824.919)" fill="none" stroke="#707070" stroke-width="20"/>
        <g id="Union_1" data-name="Union 1">
          <path id="Path_25" data-name="Path 25" d="M2025.67,1914.73a53.857,53.857,0,0,1,14.081-36.36,54.657,54.657,0,1,1,78.506-2.735,54.466,54.466,0,1,1-92.587,39.1Z" fill="none"/>
          <path id="Path_26" data-name="Path 26" d="M2080.33,1949a34.511,34.511,0,0,0,34.67-34.27,33.814,33.814,0,0,0-10.57-24.639l-14.1-13.481,13.124-14.43a33.979,33.979,0,0,0,8.877-22.9,34.668,34.668,0,1,0-69.336,0,33.813,33.813,0,0,0,10.572,24.639l14.1,13.482-13.124,14.43a33.977,33.977,0,0,0-8.876,22.9A34.511,34.511,0,0,0,2080.33,1949Zm0,20a54.471,54.471,0,0,1-54.666-54.274,53.854,53.854,0,0,1,14.08-36.359,54.658,54.658,0,1,1,78.506-2.734,53.928,53.928,0,0,1,16.75,39.1A54.471,54.471,0,0,1,2080.33,1969Z" fill="#707070"/>
        </g>
        <line id="Line_17" data-name="Line 17" x1="0.442" y2="36.674" transform="translate(2079.639 1748.036)" fill="none" stroke="#707070" stroke-width="20"/>
        <line id="Line_18" data-name="Line 18" x1="124.604" transform="translate(2122.057 1824.919)" fill="none" stroke="#707070" stroke-width="20"/>
        <line id="Line_19" data-name="Line 19" x1="114.883" transform="translate(1908.639 1925.663)" fill="none" stroke="#707070" stroke-width="20"/>
        <line id="Line_20" data-name="Line 20" x1="124.604" transform="translate(2122.057 1925.663)" fill="none" stroke="#707070" stroke-width="20"/>
        <g id="fingerprint">
          <g id="Group_31" data-name="Group 31">
            <g id="Calque_2" data-name="Calque 2">
              <path id="Path_13" data-name="Path 13" d="M3593.71,2321.88c2.163,5.525,9.16,8.727,16.008,7.326a668.052,668.052,0,0,1,178.573-6.769c6.91.973,13.523-2.708,14.994-8.346a5.8,5.8,0,0,0,0-1.391c-.524-4.932-5.278-8.842-11.274-9.273a702.173,702.173,0,0,0-188.268,6.677,12.632,12.632,0,0,0-8.088,4.118,8.551,8.551,0,0,0-1.945,7.659Zm74.856,22.719c1.154,5.647,7.525,9.536,14.43,8.81a574.867,574.867,0,0,1,102.138,1.855c6.913,1.034,13.584-2.61,15.106-8.253a5.941,5.941,0,0,0,0-1.484c-.524-4.932-5.278-8.842-11.274-9.273a612.215,612.215,0,0,0-108.564-1.947c-6.7.2-11.967,4.78-11.839,10.292Zm-117.7-15.394c3.8,11.338,13.089,20.894,25.7,26.429a75.042,75.042,0,0,0,43.4,5.378c7.328-1.3,14.543-2.411,21.871-3.338a12.825,12.825,0,0,0,8.192-3.868,8.638,8.638,0,0,0,2.292-7.538c-1.724-5.622-8.555-9.108-15.445-7.882-7.666,1.02-15.332,2.226-22.547,3.524a40.277,40.277,0,0,1-23.336-2.875c-6.8-3-11.817-8.159-13.866-14.281a19.714,19.714,0,0,1,4.425-17.806c4.4-5.179,11.2-8.635,18.8-9.55a716.281,716.281,0,0,1,182.518-8.16c6.923.8,13.4-2.984,14.768-8.624v-1.205c-.56-5.1-5.623-9.061-11.837-9.273a753.867,753.867,0,0,0-191.65,8.531c-14.048,1.7-26.641,8.078-34.819,17.631s-11.242,21.447-8.465,32.908Zm9.47,33.94c-5.881-3.328-13.837-2.618-18.714,1.669a8.2,8.2,0,0,0-2.612,7.279,9.25,9.25,0,0,0,4.868,6.446,103.525,103.525,0,0,0,9.244,4.822c23.428,10.623,50.736,13.917,76.885,9.273a544.621,544.621,0,0,1,144.752-5.289c6.918.869,13.473-2.819,14.994-8.439v-1.3c-.3-5.1-5.1-9.238-11.274-9.737A581.445,581.445,0,0,0,3623.8,2373.9a97.574,97.574,0,0,1-56.368-7.048,49.916,49.916,0,0,1-7.441-3.709Zm121.417-117.862c.769,5.687,6.942,9.815,13.866,9.273,24.387-.931,48.819-.652,73.165.835,7.054.654,13.436-3.479,14.317-9.273v-.835c-.679-5.193-5.94-9.163-12.288-9.273q-38.213-2.229-76.547-.835c-6.826,0-12.392,4.5-12.514,10.109Zm-18.15,2.411a4.327,4.327,0,0,0,0-1.206c-1.366-5.63-7.867-9.385-14.768-8.531-21.645,1.947-43.516,4.915-64.936,8.531-44.094,6.207-76.956,36.868-78.915,73.63a54.124,54.124,0,0,0,2.593,16.414,58.992,58.992,0,0,0,5.75,12.982c3.383,5.124,10.921,7.324,17.474,5.1a10.825,10.825,0,0,0,7.04-5.145,7.8,7.8,0,0,0-.163-7.745,44.9,44.9,0,0,1-4.284-9.273,39.162,39.162,0,0,1-1.8-11.962c1.371-27.172,25.6-49.879,58.171-54.526a595.188,595.188,0,0,1,62.568-8.439c6.213-.5,11.023-4.7,11.274-9.83Zm-90.193-33.012c-25.665,4.346-49.5,14.163-69.1,28.468a8.245,8.245,0,0,0,0,13.91,17.128,17.128,0,0,0,18.94.464c16-11.668,35.43-19.691,56.36-23.279a864.17,864.17,0,0,1,161.551-12.612c7.092.566,13.5-3.49,14.656-9.273h0c-.406-5.815-6.212-10.388-13.3-10.475a899.906,899.906,0,0,0-169.1,12.8Zm108.9,195.85a6.557,6.557,0,0,0,0-1.484c-1.573-5.614-8.206-9.237-15.107-8.253q-16.909,1.808-33.821,4.729c-30.711,5.33-62.729,1.379-90.188-11.128-26.183-11.478-45.439-31.344-53.211-54.9-6.114-19.994-2.6-41.157,9.808-59.07a7.839,7.839,0,0,0,.949-7.563,10.241,10.241,0,0,0-6.247-5.6c-6.426-2.43-14.045-.565-17.812,4.358-15.211,21.924-19.533,47.842-12.056,72.329,9.623,28.749,33.127,53.007,65.048,67.138,33.535,15.181,72.594,19.921,110.03,13.353,10.6-1.762,21.081-3.246,31.34-4.358,6.114-.45,10.907-4.511,11.273-9.551Zm20.292-2.967h0c0,5.121,5.047,9.273,11.274,9.273,14.139-.4,28.295-.085,42.389.927,6.9.833,13.331-3.052,14.43-8.717a3.1,3.1,0,0,0,0-1.02,8.4,8.4,0,0,0-3.1-6.859,12.558,12.558,0,0,0-8.178-2.878,459.04,459.04,0,0,0-46.785-1.02,12.1,12.1,0,0,0-7.622,3.423,8.161,8.161,0,0,0-2.4,6.87Z" fill="#707070"/>
            </g>
          </g>
        </g>
      </g>
    </g>
    <g id="Flash" transform="translate(-9959 5452)">
      <g id="Rectangle_4" data-name="Rectangle 4" transform="translate(19370 1605)" fill="none" stroke="#707070" stroke-width="100">
        <rect width="4684" height="955" rx="237" stroke="none"/>
        <rect x="50" y="50" width="4584" height="855" rx="187" fill="none"/>
      </g>
      <line id="Line_1" data-name="Line 1" x2="937.037" transform="translate(19838.518 2082.94)" fill="none" stroke="#707070" stroke-width="100"/>
      <g id="Ellipse_2" data-name="Ellipse 2" transform="translate(21057 1992)" fill="#707070" stroke="#707070" stroke-width="1">
        <ellipse cx="93.5" cy="90.5" rx="93.5" ry="90.5" stroke="none"/>
        <ellipse cx="93.5" cy="90.5" rx="93" ry="90" fill="none"/>
      </g>
      <g id="Ellipse_3" data-name="Ellipse 3" transform="translate(21525 1992)" fill="#707070" stroke="#707070" stroke-width="1">
        <ellipse cx="94.5" cy="90.5" rx="94.5" ry="90.5" stroke="none"/>
        <ellipse cx="94.5" cy="90.5" rx="94" ry="90" fill="none"/>
      </g>
      <line id="Line_2" data-name="Line 2" y2="869.419" transform="translate(22999.904 1605.48)" fill="none" stroke="#707070" stroke-width="100"/>
      <line id="Line_3" data-name="Line 3" y2="869.419" transform="translate(23498.602 1605.48)" fill="none" stroke="#707070" stroke-width="100"/>
      <g id="Rectangle_5" data-name="Rectangle 5" transform="translate(19371 2672)" fill="none" stroke="#707070" stroke-width="100">
        <rect width="4683" height="955" rx="237" stroke="none"/>
        <rect x="50" y="50" width="4583" height="855" rx="187" fill="none"/>
      </g>
      <line id="Line_4" data-name="Line 4" x2="937.037" transform="translate(19839.629 3148.655)" fill="none" stroke="#707070" stroke-width="100"/>
      <g id="Ellipse_4" data-name="Ellipse 4" transform="translate(21057 3058)" fill="#707070" stroke="#707070" stroke-width="1">
        <ellipse cx="94" cy="91" rx="94" ry="91" stroke="none"/>
        <ellipse cx="94" cy="91" rx="93.5" ry="90.5" fill="none"/>
      </g>
      <g id="Ellipse_5" data-name="Ellipse 5" transform="translate(21527 3058)" fill="#707070" stroke="#707070" stroke-width="1">
        <ellipse cx="93.5" cy="91" rx="93.5" ry="91" stroke="none"/>
        <ellipse cx="93.5" cy="91" rx="93" ry="90.5" fill="none"/>
      </g>
      <line id="Line_5" data-name="Line 5" y2="869.419" transform="translate(23001.018 2671.194)" fill="none" stroke="#707070" stroke-width="100"/>
      <line id="Line_6" data-name="Line 6" y2="869.419" transform="translate(23499.713 2671.194)" fill="none" stroke="#707070" stroke-width="100"/>
      <g id="Rectangle_6" data-name="Rectangle 6" transform="translate(19371 3736)" fill="none" stroke="#707070" stroke-width="100">
        <rect width="4686" height="955" rx="237" stroke="none"/>
        <rect x="50" y="50" width="4586" height="855" rx="187" fill="none"/>
      </g>
      <line id="Line_7" data-name="Line 7" x2="937.037" transform="translate(19840.742 4214.368)" fill="none" stroke="#707070" stroke-width="100"/>
      <g id="Ellipse_6" data-name="Ellipse 6" transform="translate(21059 4124)" fill="#707070" stroke="#707070" stroke-width="1">
        <ellipse cx="94.5" cy="90" rx="94.5" ry="90" stroke="none"/>
        <ellipse cx="94.5" cy="90" rx="94" ry="89.5" fill="none"/>
      </g>
      <g id="Ellipse_7" data-name="Ellipse 7" transform="translate(21527 4124)" fill="#707070" stroke="#707070" stroke-width="1">
        <ellipse cx="94.5" cy="90" rx="94.5" ry="90" stroke="none"/>
        <ellipse cx="94.5" cy="90" rx="94" ry="89.5" fill="none"/>
      </g>
      <line id="Line_8" data-name="Line 8" y2="869.419" transform="translate(23002.127 3736.908)" fill="none" stroke="#707070" stroke-width="100"/>
      <line id="Line_9" data-name="Line 9" y2="869.419" transform="translate(23500.826 3736.908)" fill="none" stroke="#707070" stroke-width="100"/>
    </g>
    <g id="arrow" transform="translate(21783.68 17556.5) rotate(180)">
      <line id="Line_21-2" data-name="Line 21" x2="2580.44" transform="translate(4071.5 8956.5)" fill="none" stroke="#707070" stroke-width="100"/>
      <g id="Polygon_1-2" data-name="Polygon 1" transform="translate(7290.434 8557.5) rotate(90)">
        <path id="Path_3" data-name="Path 3" d="M398.5,0,797,727.894H0Z" fill="none"/>
        <path id="Path_4" data-name="Path 4" d="M398.5,208.241,168.752,627.894h459.5L398.5,208.241M398.5,0,797,727.894H0Z" fill="#707070"/>
      </g>
    </g>
    <path id="Path_31" data-name="Path 31" d="M-1032.79-224V-94.4h152.268V-3.675H-1032.79V208.734h-83.442V-315.449h254.046V-224ZM-818.6,208.738V-344.25h80.519V208.734Zm376.021-96.124q0,33.121,2.923,53.642a177.615,177.615,0,0,0,8.769,36.362v6.12H-511.41q-5.315-14.041-7.706-34.922-27.371,42.122-72.015,42.122a86.218,86.218,0,0,1-49.427-15.121q-22.322-15.121-35.21-41.762t-12.888-60.123q0-61.563,33.749-94.864t99.386-33.3h32.686V-51.2q0-27-10.1-41.942t-30.294-14.941q-18.336,0-28.567,11.7t-10.231,33.3H-682.28q0-34.921,15.28-63.363a114.1,114.1,0,0,1,43.315-45Q-595.653-188-558.981-188q34.015,0,60.323,15.481t41.19,46.442q14.881,30.961,14.881,75.6ZM-573.065,133.49a49.017,49.017,0,0,0,30.826-10.26,60.512,60.512,0,0,0,19.4-25.021V33.046H-553.4q-27.9,0-41.588,16.381t-13.686,42.662q0,18.361,9.7,29.881T-573.065,133.49Zm283.543-80.643Q-391.565,23.326-391.565-66.318q0-33.121,13.951-60.843a109.635,109.635,0,0,1,40.259-44.282Q-311.046-188-275.969-188q36.938,0,64.575,16.021a108.247,108.247,0,0,1,42.518,44.642Q-153.995-98.72-153.995-62h-80.253q0-23.4-10.364-36.542t-31.623-13.141q-17.539,0-28.035,11.16t-10.5,28.8q0,16.921,11.825,27.361t40.259,17.641q34.015,8.64,57.665,22.5a102.2,102.2,0,0,1,37.6,38.342Q-153.47,58.6-153.47,96.4q0,34.2-15.014,61.383a107.713,107.713,0,0,1-42.784,42.662q-27.77,15.481-64.442,15.481-38.8,0-67.1-19.261a125.62,125.62,0,0,1-43.05-49.5,142.031,142.031,0,0,1-14.749-63h75.736q.8,28.081,14.881,41.582t36.14,13.5q20.462,0,31.49-10.62t11.028-28.621q0-11.16-4.916-18.9t-17.53-14.582q-12.62-6.841-35.741-13.681ZM48.233-188q45.176,0,70.288,36.362T143.633-35.357v244.09H63.38V-36.077q0-35.281-11.028-49.682t-33.616-14.4q-32.154,0-46.239,31.681V208.734h-80.253V-344.25H-27.5v205.209Q-13.153-162.8,6.113-175.4A75.409,75.409,0,0,1,48.233-188ZM460.394-315.449q51.819,0,92.079,31.5t62.847,88.564q22.588,57.062,22.588,130.506v23.041q0,73.8-22.588,130.686t-62.98,88.384q-40.392,31.5-92.477,31.5H339.748V-315.449ZM553.137-65.6q0-77.763-23.651-118.085T460.394-224h-37.2V117.65h36.672q45.441,0,69.358-40.862T553.137-41.837ZM922.779,112.609q0,33.121,2.923,53.642a177.611,177.611,0,0,0,8.769,36.362v6.12H853.953q-5.315-14.041-7.706-34.922-27.371,42.122-72.015,42.122a86.218,86.218,0,0,1-49.432-15.12q-22.322-15.121-35.21-41.762T676.705,98.929q0-61.563,33.749-94.864t99.386-33.3h32.686V-51.2q0-27-10.1-41.942T802.134-108.08q-18.336,0-28.567,11.7t-10.231,33.3H683.083q0-34.921,15.28-63.363a114.1,114.1,0,0,1,43.315-45Q769.714-188,806.386-188q34.015,0,60.323,15.481t41.19,46.442q14.881,30.961,14.881,75.6ZM792.3,133.49a49.017,49.017,0,0,0,30.826-10.26,60.512,60.512,0,0,0,19.4-25.021V33.046h-30.56q-27.9,0-41.588,16.381T756.693,92.089q0,18.361,9.7,29.881T792.3,133.49ZM1128.46-188q35.875,0,61.12,24.481t38.134,68.943Q1240.6-50.117,1240.6,9.645V17.2q0,57.242-13.021,102.424t-38.134,70.743q-25.112,25.561-60.456,25.561-41.987,0-68.826-41.042V358.5h-80.25V-180.8h74.407l2.923,37.442Q1084.35-188,1128.46-188ZM1160.62,9.645q0-50.4-12.755-80.1t-40.127-29.7q-34.812,0-47.567,36V91.009q13.287,37.442,48.1,37.442,27.371,0,39.861-30.6t12.49-80.643ZM1434.86-188q35.875,0,61.12,24.481t38.134,68.943Q1547-50.117,1547,9.645V17.2q0,57.242-13.021,102.424t-38.134,70.743q-25.112,25.561-60.456,25.561-41.987,0-68.826-41.042V358.5H1286.31V-180.8h74.407l2.923,37.442Q1390.75-188,1434.86-188ZM1467.01,9.645q0-50.4-12.756-80.1t-40.126-29.7q-34.812,0-47.567,36V91.009q13.287,37.442,48.1,37.442,27.371,0,39.861-30.6t12.49-80.643Z" transform="translate(3508.234 11740.25)" fill="#666"/>
    <path id="Path_32" data-name="Path 32" d="M-429.9-193.4V-30.81h180.5V83H-429.9V349.467h-98.911V-308.119h301.142V-193.4Zm253.892,542.87V-344.25h95.446V349.467ZM269.717,228.88q0,41.551,3.465,67.294a233.637,233.637,0,0,0,10.4,45.616v7.678H188.131q-6.3-17.614-9.135-43.809Q146.551,358.5,93.631,358.5a98.28,98.28,0,0,1-58.59-18.969Q8.58,320.562-6.7,287.141t-15.278-75.424q0-77.23,40.005-119.007T135.841,50.934h38.745V23.384q0-33.873-11.97-52.616t-35.91-18.743q-21.735,0-33.863,14.678T80.716,8.48H-14.415q0-43.809,18.113-79.488a139.9,139.9,0,0,1,51.345-56.455q33.233-20.775,76.7-20.775,40.32,0,71.506,19.42t48.825,58.261q17.64,38.841,17.64,94.844Zm-154.666,26.2a56.045,56.045,0,0,0,36.54-12.872,75.509,75.509,0,0,0,23-31.389V129.067h-36.23q-33.075,0-49.3,20.55T72.84,203.136q0,23.034,11.5,37.486t30.711,14.453ZM451.158,153.908Q330.2,116.873,330.2,4.415q0-41.551,16.538-76.327a135.057,135.057,0,0,1,47.723-55.552q31.185-20.775,72.766-20.775,43.785,0,76.546,20.1t50.4,56q17.64,35.905,17.64,81.972H516.679q0-29.357-12.285-45.841T466.908-52.491q-20.79,0-33.233,14T421.233-2.359q0,21.227,14.018,34.325T482.973,54.1q40.32,10.839,68.355,28.227t44.573,48.1q16.538,30.711,16.538,78.134,0,42.906-17.8,77a131.632,131.632,0,0,1-50.715,53.519q-32.918,19.42-76.388,19.42-45.99,0-79.538-24.163a155.319,155.319,0,0,1-51.03-62.1A186.762,186.762,0,0,1,319.487,193.2h89.776q.945,35.228,17.64,52.164t42.84,16.936q24.255,0,37.328-13.323t13.073-35.9q0-14-5.828-23.711t-20.79-18.291Q478.563,162.489,451.158,153.908ZM851.526-148.239q53.55,0,83.318,45.616T964.612,43.256V349.467H869.481V42.353q0-44.261-13.073-62.326T816.561-38.039q-38.115,0-54.81,39.744V349.467H666.62V-344.25h95.13V-86.816q17.01-29.808,39.848-45.615a85.9,85.9,0,0,1,49.928-15.808Z" transform="translate(11536.813 11740.25)" fill="#666"/>
    <path id="Path_33" data-name="Path 33" d="M-576.03-193.4V-30.81h180.5V83h-180.5V349.467h-98.911V-308.119H-373.8V-193.4Zm253.892,542.87V-344.25h95.446V349.467ZM123.59,228.88q0,41.551,3.465,67.294a233.634,233.634,0,0,0,10.4,45.616v7.678H42q-6.3-17.614-9.135-43.809Q.424,358.5-52.5,358.5a98.28,98.28,0,0,1-58.59-18.969q-26.46-18.969-41.738-52.39T-168.1,211.717q0-77.23,40.005-119.007T-10.286,50.934H28.459V23.384q0-33.873-11.97-52.616t-35.91-18.743q-21.735,0-33.863,14.678T-65.411,8.48h-95.131q0-43.809,18.113-79.488a139.906,139.906,0,0,1,51.345-56.455q33.233-20.775,76.7-20.775,40.32,0,71.5,19.42T105.95-70.557q17.64,38.841,17.64,94.844Zm-154.666,26.2A56.045,56.045,0,0,0,5.464,242.2a75.509,75.509,0,0,0,23-31.389V129.067H-7.766q-33.075,0-49.3,20.55t-16.223,53.519q0,23.034,11.5,37.486t30.713,14.453ZM305.031,153.908Q184.07,116.873,184.07,4.415q0-41.551,16.538-76.327a135.057,135.057,0,0,1,47.723-55.552q31.185-20.775,72.766-20.775,43.785,0,76.546,20.1t50.4,56q17.64,35.905,17.64,81.972H370.552q0-29.357-12.285-45.841T320.781-52.491q-20.79,0-33.233,14T275.106-2.359q0,21.227,14.018,34.325T336.846,54.1q40.32,10.839,68.356,28.227t44.573,48.1q16.538,30.711,16.538,78.134,0,42.906-17.8,77A131.632,131.632,0,0,1,397.8,339.08q-32.918,19.42-76.388,19.42-45.99,0-79.538-24.163a155.32,155.32,0,0,1-51.03-62.1A186.763,186.763,0,0,1,173.36,193.2h89.776q.945,35.228,17.64,52.164t42.84,16.936q24.255,0,37.328-13.323t13.073-35.9q0-14-5.828-23.711T347.4,171.07Q332.436,162.489,305.031,153.908ZM705.4-148.239q53.55,0,83.318,45.616T818.485,43.256V349.467H723.354V42.353q0-44.261-13.073-62.326T670.434-38.039q-38.115,0-54.81,39.744V349.467H520.493V-344.25h95.131V-86.816q17.01-29.808,39.848-45.615A85.9,85.9,0,0,1,705.4-148.239Zm434.073-159.88h113.086L1120.57,17.964l135.451,331.5H1141.68l-85.366-227.626L970.946,349.467H856.6l135.451-331.5L860.065-308.119h113.4l82.846,223.561Z" transform="translate(20021.941 11740.25)" fill="#666"/>
    <g id="FlashX" transform="translate(-1401 5452)">
      <g id="Rectangle_4-2" data-name="Rectangle 4" transform="translate(19370 1605)" fill="none" stroke="#707070" stroke-width="100">
        <rect width="4684" height="955" rx="237" stroke="none"/>
        <rect x="50" y="50" width="4584" height="855" rx="187" fill="none"/>
      </g>
      <line id="Line_1-2" data-name="Line 1" x2="937.037" transform="translate(19838.518 2082.94)" fill="none" stroke="#707070" stroke-width="100"/>
      <g id="Ellipse_2-2" data-name="Ellipse 2" transform="translate(21057 1992)" fill="#707070" stroke="#707070" stroke-width="1">
        <ellipse cx="93.5" cy="90.5" rx="93.5" ry="90.5" stroke="none"/>
        <ellipse cx="93.5" cy="90.5" rx="93" ry="90" fill="none"/>
      </g>
      <g id="Ellipse_3-2" data-name="Ellipse 3" transform="translate(21525 1992)" fill="#707070" stroke="#707070" stroke-width="1">
        <ellipse cx="94.5" cy="90.5" rx="94.5" ry="90.5" stroke="none"/>
        <ellipse cx="94.5" cy="90.5" rx="94" ry="90" fill="none"/>
      </g>
      <line id="Line_2-2" data-name="Line 2" y2="869.419" transform="translate(22999.904 1605.48)" fill="none" stroke="#707070" stroke-width="100"/>
      <line id="Line_3-2" data-name="Line 3" y2="869.419" transform="translate(23498.602 1605.48)" fill="none" stroke="#707070" stroke-width="100"/>
      <g id="Rectangle_5-2" data-name="Rectangle 5" transform="translate(19371 2672)" fill="none" stroke="#707070" stroke-width="100">
        <rect width="4683" height="955" rx="237" stroke="none"/>
        <rect x="50" y="50" width="4583" height="855" rx="187" fill="none"/>
      </g>
      <line id="Line_4-2" data-name="Line 4" x2="937.037" transform="translate(19839.629 3148.655)" fill="none" stroke="#707070" stroke-width="100"/>
      <g id="Ellipse_4-2" data-name="Ellipse 4" transform="translate(21057 3058)" fill="#707070" stroke="#707070" stroke-width="1">
        <ellipse cx="94" cy="91" rx="94" ry="91" stroke="none"/>
        <ellipse cx="94" cy="91" rx="93.5" ry="90.5" fill="none"/>
      </g>
      <g id="Ellipse_5-2" data-name="Ellipse 5" transform="translate(21527 3058)" fill="#707070" stroke="#707070" stroke-width="1">
        <ellipse cx="93.5" cy="91" rx="93.5" ry="91" stroke="none"/>
        <ellipse cx="93.5" cy="91" rx="93" ry="90.5" fill="none"/>
      </g>
      <line id="Line_5-2" data-name="Line 5" y2="869.419" transform="translate(23001.018 2671.194)" fill="none" stroke="#707070" stroke-width="100"/>
      <line id="Line_6-2" data-name="Line 6" y2="869.419" transform="translate(23499.713 2671.194)" fill="none" stroke="#707070" stroke-width="100"/>
      <g id="Rectangle_6-2" data-name="Rectangle 6" transform="translate(19371 3736)" fill="none" stroke="#707070" stroke-width="100">
        <rect width="4686" height="955" rx="237" stroke="none"/>
        <rect x="50" y="50" width="4586" height="855" rx="187" fill="none"/>
      </g>
      <line id="Line_7-2" data-name="Line 7" x2="937.037" transform="translate(19840.742 4214.368)" fill="none" stroke="#707070" stroke-width="100"/>
      <g id="Ellipse_6-2" data-name="Ellipse 6" transform="translate(21059 4124)" fill="#707070" stroke="#707070" stroke-width="1">
        <ellipse cx="94.5" cy="90" rx="94.5" ry="90" stroke="none"/>
        <ellipse cx="94.5" cy="90" rx="94" ry="89.5" fill="none"/>
      </g>
      <g id="Ellipse_7-2" data-name="Ellipse 7" transform="translate(21527 4124)" fill="#707070" stroke="#707070" stroke-width="1">
        <ellipse cx="94.5" cy="90" rx="94.5" ry="90" stroke="none"/>
        <ellipse cx="94.5" cy="90" rx="94" ry="89.5" fill="none"/>
      </g>
      <line id="Line_8-2" data-name="Line 8" y2="869.419" transform="translate(23002.127 3736.908)" fill="none" stroke="#707070" stroke-width="100"/>
      <line id="Line_9-2" data-name="Line 9" y2="869.419" transform="translate(23500.826 3736.908)" fill="none" stroke="#707070" stroke-width="100"/>
    </g>
  </g>
</svg>
