<svg xmlns="http://www.w3.org/2000/svg" width="21280" height="5704" viewBox="0 0 21280 5704">
  <g id="FlashX_To_FlashX_Right" transform="translate(-1656 -5116)">
    <rect id="Rectangle_20" data-name="Rectangle 20" width="21280" height="5704" transform="translate(1656 5116)" fill="none"/>
    <path id="Path_41" data-name="Path 41" d="M-569.628-232.23v120.74H-377.45v84.518H-569.628v197.88H-674.941V-317.419h320.633v85.189ZM-299.3,170.909V-344.25h101.623V170.909ZM175.273,81.36q0,30.856,3.689,49.973a131.006,131.006,0,0,0,11.068,33.874v5.7H88.407q-6.708-13.08-9.726-32.533Q44.135,177.617-12.21,177.617q-34.21,0-62.383-14.086t-44.439-38.9Q-135.3,99.806-135.3,68.615q0-57.352,42.6-88.375T32.732-50.784H73.985V-71.243q0-25.154-12.745-39.073T23.006-124.234q-23.142,0-36.054,10.9T-25.961-82.31H-127.249a97.949,97.949,0,0,1,19.285-59.029q19.285-26.5,54.669-41.924t81.667-15.428q42.93,0,76.134,14.422T156.491-141q18.782,28.844,18.782,70.432ZM10.6,100.813q22.136,0,38.9-9.559t24.483-23.31V7.239H35.415Q.2,7.239-17.073,22.5T-34.346,62.243q0,17.1,12.242,27.837T10.6,100.813ZM368.458,25.685q-128.79-27.5-128.79-111.014a98.5,98.5,0,0,1,17.608-56.681q17.608-25.825,50.812-41.253t77.475-15.428q46.619,0,81.5,14.925t53.662,41.588q18.782,26.663,18.782,60.873H438.219q0-21.8-13.08-34.042t-39.911-12.242q-22.136,0-35.384,10.4T336.6-90.36q0,15.763,14.925,25.49t50.812,16.434q42.93,8.049,72.78,20.962T522.569,8.245q17.608,22.807,17.608,58.022a93.03,93.03,0,0,1-18.95,57.184q-18.95,25.322-54,39.744T385.9,177.617q-48.967,0-84.686-17.943t-54.333-46.116q-18.614-28.173-18.614-58.693h95.586q1.006,26.16,18.782,38.738t45.613,12.577q25.825,0,39.744-9.894t13.919-26.664a26.065,26.065,0,0,0-6.2-17.608Q429.5,44.8,413.568,38.43T368.458,25.685Zm426.28-224.376q57.016,0,88.711,33.874T915.143-56.485V170.909H813.856V-57.156q0-32.868-13.919-46.284T757.51-116.856q-40.582,0-58.358,29.514v258.25H597.864V-344.25H699.152v191.172a124.322,124.322,0,0,1,42.427-33.874Q765.9-198.691,794.738-198.691Zm462.167-118.728H1377.31L1236.78-75.267,1381,170.909H1259.25L1168.36,1.872l-90.891,169.037H955.726L1099.94-75.267,959.415-317.419h120.74l88.2,166.019Z" transform="translate(10915 10439.115)" fill="#666"/>
    <g id="Group_70" data-name="Group 70" transform="translate(2095)">
      <g id="FlashX" transform="translate(-12894 4590)">
        <g id="Rectangle_4" data-name="Rectangle 4" transform="translate(19370 1605)" fill="none" stroke="#707070" stroke-width="100">
          <rect width="4684" height="955" rx="237" stroke="none"/>
          <rect x="50" y="50" width="4584" height="855" rx="187" fill="none"/>
        </g>
        <line id="Line_1" data-name="Line 1" x2="937.037" transform="translate(19838.518 2082.94)" fill="none" stroke="#707070" stroke-width="100"/>
        <g id="Ellipse_2" data-name="Ellipse 2" transform="translate(21057 1992)" fill="#707070" stroke="#707070" stroke-width="1">
          <ellipse cx="93.5" cy="90.5" rx="93.5" ry="90.5" stroke="none"/>
          <ellipse cx="93.5" cy="90.5" rx="93" ry="90" fill="none"/>
        </g>
        <g id="Ellipse_3" data-name="Ellipse 3" transform="translate(21525 1992)" fill="#707070" stroke="#707070" stroke-width="1">
          <ellipse cx="94.5" cy="90.5" rx="94.5" ry="90.5" stroke="none"/>
          <ellipse cx="94.5" cy="90.5" rx="94" ry="90" fill="none"/>
        </g>
        <line id="Line_2" data-name="Line 2" y2="869.419" transform="translate(22999.904 1605.48)" fill="none" stroke="#707070" stroke-width="100"/>
        <line id="Line_3" data-name="Line 3" y2="869.419" transform="translate(23498.602 1605.48)" fill="none" stroke="#707070" stroke-width="100"/>
        <g id="Rectangle_5" data-name="Rectangle 5" transform="translate(19371 2672)" fill="none" stroke="#707070" stroke-width="100">
          <rect width="4683" height="955" rx="237" stroke="none"/>
          <rect x="50" y="50" width="4583" height="855" rx="187" fill="none"/>
        </g>
        <line id="Line_4" data-name="Line 4" x2="937.037" transform="translate(19839.629 3148.655)" fill="none" stroke="#707070" stroke-width="100"/>
        <g id="Ellipse_4" data-name="Ellipse 4" transform="translate(21057 3058)" fill="#707070" stroke="#707070" stroke-width="1">
          <ellipse cx="94" cy="91" rx="94" ry="91" stroke="none"/>
          <ellipse cx="94" cy="91" rx="93.5" ry="90.5" fill="none"/>
        </g>
        <g id="Ellipse_5" data-name="Ellipse 5" transform="translate(21527 3058)" fill="#707070" stroke="#707070" stroke-width="1">
          <ellipse cx="93.5" cy="91" rx="93.5" ry="91" stroke="none"/>
          <ellipse cx="93.5" cy="91" rx="93" ry="90.5" fill="none"/>
        </g>
        <line id="Line_5" data-name="Line 5" y2="869.419" transform="translate(23001.018 2671.194)" fill="none" stroke="#707070" stroke-width="100"/>
        <line id="Line_6" data-name="Line 6" y2="869.419" transform="translate(23499.713 2671.194)" fill="none" stroke="#707070" stroke-width="100"/>
        <g id="Rectangle_6" data-name="Rectangle 6" transform="translate(19371 3736)" fill="none" stroke="#707070" stroke-width="100">
          <rect width="4686" height="955" rx="237" stroke="none"/>
          <rect x="50" y="50" width="4586" height="855" rx="187" fill="none"/>
        </g>
        <line id="Line_7" data-name="Line 7" x2="937.037" transform="translate(19840.742 4214.368)" fill="none" stroke="#707070" stroke-width="100"/>
        <g id="Ellipse_6" data-name="Ellipse 6" transform="translate(21059 4124)" fill="#707070" stroke="#707070" stroke-width="1">
          <ellipse cx="94.5" cy="90" rx="94.5" ry="90" stroke="none"/>
          <ellipse cx="94.5" cy="90" rx="94" ry="89.5" fill="none"/>
        </g>
        <g id="Ellipse_7" data-name="Ellipse 7" transform="translate(21527 4124)" fill="#707070" stroke="#707070" stroke-width="1">
          <ellipse cx="94.5" cy="90" rx="94.5" ry="90" stroke="none"/>
          <ellipse cx="94.5" cy="90" rx="94" ry="89.5" fill="none"/>
        </g>
        <line id="Line_8" data-name="Line 8" y2="869.419" transform="translate(23002.127 3736.908)" fill="none" stroke="#707070" stroke-width="100"/>
        <line id="Line_9" data-name="Line 9" y2="869.419" transform="translate(23500.826 3736.908)" fill="none" stroke="#707070" stroke-width="100"/>
      </g>
      <g id="arrow">
        <line id="Line_21" data-name="Line 21" x2="1826" transform="translate(13925 8696.5) rotate(180)" fill="none" stroke="#707070" stroke-width="100"/>
        <g id="Polygon_1" data-name="Polygon 1" transform="translate(11408.5 9095.5) rotate(-90)">
          <path id="Path_1" data-name="Path 1" d="M398.5,0,797,691H0Z" fill="none"/>
          <path id="Path_2" data-name="Path 2" d="M398.5,200.169,173.108,591H623.892L398.5,200.169M398.5,0,797,691H0Z" fill="#707070"/>
        </g>
        <line id="Line_22" data-name="Line 22" x1="2636.5" transform="translate(11289.5 7015.5)" fill="none" stroke="#707070" stroke-width="100"/>
        <line id="Line_23" data-name="Line 23" y2="1781" transform="translate(13910.5 6965.5)" fill="none" stroke="#707070" stroke-width="100"/>
      </g>
    </g>
  </g>
</svg>
