<svg xmlns="http://www.w3.org/2000/svg" width="21280" height="5804" viewBox="0 0 21280 5804">
  <g id="FlashX_To_OZTCard" transform="translate(-3315 -5349)">
    <rect id="Rectangle_20" data-name="Rectangle 20" width="21280" height="5704" transform="translate(3315 5449)" fill="none"/>
    <g id="Group_48" data-name="Group 48" transform="translate(6084 -823)">
      <path id="Path_27" data-name="Path 27" d="M-564.159-226.412V-99.4H-362v88.908H-564.16V197.665H-674.941v-513.69h337.285v89.613Zm284.364,424.076V-344.25h106.9V197.665Zm499.225-94.2q0,32.458,3.881,52.569a137.809,137.809,0,0,0,11.643,35.634v6h-106.9Q121,183.9,117.821,163.442,81.482,204.721,22.21,204.721q-35.986,0-65.622-14.818T-90.16,148.977q-17.111-26.108-17.111-58.919,0-60.33,44.807-92.965T69.486-35.542h43.4V-57.064q0-26.461-13.407-41.1t-40.22-14.642q-24.344,0-37.927,11.466T7.745-68.706H-98.8A103.036,103.036,0,0,1-78.517-130.8q20.286-27.872,57.508-44.1T64.9-191.131q45.16,0,80.088,15.171t54.685,45.512q19.757,30.342,19.757,74.09ZM46.2,123.927q23.285,0,40.926-10.055t25.755-24.52V25.494H72.309q-37.045,0-55.215,16.053T-1.076,83.354q0,17.993,12.878,29.283T46.2,123.927ZM422.648,44.9Q287.169,15.968,287.169-71.882a103.612,103.612,0,0,1,18.522-59.625q18.522-27.166,53.451-43.4t81.5-16.229q49.04,0,85.733,15.7t56.449,43.748q19.757,28.048,19.757,64.035H496.032q0-22.933-13.76-35.81t-41.984-12.878q-23.285,0-37.221,10.937t-13.936,28.23q0,16.582,15.7,26.813t53.451,17.288q45.16,8.467,76.56,22.051t49.922,37.574q18.522,23.991,18.522,61.036a97.861,97.861,0,0,1-19.934,60.154q-19.934,26.637-56.8,41.808T441,204.721q-51.51,0-89.084-18.875t-57.155-48.511Q275.174,107.7,275.174,75.593h100.55q1.058,27.519,19.757,40.749t47.982,13.23q27.166,0,41.808-10.408t14.642-28.048a27.419,27.419,0,0,0-6.527-18.522Q486.859,65.008,470.1,58.3T422.648,44.9Zm448.42-236.029q59.978,0,93.318,35.634T997.726-41.54v239.2H891.178V-42.246q0-34.575-14.642-48.688t-44.63-14.112q-42.69,0-61.389,31.047V197.665H663.969V-344.25H770.518v201.1a130.779,130.779,0,0,1,44.63-35.634q25.578-12.347,55.92-12.347Zm486.171-124.894H1483.9L1336.07-61.3l151.708,258.962h-128.07L1264.1,19.849l-95.611,177.816h-128.07L1192.12-61.3,1044.3-316.025h127.011l92.789,174.64Z" transform="translate(3987.94 11682.762)" fill="#666"/>
      <g id="OztCard" transform="translate(920 6595)">
        <g id="Group_12" data-name="Group 12" transform="translate(765 -615)">
          <g id="Rectangle_8" data-name="Rectangle 8" transform="translate(8026 1625)" fill="none" stroke="#707070" stroke-width="100">
            <rect width="4105" height="2579" rx="259" stroke="none"/>
            <rect x="50" y="50" width="4005" height="2479" rx="209" fill="none"/>
          </g>
          <g id="Rectangle_9" data-name="Rectangle 9" transform="translate(8476 2533)" fill="none" stroke="#707070" stroke-width="50">
            <rect width="609" height="476" rx="129" stroke="none"/>
            <rect x="25" y="25" width="559" height="426" rx="104" fill="none"/>
          </g>
          <g id="Rectangle_10" data-name="Rectangle 10" transform="translate(10805 3115)" fill="none" stroke="#707070" stroke-width="50">
            <rect width="1046" height="734" stroke="none"/>
            <rect x="25" y="25" width="996" height="684" fill="none"/>
          </g>
          <g id="Rectangle_11" data-name="Rectangle 11" transform="translate(10908 3209)" fill="none" stroke="#707070" stroke-width="50">
            <rect width="840" height="546" stroke="none"/>
            <rect x="25" y="25" width="790" height="496" fill="none"/>
          </g>
          <g id="Rectangle_12" data-name="Rectangle 12" transform="translate(10805 2280)" fill="none" stroke="#707070" stroke-width="50">
            <rect width="1046" height="729" stroke="none"/>
            <rect x="25" y="25" width="996" height="679" fill="none"/>
          </g>
          <text id="OZTCARD-2" data-name="OZTCARD" transform="translate(8298.176 3911)" fill="#707070" font-size="238" font-family="SegoeUI, Segoe UI"><tspan x="0" y="0">OZTCARD</tspan></text>
          <rect id="Rectangle_13" data-name="Rectangle 13" width="882" height="144" transform="translate(10887 2771)" fill="#707070"/>
          <g id="Group_26" data-name="Group 26" transform="translate(17.217)">
            <g id="Group_2" data-name="Group 2" transform="translate(10888.783 2370.316)">
              <line id="Line_10" data-name="Line 10" x1="40.581" y2="47.828" transform="translate(5.797)" fill="none" stroke="#707070" stroke-width="20"/>
              <line id="Line_11" data-name="Line 11" x1="46.378" y1="48.552" transform="translate(0 44.204)" fill="none" stroke="#707070" stroke-width="20"/>
            </g>
            <g id="Group_3" data-name="Group 3" transform="translate(11683.739 2370.316)">
              <line id="Line_10-2" data-name="Line 10" x2="43.842" y2="47.828" fill="none" stroke="#707070" stroke-width="20"/>
              <line id="Line_11-2" data-name="Line 11" y1="48.552" x2="49.639" transform="translate(0 44.204)" fill="none" stroke="#707070" stroke-width="20"/>
            </g>
            <rect id="Rectangle_14" data-name="Rectangle 14" width="246" height="50" transform="translate(11205 2392)" fill="#707070"/>
          </g>
          <line id="Line_12" data-name="Line 12" y2="407.261" transform="translate(8598.122 2567.425)" fill="none" stroke="#707070" stroke-width="20"/>
          <line id="Line_13" data-name="Line 13" x1="0.725" y2="60.147" transform="translate(8781.462 2914.539)" fill="none" stroke="#707070" stroke-width="20"/>
          <line id="Line_14" data-name="Line 14" y2="407.261" transform="translate(8980.744 2567.425)" fill="none" stroke="#707070" stroke-width="20"/>
          <line id="Line_15" data-name="Line 15" x1="188.413" transform="translate(8504.641 2679.023)" fill="none" stroke="#707070" stroke-width="20"/>
          <g id="Union_1" data-name="Union 1" transform="translate(8689 2613)">
            <path id="Path_1" data-name="Path 1" d="M4.357,212.921a88.613,88.613,0,0,1,23.007-59.677,89.315,89.315,0,1,1,128.273-4.488A89.2,89.2,0,1,1,4.357,212.921Z" fill="none"/>
            <path id="Path_2" data-name="Path 2" d="M93.679,282A69.279,69.279,0,0,0,163,212.921a68.4,68.4,0,0,0-21.219-49.742l-14-13.452,13.033-14.4A69.21,69.21,0,1,0,20,89.079,68.4,68.4,0,0,0,41.219,138.82l14,13.453L42.189,166.667A69.031,69.031,0,0,0,93.679,282m0,20A89.03,89.03,0,0,1,27.364,153.244,89.2,89.2,0,1,1,178.643,89.079a88.613,88.613,0,0,1-23.006,59.677A89.03,89.03,0,0,1,93.679,302Z" fill="#707070"/>
          </g>
          <line id="Line_17" data-name="Line 17" x1="0.725" y2="60.147" transform="translate(8781.462 2552.932)" fill="none" stroke="#707070" stroke-width="20"/>
          <line id="Line_18" data-name="Line 18" x1="204.355" transform="translate(8851.029 2679.023)" fill="none" stroke="#707070" stroke-width="20"/>
          <line id="Line_19" data-name="Line 19" x1="188.413" transform="translate(8501.017 2844.246)" fill="none" stroke="#707070" stroke-width="20"/>
          <line id="Line_20" data-name="Line 20" x1="204.355" transform="translate(8851.029 2844.246)" fill="none" stroke="#707070" stroke-width="20"/>
          <g id="fingerprint" transform="translate(11047 3297)">
            <g id="Layer_2" data-name="Layer 2">
              <g id="Calque_2" data-name="Calque 2">
                <path id="Path_13" data-name="Path 13" d="M217.606,197.036c3.548,9.061,15.023,14.313,26.254,12.015a1095.669,1095.669,0,0,1,292.865-11.1c11.332,1.6,22.178-4.441,24.59-13.687a9.525,9.525,0,0,0,0-2.281c-.86-8.088-8.656-14.5-18.489-15.208a1151.6,1151.6,0,0,0-308.765,10.95,20.717,20.717,0,0,0-13.265,6.754A14.019,14.019,0,0,0,217.6,197.04ZM340.372,234.3c1.893,9.261,12.341,15.64,23.666,14.448a942.916,942.916,0,0,1,167.51,3.042c11.338,1.7,22.279-4.281,24.775-13.535a9.77,9.77,0,0,0,0-2.433c-.86-8.088-8.656-14.5-18.489-15.208a1004.014,1004.014,0,0,0-178.048-3.194c-10.985.33-19.623,7.841-19.414,16.881ZM147.348,209.05c6.224,18.6,21.467,34.267,42.155,43.344a123.069,123.069,0,0,0,71.182,8.821c12.018-2.129,23.851-3.954,35.869-5.475a21.03,21.03,0,0,0,13.436-6.34,14.17,14.17,0,0,0,3.759-12.362c-2.828-9.22-14.031-14.937-25.33-12.927-12.572,1.673-25.145,3.65-36.978,5.779a66.053,66.053,0,0,1-38.272-4.715c-11.16-4.916-19.38-13.382-22.741-23.421-2.58-10.141.046-20.708,7.257-29.2s18.368-14.162,30.83-15.662A1174.741,1174.741,0,0,1,527.85,143.5c11.355,1.31,21.98-4.894,24.22-14.144v-1.977c-.919-8.357-9.221-14.861-19.413-15.208a1236.359,1236.359,0,0,0-314.312,13.992c-23.049,2.8-43.7,13.249-57.114,28.915s-18.438,35.175-13.883,53.97Zm15.531,55.662c-9.645-5.457-22.692-4.294-30.692,2.738a13.443,13.443,0,0,0-4.287,11.936,15.167,15.167,0,0,0,7.984,10.572,169.551,169.551,0,0,0,15.161,7.908c38.422,17.422,83.209,22.824,126.095,15.208a893.2,893.2,0,0,1,237.4-8.669c11.346,1.426,22.1-4.624,24.59-13.84v-2.129c-.5-8.356-8.367-15.15-18.489-15.969a953.575,953.575,0,0,0-253.668,9.885c-31.5,5.372-64.3,1.271-92.445-11.558a81.747,81.747,0,0,1-12.2-6.083ZM362,71.415c1.261,9.326,11.384,16.1,22.741,15.208,39.995-1.526,80.065-1.069,119.993,1.369,11.569,1.073,22.036-5.706,23.481-15.208V71.415c-1.113-8.516-9.742-15.028-20.153-15.208q-62.67-3.655-125.54-1.369c-11.2,0-20.323,7.375-20.523,16.58Zm-29.767,3.954a7.141,7.141,0,0,0,0-1.977C330,64.159,319.336,58,308.017,59.4c-35.5,3.194-71.367,8.06-106.5,13.992C129.206,83.571,75.311,133.856,72.1,194.146a88.776,88.776,0,0,0,4.252,26.919,96.735,96.735,0,0,0,9.429,21.292c5.549,8.4,17.91,12.012,28.658,8.365a17.753,17.753,0,0,0,11.546-8.438,12.786,12.786,0,0,0-.268-12.7,73.672,73.672,0,0,1-7.026-15.208,64.236,64.236,0,0,1-2.958-19.619c2.249-44.564,41.978-81.8,95.4-89.425A975.96,975.96,0,0,1,313.748,91.49c10.189-.828,18.077-7.706,18.489-16.121ZM184.326,21.228c-42.1,7.128-81.182,23.229-113.337,46.69a13.522,13.522,0,0,0,0,22.813c8.736,6.465,21.874,6.787,31.061.76,26.243-19.135,58.111-32.295,92.445-38.173A1417.209,1417.209,0,0,1,459.441,32.634c11.631.928,22.143-5.723,24.036-15.208h0C482.8,7.88,473.282.383,461.66.24A1475.892,1475.892,0,0,0,184.326,21.227Zm178.6,321.2a10.772,10.772,0,0,0,0-2.433c-2.58-9.207-13.458-15.15-24.775-13.535q-27.733,2.966-55.467,7.756c-50.368,8.741-102.878,2.262-147.912-18.25-42.942-18.825-74.521-51.4-87.268-90.033-10.027-32.79-4.264-67.5,16.085-96.877a12.86,12.86,0,0,0,1.556-12.4,16.793,16.793,0,0,0-10.245-9.2c-10.539-3.984-23.035-.927-29.213,7.148C.735,150.567-6.354,193.071,5.908,233.232,21.69,280.38,60.236,320.165,112.589,343.34c55,24.9,119.056,32.671,180.452,21.9,17.38-2.89,34.574-5.323,51.4-7.148,10.026-.738,17.887-7.4,18.488-15.665Zm33.28-4.867h0c0,8.4,8.278,15.208,18.489,15.208q34.783-.972,69.518,1.521c11.316,1.366,21.864-5.006,23.666-14.3a5.14,5.14,0,0,0,0-1.673,13.778,13.778,0,0,0-5.077-11.249,20.589,20.589,0,0,0-13.412-4.72,752.971,752.971,0,0,0-76.729-1.673,19.846,19.846,0,0,0-12.514,5.613,13.386,13.386,0,0,0-3.938,11.273Z" transform="translate(-0.032 0.017)" fill="#707070"/>
              </g>
            </g>
          </g>
        </g>
      </g>
      <rect id="Rectangle_20-2" data-name="Rectangle 20" width="13280" height="5704" transform="translate(1231 6172)" fill="none"/>
      <g id="FlashX" transform="translate(-17319 5746)">
        <g id="Rectangle_4" data-name="Rectangle 4" transform="translate(19370 1605)" fill="none" stroke="#707070" stroke-width="100">
          <rect width="4684" height="955" rx="237" stroke="none"/>
          <rect x="50" y="50" width="4584" height="855" rx="187" fill="none"/>
        </g>
        <line id="Line_1" data-name="Line 1" x2="937.037" transform="translate(19838.518 2082.94)" fill="none" stroke="#707070" stroke-width="100"/>
        <g id="Ellipse_2" data-name="Ellipse 2" transform="translate(21057 1992)" fill="#707070" stroke="#707070" stroke-width="1">
          <ellipse cx="93.5" cy="90.5" rx="93.5" ry="90.5" stroke="none"/>
          <ellipse cx="93.5" cy="90.5" rx="93" ry="90" fill="none"/>
        </g>
        <g id="Ellipse_3" data-name="Ellipse 3" transform="translate(21525 1992)" fill="#707070" stroke="#707070" stroke-width="1">
          <ellipse cx="94.5" cy="90.5" rx="94.5" ry="90.5" stroke="none"/>
          <ellipse cx="94.5" cy="90.5" rx="94" ry="90" fill="none"/>
        </g>
        <line id="Line_2" data-name="Line 2" y2="869.419" transform="translate(22999.904 1605.48)" fill="none" stroke="#707070" stroke-width="100"/>
        <line id="Line_3" data-name="Line 3" y2="869.419" transform="translate(23498.602 1605.48)" fill="none" stroke="#707070" stroke-width="100"/>
        <g id="Rectangle_5" data-name="Rectangle 5" transform="translate(19371 2672)" fill="none" stroke="#707070" stroke-width="100">
          <rect width="4683" height="955" rx="237" stroke="none"/>
          <rect x="50" y="50" width="4583" height="855" rx="187" fill="none"/>
        </g>
        <line id="Line_4" data-name="Line 4" x2="937.037" transform="translate(19839.629 3148.655)" fill="none" stroke="#707070" stroke-width="100"/>
        <g id="Ellipse_4" data-name="Ellipse 4" transform="translate(21057 3058)" fill="#707070" stroke="#707070" stroke-width="1">
          <ellipse cx="94" cy="91" rx="94" ry="91" stroke="none"/>
          <ellipse cx="94" cy="91" rx="93.5" ry="90.5" fill="none"/>
        </g>
        <g id="Ellipse_5" data-name="Ellipse 5" transform="translate(21527 3058)" fill="#707070" stroke="#707070" stroke-width="1">
          <ellipse cx="93.5" cy="91" rx="93.5" ry="91" stroke="none"/>
          <ellipse cx="93.5" cy="91" rx="93" ry="90.5" fill="none"/>
        </g>
        <line id="Line_5" data-name="Line 5" y2="869.419" transform="translate(23001.018 2671.194)" fill="none" stroke="#707070" stroke-width="100"/>
        <line id="Line_6" data-name="Line 6" y2="869.419" transform="translate(23499.713 2671.194)" fill="none" stroke="#707070" stroke-width="100"/>
        <g id="Rectangle_6" data-name="Rectangle 6" transform="translate(19371 3736)" fill="none" stroke="#707070" stroke-width="100">
          <rect width="4686" height="955" rx="237" stroke="none"/>
          <rect x="50" y="50" width="4586" height="855" rx="187" fill="none"/>
        </g>
        <line id="Line_7" data-name="Line 7" x2="937.037" transform="translate(19840.742 4214.368)" fill="none" stroke="#707070" stroke-width="100"/>
        <g id="Ellipse_6" data-name="Ellipse 6" transform="translate(21059 4124)" fill="#707070" stroke="#707070" stroke-width="1">
          <ellipse cx="94.5" cy="90" rx="94.5" ry="90" stroke="none"/>
          <ellipse cx="94.5" cy="90" rx="94" ry="89.5" fill="none"/>
        </g>
        <g id="Ellipse_7" data-name="Ellipse 7" transform="translate(21527 4124)" fill="#707070" stroke="#707070" stroke-width="1">
          <ellipse cx="94.5" cy="90" rx="94.5" ry="90" stroke="none"/>
          <ellipse cx="94.5" cy="90" rx="94" ry="89.5" fill="none"/>
        </g>
        <line id="Line_8" data-name="Line 8" y2="869.419" transform="translate(23002.127 3736.908)" fill="none" stroke="#707070" stroke-width="100"/>
        <line id="Line_9" data-name="Line 9" y2="869.419" transform="translate(23500.826 3736.908)" fill="none" stroke="#707070" stroke-width="100"/>
      </g>
      <path id="Path_28" data-name="Path 28" d="M-518.917-47.891q0,76.912-27.7,134.067t-77.442,87.849q-49.741,30.695-114.657,30.7t-115.016-30.694q-50.1-30.694-77.971-87.849T-959.574-47.891V-70.118q0-76.912,27.872-134.244t77.618-88.026q49.746-30.694,114.663-30.694t114.839,30.694q49.922,30.694,77.794,88.026t27.872,134.244ZM-631.11-70.823q0-78.324-28.225-119.779t-80.088-41.455q-52.216,0-80.088,41.279t-27.87,119.955V-47.89q0,77.971,28.225,119.955t80.44,41.984q51.863,0,79.735-41.984T-631.11-47.891ZM-80.375,108.4v89.261H-473.757v-63.5l250.847-360.57h-251.2v-89.613H-84.962v61.742L-334.4,108.4ZM375.1-226.412H218.454V197.664H108.024V-226.412H-46.153v-89.613H375.1ZM1007.69,25.493q-3.528,52.921-29.107,93.494T907.136,182.14q-45.865,22.58-107.607,22.58-65.975,0-114.31-30.165T611.306,88.47Q585.727,32.55,585.727-43.3V-74.7q0-75.5,26.461-131.774t74.8-86.615q48.335-30.341,112.9-30.342,63.153,0,108.312,23.285t70.032,64.388q24.873,41.1,29.812,95.082H897.61Q894.435-187.247,872.031-210t-72.149-22.756q-51.863,0-76.912,38.1T697.921-75.41V-43.3q0,54.685,10.231,89.084t32.458,51.33q22.227,16.935,58.919,16.935,47.629,0,71.091-21.7t26.637-66.857ZM1379.2,103.464q0,32.458,3.881,52.568a137.814,137.814,0,0,0,11.643,35.634v6h-106.9q-7.056-13.76-10.231-34.222-36.339,41.279-95.611,41.279-35.986,0-65.622-14.818T1069.6,148.976q-17.111-26.108-17.111-58.919,0-60.33,44.807-92.965t131.95-32.635h43.4V-57.064q0-26.461-13.407-41.1t-40.22-14.642q-24.344,0-37.927,11.466t-13.583,32.635H1060.96a103.035,103.035,0,0,1,20.286-62.094q20.287-27.872,57.508-44.1t85.909-16.229q45.159,0,80.088,15.171t54.685,45.512q19.757,30.342,19.757,74.09Zm-173.229,20.463q23.286,0,40.926-10.055t25.755-24.52V25.493h-40.573q-37.045,0-55.215,16.053t-18.17,41.808q0,17.993,12.878,29.283t34.39,11.29ZM1643.1-191.131a129.9,129.9,0,0,1,17.288,1.235,92.8,92.8,0,0,1,14.818,3l-1.411,103.02a277.734,277.734,0,0,0-37.75-2.822q-57.155,0-74.443,37.751V197.664H1455.05V-184.075h100.2l3.175,46.218q14.112-25.755,35.81-39.515t48.855-13.759ZM2052-344.25V197.664h-95.964l-5.292-40.926q-37.4,47.982-96.67,47.982-46.218,0-79.911-24.873t-51.157-68.621q-17.464-43.748-17.464-99.845V3.972q0-58.213,17.464-102.314t51.157-68.445q33.693-24.344,80.617-24.344,54.333,0,90.672,41.279v-194.4ZM1881.24,118.635q44.807,0,64.211-38.1V-66.942q-18.346-38.1-63.505-38.1-36.339,0-53.1,29.636T1812.09,3.972v7.409q0,49.04,16.406,78.147T1881.24,118.635Z" transform="translate(11217.574 11682.762)" fill="#666"/>
      <g id="arrow">
        <line id="Line_21" data-name="Line 21" x2="1826" transform="translate(6994.5 8894.5)" fill="none" stroke="#707070" stroke-width="100"/>
        <g id="Polygon_1" data-name="Polygon 1" transform="translate(9511 8495.5) rotate(90)">
          <path id="Path_3" data-name="Path 3" d="M398.5,0,797,691H0Z" fill="none"/>
          <path id="Path_4" data-name="Path 4" d="M398.5,200.169,173.108,591H623.892L398.5,200.169M398.5,0,797,691H0Z" fill="#707070"/>
        </g>
      </g>
    </g>
  </g>
</svg>
