<svg xmlns="http://www.w3.org/2000/svg" width="21425" height="5866.752" viewBox="0 0 21425 5866.752">
  <g id="FlashX_To_FlashDapp" transform="translate(-1231 -6172)">
    <rect id="Rectangle_20" data-name="Rectangle 20" width="21280" height="5704" transform="translate(1231 6172)" fill="none"/>
    <g id="arrow" transform="translate(1956 -61.5)">
      <line id="Line_21" data-name="Line 21" x2="2574.47" transform="translate(4071.5 8956.5)" fill="none" stroke="#707070" stroke-width="100"/>
      <g id="Polygon_1" data-name="Polygon 1" transform="translate(7330.146 8557.5) rotate(90)">
        <path id="Path_1" data-name="Path 1" d="M398.5,0,797,726.21H0Z" fill="none"/>
        <path id="Path_2" data-name="Path 2" d="M398.5,207.87,168.94,626.21H628.06L398.5,207.87M398.5,0,797,726.21H0Z" fill="#707070"/>
      </g>
    </g>
    <g id="Flash_Dapp" data-name="Flash Dapp" transform="translate(1638 6624)">
      <g id="Group_27" data-name="Group 27">
        <path id="Path_16" data-name="Path 16" d="M2870,2705V4133c0,197.17-159.83,357-357,357H407c-197.17,0-357-159.83-357-357V407C50,209.83,209.83,50,407,50H2513c197.17,0,357,159.83,357,357v825" fill="none" stroke="#707070" stroke-width="100"/>
        <path id="Path_17" data-name="Path 17" d="M2731,2705" fill="none" stroke="#707070" stroke-width="100"/>
        <path id="Path_18" data-name="Path 18" d="M2731,2705V3843a41,41,0,0,1-41,41H231a41,41,0,0,1-41-41V481a41,41,0,0,1,41-41H2690a41,41,0,0,1,41,41v751" fill="none" stroke="#707070" stroke-width="100"/>
        <ellipse id="Ellipse_1" data-name="Ellipse 1" cx="161" cy="162" rx="161" ry="162" transform="translate(1299 4064)" fill="none" stroke="#707070" stroke-width="50"/>
        <path id="Rectangle_3" data-name="Rectangle 3" d="M1059,166h805a47,47,0,0,1,47,47h0a47,47,0,0,1-47,47H1059a47,47,0,0,1-47-47h0a47,47,0,0,1,47-47Z" fill="none" stroke="#707070" stroke-width="50"/>
      </g>
      <g id="Group_29" data-name="Group 29">
        <g id="Rectangle_8" data-name="Rectangle 8">
          <path id="Path_19" data-name="Path 19" d="M3984,1182H1757a138,138,0,0,0-138,138.006V2617a138,138,0,0,0,138.006,138H3984a138,138,0,0,0,138-138.006V1320a138,138,0,0,0-138.006-138Z" fill="none"/>
          <path id="Path_20" data-name="Path 20" d="M2981.2,2705H1757a88,88,0,0,1-88-88V1320a88,88,0,0,1,88-88H2942.88" fill="none" stroke="#707070" stroke-width="100"/>
          <path id="Path_21" data-name="Path 21" d="M2870,1232" fill="none" stroke="#707070" stroke-width="100"/>
          <path id="Path_22" data-name="Path 22" d="M2870,1232H3984a88,88,0,0,1,88,88V2617a88,88,0,0,1-88,88H2870" fill="none" stroke="#707070" stroke-width="100"/>
        </g>
        <g id="Rectangle_9" data-name="Rectangle 9">
          <rect id="Rectangle_21" data-name="Rectangle 21" width="372" height="290" rx="90" transform="translate(1893 1736)" fill="none"/>
          <rect id="Rectangle_22" data-name="Rectangle 22" width="352" height="270" rx="80" transform="translate(1903 1746)" fill="none" stroke="#707070" stroke-width="20"/>
        </g>
        <g id="Rectangle_10" data-name="Rectangle 10">
          <rect id="Rectangle_23" data-name="Rectangle 23" width="638" height="447" transform="translate(3313 2091)" fill="none"/>
          <rect id="Rectangle_24" data-name="Rectangle 24" width="618" height="427" transform="translate(3323 2101)" fill="none" stroke="#707070" stroke-width="20"/>
        </g>
        <g id="Rectangle_11" data-name="Rectangle 11">
          <rect id="Rectangle_25" data-name="Rectangle 25" width="512" height="333" transform="translate(3376 2148)" fill="none"/>
          <rect id="Rectangle_26" data-name="Rectangle 26" width="492" height="313" transform="translate(3386 2158)" fill="none" stroke="#707070" stroke-width="20"/>
        </g>
        <g id="Path_14" data-name="Path 14">
          <path id="Path_23" data-name="Path 23" d="M3313.48,1581.62h637.792v444.5H3313.48Z" fill="none"/>
          <path id="Path_24" data-name="Path 24" d="M3333.48,1601.62v404.5h597.792v-404.5Zm-20-20h637.792v444.5H3313.48Z" fill="#707070"/>
        </g>
        <path id="Path_15" data-name="Path 15" d="M1862.6,2590.35q-22.5,0-36.045-14.831t-13.541-38.587q0-25.531,13.8-40.731t37.558-15.2q21.915,0,35.307,14.758t13.393,38.591q0,25.9-13.725,40.952T1862.6,2590.35Zm.885-98.138q-16.675,0-27.08,12.027t-10.4,31.581q0,19.554,10.146,31.47t26.453,11.917q17.415,0,27.449-11.363t10.035-31.8q0-20.957-9.74-32.393t-26.868-11.431Zm135.77-6.493-61.982,91.644h60.506v11.216h-79.027v-3.468l61.462-91.128H1923.7v-11.216h75.559Zm82.569,8.264h-30.549v94.6h-12.4v-94.6H2008.4v-11.216h73.419Zm81.609,90.169q-11.732,6.2-29.22,6.2-22.579,0-36.156-14.536t-13.577-38.148q0-25.383,15.274-41.026T2138.49,2481q15.052,0,24.94,4.353v13.208a50.578,50.578,0,0,0-25.088-6.346q-18.227,0-29.552,12.175t-11.327,32.543q0,19.332,10.589,30.806t27.781,11.474q15.938,0,27.6-7.084Zm103.451,4.427h-13.726l-11.216-29.663H2197.08l-10.552,29.663h-13.8l40.586-105.812h12.839Zm-29-40.8-16.6-45.084a43.2,43.2,0,0,1-1.623-7.084h-.3a39.451,39.451,0,0,1-1.7,7.084l-16.447,45.079Zm120.422,40.8h-14.758l-17.709-29.663a64.546,64.546,0,0,0-4.722-7.047,26.894,26.894,0,0,0-4.686-4.759,16.232,16.232,0,0,0-5.165-2.693,21.242,21.242,0,0,0-6.235-.849h-10.183v45.011h-12.4V2482.77h31.581a44.951,44.951,0,0,1,12.8,1.734,28.648,28.648,0,0,1,10.185,5.276,24.5,24.5,0,0,1,6.752,8.818,29.237,29.237,0,0,1,2.435,12.359,29.735,29.735,0,0,1-1.66,10.146,26.5,26.5,0,0,1-4.722,8.227,28.627,28.627,0,0,1-7.379,6.161,37.668,37.668,0,0,1-9.7,3.948v.3a22.329,22.329,0,0,1,4.612,2.693,25.314,25.314,0,0,1,3.726,3.579,47.313,47.313,0,0,1,3.5,4.686q1.734,2.618,3.874,6.087Zm-63.458-94.6v38.37h16.824a25.512,25.512,0,0,0,8.6-1.4,19.882,19.882,0,0,0,6.825-4.021,18.237,18.237,0,0,0,4.5-6.42,21.491,21.491,0,0,0,1.623-8.522q0-8.485-5.5-13.245t-15.9-4.759Zm77.994,94.6V2482.77h29.22q55.93,0,55.931,51.578,0,24.5-15.532,39.366t-41.579,14.868Zm12.4-94.6v83.38h15.791q20.808,0,32.393-11.142t11.585-31.581q0-40.657-43.24-40.657Z" transform="translate(0 -75)" fill="#707070"/>
        <rect id="Rectangle_13" data-name="Rectangle 13" width="538" height="88" transform="translate(3363 1881)" fill="#707070"/>
        <g id="Group_26" data-name="Group 26">
          <g id="Group_2" data-name="Group 2">
            <line id="Line_10" data-name="Line 10" x1="24.744" y2="29.163" transform="translate(3378.598 1636.687)" fill="none" stroke="#707070" stroke-width="20"/>
            <line id="Line_11" data-name="Line 11" x1="28.279" y1="29.605" transform="translate(3375.063 1663.64)" fill="none" stroke="#707070" stroke-width="20"/>
          </g>
          <g id="Group_3" data-name="Group 3">
            <line id="Line_10-2" data-name="Line 10-2" x2="26.732" y2="29.163" transform="translate(3859.783 1636.687)" fill="none" stroke="#707070" stroke-width="20"/>
            <line id="Line_11-2" data-name="Line 11-2" y1="29.605" x2="30.267" transform="translate(3859.783 1663.64)" fill="none" stroke="#707070" stroke-width="20"/>
          </g>
          <rect id="Rectangle_14" data-name="Rectangle 14" width="149.997" height="30.487" transform="translate(3567.875 1649.908)" fill="#707070"/>
        </g>
        <line id="Line_12" data-name="Line 12" y2="248.325" transform="translate(1967.848 1756.873)" fill="none" stroke="#707070" stroke-width="20"/>
        <line id="Line_13" data-name="Line 13" x1="0.442" y2="36.674" transform="translate(2079.639 1968.524)" fill="none" stroke="#707070" stroke-width="20"/>
        <line id="Line_14" data-name="Line 14" y2="248.325" transform="translate(2201.149 1756.873)" fill="none" stroke="#707070" stroke-width="20"/>
        <line id="Line_15" data-name="Line 15" x1="114.883" transform="translate(1910.849 1824.919)" fill="none" stroke="#707070" stroke-width="20"/>
        <g id="Union_1" data-name="Union 1">
          <path id="Path_25" data-name="Path 25" d="M2025.67,1914.73a53.857,53.857,0,0,1,14.081-36.36,54.657,54.657,0,1,1,78.506-2.735,54.466,54.466,0,1,1-92.587,39.1Z" fill="none"/>
          <path id="Path_26" data-name="Path 26" d="M2080.33,1949a34.511,34.511,0,0,0,34.67-34.27,33.814,33.814,0,0,0-10.57-24.639l-14.1-13.481,13.124-14.43a33.979,33.979,0,0,0,8.877-22.9,34.668,34.668,0,1,0-69.336,0,33.813,33.813,0,0,0,10.572,24.639l14.1,13.482-13.124,14.43a33.977,33.977,0,0,0-8.876,22.9A34.511,34.511,0,0,0,2080.33,1949Zm0,20a54.471,54.471,0,0,1-54.666-54.274,53.854,53.854,0,0,1,14.08-36.359,54.658,54.658,0,1,1,78.506-2.734,53.928,53.928,0,0,1,16.75,39.1A54.471,54.471,0,0,1,2080.33,1969Z" fill="#707070"/>
        </g>
        <line id="Line_17" data-name="Line 17" x1="0.442" y2="36.674" transform="translate(2079.639 1748.036)" fill="none" stroke="#707070" stroke-width="20"/>
        <line id="Line_18" data-name="Line 18" x1="124.604" transform="translate(2122.057 1824.919)" fill="none" stroke="#707070" stroke-width="20"/>
        <line id="Line_19" data-name="Line 19" x1="114.883" transform="translate(1908.639 1925.663)" fill="none" stroke="#707070" stroke-width="20"/>
        <line id="Line_20" data-name="Line 20" x1="124.604" transform="translate(2122.057 1925.663)" fill="none" stroke="#707070" stroke-width="20"/>
        <g id="fingerprint">
          <g id="Group_31" data-name="Group 31">
            <g id="Calque_2" data-name="Calque 2">
              <path id="Path_13" data-name="Path 13" d="M3593.71,2321.88c2.163,5.525,9.16,8.727,16.008,7.326a668.052,668.052,0,0,1,178.573-6.769c6.91.973,13.523-2.708,14.994-8.346a5.8,5.8,0,0,0,0-1.391c-.524-4.932-5.278-8.842-11.274-9.273a702.173,702.173,0,0,0-188.268,6.677,12.632,12.632,0,0,0-8.088,4.118,8.551,8.551,0,0,0-1.945,7.659Zm74.856,22.719c1.154,5.647,7.525,9.536,14.43,8.81a574.867,574.867,0,0,1,102.138,1.855c6.913,1.034,13.584-2.61,15.106-8.253a5.941,5.941,0,0,0,0-1.484c-.524-4.932-5.278-8.842-11.274-9.273a612.215,612.215,0,0,0-108.564-1.947c-6.7.2-11.967,4.78-11.839,10.292Zm-117.7-15.394c3.8,11.338,13.089,20.894,25.7,26.429a75.042,75.042,0,0,0,43.4,5.378c7.328-1.3,14.543-2.411,21.871-3.338a12.825,12.825,0,0,0,8.192-3.868,8.638,8.638,0,0,0,2.292-7.538c-1.724-5.622-8.555-9.108-15.445-7.882-7.666,1.02-15.332,2.226-22.547,3.524a40.277,40.277,0,0,1-23.336-2.875c-6.8-3-11.817-8.159-13.866-14.281a19.714,19.714,0,0,1,4.425-17.806c4.4-5.179,11.2-8.635,18.8-9.55a716.281,716.281,0,0,1,182.518-8.16c6.923.8,13.4-2.984,14.768-8.624v-1.205c-.56-5.1-5.623-9.061-11.837-9.273a753.867,753.867,0,0,0-191.65,8.531c-14.048,1.7-26.641,8.078-34.819,17.631s-11.242,21.447-8.465,32.908Zm9.47,33.94c-5.881-3.328-13.837-2.618-18.714,1.669a8.2,8.2,0,0,0-2.612,7.279,9.25,9.25,0,0,0,4.868,6.446,103.525,103.525,0,0,0,9.244,4.822c23.428,10.623,50.736,13.917,76.885,9.273a544.621,544.621,0,0,1,144.752-5.289c6.918.869,13.473-2.819,14.994-8.439v-1.3c-.3-5.1-5.1-9.238-11.274-9.737A581.445,581.445,0,0,0,3623.8,2373.9a97.574,97.574,0,0,1-56.368-7.048,49.916,49.916,0,0,1-7.441-3.709Zm121.417-117.862c.769,5.687,6.942,9.815,13.866,9.273,24.387-.931,48.819-.652,73.165.835,7.054.654,13.436-3.479,14.317-9.273v-.835c-.679-5.193-5.94-9.163-12.288-9.273q-38.213-2.229-76.547-.835c-6.826,0-12.392,4.5-12.514,10.109Zm-18.15,2.411a4.327,4.327,0,0,0,0-1.206c-1.366-5.63-7.867-9.385-14.768-8.531-21.645,1.947-43.516,4.915-64.936,8.531-44.094,6.207-76.956,36.868-78.915,73.63a54.124,54.124,0,0,0,2.593,16.414,58.992,58.992,0,0,0,5.75,12.982c3.383,5.124,10.921,7.324,17.474,5.1a10.825,10.825,0,0,0,7.04-5.145,7.8,7.8,0,0,0-.163-7.745,44.9,44.9,0,0,1-4.284-9.273,39.162,39.162,0,0,1-1.8-11.962c1.371-27.172,25.6-49.879,58.171-54.526a595.188,595.188,0,0,1,62.568-8.439c6.213-.5,11.023-4.7,11.274-9.83Zm-90.193-33.012c-25.665,4.346-49.5,14.163-69.1,28.468a8.245,8.245,0,0,0,0,13.91,17.128,17.128,0,0,0,18.94.464c16-11.668,35.43-19.691,56.36-23.279a864.17,864.17,0,0,1,161.551-12.612c7.092.566,13.5-3.49,14.656-9.273h0c-.406-5.815-6.212-10.388-13.3-10.475a899.906,899.906,0,0,0-169.1,12.8Zm108.9,195.85a6.557,6.557,0,0,0,0-1.484c-1.573-5.614-8.206-9.237-15.107-8.253q-16.909,1.808-33.821,4.729c-30.711,5.33-62.729,1.379-90.188-11.128-26.183-11.478-45.439-31.344-53.211-54.9-6.114-19.994-2.6-41.157,9.808-59.07a7.839,7.839,0,0,0,.949-7.563,10.241,10.241,0,0,0-6.247-5.6c-6.426-2.43-14.045-.565-17.812,4.358-15.211,21.924-19.533,47.842-12.056,72.329,9.623,28.749,33.127,53.007,65.048,67.138,33.535,15.181,72.594,19.921,110.03,13.353,10.6-1.762,21.081-3.246,31.34-4.358,6.114-.45,10.907-4.511,11.273-9.551Zm20.292-2.967h0c0,5.121,5.047,9.273,11.274,9.273,14.139-.4,28.295-.085,42.389.927,6.9.833,13.331-3.052,14.43-8.717a3.1,3.1,0,0,0,0-1.02,8.4,8.4,0,0,0-3.1-6.859,12.558,12.558,0,0,0-8.178-2.878,459.04,459.04,0,0,0-46.785-1.02,12.1,12.1,0,0,0-7.622,3.423,8.161,8.161,0,0,0-2.4,6.87Z" fill="#707070"/>
            </g>
          </g>
        </g>
      </g>
    </g>
    <g id="Flash" transform="translate(-9959 5746)">
      <g id="Rectangle_4" data-name="Rectangle 4" transform="translate(19370 1605)" fill="none" stroke="#707070" stroke-width="100">
        <rect width="4684" height="955" rx="237" stroke="none"/>
        <rect x="50" y="50" width="4584" height="855" rx="187" fill="none"/>
      </g>
      <line id="Line_1" data-name="Line 1" x2="937.037" transform="translate(19838.518 2082.94)" fill="none" stroke="#707070" stroke-width="100"/>
      <g id="Ellipse_2" data-name="Ellipse 2" transform="translate(21057 1992)" fill="#707070" stroke="#707070" stroke-width="1">
        <ellipse cx="93.5" cy="90.5" rx="93.5" ry="90.5" stroke="none"/>
        <ellipse cx="93.5" cy="90.5" rx="93" ry="90" fill="none"/>
      </g>
      <g id="Ellipse_3" data-name="Ellipse 3" transform="translate(21525 1992)" fill="#707070" stroke="#707070" stroke-width="1">
        <ellipse cx="94.5" cy="90.5" rx="94.5" ry="90.5" stroke="none"/>
        <ellipse cx="94.5" cy="90.5" rx="94" ry="90" fill="none"/>
      </g>
      <line id="Line_2" data-name="Line 2" y2="869.419" transform="translate(22999.904 1605.48)" fill="none" stroke="#707070" stroke-width="100"/>
      <line id="Line_3" data-name="Line 3" y2="869.419" transform="translate(23498.602 1605.48)" fill="none" stroke="#707070" stroke-width="100"/>
      <g id="Rectangle_5" data-name="Rectangle 5" transform="translate(19371 2672)" fill="none" stroke="#707070" stroke-width="100">
        <rect width="4683" height="955" rx="237" stroke="none"/>
        <rect x="50" y="50" width="4583" height="855" rx="187" fill="none"/>
      </g>
      <line id="Line_4" data-name="Line 4" x2="937.037" transform="translate(19839.629 3148.655)" fill="none" stroke="#707070" stroke-width="100"/>
      <g id="Ellipse_4" data-name="Ellipse 4" transform="translate(21057 3058)" fill="#707070" stroke="#707070" stroke-width="1">
        <ellipse cx="94" cy="91" rx="94" ry="91" stroke="none"/>
        <ellipse cx="94" cy="91" rx="93.5" ry="90.5" fill="none"/>
      </g>
      <g id="Ellipse_5" data-name="Ellipse 5" transform="translate(21527 3058)" fill="#707070" stroke="#707070" stroke-width="1">
        <ellipse cx="93.5" cy="91" rx="93.5" ry="91" stroke="none"/>
        <ellipse cx="93.5" cy="91" rx="93" ry="90.5" fill="none"/>
      </g>
      <line id="Line_5" data-name="Line 5" y2="869.419" transform="translate(23001.018 2671.194)" fill="none" stroke="#707070" stroke-width="100"/>
      <line id="Line_6" data-name="Line 6" y2="869.419" transform="translate(23499.713 2671.194)" fill="none" stroke="#707070" stroke-width="100"/>
      <g id="Rectangle_6" data-name="Rectangle 6" transform="translate(19371 3736)" fill="none" stroke="#707070" stroke-width="100">
        <rect width="4686" height="955" rx="237" stroke="none"/>
        <rect x="50" y="50" width="4586" height="855" rx="187" fill="none"/>
      </g>
      <line id="Line_7" data-name="Line 7" x2="937.037" transform="translate(19840.742 4214.368)" fill="none" stroke="#707070" stroke-width="100"/>
      <g id="Ellipse_6" data-name="Ellipse 6" transform="translate(21059 4124)" fill="#707070" stroke="#707070" stroke-width="1">
        <ellipse cx="94.5" cy="90" rx="94.5" ry="90" stroke="none"/>
        <ellipse cx="94.5" cy="90" rx="94" ry="89.5" fill="none"/>
      </g>
      <g id="Ellipse_7" data-name="Ellipse 7" transform="translate(21527 4124)" fill="#707070" stroke="#707070" stroke-width="1">
        <ellipse cx="94.5" cy="90" rx="94.5" ry="90" stroke="none"/>
        <ellipse cx="94.5" cy="90" rx="94" ry="89.5" fill="none"/>
      </g>
      <line id="Line_8" data-name="Line 8" y2="869.419" transform="translate(23002.127 3736.908)" fill="none" stroke="#707070" stroke-width="100"/>
      <line id="Line_9" data-name="Line 9" y2="869.419" transform="translate(23500.826 3736.908)" fill="none" stroke="#707070" stroke-width="100"/>
    </g>
    <g id="arrow-2" data-name="arrow" transform="translate(10421.745 -61.5)">
      <line id="Line_21-2" data-name="Line 21" x2="2580.44" transform="translate(4071.5 8956.5)" fill="none" stroke="#707070" stroke-width="100"/>
      <g id="Polygon_1-2" data-name="Polygon 1" transform="translate(7290.434 8557.5) rotate(90)">
        <path id="Path_3" data-name="Path 3" d="M398.5,0,797,727.894H0Z" fill="none"/>
        <path id="Path_4" data-name="Path 4" d="M398.5,208.241,168.752,627.894h459.5L398.5,208.241M398.5,0,797,727.894H0Z" fill="#707070"/>
      </g>
    </g>
    <path id="Path_38" data-name="Path 38" d="M-1019.58-226.743v126.655h176.39V-11.43h-176.387V196.143h-96.659V-316.1H-821.95v89.362Zm248.111,422.886V-344.25H-678.2V196.143Zm435.58-93.936q0,32.367,3.386,52.421a151.561,151.561,0,0,0,10.158,35.534v5.981h-93.273q-6.157-13.721-8.927-34.126-31.707,41.163-83.422,41.163-31.4,0-57.256-14.776a108.066,108.066,0,0,1-40.788-40.811q-14.93-26.035-14.93-58.754,0-60.161,39.094-92.7T-466.718-36.4h37.863V-57.87q0-26.386-11.7-40.987t-35.093-14.6q-21.24,0-33.092,11.434T-520.583-69.48h-92.965q0-34.126,17.7-61.92t50.176-43.977q32.476-16.184,74.957-16.184,39.4,0,69.878,15.128t47.714,45.385q17.238,30.256,17.238,73.882ZM-487.03,122.613q20.317,0,35.708-10.027t22.472-24.451V24.456h-35.4q-32.322,0-48.175,16.008t-15.853,41.691q0,17.943,11.236,29.2T-487.03,122.613Zm328.455-78.807Q-276.782,14.957-276.782-72.646A113.91,113.91,0,0,1-260.621-132.1q16.161-27.09,46.636-43.274t71.109-16.184q42.788,0,74.8,15.656t49.253,43.626Q-1.581-104.31-1.582-68.424H-94.546q0-22.868-12-35.71t-36.632-12.841q-20.317,0-32.476,10.906t-12.159,28.145q0,16.536,13.7,26.738t46.636,17.239q39.4,8.444,66.8,21.989t43.558,37.469Q-.966,49.435-.966,86.376q0,33.423-17.392,59.985t-49.561,41.691q-32.168,15.128-74.649,15.128-44.943,0-77.727-18.822t-49.869-48.375q-17.085-29.553-17.085-61.568h87.732q.923,27.442,17.239,40.635t41.865,13.193q23.7,0,36.478-10.379t12.775-27.97q0-10.906-5.695-18.47t-20.317-14.249q-14.622-6.684-41.4-13.369ZM232.677-191.561q52.331,0,81.421,35.534T343.188-42.39V196.143H250.224V-43.093q0-34.478-12.775-48.551t-38.941-14.073q-37.247,0-53.562,30.96v270.9H51.981V-344.25h92.965v200.537q16.623-23.22,38.941-35.534a99.332,99.332,0,0,1,48.79-12.314ZM710.122-316.1q60.027,0,106.663,30.784t72.8,86.547q26.166,55.763,26.166,127.534v22.516q0,72.123-26.166,127.71t-72.956,86.371q-46.79,30.784-107.125,30.784H570.367V-316.1ZM817.555-71.942q0-75.993-27.4-115.4t-80.036-39.4h-43.1V107.133H709.5q52.639,0,80.344-39.931t27.7-115.924Zm428.192,174.15q0,32.367,3.386,52.421a151.556,151.556,0,0,0,10.158,35.534v5.981h-93.273q-6.157-13.721-8.927-34.126-31.707,41.163-83.422,41.163-31.4,0-57.256-14.776a108.066,108.066,0,0,1-40.788-40.811Q960.7,121.558,960.7,88.839q0-60.161,39.094-92.7T1114.923-36.4h37.863V-57.87q0-26.386-11.7-40.987t-35.093-14.6q-21.24,0-33.092,11.434T1061.05-69.48H968.084q0-34.126,17.7-61.92t50.176-43.977q32.476-16.184,74.957-16.184,39.4,0,69.877,15.128t47.714,45.385q17.238,30.256,17.238,73.882ZM1094.6,122.613q20.317,0,35.708-10.027t22.472-24.451V24.456h-35.4q-32.322,0-48.175,16.008t-15.853,41.691q0,17.943,11.236,29.2T1094.6,122.613Zm389.405-314.174q41.557,0,70.8,23.924t44.174,67.373q14.93,43.45,14.93,101.851V8.976q0,55.939-15.084,100.092T1554.66,178.2q-29.09,24.979-70.031,24.979-48.637,0-79.728-40.107V342.5H1311.93V-184.524h86.193l3.386,36.589q31.4-43.626,82.5-43.626ZM1521.26,1.588q0-49.255-14.776-78.28T1460-105.717q-40.326,0-55.1,35.182V81.1q15.391,36.589,55.717,36.589,31.707,0,46.175-29.9T1521.26,8.982ZM1838.941-191.56q41.557,0,70.8,23.924t44.174,67.373q14.93,43.45,14.93,101.851V8.976q0,55.939-15.084,100.092T1909.58,178.2q-29.09,24.979-70.031,24.979-48.637,0-79.728-40.107V342.5h-92.965V-184.524h86.192l3.386,36.589q31.406-43.626,82.506-43.626ZM1876.18,1.588q0-49.255-14.776-78.28t-46.482-29.025q-40.326,0-55.1,35.182V81.1q15.391,36.589,55.717,36.589,31.707,0,46.175-29.9t14.468-78.807Z" transform="translate(3297.234 11696.25)" fill="#666"/>
    <path id="Path_39" data-name="Path 39" d="M-432.155-196.837V-37.949h176.387V73.273H-432.155v260.4h-96.659V-308.941h294.286v112.1Zm248.111,530.51V-344.25h93.273V333.673Zm435.58-117.842q0,40.6,3.386,65.762A228.31,228.31,0,0,0,265.08,326.17v7.5H171.808q-6.157-17.213-8.927-42.812Q131.174,342.5,79.459,342.5A96.043,96.043,0,0,1,22.2,323.963q-25.858-18.537-40.788-51.2t-14.93-73.706q0-75.472,39.094-116.3t115.132-40.82h37.863V15.014q0-33.1-11.7-51.418T111.781-54.72q-21.24,0-33.092,14.344T66.838.449H-26.127q0-42.812,17.7-77.679A136.72,136.72,0,0,1,41.75-132.4q32.476-20.3,74.957-20.3,39.4,0,69.877,18.978T234.3-76.788Q251.536-38.832,251.536,15.9Zm-151.145,25.6a54.769,54.769,0,0,0,35.709-12.58,73.79,73.79,0,0,0,22.472-30.674V118.291h-35.4q-32.322,0-48.175,20.082t-15.853,52.3q0,22.509,11.236,36.633t30.011,14.123Zm328.455-98.864Q310.64,106.375,310.64-3.523q0-40.6,16.161-74.589A131.982,131.982,0,0,1,373.437-132.4q30.475-20.3,71.109-20.3,42.788,0,74.8,19.64T568.6-78.333q17.24,35.088,17.24,80.106H492.875q0-28.688-12.005-44.8T444.238-59.134q-20.317,0-32.476,13.682T399.6-10.143q0,20.744,13.7,33.543t46.636,21.626q39.4,10.593,66.8,27.585t43.558,47q16.161,30.012,16.161,76.355,0,41.929-17.392,75.251a128.635,128.635,0,0,1-49.561,52.3Q487.334,342.5,444.854,342.5q-44.943,0-77.727-23.613A151.785,151.785,0,0,1,317.258,258.2a182.511,182.511,0,0,1-17.085-77.237H387.9q.923,34.426,17.238,50.977T447,248.491q23.7,0,36.478-13.02t12.775-35.088q0-13.682-5.7-23.171T470.25,159.337q-14.622-8.386-41.4-16.771ZM820.1-152.7q52.331,0,81.421,44.577T930.61,34.433v299.24H837.645V33.551q0-43.253-12.775-60.907T785.93-45.011q-37.247,0-53.562,38.839V333.673H639.4V-344.25h92.965V-92.677q16.623-29.129,38.941-44.577A83.94,83.94,0,0,1,820.1-152.7Z" transform="translate(11553.813 11696.25)" fill="#666"/>
    <path id="Path_40" data-name="Path 40" d="M-584.227-196.837V-37.949h165.538V73.273H-584.227v260.4h-90.714V-308.941h276.186v112.1Zm232.851,530.51V-344.25h87.536V333.673ZM57.414,215.831q0,40.6,3.178,65.762a241.03,241.03,0,0,0,9.534,44.577v7.5H-17.41q-5.778-17.213-8.378-42.812Q-55.545,342.5-104.08,342.5q-29.468,0-53.735-18.537t-38.279-51.2q-14.012-32.66-14.012-73.706,0-75.472,36.69-116.3t108.049-40.82h35.534V15.014q0-33.1-10.978-51.418T-73.745-54.72q-19.934,0-31.056,14.344T-115.924.449h-87.247q0-42.812,16.612-77.679t47.09-55.169q30.479-20.3,70.346-20.3,36.979,0,65.58,18.978T41.236-76.788Q57.414-38.832,57.414,15.9Zm-141.849,25.6a49.481,49.481,0,0,0,33.512-12.579,73.718,73.718,0,0,0,21.09-30.674V118.291H-63.056q-30.334,0-45.212,20.082t-14.878,52.3q0,22.509,10.545,36.633t28.166,14.123Zm308.253-98.864Q112.882,106.375,112.882-3.523q0-40.6,15.167-74.589T171.817-132.4q28.6-20.3,66.735-20.3,40.157,0,70.2,19.64t46.224,54.728q16.178,35.088,16.178,80.106H283.91q0-28.688-11.267-44.8T238.264-59.134q-19.067,0-30.479,13.682T196.374-10.143q0,20.744,12.856,33.543T253,45.026q36.979,10.593,62.691,27.585t40.879,47q15.167,30.012,15.167,76.355,0,41.929-16.323,75.251t-46.512,52.3Q278.709,342.5,238.842,342.5q-42.179,0-72.947-23.613t-46.8-60.686a192.6,192.6,0,0,1-16.034-77.237H185.4q.867,34.426,16.178,50.977t39.29,16.551q22.245,0,34.234-13.02t11.989-35.088q0-13.682-5.345-23.171t-19.067-17.875q-13.726-8.387-38.86-16.772ZM591.007-152.7q49.113,0,76.413,44.577t27.3,142.558V333.673H607.475V33.551q0-43.253-11.989-60.907T558.94-45.011q-34.957,0-50.268,38.839V333.673H421.425V-344.25h87.247V-92.677q15.6-29.129,36.546-44.577T591.007-152.7Zm398.1-156.24h103.714L971.774,9.718,1096,333.673H991.13L912.839,111.229,834.548,333.673H729.678L853.9,9.718,732.856-308.941h104L912.839-90.47Z" transform="translate(20101.941 11696.25)" fill="#666"/>
    <g id="Flash_X" data-name="Flash X" transform="translate(-1401 5746)">
      <g id="Rectangle_4-2" data-name="Rectangle 4" transform="translate(19370 1605)" fill="none" stroke="#707070" stroke-width="100">
        <rect width="4684" height="955" rx="237" stroke="none"/>
        <rect x="50" y="50" width="4584" height="855" rx="187" fill="none"/>
      </g>
      <line id="Line_1-2" data-name="Line 1" x2="937.037" transform="translate(19838.518 2082.94)" fill="none" stroke="#707070" stroke-width="100"/>
      <g id="Ellipse_2-2" data-name="Ellipse 2" transform="translate(21057 1992)" fill="#707070" stroke="#707070" stroke-width="1">
        <ellipse cx="93.5" cy="90.5" rx="93.5" ry="90.5" stroke="none"/>
        <ellipse cx="93.5" cy="90.5" rx="93" ry="90" fill="none"/>
      </g>
      <g id="Ellipse_3-2" data-name="Ellipse 3" transform="translate(21525 1992)" fill="#707070" stroke="#707070" stroke-width="1">
        <ellipse cx="94.5" cy="90.5" rx="94.5" ry="90.5" stroke="none"/>
        <ellipse cx="94.5" cy="90.5" rx="94" ry="90" fill="none"/>
      </g>
      <line id="Line_2-2" data-name="Line 2" y2="869.419" transform="translate(22999.904 1605.48)" fill="none" stroke="#707070" stroke-width="100"/>
      <line id="Line_3-2" data-name="Line 3" y2="869.419" transform="translate(23498.602 1605.48)" fill="none" stroke="#707070" stroke-width="100"/>
      <g id="Rectangle_5-2" data-name="Rectangle 5" transform="translate(19371 2672)" fill="none" stroke="#707070" stroke-width="100">
        <rect width="4683" height="955" rx="237" stroke="none"/>
        <rect x="50" y="50" width="4583" height="855" rx="187" fill="none"/>
      </g>
      <line id="Line_4-2" data-name="Line 4" x2="937.037" transform="translate(19839.629 3148.655)" fill="none" stroke="#707070" stroke-width="100"/>
      <g id="Ellipse_4-2" data-name="Ellipse 4" transform="translate(21057 3058)" fill="#707070" stroke="#707070" stroke-width="1">
        <ellipse cx="94" cy="91" rx="94" ry="91" stroke="none"/>
        <ellipse cx="94" cy="91" rx="93.5" ry="90.5" fill="none"/>
      </g>
      <g id="Ellipse_5-2" data-name="Ellipse 5" transform="translate(21527 3058)" fill="#707070" stroke="#707070" stroke-width="1">
        <ellipse cx="93.5" cy="91" rx="93.5" ry="91" stroke="none"/>
        <ellipse cx="93.5" cy="91" rx="93" ry="90.5" fill="none"/>
      </g>
      <line id="Line_5-2" data-name="Line 5" y2="869.419" transform="translate(23001.018 2671.194)" fill="none" stroke="#707070" stroke-width="100"/>
      <line id="Line_6-2" data-name="Line 6" y2="869.419" transform="translate(23499.713 2671.194)" fill="none" stroke="#707070" stroke-width="100"/>
      <g id="Rectangle_6-2" data-name="Rectangle 6" transform="translate(19371 3736)" fill="none" stroke="#707070" stroke-width="100">
        <rect width="4686" height="955" rx="237" stroke="none"/>
        <rect x="50" y="50" width="4586" height="855" rx="187" fill="none"/>
      </g>
      <line id="Line_7-2" data-name="Line 7" x2="937.037" transform="translate(19840.742 4214.368)" fill="none" stroke="#707070" stroke-width="100"/>
      <g id="Ellipse_6-2" data-name="Ellipse 6" transform="translate(21059 4124)" fill="#707070" stroke="#707070" stroke-width="1">
        <ellipse cx="94.5" cy="90" rx="94.5" ry="90" stroke="none"/>
        <ellipse cx="94.5" cy="90" rx="94" ry="89.5" fill="none"/>
      </g>
      <g id="Ellipse_7-2" data-name="Ellipse 7" transform="translate(21527 4124)" fill="#707070" stroke="#707070" stroke-width="1">
        <ellipse cx="94.5" cy="90" rx="94.5" ry="90" stroke="none"/>
        <ellipse cx="94.5" cy="90" rx="94" ry="89.5" fill="none"/>
      </g>
      <line id="Line_8-2" data-name="Line 8" y2="869.419" transform="translate(23002.127 3736.908)" fill="none" stroke="#707070" stroke-width="100"/>
      <line id="Line_9-2" data-name="Line 9" y2="869.419" transform="translate(23500.826 3736.908)" fill="none" stroke="#707070" stroke-width="100"/>
    </g>
  </g>
</svg>
