<svg xmlns="http://www.w3.org/2000/svg" width="21280" height="5804.234" viewBox="0 0 21280 5804.234">
  <g id="FlashDapp_To_Flash" transform="translate(-995 -5702)">
    <rect id="Rectangle_20" data-name="Rectangle 20" width="21280" height="5704" transform="translate(995 5802)" fill="none"/>
    <g id="Group_42" data-name="Group 42" transform="translate(3764 -470)">
      <rect id="Rectangle_20-2" data-name="Rectangle 20" width="13280" height="5704" transform="translate(1231 6172)" fill="none"/>
      <g id="arrow" transform="translate(1956 -445.5)">
        <line id="Line_21" data-name="Line 21" x2="2574.47" transform="translate(4071.5 8956.5)" fill="none" stroke="#707070" stroke-width="100"/>
        <g id="Polygon_1" data-name="Polygon 1" transform="translate(7330.146 8557.5) rotate(90)">
          <path id="Path_1" data-name="Path 1" d="M398.5,0,797,726.21H0Z" fill="none"/>
          <path id="Path_2" data-name="Path 2" d="M398.5,207.87,168.94,626.21H628.06L398.5,207.87M398.5,0,797,726.21H0Z" fill="#707070"/>
        </g>
      </g>
      <g id="Flash_Dapp" data-name="Flash Dapp" transform="translate(1772 6240)">
        <g id="Group_27" data-name="Group 27">
          <path id="Path_16" data-name="Path 16" d="M2870,2705V4133c0,197.17-159.83,357-357,357H407c-197.17,0-357-159.83-357-357V407C50,209.83,209.83,50,407,50H2513c197.17,0,357,159.83,357,357v825" fill="none" stroke="#707070" stroke-width="100"/>
          <path id="Path_17" data-name="Path 17" d="M2731,2705" fill="none" stroke="#707070" stroke-width="100"/>
          <path id="Path_18" data-name="Path 18" d="M2731,2705V3843a41,41,0,0,1-41,41H231a41,41,0,0,1-41-41V481a41,41,0,0,1,41-41H2690a41,41,0,0,1,41,41v751" fill="none" stroke="#707070" stroke-width="100"/>
          <ellipse id="Ellipse_1" data-name="Ellipse 1" cx="161" cy="162" rx="161" ry="162" transform="translate(1299 4064)" fill="none" stroke="#707070" stroke-width="50"/>
          <path id="Rectangle_3" data-name="Rectangle 3" d="M1059,166h805a47,47,0,0,1,47,47h0a47,47,0,0,1-47,47H1059a47,47,0,0,1-47-47h0a47,47,0,0,1,47-47Z" fill="none" stroke="#707070" stroke-width="50"/>
        </g>
        <g id="Group_29" data-name="Group 29">
          <g id="Rectangle_8" data-name="Rectangle 8">
            <path id="Path_19" data-name="Path 19" d="M3984,1182H1757a138,138,0,0,0-138,138.006V2617a138,138,0,0,0,138.006,138H3984a138,138,0,0,0,138-138.006V1320a138,138,0,0,0-138.006-138Z" fill="none"/>
            <path id="Path_20" data-name="Path 20" d="M2981.2,2705H1757a88,88,0,0,1-88-88V1320a88,88,0,0,1,88-88H2942.88" fill="none" stroke="#707070" stroke-width="100"/>
            <path id="Path_21" data-name="Path 21" d="M2870,1232" fill="none" stroke="#707070" stroke-width="100"/>
            <path id="Path_22" data-name="Path 22" d="M2870,1232H3984a88,88,0,0,1,88,88V2617a88,88,0,0,1-88,88H2870" fill="none" stroke="#707070" stroke-width="100"/>
          </g>
          <g id="Rectangle_9" data-name="Rectangle 9">
            <rect id="Rectangle_21" data-name="Rectangle 21" width="372" height="290" rx="90" transform="translate(1893 1736)" fill="none"/>
            <rect id="Rectangle_22" data-name="Rectangle 22" width="352" height="270" rx="80" transform="translate(1903 1746)" fill="none" stroke="#707070" stroke-width="20"/>
          </g>
          <g id="Rectangle_10" data-name="Rectangle 10">
            <rect id="Rectangle_23" data-name="Rectangle 23" width="638" height="447" transform="translate(3313 2091)" fill="none"/>
            <rect id="Rectangle_24" data-name="Rectangle 24" width="618" height="427" transform="translate(3323 2101)" fill="none" stroke="#707070" stroke-width="20"/>
          </g>
          <g id="Rectangle_11" data-name="Rectangle 11">
            <rect id="Rectangle_25" data-name="Rectangle 25" width="512" height="333" transform="translate(3376 2148)" fill="none"/>
            <rect id="Rectangle_26" data-name="Rectangle 26" width="492" height="313" transform="translate(3386 2158)" fill="none" stroke="#707070" stroke-width="20"/>
          </g>
          <g id="Path_14" data-name="Path 14">
            <path id="Path_23" data-name="Path 23" d="M3313.48,1581.62h637.792v444.5H3313.48Z" fill="none"/>
            <path id="Path_24" data-name="Path 24" d="M3333.48,1601.62v404.5h597.792v-404.5Zm-20-20h637.792v444.5H3313.48Z" fill="#707070"/>
          </g>
          <path id="Path_15" data-name="Path 15" d="M1862.6,2590.35q-22.5,0-36.045-14.831t-13.541-38.587q0-25.531,13.8-40.731t37.558-15.2q21.915,0,35.307,14.758t13.393,38.591q0,25.9-13.725,40.952T1862.6,2590.35Zm.885-98.138q-16.675,0-27.08,12.027t-10.4,31.581q0,19.554,10.146,31.47t26.453,11.917q17.415,0,27.449-11.363t10.035-31.8q0-20.957-9.74-32.393t-26.868-11.431Zm135.77-6.493-61.982,91.644h60.506v11.216h-79.027v-3.468l61.462-91.128H1923.7v-11.216h75.559Zm82.569,8.264h-30.549v94.6h-12.4v-94.6H2008.4v-11.216h73.419Zm81.609,90.169q-11.732,6.2-29.22,6.2-22.579,0-36.156-14.536t-13.577-38.148q0-25.383,15.274-41.026T2138.49,2481q15.052,0,24.94,4.353v13.208a50.578,50.578,0,0,0-25.088-6.346q-18.227,0-29.552,12.175t-11.327,32.543q0,19.332,10.589,30.806t27.781,11.474q15.938,0,27.6-7.084Zm103.451,4.427h-13.726l-11.216-29.663H2197.08l-10.552,29.663h-13.8l40.586-105.812h12.839Zm-29-40.8-16.6-45.084a43.2,43.2,0,0,1-1.623-7.084h-.3a39.451,39.451,0,0,1-1.7,7.084l-16.447,45.079Zm120.422,40.8h-14.758l-17.709-29.663a64.546,64.546,0,0,0-4.722-7.047,26.894,26.894,0,0,0-4.686-4.759,16.232,16.232,0,0,0-5.165-2.693,21.242,21.242,0,0,0-6.235-.849h-10.183v45.011h-12.4V2482.77h31.581a44.951,44.951,0,0,1,12.8,1.734,28.648,28.648,0,0,1,10.185,5.276,24.5,24.5,0,0,1,6.752,8.818,29.237,29.237,0,0,1,2.435,12.359,29.735,29.735,0,0,1-1.66,10.146,26.5,26.5,0,0,1-4.722,8.227,28.627,28.627,0,0,1-7.379,6.161,37.668,37.668,0,0,1-9.7,3.948v.3a22.329,22.329,0,0,1,4.612,2.693,25.314,25.314,0,0,1,3.726,3.579,47.313,47.313,0,0,1,3.5,4.686q1.734,2.618,3.874,6.087Zm-63.458-94.6v38.37h16.824a25.512,25.512,0,0,0,8.6-1.4,19.882,19.882,0,0,0,6.825-4.021,18.237,18.237,0,0,0,4.5-6.42,21.491,21.491,0,0,0,1.623-8.522q0-8.485-5.5-13.245t-15.9-4.759Zm77.994,94.6V2482.77h29.22q55.93,0,55.931,51.578,0,24.5-15.532,39.366t-41.579,14.868Zm12.4-94.6v83.38h15.791q20.808,0,32.393-11.142t11.585-31.581q0-40.657-43.24-40.657Z" transform="translate(0 -75)" fill="#707070"/>
          <rect id="Rectangle_13" data-name="Rectangle 13" width="538" height="88" transform="translate(3363 1881)" fill="#707070"/>
          <g id="Group_26" data-name="Group 26">
            <g id="Group_2" data-name="Group 2">
              <line id="Line_10" data-name="Line 10" x1="24.744" y2="29.163" transform="translate(3378.598 1636.687)" fill="none" stroke="#707070" stroke-width="20"/>
              <line id="Line_11" data-name="Line 11" x1="28.279" y1="29.605" transform="translate(3375.063 1663.64)" fill="none" stroke="#707070" stroke-width="20"/>
            </g>
            <g id="Group_3" data-name="Group 3">
              <line id="Line_10-2" data-name="Line 10-2" x2="26.732" y2="29.163" transform="translate(3859.783 1636.687)" fill="none" stroke="#707070" stroke-width="20"/>
              <line id="Line_11-2" data-name="Line 11-2" y1="29.605" x2="30.267" transform="translate(3859.783 1663.64)" fill="none" stroke="#707070" stroke-width="20"/>
            </g>
            <rect id="Rectangle_14" data-name="Rectangle 14" width="149.997" height="30.487" transform="translate(3567.875 1649.908)" fill="#707070"/>
          </g>
          <line id="Line_12" data-name="Line 12" y2="248.325" transform="translate(1967.848 1756.873)" fill="none" stroke="#707070" stroke-width="20"/>
          <line id="Line_13" data-name="Line 13" x1="0.442" y2="36.674" transform="translate(2079.639 1968.524)" fill="none" stroke="#707070" stroke-width="20"/>
          <line id="Line_14" data-name="Line 14" y2="248.325" transform="translate(2201.149 1756.873)" fill="none" stroke="#707070" stroke-width="20"/>
          <line id="Line_15" data-name="Line 15" x1="114.883" transform="translate(1910.849 1824.919)" fill="none" stroke="#707070" stroke-width="20"/>
          <g id="Union_1" data-name="Union 1">
            <path id="Path_25" data-name="Path 25" d="M2025.67,1914.73a53.857,53.857,0,0,1,14.081-36.36,54.657,54.657,0,1,1,78.506-2.735,54.466,54.466,0,1,1-92.587,39.1Z" fill="none"/>
            <path id="Path_26" data-name="Path 26" d="M2080.33,1949a34.511,34.511,0,0,0,34.67-34.27,33.814,33.814,0,0,0-10.57-24.639l-14.1-13.481,13.124-14.43a33.979,33.979,0,0,0,8.877-22.9,34.668,34.668,0,1,0-69.336,0,33.813,33.813,0,0,0,10.572,24.639l14.1,13.482-13.124,14.43a33.977,33.977,0,0,0-8.876,22.9A34.511,34.511,0,0,0,2080.33,1949Zm0,20a54.471,54.471,0,0,1-54.666-54.274,53.854,53.854,0,0,1,14.08-36.359,54.658,54.658,0,1,1,78.506-2.734,53.928,53.928,0,0,1,16.75,39.1A54.471,54.471,0,0,1,2080.33,1969Z" fill="#707070"/>
          </g>
          <line id="Line_17" data-name="Line 17" x1="0.442" y2="36.674" transform="translate(2079.639 1748.036)" fill="none" stroke="#707070" stroke-width="20"/>
          <line id="Line_18" data-name="Line 18" x1="124.604" transform="translate(2122.057 1824.919)" fill="none" stroke="#707070" stroke-width="20"/>
          <line id="Line_19" data-name="Line 19" x1="114.883" transform="translate(1908.639 1925.663)" fill="none" stroke="#707070" stroke-width="20"/>
          <line id="Line_20" data-name="Line 20" x1="124.604" transform="translate(2122.057 1925.663)" fill="none" stroke="#707070" stroke-width="20"/>
          <g id="fingerprint">
            <g id="Group_31" data-name="Group 31">
              <g id="Calque_2" data-name="Calque 2">
                <path id="Path_13" data-name="Path 13" d="M3593.71,2321.88c2.163,5.525,9.16,8.727,16.008,7.326a668.052,668.052,0,0,1,178.573-6.769c6.91.973,13.523-2.708,14.994-8.346a5.8,5.8,0,0,0,0-1.391c-.524-4.932-5.278-8.842-11.274-9.273a702.173,702.173,0,0,0-188.268,6.677,12.632,12.632,0,0,0-8.088,4.118,8.551,8.551,0,0,0-1.945,7.659Zm74.856,22.719c1.154,5.647,7.525,9.536,14.43,8.81a574.867,574.867,0,0,1,102.138,1.855c6.913,1.034,13.584-2.61,15.106-8.253a5.941,5.941,0,0,0,0-1.484c-.524-4.932-5.278-8.842-11.274-9.273a612.215,612.215,0,0,0-108.564-1.947c-6.7.2-11.967,4.78-11.839,10.292Zm-117.7-15.394c3.8,11.338,13.089,20.894,25.7,26.429a75.042,75.042,0,0,0,43.4,5.378c7.328-1.3,14.543-2.411,21.871-3.338a12.825,12.825,0,0,0,8.192-3.868,8.638,8.638,0,0,0,2.292-7.538c-1.724-5.622-8.555-9.108-15.445-7.882-7.666,1.02-15.332,2.226-22.547,3.524a40.277,40.277,0,0,1-23.336-2.875c-6.8-3-11.817-8.159-13.866-14.281a19.714,19.714,0,0,1,4.425-17.806c4.4-5.179,11.2-8.635,18.8-9.55a716.281,716.281,0,0,1,182.518-8.16c6.923.8,13.4-2.984,14.768-8.624v-1.205c-.56-5.1-5.623-9.061-11.837-9.273a753.867,753.867,0,0,0-191.65,8.531c-14.048,1.7-26.641,8.078-34.819,17.631s-11.242,21.447-8.465,32.908Zm9.47,33.94c-5.881-3.328-13.837-2.618-18.714,1.669a8.2,8.2,0,0,0-2.612,7.279,9.25,9.25,0,0,0,4.868,6.446,103.525,103.525,0,0,0,9.244,4.822c23.428,10.623,50.736,13.917,76.885,9.273a544.621,544.621,0,0,1,144.752-5.289c6.918.869,13.473-2.819,14.994-8.439v-1.3c-.3-5.1-5.1-9.238-11.274-9.737A581.445,581.445,0,0,0,3623.8,2373.9a97.574,97.574,0,0,1-56.368-7.048,49.916,49.916,0,0,1-7.441-3.709Zm121.417-117.862c.769,5.687,6.942,9.815,13.866,9.273,24.387-.931,48.819-.652,73.165.835,7.054.654,13.436-3.479,14.317-9.273v-.835c-.679-5.193-5.94-9.163-12.288-9.273q-38.213-2.229-76.547-.835c-6.826,0-12.392,4.5-12.514,10.109Zm-18.15,2.411a4.327,4.327,0,0,0,0-1.206c-1.366-5.63-7.867-9.385-14.768-8.531-21.645,1.947-43.516,4.915-64.936,8.531-44.094,6.207-76.956,36.868-78.915,73.63a54.124,54.124,0,0,0,2.593,16.414,58.992,58.992,0,0,0,5.75,12.982c3.383,5.124,10.921,7.324,17.474,5.1a10.825,10.825,0,0,0,7.04-5.145,7.8,7.8,0,0,0-.163-7.745,44.9,44.9,0,0,1-4.284-9.273,39.162,39.162,0,0,1-1.8-11.962c1.371-27.172,25.6-49.879,58.171-54.526a595.188,595.188,0,0,1,62.568-8.439c6.213-.5,11.023-4.7,11.274-9.83Zm-90.193-33.012c-25.665,4.346-49.5,14.163-69.1,28.468a8.245,8.245,0,0,0,0,13.91,17.128,17.128,0,0,0,18.94.464c16-11.668,35.43-19.691,56.36-23.279a864.17,864.17,0,0,1,161.551-12.612c7.092.566,13.5-3.49,14.656-9.273h0c-.406-5.815-6.212-10.388-13.3-10.475a899.906,899.906,0,0,0-169.1,12.8Zm108.9,195.85a6.557,6.557,0,0,0,0-1.484c-1.573-5.614-8.206-9.237-15.107-8.253q-16.909,1.808-33.821,4.729c-30.711,5.33-62.729,1.379-90.188-11.128-26.183-11.478-45.439-31.344-53.211-54.9-6.114-19.994-2.6-41.157,9.808-59.07a7.839,7.839,0,0,0,.949-7.563,10.241,10.241,0,0,0-6.247-5.6c-6.426-2.43-14.045-.565-17.812,4.358-15.211,21.924-19.533,47.842-12.056,72.329,9.623,28.749,33.127,53.007,65.048,67.138,33.535,15.181,72.594,19.921,110.03,13.353,10.6-1.762,21.081-3.246,31.34-4.358,6.114-.45,10.907-4.511,11.273-9.551Zm20.292-2.967h0c0,5.121,5.047,9.273,11.274,9.273,14.139-.4,28.295-.085,42.389.927,6.9.833,13.331-3.052,14.43-8.717a3.1,3.1,0,0,0,0-1.02,8.4,8.4,0,0,0-3.1-6.859,12.558,12.558,0,0,0-8.178-2.878,459.04,459.04,0,0,0-46.785-1.02,12.1,12.1,0,0,0-7.622,3.423,8.161,8.161,0,0,0-2.4,6.87Z" fill="#707070"/>
              </g>
            </g>
          </g>
        </g>
      </g>
      <g id="Flash" transform="translate(-9959 5362)">
        <g id="Rectangle_4" data-name="Rectangle 4" transform="translate(19370 1605)" fill="none" stroke="#707070" stroke-width="100">
          <rect width="4684" height="955" rx="237" stroke="none"/>
          <rect x="50" y="50" width="4584" height="855" rx="187" fill="none"/>
        </g>
        <line id="Line_1" data-name="Line 1" x2="937.037" transform="translate(19838.518 2082.94)" fill="none" stroke="#707070" stroke-width="100"/>
        <g id="Ellipse_2" data-name="Ellipse 2" transform="translate(21057 1992)" fill="#707070" stroke="#707070" stroke-width="1">
          <ellipse cx="93.5" cy="90.5" rx="93.5" ry="90.5" stroke="none"/>
          <ellipse cx="93.5" cy="90.5" rx="93" ry="90" fill="none"/>
        </g>
        <g id="Ellipse_3" data-name="Ellipse 3" transform="translate(21525 1992)" fill="#707070" stroke="#707070" stroke-width="1">
          <ellipse cx="94.5" cy="90.5" rx="94.5" ry="90.5" stroke="none"/>
          <ellipse cx="94.5" cy="90.5" rx="94" ry="90" fill="none"/>
        </g>
        <line id="Line_2" data-name="Line 2" y2="869.419" transform="translate(22999.904 1605.48)" fill="none" stroke="#707070" stroke-width="100"/>
        <line id="Line_3" data-name="Line 3" y2="869.419" transform="translate(23498.602 1605.48)" fill="none" stroke="#707070" stroke-width="100"/>
        <g id="Rectangle_5" data-name="Rectangle 5" transform="translate(19371 2672)" fill="none" stroke="#707070" stroke-width="100">
          <rect width="4683" height="955" rx="237" stroke="none"/>
          <rect x="50" y="50" width="4583" height="855" rx="187" fill="none"/>
        </g>
        <line id="Line_4" data-name="Line 4" x2="937.037" transform="translate(19839.629 3148.655)" fill="none" stroke="#707070" stroke-width="100"/>
        <g id="Ellipse_4" data-name="Ellipse 4" transform="translate(21057 3058)" fill="#707070" stroke="#707070" stroke-width="1">
          <ellipse cx="94" cy="91" rx="94" ry="91" stroke="none"/>
          <ellipse cx="94" cy="91" rx="93.5" ry="90.5" fill="none"/>
        </g>
        <g id="Ellipse_5" data-name="Ellipse 5" transform="translate(21527 3058)" fill="#707070" stroke="#707070" stroke-width="1">
          <ellipse cx="93.5" cy="91" rx="93.5" ry="91" stroke="none"/>
          <ellipse cx="93.5" cy="91" rx="93" ry="90.5" fill="none"/>
        </g>
        <line id="Line_5" data-name="Line 5" y2="869.419" transform="translate(23001.018 2671.194)" fill="none" stroke="#707070" stroke-width="100"/>
        <line id="Line_6" data-name="Line 6" y2="869.419" transform="translate(23499.713 2671.194)" fill="none" stroke="#707070" stroke-width="100"/>
        <g id="Rectangle_6" data-name="Rectangle 6" transform="translate(19371 3736)" fill="none" stroke="#707070" stroke-width="100">
          <rect width="4686" height="955" rx="237" stroke="none"/>
          <rect x="50" y="50" width="4586" height="855" rx="187" fill="none"/>
        </g>
        <line id="Line_7" data-name="Line 7" x2="937.037" transform="translate(19840.742 4214.368)" fill="none" stroke="#707070" stroke-width="100"/>
        <g id="Ellipse_6" data-name="Ellipse 6" transform="translate(21059 4124)" fill="#707070" stroke="#707070" stroke-width="1">
          <ellipse cx="94.5" cy="90" rx="94.5" ry="90" stroke="none"/>
          <ellipse cx="94.5" cy="90" rx="94" ry="89.5" fill="none"/>
        </g>
        <g id="Ellipse_7" data-name="Ellipse 7" transform="translate(21527 4124)" fill="#707070" stroke="#707070" stroke-width="1">
          <ellipse cx="94.5" cy="90" rx="94.5" ry="90" stroke="none"/>
          <ellipse cx="94.5" cy="90" rx="94" ry="89.5" fill="none"/>
        </g>
        <line id="Line_8" data-name="Line 8" y2="869.419" transform="translate(23002.127 3736.908)" fill="none" stroke="#707070" stroke-width="100"/>
        <line id="Line_9" data-name="Line 9" y2="869.419" transform="translate(23500.826 3736.908)" fill="none" stroke="#707070" stroke-width="100"/>
      </g>
      <path id="Path_36" data-name="Path 36" d="M-1009.09-230.282v122.84h195.52v85.988h-195.521V179.868h-107.144v-496.82h326.209v86.671Zm275.025,410.15V-344.25h103.391V179.868Zm482.83-91.107q0,31.393,3.753,50.842a133.287,133.287,0,0,0,11.26,34.464v5.8h-103.39q-6.825-13.308-9.9-33.1-35.146,39.923-92.471,39.923-34.8,0-63.467-14.331t-45.212-39.582q-16.549-25.25-16.549-56.984,0-58.349,43.335-89.912T-396.255-45.68h41.97V-66.5q0-25.592-12.966-39.752t-38.9-14.161q-23.544,0-36.681,11.09t-13.137,31.563H-559.018A99.652,99.652,0,0,1-539.4-137.81q19.62-26.957,55.619-42.653t83.088-15.7q43.677,0,77.458,14.673t52.89,44.018q19.108,29.345,19.108,71.657Zm-167.54,19.791q22.521,0,39.582-9.725t24.909-23.715V13.352h-39.241q-35.828,0-53.4,15.526T-464.5,69.312q0,17.4,12.455,28.321t33.269,10.92ZM-54.691,32.119Q-185.72,4.139-185.72-80.826a100.21,100.21,0,0,1,17.914-57.667q17.914-26.274,51.7-41.97t78.822-15.7q47.43,0,82.917,15.184t54.6,42.312q19.108,27.127,19.108,61.932H16.284q0-22.179-13.308-34.634T-37.63-123.82q-22.521,0-36,10.578t-13.478,27.3q0,16.038,15.184,25.933t51.7,16.72Q23.449-35.1,53.818-21.965T102.1,14.375q17.914,23.2,17.914,59.032a94.648,94.648,0,0,1-19.279,58.178Q81.457,157.348,45.8,172.02t-82.747,14.673q-49.818,0-86.159-18.255t-55.278-46.918q-18.938-28.663-18.938-59.714h97.249q1.024,26.615,19.108,39.411t46.406,12.8q26.274,0,40.435-10.066T20.037,76.819A26.519,26.519,0,0,0,13.724,58.9Q7.412,51.569-8.8,45.085T-54.691,32.119ZM379-196.159q58.008,0,90.253,34.463T501.5-51.481V179.868H398.453V-52.163q0-33.44-14.161-47.089T341.128-112.9q-41.288,0-59.373,30.028v262.74H178.706V-344.25H281.755v194.5a126.484,126.484,0,0,1,43.165-34.464Q349.658-196.159,379-196.159ZM908.24-316.952q66.539,0,118.234,29.857t80.7,83.941q29,54.084,29,123.693v21.838q0,69.951-29,123.864t-80.87,83.77q-51.866,29.857-118.745,29.857H753.325v-496.82H908.24ZM1027.33-80.143q0-73.7-30.369-111.921T908.24-230.282H860.469V93.539h47.089q58.349,0,89.059-38.729t30.71-112.433Zm474.64,168.9q0,31.393,3.753,50.842a133.288,133.288,0,0,0,11.26,34.464v5.8H1413.59q-6.824-13.308-9.9-33.1-35.146,39.923-92.471,39.923-34.8,0-63.468-14.331t-45.212-39.582Q1186,107.529,1186,75.8q0-58.349,43.335-89.912T1356.95-45.68h41.97V-66.5q0-25.592-12.967-39.752t-38.9-14.161q-23.544,0-36.682,11.09t-13.137,31.563H1194.19a99.652,99.652,0,0,1,19.62-60.055q19.62-26.957,55.619-42.653t83.088-15.7q43.676,0,77.458,14.673t52.89,44.018q19.109,29.345,19.109,71.657Zm-167.54,19.791q22.521,0,39.582-9.725t24.909-23.715V13.352H1359.68q-35.828,0-53.4,15.526T1288.7,69.312q0,17.4,12.455,28.321t33.275,10.92Zm431.647-304.712q46.065,0,78.481,23.2t48.965,65.344q16.549,42.141,16.549,98.784v7.166q0,54.254-16.72,97.078t-48.965,67.05q-32.246,24.227-77.628,24.227-53.914,0-88.377-38.9V321.817H1575.33V-189.335h95.542l3.753,35.487q34.805-42.311,91.445-42.311ZM1807.36-8.828q0-47.771-16.379-75.922T1739.46-112.9q-44.7,0-61.079,34.122V68.288q17.061,35.487,61.761,35.487,35.146,0,51.183-29t16.037-76.434ZM2159.5-196.159q46.065,0,78.481,23.2t48.966,65.344Q2303.5-65.471,2303.5-8.828v7.166q0,54.254-16.72,97.078t-48.966,67.05q-32.245,24.227-77.628,24.227-53.913,0-88.377-38.9V321.817H1968.76V-189.335h95.54l3.753,35.487Q2102.86-196.159,2159.5-196.159ZM2200.79-8.828q0-47.771-16.378-75.922T2132.89-112.9q-44.7,0-61.079,34.122V68.288q17.061,35.487,61.761,35.487,35.146,0,51.183-29t16.037-76.434Z" transform="translate(3264.235 11654.417)" fill="#666"/>
      <path id="Path_37" data-name="Path 37" d="M-412.312-220.328v133.57h212.6V6.74h-212.6v218.9h-116.5V-314.568h354.7v94.24Zm299.046,445.972V-344.25H-.845v569.9Zm525-99.064q0,34.134,4.081,55.283a144.925,144.925,0,0,0,12.244,37.474v6.307H315.64q-7.421-14.47-10.76-35.989-38.216,43.41-100.548,43.41-37.845,0-69.011-15.583t-49.16-43.039q-17.995-27.456-18-61.961,0-63.445,47.12-97.765T254.05-19.6h45.636V-42.235q0-27.827-14.1-43.224t-42.3-15.4q-25.6,0-39.885,12.058T189.12-54.479H77.071A108.356,108.356,0,0,1,98.4-119.78q21.334-29.311,60.477-46.378t90.345-17.067q47.491,0,84.223,15.954t57.509,47.862Q411.735-87.5,411.735-41.493ZM229.562,148.1q24.488,0,43.039-10.574t27.085-25.786V44.584H257.018q-38.958,0-58.065,16.882t-19.108,43.967q0,18.922,13.542,30.8T229.562,148.1ZM625.446,64.99Q482.972,34.567,482.972-57.819a108.962,108.962,0,0,1,19.479-62.7q19.479-28.569,56.21-45.636t85.707-17.067q51.573,0,90.159,16.511T793.891-120.7q20.777,29.5,20.777,67.341H702.619q0-24.117-14.47-37.659T644-104.568q-24.488,0-39.143,11.5T590.2-63.384q0,17.438,16.511,28.2T662.921-17q47.491,8.9,80.513,23.189t52.5,39.514q19.479,25.23,19.479,64.187a102.913,102.913,0,0,1-20.963,63.26q-20.963,28.012-59.735,43.966t-89.974,15.954q-54.17,0-93.684-19.85T490.949,162.2q-20.592-31.166-20.592-64.929H576.1q1.113,28.94,20.777,42.853t50.459,13.913q28.569,0,43.967-10.945t15.4-29.5q0-11.5-6.864-19.479T675.349,79.09q-17.624-7.05-49.9-14.1Zm471.573-248.216q63.074,0,98.136,37.474T1230.22-25.91V225.645H1118.17v-252.3q0-36.36-15.4-51.2T1055.835-92.7q-44.894,0-64.558,32.65V225.645H879.227v-569.9h112.05v211.484a137.532,137.532,0,0,1,46.935-37.474q26.9-12.985,58.808-12.985Z" transform="translate(11403.813 11654.417)" fill="#666"/>
    </g>
  </g>
</svg>
