<svg xmlns="http://www.w3.org/2000/svg" width="21280" height="5804" viewBox="0 0 21280 5804">
  <g id="FlashX_OZTCard" transform="translate(-4711 -5532)">
    <rect id="Rectangle_20" data-name="Rectangle 20" width="21280" height="5704" transform="translate(4711 5632)" fill="none"/>
    <g id="OztCard" transform="translate(8400 5955)">
      <g id="Group_12" data-name="Group 12" transform="translate(765 -615)">
        <g id="Rectangle_8" data-name="Rectangle 8" transform="translate(8026 1625)" fill="none" stroke="#707070" stroke-width="100">
          <rect width="4105" height="2579" rx="259" stroke="none"/>
          <rect x="50" y="50" width="4005" height="2479" rx="209" fill="none"/>
        </g>
        <g id="Rectangle_9" data-name="Rectangle 9" transform="translate(8476 2533)" fill="none" stroke="#707070" stroke-width="50">
          <rect width="609" height="476" rx="129" stroke="none"/>
          <rect x="25" y="25" width="559" height="426" rx="104" fill="none"/>
        </g>
        <g id="Rectangle_10" data-name="Rectangle 10" transform="translate(10805 3115)" fill="none" stroke="#707070" stroke-width="50">
          <rect width="1046" height="734" stroke="none"/>
          <rect x="25" y="25" width="996" height="684" fill="none"/>
        </g>
        <g id="Rectangle_11" data-name="Rectangle 11" transform="translate(10908 3209)" fill="none" stroke="#707070" stroke-width="50">
          <rect width="840" height="546" stroke="none"/>
          <rect x="25" y="25" width="790" height="496" fill="none"/>
        </g>
        <g id="Rectangle_12" data-name="Rectangle 12" transform="translate(10805 2280)" fill="none" stroke="#707070" stroke-width="50">
          <rect width="1046" height="729" stroke="none"/>
          <rect x="25" y="25" width="996" height="679" fill="none"/>
        </g>
        <text id="OZTCARD-2" data-name="OZTCARD" transform="translate(8298.176 3911)" fill="#707070" font-size="238" font-family="SegoeUI, Segoe UI"><tspan x="0" y="0">OZTCARD</tspan></text>
        <rect id="Rectangle_13" data-name="Rectangle 13" width="882" height="144" transform="translate(10887 2771)" fill="#707070"/>
        <g id="Group_26" data-name="Group 26" transform="translate(17.217)">
          <g id="Group_2" data-name="Group 2" transform="translate(10888.783 2370.316)">
            <line id="Line_10" data-name="Line 10" x1="40.581" y2="47.828" transform="translate(5.797)" fill="none" stroke="#707070" stroke-width="20"/>
            <line id="Line_11" data-name="Line 11" x1="46.378" y1="48.552" transform="translate(0 44.204)" fill="none" stroke="#707070" stroke-width="20"/>
          </g>
          <g id="Group_3" data-name="Group 3" transform="translate(11683.739 2370.316)">
            <line id="Line_10-2" data-name="Line 10" x2="43.842" y2="47.828" fill="none" stroke="#707070" stroke-width="20"/>
            <line id="Line_11-2" data-name="Line 11" y1="48.552" x2="49.639" transform="translate(0 44.204)" fill="none" stroke="#707070" stroke-width="20"/>
          </g>
          <rect id="Rectangle_14" data-name="Rectangle 14" width="246" height="50" transform="translate(11205 2392)" fill="#707070"/>
        </g>
        <line id="Line_12" data-name="Line 12" y2="407.261" transform="translate(8598.122 2567.425)" fill="none" stroke="#707070" stroke-width="20"/>
        <line id="Line_13" data-name="Line 13" x1="0.725" y2="60.147" transform="translate(8781.462 2914.539)" fill="none" stroke="#707070" stroke-width="20"/>
        <line id="Line_14" data-name="Line 14" y2="407.261" transform="translate(8980.744 2567.425)" fill="none" stroke="#707070" stroke-width="20"/>
        <line id="Line_15" data-name="Line 15" x1="188.413" transform="translate(8504.641 2679.023)" fill="none" stroke="#707070" stroke-width="20"/>
        <g id="Union_1" data-name="Union 1" transform="translate(8689 2613)">
          <path id="Path_1" data-name="Path 1" d="M4.357,212.921a88.613,88.613,0,0,1,23.007-59.677,89.315,89.315,0,1,1,128.273-4.488A89.2,89.2,0,1,1,4.357,212.921Z" fill="none"/>
          <path id="Path_2" data-name="Path 2" d="M93.679,282A69.279,69.279,0,0,0,163,212.921a68.4,68.4,0,0,0-21.219-49.742l-14-13.452,13.033-14.4A69.21,69.21,0,1,0,20,89.079,68.4,68.4,0,0,0,41.219,138.82l14,13.453L42.189,166.667A69.031,69.031,0,0,0,93.679,282m0,20A89.03,89.03,0,0,1,27.364,153.244,89.2,89.2,0,1,1,178.643,89.079a88.613,88.613,0,0,1-23.006,59.677A89.03,89.03,0,0,1,93.679,302Z" fill="#707070"/>
        </g>
        <line id="Line_17" data-name="Line 17" x1="0.725" y2="60.147" transform="translate(8781.462 2552.932)" fill="none" stroke="#707070" stroke-width="20"/>
        <line id="Line_18" data-name="Line 18" x1="204.355" transform="translate(8851.029 2679.023)" fill="none" stroke="#707070" stroke-width="20"/>
        <line id="Line_19" data-name="Line 19" x1="188.413" transform="translate(8501.017 2844.246)" fill="none" stroke="#707070" stroke-width="20"/>
        <line id="Line_20" data-name="Line 20" x1="204.355" transform="translate(8851.029 2844.246)" fill="none" stroke="#707070" stroke-width="20"/>
        <g id="fingerprint" transform="translate(11047 3297)">
          <g id="Layer_2" data-name="Layer 2">
            <g id="Calque_2" data-name="Calque 2">
              <path id="Path_13" data-name="Path 13" d="M217.606,197.036c3.548,9.061,15.023,14.313,26.254,12.015a1095.669,1095.669,0,0,1,292.865-11.1c11.332,1.6,22.178-4.441,24.59-13.687a9.525,9.525,0,0,0,0-2.281c-.86-8.088-8.656-14.5-18.489-15.208a1151.6,1151.6,0,0,0-308.765,10.95,20.717,20.717,0,0,0-13.265,6.754A14.019,14.019,0,0,0,217.6,197.04ZM340.372,234.3c1.893,9.261,12.341,15.64,23.666,14.448a942.916,942.916,0,0,1,167.51,3.042c11.338,1.7,22.279-4.281,24.775-13.535a9.77,9.77,0,0,0,0-2.433c-.86-8.088-8.656-14.5-18.489-15.208a1004.014,1004.014,0,0,0-178.048-3.194c-10.985.33-19.623,7.841-19.414,16.881ZM147.348,209.05c6.224,18.6,21.467,34.267,42.155,43.344a123.069,123.069,0,0,0,71.182,8.821c12.018-2.129,23.851-3.954,35.869-5.475a21.03,21.03,0,0,0,13.436-6.34,14.17,14.17,0,0,0,3.759-12.362c-2.828-9.22-14.031-14.937-25.33-12.927-12.572,1.673-25.145,3.65-36.978,5.779a66.053,66.053,0,0,1-38.272-4.715c-11.16-4.916-19.38-13.382-22.741-23.421-2.58-10.141.046-20.708,7.257-29.2s18.368-14.162,30.83-15.662A1174.741,1174.741,0,0,1,527.85,143.5c11.355,1.31,21.98-4.894,24.22-14.144v-1.977c-.919-8.357-9.221-14.861-19.413-15.208a1236.359,1236.359,0,0,0-314.312,13.992c-23.049,2.8-43.7,13.249-57.114,28.915s-18.438,35.175-13.883,53.97Zm15.531,55.662c-9.645-5.457-22.692-4.294-30.692,2.738a13.443,13.443,0,0,0-4.287,11.936,15.167,15.167,0,0,0,7.984,10.572,169.551,169.551,0,0,0,15.161,7.908c38.422,17.422,83.209,22.824,126.095,15.208a893.2,893.2,0,0,1,237.4-8.669c11.346,1.426,22.1-4.624,24.59-13.84v-2.129c-.5-8.356-8.367-15.15-18.489-15.969a953.575,953.575,0,0,0-253.668,9.885c-31.5,5.372-64.3,1.271-92.445-11.558a81.747,81.747,0,0,1-12.2-6.083ZM362,71.415c1.261,9.326,11.384,16.1,22.741,15.208,39.995-1.526,80.065-1.069,119.993,1.369,11.569,1.073,22.036-5.706,23.481-15.208V71.415c-1.113-8.516-9.742-15.028-20.153-15.208q-62.67-3.655-125.54-1.369c-11.2,0-20.323,7.375-20.523,16.58Zm-29.767,3.954a7.141,7.141,0,0,0,0-1.977C330,64.159,319.336,58,308.017,59.4c-35.5,3.194-71.367,8.06-106.5,13.992C129.206,83.571,75.311,133.856,72.1,194.146a88.776,88.776,0,0,0,4.252,26.919,96.735,96.735,0,0,0,9.429,21.292c5.549,8.4,17.91,12.012,28.658,8.365a17.753,17.753,0,0,0,11.546-8.438,12.786,12.786,0,0,0-.268-12.7,73.672,73.672,0,0,1-7.026-15.208,64.236,64.236,0,0,1-2.958-19.619c2.249-44.564,41.978-81.8,95.4-89.425A975.96,975.96,0,0,1,313.748,91.49c10.189-.828,18.077-7.706,18.489-16.121ZM184.326,21.228c-42.1,7.128-81.182,23.229-113.337,46.69a13.522,13.522,0,0,0,0,22.813c8.736,6.465,21.874,6.787,31.061.76,26.243-19.135,58.111-32.295,92.445-38.173A1417.209,1417.209,0,0,1,459.441,32.634c11.631.928,22.143-5.723,24.036-15.208h0C482.8,7.88,473.282.383,461.66.24A1475.892,1475.892,0,0,0,184.326,21.227Zm178.6,321.2a10.772,10.772,0,0,0,0-2.433c-2.58-9.207-13.458-15.15-24.775-13.535q-27.733,2.966-55.467,7.756c-50.368,8.741-102.878,2.262-147.912-18.25-42.942-18.825-74.521-51.4-87.268-90.033-10.027-32.79-4.264-67.5,16.085-96.877a12.86,12.86,0,0,0,1.556-12.4,16.793,16.793,0,0,0-10.245-9.2c-10.539-3.984-23.035-.927-29.213,7.148C.735,150.567-6.354,193.071,5.908,233.232,21.69,280.38,60.236,320.165,112.589,343.34c55,24.9,119.056,32.671,180.452,21.9,17.38-2.89,34.574-5.323,51.4-7.148,10.026-.738,17.887-7.4,18.488-15.665Zm33.28-4.867h0c0,8.4,8.278,15.208,18.489,15.208q34.783-.972,69.518,1.521c11.316,1.366,21.864-5.006,23.666-14.3a5.14,5.14,0,0,0,0-1.673,13.778,13.778,0,0,0-5.077-11.249,20.589,20.589,0,0,0-13.412-4.72,752.971,752.971,0,0,0-76.729-1.673,19.846,19.846,0,0,0-12.514,5.613,13.386,13.386,0,0,0-3.938,11.273Z" transform="translate(-0.032 0.017)" fill="#707070"/>
            </g>
          </g>
        </g>
      </g>
    </g>
    <rect id="Rectangle_20-2" data-name="Rectangle 20" width="13280" height="5704" transform="translate(8711 5532)" fill="none"/>
    <g id="FlashX" transform="translate(-9839 5106)">
      <g id="Rectangle_4" data-name="Rectangle 4" transform="translate(19370 1605)" fill="none" stroke="#707070" stroke-width="100">
        <rect width="4684" height="955" rx="237" stroke="none"/>
        <rect x="50" y="50" width="4584" height="855" rx="187" fill="none"/>
      </g>
      <line id="Line_1" data-name="Line 1" x2="937.037" transform="translate(19838.518 2082.94)" fill="none" stroke="#707070" stroke-width="100"/>
      <g id="Ellipse_2" data-name="Ellipse 2" transform="translate(21057 1992)" fill="#707070" stroke="#707070" stroke-width="1">
        <ellipse cx="93.5" cy="90.5" rx="93.5" ry="90.5" stroke="none"/>
        <ellipse cx="93.5" cy="90.5" rx="93" ry="90" fill="none"/>
      </g>
      <g id="Ellipse_3" data-name="Ellipse 3" transform="translate(21525 1992)" fill="#707070" stroke="#707070" stroke-width="1">
        <ellipse cx="94.5" cy="90.5" rx="94.5" ry="90.5" stroke="none"/>
        <ellipse cx="94.5" cy="90.5" rx="94" ry="90" fill="none"/>
      </g>
      <line id="Line_2" data-name="Line 2" y2="869.419" transform="translate(22999.904 1605.48)" fill="none" stroke="#707070" stroke-width="100"/>
      <line id="Line_3" data-name="Line 3" y2="869.419" transform="translate(23498.602 1605.48)" fill="none" stroke="#707070" stroke-width="100"/>
      <g id="Rectangle_5" data-name="Rectangle 5" transform="translate(19371 2672)" fill="none" stroke="#707070" stroke-width="100">
        <rect width="4683" height="955" rx="237" stroke="none"/>
        <rect x="50" y="50" width="4583" height="855" rx="187" fill="none"/>
      </g>
      <line id="Line_4" data-name="Line 4" x2="937.037" transform="translate(19839.629 3148.655)" fill="none" stroke="#707070" stroke-width="100"/>
      <g id="Ellipse_4" data-name="Ellipse 4" transform="translate(21057 3058)" fill="#707070" stroke="#707070" stroke-width="1">
        <ellipse cx="94" cy="91" rx="94" ry="91" stroke="none"/>
        <ellipse cx="94" cy="91" rx="93.5" ry="90.5" fill="none"/>
      </g>
      <g id="Ellipse_5" data-name="Ellipse 5" transform="translate(21527 3058)" fill="#707070" stroke="#707070" stroke-width="1">
        <ellipse cx="93.5" cy="91" rx="93.5" ry="91" stroke="none"/>
        <ellipse cx="93.5" cy="91" rx="93" ry="90.5" fill="none"/>
      </g>
      <line id="Line_5" data-name="Line 5" y2="869.419" transform="translate(23001.018 2671.194)" fill="none" stroke="#707070" stroke-width="100"/>
      <line id="Line_6" data-name="Line 6" y2="869.419" transform="translate(23499.713 2671.194)" fill="none" stroke="#707070" stroke-width="100"/>
      <g id="Rectangle_6" data-name="Rectangle 6" transform="translate(19371 3736)" fill="none" stroke="#707070" stroke-width="100">
        <rect width="4686" height="955" rx="237" stroke="none"/>
        <rect x="50" y="50" width="4586" height="855" rx="187" fill="none"/>
      </g>
      <line id="Line_7" data-name="Line 7" x2="937.037" transform="translate(19840.742 4214.368)" fill="none" stroke="#707070" stroke-width="100"/>
      <g id="Ellipse_6" data-name="Ellipse 6" transform="translate(21059 4124)" fill="#707070" stroke="#707070" stroke-width="1">
        <ellipse cx="94.5" cy="90" rx="94.5" ry="90" stroke="none"/>
        <ellipse cx="94.5" cy="90" rx="94" ry="89.5" fill="none"/>
      </g>
      <g id="Ellipse_7" data-name="Ellipse 7" transform="translate(21527 4124)" fill="#707070" stroke="#707070" stroke-width="1">
        <ellipse cx="94.5" cy="90" rx="94.5" ry="90" stroke="none"/>
        <ellipse cx="94.5" cy="90" rx="94" ry="89.5" fill="none"/>
      </g>
      <line id="Line_8" data-name="Line 8" y2="869.419" transform="translate(23002.127 3736.908)" fill="none" stroke="#707070" stroke-width="100"/>
      <line id="Line_9" data-name="Line 9" y2="869.419" transform="translate(23500.826 3736.908)" fill="none" stroke="#707070" stroke-width="100"/>
    </g>
    <path id="Path_30" data-name="Path 30" d="M-540.78-62.6q0,73.1-26.321,127.415t-73.6,83.491q-47.278,29.171-108.974,29.171t-109.309-29.171q-47.613-29.171-74.1-83.491T-959.574-62.6V-83.719q0-73.1,26.489-127.583t73.767-83.658q47.278-29.171,108.974-29.171T-641.2-294.96q47.445,29.171,73.934,83.658T-540.78-83.719ZM-647.407-84.39q0-74.437-26.824-113.836t-76.114-39.4q-49.625,0-76.114,39.23t-26.489,114V-62.6q0,74.1,26.824,114t76.449,39.9q49.29,0,75.779-39.9t26.489-114ZM-124,85.945v84.832H-497.861V110.422l238.4-342.68H-498.2v-85.167h369.84v58.678L-365.416,85.945Zm432.877-318.2H160V170.776H55.054V-232.259H-91.473v-85.167H308.879Zm601.2,239.4Q906.725,57.444,882.416,96t-67.9,60.019q-43.59,21.459-102.268,21.459-62.7,0-108.638-28.668T533.365,67q-24.31-53.146-24.31-125.236V-88.078q0-71.755,25.148-125.236t71.084-82.317q45.937-28.836,107.3-28.836,60.019,0,102.938,22.13t66.558,61.193q23.639,39.063,28.333,90.364H805.464q-3.018-44.26-24.31-65.887t-68.57-21.627q-49.29,0-73.1,36.213t-23.8,113.332v30.513q0,51.972,9.724,84.664t30.848,48.787q21.124,16.1,56,16.1,45.266,0,67.564-20.621t25.315-63.54Zm353.075,74.1q0,30.848,3.688,49.96a130.969,130.969,0,0,0,11.065,33.866v5.7h-101.6q-6.706-13.077-9.724-32.524-34.536,39.231-90.867,39.231-34.2,0-62.367-14.083T968.92,124.5q-16.262-24.812-16.262-56,0-57.337,42.584-88.353t125.4-31.016h41.242V-71.313q0-25.148-12.742-39.063t-38.225-13.915q-23.136,0-36.045,10.9t-12.909,31.016H960.709a97.924,97.924,0,0,1,19.28-59.013q19.28-26.489,54.655-41.913t81.646-15.424q42.919,0,76.114,14.418t51.972,43.254q18.777,28.836,18.777,70.414ZM1098.52,100.7q22.13,0,38.9-9.556t24.477-23.3V7.148h-38.56q-35.207,0-52.475,15.256t-17.268,39.733q0,17.1,12.239,27.83T1098.52,100.7Zm415.44-299.428a123.448,123.448,0,0,1,16.43,1.174,88.183,88.183,0,0,1,14.083,2.85l-1.343,97.9a263.952,263.952,0,0,0-35.878-2.682q-54.319,0-70.749,35.877V170.776H1335.24v-362.8h95.226l3.018,43.925q13.412-24.477,34.033-37.554T1513.96-198.728ZM1902.58-344.25V170.776h-91.2l-5.03-38.9q-35.542,45.6-91.873,45.6-43.925,0-75.946-23.639T1589.912,88.62q-16.6-41.578-16.6-94.891v-7.041q0-55.325,16.6-97.238t48.619-65.049q32.021-23.136,76.617-23.136,51.637,0,86.173,39.231V-344.25ZM1740.29,95.668q42.584,0,61.025-36.213V-80.7q-17.436-36.213-60.355-36.213-34.536,0-50.463,28.165T1674.57-13.3v7.041q0,46.607,15.592,74.27T1740.29,95.668Z" transform="translate(18771.574 11020.25)" fill="#666"/>
    <path id="Path_41" data-name="Path 41" d="M-580.949-232.259V-111.55h171.521v84.5H-580.949V170.776h-93.992v-488.2h286.167v85.167Zm241.266,403.035V-344.25h90.7V170.776ZM83.881,81.25q0,30.848,3.293,49.96a142.255,142.255,0,0,0,9.878,33.866v5.7H6.352Q.365,157.7-2.329,138.252q-30.832,39.231-81.121,39.231-30.532,0-55.677-14.083a104.063,104.063,0,0,1-39.662-38.9q-14.518-24.812-14.518-56,0-57.337,38.016-88.353T-43.338-50.859H-6.519V-71.313q0-25.148-11.375-39.063t-34.125-13.915q-20.654,0-32.179,10.9T-95.722-82.378h-90.4a106.009,106.009,0,0,1,17.212-59.013q17.21-26.489,48.792-41.909t72.889-15.424q38.315,0,67.95,14.418a106.529,106.529,0,0,1,46.4,43.254q16.76,28.832,16.76,70.41ZM-63.094,100.7q19.756,0,34.723-9.556t21.852-23.3V7.148H-40.943q-31.43,0-46.846,15.256t-15.416,39.733q0,17.1,10.926,27.83T-63.094,100.7ZM256.3,25.59Q141.354-1.9,141.353-85.4a106.925,106.925,0,0,1,15.715-56.666q15.715-25.818,45.35-41.242t69.147-15.424q41.608,0,72.739,14.921t47.9,41.581q16.763,26.657,16.763,60.858h-90.4q0-21.795-11.674-34.033t-35.621-12.239q-19.756,0-31.58,10.394T227.862-90.425q0,15.759,13.321,25.483t45.35,16.43q38.315,8.047,64.956,20.956t42.356,35.71q15.715,22.8,15.715,58.008,0,31.854-16.913,57.169t-48.193,39.733q-31.281,14.418-72.589,14.418-43.7,0-75.583-17.939t-48.493-46.1q-16.613-28.166-16.613-58.678h85.311q.9,26.154,16.763,38.728t40.71,12.574q23.049,0,35.472-9.891t12.423-26.657q0-10.394-5.538-17.6T296.56,38.331Q282.342,31.961,256.3,25.59ZM636.758-198.728q50.887,0,79.175,33.866t28.287,108.3V170.776h-90.4V-57.23q0-32.86-12.422-46.272t-37.866-13.412q-36.22,0-52.085,29.507V170.776h-90.4V-344.25h90.4v191.123q16.164-22.13,37.866-33.866a98.146,98.146,0,0,1,47.445-11.735Zm412.487-118.7h107.462L1031.29-75.336,1160,170.776H1051.34L970.22,1.783,889.1,170.776H780.44L909.155-75.336,783.732-317.426H891.494L970.22-151.45Z" transform="translate(11631.94 11020.25)" fill="#666"/>
    <g id="double_arrow" transform="translate(-127.332)">
      <line id="Line_21" data-name="Line 21" x2="1560.76" transform="translate(16620.457 8203.5) rotate(180)" fill="none" stroke="#707070" stroke-width="100"/>
      <g id="Polygon_1" data-name="Polygon 1" transform="translate(14469.5 8602) rotate(-90)">
        <path id="Path_3" data-name="Path 3" d="M398.5,0,797,590.626H0Z" fill="none"/>
        <path id="Path_4" data-name="Path 4" d="M398.5,178.793,188.1,490.626H608.9L398.5,178.793M398.5,0,797,590.626H0Z" fill="#707070"/>
      </g>
      <g id="Polygon_2" data-name="Polygon 2" transform="translate(17162.789 7805) rotate(90)">
        <path id="Path_5" data-name="Path 5" d="M398.5,0,797,590.626H0Z" fill="none"/>
        <path id="Path_6" data-name="Path 6" d="M398.5,178.793,188.1,490.626H608.9L398.5,178.793M398.5,0,797,590.626H0Z" fill="#707070"/>
      </g>
    </g>
  </g>
</svg>
