<svg xmlns="http://www.w3.org/2000/svg" width="21280" height="5804" viewBox="0 0 21280 5804">
  <g id="OZTCard_To_FlashX" transform="translate(-4711 -5532)">
    <rect id="Rectangle_20" data-name="Rectangle 20" width="21280" height="5704" transform="translate(4711 5632)" fill="none"/>
    <g id="OztCard" transform="translate(8400 5955)">
      <g id="Group_12" data-name="Group 12" transform="translate(765 -615)">
        <g id="Rectangle_8" data-name="Rectangle 8" transform="translate(8026 1625)" fill="none" stroke="#707070" stroke-width="100">
          <rect width="4105" height="2579" rx="259" stroke="none"/>
          <rect x="50" y="50" width="4005" height="2479" rx="209" fill="none"/>
        </g>
        <g id="Rectangle_9" data-name="Rectangle 9" transform="translate(8476 2533)" fill="none" stroke="#707070" stroke-width="50">
          <rect width="609" height="476" rx="129" stroke="none"/>
          <rect x="25" y="25" width="559" height="426" rx="104" fill="none"/>
        </g>
        <g id="Rectangle_10" data-name="Rectangle 10" transform="translate(10805 3115)" fill="none" stroke="#707070" stroke-width="50">
          <rect width="1046" height="734" stroke="none"/>
          <rect x="25" y="25" width="996" height="684" fill="none"/>
        </g>
        <g id="Rectangle_11" data-name="Rectangle 11" transform="translate(10908 3209)" fill="none" stroke="#707070" stroke-width="50">
          <rect width="840" height="546" stroke="none"/>
          <rect x="25" y="25" width="790" height="496" fill="none"/>
        </g>
        <g id="Rectangle_12" data-name="Rectangle 12" transform="translate(10805 2280)" fill="none" stroke="#707070" stroke-width="50">
          <rect width="1046" height="729" stroke="none"/>
          <rect x="25" y="25" width="996" height="679" fill="none"/>
        </g>
        <text id="OZTCARD-2" data-name="OZTCARD" transform="translate(8298.176 3911)" fill="#707070" font-size="238" font-family="SegoeUI, Segoe UI"><tspan x="0" y="0">OZTCARD</tspan></text>
        <rect id="Rectangle_13" data-name="Rectangle 13" width="882" height="144" transform="translate(10887 2771)" fill="#707070"/>
        <g id="Group_26" data-name="Group 26" transform="translate(17.217)">
          <g id="Group_2" data-name="Group 2" transform="translate(10888.783 2370.316)">
            <line id="Line_10" data-name="Line 10" x1="40.581" y2="47.828" transform="translate(5.797)" fill="none" stroke="#707070" stroke-width="20"/>
            <line id="Line_11" data-name="Line 11" x1="46.378" y1="48.552" transform="translate(0 44.204)" fill="none" stroke="#707070" stroke-width="20"/>
          </g>
          <g id="Group_3" data-name="Group 3" transform="translate(11683.739 2370.316)">
            <line id="Line_10-2" data-name="Line 10" x2="43.842" y2="47.828" fill="none" stroke="#707070" stroke-width="20"/>
            <line id="Line_11-2" data-name="Line 11" y1="48.552" x2="49.639" transform="translate(0 44.204)" fill="none" stroke="#707070" stroke-width="20"/>
          </g>
          <rect id="Rectangle_14" data-name="Rectangle 14" width="246" height="50" transform="translate(11205 2392)" fill="#707070"/>
        </g>
        <line id="Line_12" data-name="Line 12" y2="407.261" transform="translate(8598.122 2567.425)" fill="none" stroke="#707070" stroke-width="20"/>
        <line id="Line_13" data-name="Line 13" x1="0.725" y2="60.147" transform="translate(8781.462 2914.539)" fill="none" stroke="#707070" stroke-width="20"/>
        <line id="Line_14" data-name="Line 14" y2="407.261" transform="translate(8980.744 2567.425)" fill="none" stroke="#707070" stroke-width="20"/>
        <line id="Line_15" data-name="Line 15" x1="188.413" transform="translate(8504.641 2679.023)" fill="none" stroke="#707070" stroke-width="20"/>
        <g id="Union_1" data-name="Union 1" transform="translate(8689 2613)">
          <path id="Path_1" data-name="Path 1" d="M4.357,212.921a88.613,88.613,0,0,1,23.007-59.677,89.315,89.315,0,1,1,128.273-4.488A89.2,89.2,0,1,1,4.357,212.921Z" fill="none"/>
          <path id="Path_2" data-name="Path 2" d="M93.679,282A69.279,69.279,0,0,0,163,212.921a68.4,68.4,0,0,0-21.219-49.742l-14-13.452,13.033-14.4A69.21,69.21,0,1,0,20,89.079,68.4,68.4,0,0,0,41.219,138.82l14,13.453L42.189,166.667A69.031,69.031,0,0,0,93.679,282m0,20A89.03,89.03,0,0,1,27.364,153.244,89.2,89.2,0,1,1,178.643,89.079a88.613,88.613,0,0,1-23.006,59.677A89.03,89.03,0,0,1,93.679,302Z" fill="#707070"/>
        </g>
        <line id="Line_17" data-name="Line 17" x1="0.725" y2="60.147" transform="translate(8781.462 2552.932)" fill="none" stroke="#707070" stroke-width="20"/>
        <line id="Line_18" data-name="Line 18" x1="204.355" transform="translate(8851.029 2679.023)" fill="none" stroke="#707070" stroke-width="20"/>
        <line id="Line_19" data-name="Line 19" x1="188.413" transform="translate(8501.017 2844.246)" fill="none" stroke="#707070" stroke-width="20"/>
        <line id="Line_20" data-name="Line 20" x1="204.355" transform="translate(8851.029 2844.246)" fill="none" stroke="#707070" stroke-width="20"/>
        <g id="fingerprint" transform="translate(11047 3297)">
          <g id="Layer_2" data-name="Layer 2">
            <g id="Calque_2" data-name="Calque 2">
              <path id="Path_13" data-name="Path 13" d="M217.606,197.036c3.548,9.061,15.023,14.313,26.254,12.015a1095.669,1095.669,0,0,1,292.865-11.1c11.332,1.6,22.178-4.441,24.59-13.687a9.525,9.525,0,0,0,0-2.281c-.86-8.088-8.656-14.5-18.489-15.208a1151.6,1151.6,0,0,0-308.765,10.95,20.717,20.717,0,0,0-13.265,6.754A14.019,14.019,0,0,0,217.6,197.04ZM340.372,234.3c1.893,9.261,12.341,15.64,23.666,14.448a942.916,942.916,0,0,1,167.51,3.042c11.338,1.7,22.279-4.281,24.775-13.535a9.77,9.77,0,0,0,0-2.433c-.86-8.088-8.656-14.5-18.489-15.208a1004.014,1004.014,0,0,0-178.048-3.194c-10.985.33-19.623,7.841-19.414,16.881ZM147.348,209.05c6.224,18.6,21.467,34.267,42.155,43.344a123.069,123.069,0,0,0,71.182,8.821c12.018-2.129,23.851-3.954,35.869-5.475a21.03,21.03,0,0,0,13.436-6.34,14.17,14.17,0,0,0,3.759-12.362c-2.828-9.22-14.031-14.937-25.33-12.927-12.572,1.673-25.145,3.65-36.978,5.779a66.053,66.053,0,0,1-38.272-4.715c-11.16-4.916-19.38-13.382-22.741-23.421-2.58-10.141.046-20.708,7.257-29.2s18.368-14.162,30.83-15.662A1174.741,1174.741,0,0,1,527.85,143.5c11.355,1.31,21.98-4.894,24.22-14.144v-1.977c-.919-8.357-9.221-14.861-19.413-15.208a1236.359,1236.359,0,0,0-314.312,13.992c-23.049,2.8-43.7,13.249-57.114,28.915s-18.438,35.175-13.883,53.97Zm15.531,55.662c-9.645-5.457-22.692-4.294-30.692,2.738a13.443,13.443,0,0,0-4.287,11.936,15.167,15.167,0,0,0,7.984,10.572,169.551,169.551,0,0,0,15.161,7.908c38.422,17.422,83.209,22.824,126.095,15.208a893.2,893.2,0,0,1,237.4-8.669c11.346,1.426,22.1-4.624,24.59-13.84v-2.129c-.5-8.356-8.367-15.15-18.489-15.969a953.575,953.575,0,0,0-253.668,9.885c-31.5,5.372-64.3,1.271-92.445-11.558a81.747,81.747,0,0,1-12.2-6.083ZM362,71.415c1.261,9.326,11.384,16.1,22.741,15.208,39.995-1.526,80.065-1.069,119.993,1.369,11.569,1.073,22.036-5.706,23.481-15.208V71.415c-1.113-8.516-9.742-15.028-20.153-15.208q-62.67-3.655-125.54-1.369c-11.2,0-20.323,7.375-20.523,16.58Zm-29.767,3.954a7.141,7.141,0,0,0,0-1.977C330,64.159,319.336,58,308.017,59.4c-35.5,3.194-71.367,8.06-106.5,13.992C129.206,83.571,75.311,133.856,72.1,194.146a88.776,88.776,0,0,0,4.252,26.919,96.735,96.735,0,0,0,9.429,21.292c5.549,8.4,17.91,12.012,28.658,8.365a17.753,17.753,0,0,0,11.546-8.438,12.786,12.786,0,0,0-.268-12.7,73.672,73.672,0,0,1-7.026-15.208,64.236,64.236,0,0,1-2.958-19.619c2.249-44.564,41.978-81.8,95.4-89.425A975.96,975.96,0,0,1,313.748,91.49c10.189-.828,18.077-7.706,18.489-16.121ZM184.326,21.228c-42.1,7.128-81.182,23.229-113.337,46.69a13.522,13.522,0,0,0,0,22.813c8.736,6.465,21.874,6.787,31.061.76,26.243-19.135,58.111-32.295,92.445-38.173A1417.209,1417.209,0,0,1,459.441,32.634c11.631.928,22.143-5.723,24.036-15.208h0C482.8,7.88,473.282.383,461.66.24A1475.892,1475.892,0,0,0,184.326,21.227Zm178.6,321.2a10.772,10.772,0,0,0,0-2.433c-2.58-9.207-13.458-15.15-24.775-13.535q-27.733,2.966-55.467,7.756c-50.368,8.741-102.878,2.262-147.912-18.25-42.942-18.825-74.521-51.4-87.268-90.033-10.027-32.79-4.264-67.5,16.085-96.877a12.86,12.86,0,0,0,1.556-12.4,16.793,16.793,0,0,0-10.245-9.2c-10.539-3.984-23.035-.927-29.213,7.148C.735,150.567-6.354,193.071,5.908,233.232,21.69,280.38,60.236,320.165,112.589,343.34c55,24.9,119.056,32.671,180.452,21.9,17.38-2.89,34.574-5.323,51.4-7.148,10.026-.738,17.887-7.4,18.488-15.665Zm33.28-4.867h0c0,8.4,8.278,15.208,18.489,15.208q34.783-.972,69.518,1.521c11.316,1.366,21.864-5.006,23.666-14.3a5.14,5.14,0,0,0,0-1.673,13.778,13.778,0,0,0-5.077-11.249,20.589,20.589,0,0,0-13.412-4.72,752.971,752.971,0,0,0-76.729-1.673,19.846,19.846,0,0,0-12.514,5.613,13.386,13.386,0,0,0-3.938,11.273Z" transform="translate(-0.032 0.017)" fill="#707070"/>
            </g>
          </g>
        </g>
      </g>
    </g>
    <rect id="Rectangle_20-2" data-name="Rectangle 20" width="13280" height="5704" transform="translate(8711 5532)" fill="none"/>
    <g id="FlashX" transform="translate(-9839 5106)">
      <g id="Rectangle_4" data-name="Rectangle 4" transform="translate(19370 1605)" fill="none" stroke="#707070" stroke-width="100">
        <rect width="4684" height="955" rx="237" stroke="none"/>
        <rect x="50" y="50" width="4584" height="855" rx="187" fill="none"/>
      </g>
      <line id="Line_1" data-name="Line 1" x2="937.037" transform="translate(19838.518 2082.94)" fill="none" stroke="#707070" stroke-width="100"/>
      <g id="Ellipse_2" data-name="Ellipse 2" transform="translate(21057 1992)" fill="#707070" stroke="#707070" stroke-width="1">
        <ellipse cx="93.5" cy="90.5" rx="93.5" ry="90.5" stroke="none"/>
        <ellipse cx="93.5" cy="90.5" rx="93" ry="90" fill="none"/>
      </g>
      <g id="Ellipse_3" data-name="Ellipse 3" transform="translate(21525 1992)" fill="#707070" stroke="#707070" stroke-width="1">
        <ellipse cx="94.5" cy="90.5" rx="94.5" ry="90.5" stroke="none"/>
        <ellipse cx="94.5" cy="90.5" rx="94" ry="90" fill="none"/>
      </g>
      <line id="Line_2" data-name="Line 2" y2="869.419" transform="translate(22999.904 1605.48)" fill="none" stroke="#707070" stroke-width="100"/>
      <line id="Line_3" data-name="Line 3" y2="869.419" transform="translate(23498.602 1605.48)" fill="none" stroke="#707070" stroke-width="100"/>
      <g id="Rectangle_5" data-name="Rectangle 5" transform="translate(19371 2672)" fill="none" stroke="#707070" stroke-width="100">
        <rect width="4683" height="955" rx="237" stroke="none"/>
        <rect x="50" y="50" width="4583" height="855" rx="187" fill="none"/>
      </g>
      <line id="Line_4" data-name="Line 4" x2="937.037" transform="translate(19839.629 3148.655)" fill="none" stroke="#707070" stroke-width="100"/>
      <g id="Ellipse_4" data-name="Ellipse 4" transform="translate(21057 3058)" fill="#707070" stroke="#707070" stroke-width="1">
        <ellipse cx="94" cy="91" rx="94" ry="91" stroke="none"/>
        <ellipse cx="94" cy="91" rx="93.5" ry="90.5" fill="none"/>
      </g>
      <g id="Ellipse_5" data-name="Ellipse 5" transform="translate(21527 3058)" fill="#707070" stroke="#707070" stroke-width="1">
        <ellipse cx="93.5" cy="91" rx="93.5" ry="91" stroke="none"/>
        <ellipse cx="93.5" cy="91" rx="93" ry="90.5" fill="none"/>
      </g>
      <line id="Line_5" data-name="Line 5" y2="869.419" transform="translate(23001.018 2671.194)" fill="none" stroke="#707070" stroke-width="100"/>
      <line id="Line_6" data-name="Line 6" y2="869.419" transform="translate(23499.713 2671.194)" fill="none" stroke="#707070" stroke-width="100"/>
      <g id="Rectangle_6" data-name="Rectangle 6" transform="translate(19371 3736)" fill="none" stroke="#707070" stroke-width="100">
        <rect width="4686" height="955" rx="237" stroke="none"/>
        <rect x="50" y="50" width="4586" height="855" rx="187" fill="none"/>
      </g>
      <line id="Line_7" data-name="Line 7" x2="937.037" transform="translate(19840.742 4214.368)" fill="none" stroke="#707070" stroke-width="100"/>
      <g id="Ellipse_6" data-name="Ellipse 6" transform="translate(21059 4124)" fill="#707070" stroke="#707070" stroke-width="1">
        <ellipse cx="94.5" cy="90" rx="94.5" ry="90" stroke="none"/>
        <ellipse cx="94.5" cy="90" rx="94" ry="89.5" fill="none"/>
      </g>
      <g id="Ellipse_7" data-name="Ellipse 7" transform="translate(21527 4124)" fill="#707070" stroke="#707070" stroke-width="1">
        <ellipse cx="94.5" cy="90" rx="94.5" ry="90" stroke="none"/>
        <ellipse cx="94.5" cy="90" rx="94" ry="89.5" fill="none"/>
      </g>
      <line id="Line_8" data-name="Line 8" y2="869.419" transform="translate(23002.127 3736.908)" fill="none" stroke="#707070" stroke-width="100"/>
      <line id="Line_9" data-name="Line 9" y2="869.419" transform="translate(23500.826 3736.908)" fill="none" stroke="#707070" stroke-width="100"/>
    </g>
    <path id="Path_30" data-name="Path 30" d="M-528.651-54.438q0,75.213-27.084,131.106t-75.731,85.909q-48.647,30.016-112.13,30.016T-856.07,162.576q-48.992-30.016-76.248-85.909T-959.574-54.438V-76.174q0-75.213,27.256-131.278t75.9-86.081q48.647-30.016,112.13-30.016t112.3,30.016q48.82,30.016,76.076,86.081t27.256,131.278ZM-638.366-76.864q0-76.593-27.6-117.132t-78.318-40.539q-51.062,0-78.318,40.367t-27.256,117.3v22.426q0,76.248,27.6,117.3t78.663,41.057q50.717,0,77.973-41.057t27.256-117.3ZM-99.8,98.4v87.289H-484.489v-62.1l245.3-352.6h-245.65v-87.634h380.551v60.378L-348.208,98.4ZM345.616-229.015H192.429V185.692H84.44V-229.015H-66.332v-87.634H345.616ZM964.227,17.325q-3.45,51.752-28.464,91.429T865.9,170.512q-44.852,22.081-105.229,22.081-64.518,0-111.785-29.5T576.6,78.91Q551.59,24.226,551.59-49.953V-80.659q0-73.833,25.876-128.863t73.143-84.7q47.267-29.671,110.4-29.671,61.758,0,105.919,22.771t68.485,62.965q24.324,40.194,29.154,92.981H856.583q-3.105-45.542-25.014-67.8t-70.555-22.253q-50.717,0-75.213,37.262T661.3-81.349v31.4q0,53.477,10.005,87.116t31.741,50.2q21.736,16.561,57.617,16.561,46.577,0,69.52-21.218t26.049-65.38Zm363.3,76.248q0,31.741,3.8,51.407a134.761,134.761,0,0,0,11.385,34.846v5.865h-104.54q-6.9-13.456-10.005-33.466-35.536,40.367-93.5,40.367-35.191,0-64.173-14.491t-45.714-40.022q-16.733-25.531-16.733-57.617,0-59,43.817-90.911T1180.9-42.362h42.437V-63.408q0-25.876-13.11-40.194T1170.9-117.92q-23.806,0-37.089,11.213t-13.283,31.914h-104.2a100.76,100.76,0,0,1,19.838-60.723Q1056-162.772,1092.4-178.643t84.011-15.871q44.162,0,78.318,14.836t53.477,44.507q19.321,29.671,19.321,72.453Zm-169.4,20.011q22.771,0,40.022-9.833t25.186-23.979V17.325h-39.677q-36.227,0-53.995,15.7T1111.9,73.909q0,17.6,12.593,28.636t33.642,11.039Zm427.473-308.1a127.032,127.032,0,0,1,16.906,1.208A90.741,90.741,0,0,1,1617-190.375l-1.38,100.744a271.6,271.6,0,0,0-36.917-2.76q-55.892,0-72.8,36.917V185.692H1401.71V-187.613h97.984l3.1,45.2q13.8-25.186,35.019-38.642t47.782-13.459ZM1985.47-344.25V185.692h-93.844l-5.175-40.022q-36.572,46.922-94.534,46.922-45.2,0-78.146-24.324t-50.027-67.105q-17.078-42.782-17.078-97.639V-3.721q0-56.927,17.078-100.054t50.027-66.933q32.949-23.806,78.836-23.806,53.132,0,88.669,40.367v-190.1ZM1818.48,108.409q43.817,0,62.793-37.262V-73.068q-17.941-37.262-62.1-37.262-35.536,0-51.925,28.981T1750.86-3.721V3.525q0,47.957,16.043,76.421T1818.48,108.409Z" transform="translate(18730.574 11005.14)" fill="#666"/>
    <g id="arrow" transform="translate(23985.5 17148) rotate(180)">
      <line id="Line_21" data-name="Line 21" x2="1826" transform="translate(6994.5 8894.5)" fill="none" stroke="#707070" stroke-width="100"/>
      <g id="Polygon_1" data-name="Polygon 1" transform="translate(9511 8495.5) rotate(90)">
        <path id="Path_3" data-name="Path 3" d="M398.5,0,797,691H0Z" fill="none"/>
        <path id="Path_4" data-name="Path 4" d="M398.5,200.169,173.108,591H623.892L398.5,200.169M398.5,0,797,691H0Z" fill="#707070"/>
      </g>
    </g>
    <path id="Path_41" data-name="Path 41" d="M-566.606-229.015V-104.81h197.693v86.944H-566.606V185.693H-674.941V-316.649h329.834v87.634Zm278.082,414.708V-344.25h104.539V185.693Zm488.2-92.119q0,31.741,3.8,51.407a134.766,134.766,0,0,0,11.385,34.846v5.865H110.313q-6.9-13.456-10-33.466-35.537,40.367-93.5,40.367-35.191,0-64.173-14.491t-45.714-40.022q-16.733-25.531-16.733-57.617,0-59,43.817-90.911T53.041-42.362H95.477V-63.408q0-25.876-13.111-40.194T43.035-117.92q-23.806,0-37.089,11.213T-7.337-74.793H-111.531a100.76,100.76,0,0,1,19.838-60.723q19.838-27.256,56.237-43.127t84.011-15.871q44.162,0,78.318,14.836t53.477,44.507q19.321,29.671,19.321,72.453ZM30.27,113.585q22.771,0,40.022-9.833T95.477,79.773V17.326H55.8q-36.227,0-53.995,15.7T-15.962,73.908q0,17.6,12.593,28.636T30.27,113.585ZM398.4,36.3Q265.915,8.01,265.915-77.9a101.323,101.323,0,0,1,18.113-58.307q18.113-26.566,52.27-42.437t79.7-15.87q47.957,0,83.839,15.353t55.2,42.782q19.321,27.429,19.321,62.62h-104.2q0-22.426-13.456-35.019T415.651-121.37q-22.771,0-36.4,10.7t-13.628,27.6q0,16.216,15.353,26.221t52.27,16.906q44.162,8.28,74.868,21.563t48.82,36.744q18.113,23.461,18.113,59.688a95.7,95.7,0,0,1-19.493,58.825q-19.493,26.049-55.547,40.884T416.341,192.6q-50.372,0-87.116-18.458T273.332,126.7q-19.148-28.981-19.148-60.378h98.329q1.035,26.911,19.321,39.849T418.756,119.1q26.566,0,40.884-10.178T473.959,81.5a26.813,26.813,0,0,0-6.383-18.113q-6.383-7.418-22.771-13.973T398.4,36.3ZM836.914-194.514q58.652,0,91.256,34.846t32.6,111.44v233.92H856.58V-48.917q0-33.811-14.318-47.612t-43.644-13.8q-41.747,0-60.033,30.361V185.693H634.391V-344.25H738.585v196.658a127.889,127.889,0,0,1,43.644-34.846Q807.243-194.514,836.914-194.514Zm475.43-122.135H1436.2l-144.561,249.1L1440,185.693H1314.76l-93.5-173.887-93.5,173.887H1002.52L1150.88-67.548l-144.561-249.1h124.2l90.739,170.782Z" transform="translate(11491.94 11005.14)" fill="#666"/>
  </g>
</svg>
