<svg xmlns="http://www.w3.org/2000/svg" width="21280" height="5972.732" viewBox="0 0 21280 5972.732">
  <g id="OZTCard_To_OZTCard" transform="translate(-2066 -5555)">
    <rect id="Rectangle_20" data-name="Rectangle 20" width="21280" height="5704" transform="translate(2066 5555)" fill="none"/>
    <g id="Group_81" data-name="Group 81">
      <g id="Group_80" data-name="Group 80" transform="translate(-1337 -240)">
        <g id="OztCard" transform="translate(225 5079)">
          <g id="Group_12" data-name="Group 12" transform="translate(8791 1010)">
            <g id="Rectangle_8" data-name="Rectangle 8" fill="none" stroke="#707070" stroke-width="100">
              <rect width="7381" height="4637" rx="259" stroke="none"/>
              <rect x="50" y="50" width="7281" height="4537" rx="209" fill="none"/>
            </g>
            <g id="Rectangle_9" data-name="Rectangle 9" transform="translate(809 1633)" fill="none" stroke="#707070" stroke-width="50">
              <rect width="1095" height="856" rx="129" stroke="none"/>
              <rect x="25" y="25" width="1045" height="806" rx="104" fill="none"/>
            </g>
            <g id="Rectangle_10" data-name="Rectangle 10" transform="translate(4997 2679)" fill="none" stroke="#707070" stroke-width="50">
              <rect width="1881" height="1320" stroke="none"/>
              <rect x="25" y="25" width="1831" height="1270" fill="none"/>
            </g>
            <g id="Rectangle_11" data-name="Rectangle 11" transform="translate(5182 2848)" fill="none" stroke="#707070" stroke-width="50">
              <rect width="1510" height="982" stroke="none"/>
              <rect x="25" y="25" width="1460" height="932" fill="none"/>
            </g>
            <g id="Rectangle_12" data-name="Rectangle 12" transform="translate(4997 1178)" fill="none" stroke="#707070" stroke-width="50">
              <rect width="1881" height="1311" stroke="none"/>
              <rect x="25" y="25" width="1831" height="1261" fill="none"/>
            </g>
            <text id="OZTCARD-2" data-name="OZTCARD" transform="translate(903.176 3905)" fill="#707070" font-size="238" font-family="SegoeUI, Segoe UI"><tspan x="0" y="0">OZTCARD</tspan></text>
            <rect id="Rectangle_13" data-name="Rectangle 13" width="1586" height="258" transform="translate(5144 2061)" fill="#707070"/>
            <g id="Group_26" data-name="Group 26" transform="translate(5178.387 1340.117)">
              <g id="Group_2" data-name="Group 2">
                <line id="Line_10" data-name="Line 10" x1="72.967" y2="85.997" transform="translate(10.424)" fill="none" stroke="#707070" stroke-width="20"/>
                <line id="Line_11" data-name="Line 11" x1="83.391" y1="87.3" transform="translate(0 79.482)" fill="none" stroke="#707070" stroke-width="20"/>
              </g>
              <g id="Group_3" data-name="Group 3" transform="translate(1429.372)">
                <line id="Line_10-2" data-name="Line 10" x2="78.83" y2="85.997" fill="none" stroke="#707070" stroke-width="20"/>
                <line id="Line_11-2" data-name="Line 11" y1="87.3" x2="89.254" transform="translate(0 79.482)" fill="none" stroke="#707070" stroke-width="20"/>
              </g>
              <rect id="Rectangle_14" data-name="Rectangle 14" width="442.321" height="89.903" transform="translate(568.574 38.988)" fill="#707070"/>
            </g>
            <line id="Line_12" data-name="Line 12" y2="732.276" transform="translate(1028.705 1694.529)" fill="none" stroke="#707070" stroke-width="20"/>
            <line id="Line_13" data-name="Line 13" x1="1.303" y2="108.148" transform="translate(1358.359 2318.657)" fill="none" stroke="#707070" stroke-width="20"/>
            <line id="Line_14" data-name="Line 14" y2="732.276" transform="translate(1716.679 1694.529)" fill="none" stroke="#707070" stroke-width="20"/>
            <line id="Line_15" data-name="Line 15" x1="338.775" transform="translate(860.62 1895.187)" fill="none" stroke="#707070" stroke-width="20"/>
            <g id="Union_1" data-name="Union 1" transform="translate(1192 1776)">
              <path id="Path_1" data-name="Path 1" d="M7.833,382.834A159.337,159.337,0,0,1,49.2,275.534,159.5,159.5,0,0,1,0,160.166C0,71.707,71.9,0,160.584,0S321.167,71.707,321.167,160.166a159.335,159.335,0,0,1-41.361,107.3A159.5,159.5,0,0,1,329,382.834C329,471.291,257.1,543,168.417,543S7.833,471.291,7.833,382.834Z" fill="none"/>
              <path id="Path_2" data-name="Path 2" d="M168.417,523C245.935,523,309,460.122,309,382.834a138.817,138.817,0,0,0-43.05-100.946l-14-13.452,13.031-14.393a139.624,139.624,0,0,0,36.188-93.877C301.167,82.878,238.1,20,160.584,20S20,82.878,20,160.166A138.814,138.814,0,0,0,63.051,261.111l14,13.452L64.021,288.957a139.623,139.623,0,0,0-36.188,93.877C27.833,460.122,90.9,523,168.417,523m0,20C79.729,543,7.833,471.291,7.833,382.834a159.335,159.335,0,0,1,41.362-107.3A159.5,159.5,0,0,1,0,160.166C0,71.707,71.9,0,160.584,0S321.167,71.707,321.167,160.166a159.333,159.333,0,0,1-41.361,107.3A159.506,159.506,0,0,1,329,382.834C329,471.291,257.1,543,168.417,543Z" fill="#707070"/>
            </g>
            <line id="Line_17" data-name="Line 17" x1="1.303" y2="108.148" transform="translate(1358.359 1668.469)" fill="none" stroke="#707070" stroke-width="20"/>
            <line id="Line_18" data-name="Line 18" x1="367.441" transform="translate(1483.445 1895.187)" fill="none" stroke="#707070" stroke-width="20"/>
            <line id="Line_19" data-name="Line 19" x1="338.775" transform="translate(854.104 2192.267)" fill="none" stroke="#707070" stroke-width="20"/>
            <line id="Line_20" data-name="Line 20" x1="367.441" transform="translate(1483.445 2192.267)" fill="none" stroke="#707070" stroke-width="20"/>
            <g id="fingerprint" transform="translate(5431.913 3006.342)">
              <g id="Layer_2" data-name="Layer 2">
                <g id="Calque_2" data-name="Calque 2">
                  <path id="Path_13" data-name="Path 13" d="M391.241,354.294c6.379,16.293,27.013,25.735,47.207,21.6a1970.06,1970.06,0,0,1,526.586-19.962c20.375,2.87,39.878-7.985,44.215-24.611a17.123,17.123,0,0,0,0-4.1c-1.546-14.543-15.564-26.074-33.244-27.345a2070.6,2070.6,0,0,0-555.176,19.689c-9.637,1.19-18.258,5.579-23.85,12.143s-7.666,14.728-5.737,22.585Zm220.741,67c3.4,16.652,22.19,28.121,42.552,25.978a1695.488,1695.488,0,0,1,301.191,5.469c20.387,3.049,40.058-7.7,44.547-24.337a17.572,17.572,0,0,0,0-4.375c-1.546-14.543-15.564-26.074-33.244-27.345a1805.262,1805.262,0,0,0-320.14-5.743c-19.752.594-35.282,14.1-34.907,30.353ZM264.913,375.9c11.191,33.434,38.6,61.614,75.8,77.934,38.974,17.732,84.394,23.36,127.99,15.86,21.609-3.828,42.885-7.11,64.494-9.844,9.6-.943,18.326-5.061,24.158-11.407s8.273-14.371,6.759-22.228c-5.085-16.578-25.228-26.858-45.544-23.244-22.606,3.008-45.212,6.563-66.488,10.391a118.767,118.767,0,0,1-68.815-8.477c-20.066-8.839-34.846-24.061-40.89-42.112-4.64-18.234.082-37.234,13.048-52.508s33.021-25.465,55.43-28.165a2112.258,2112.258,0,0,1,538.222-24.064c20.416,2.356,39.521-8.8,43.55-25.432v-3.555c-1.652-15.026-16.58-26.721-34.906-27.345a2223.05,2223.05,0,0,0-565.149,25.158c-41.444,5.028-78.565,23.822-102.694,51.991S256.724,342.1,264.913,375.9Zm27.925,100.084c-17.343-9.813-40.8-7.72-55.185,4.922-6.173,5.922-8.978,13.731-7.708,21.462s6.494,14.647,14.357,19.009a304.856,304.856,0,0,0,27.26,14.22c69.085,31.326,149.615,41.039,226.725,27.345a1606.028,1606.028,0,0,1,426.854-15.587c20.4,2.564,39.729-8.314,44.214-24.884V518.64c-.9-15.025-15.044-27.24-33.244-28.713A1714.578,1714.578,0,0,0,480,507.7c-56.645,9.659-115.623,2.285-166.22-20.783a146.984,146.984,0,0,1-21.941-10.938ZM650.877,128.421c2.268,16.769,20.47,28.942,40.89,27.345,71.913-2.744,143.962-1.922,215.754,2.461,20.8,1.93,39.621-10.26,42.22-27.345v-2.461c-2-15.313-17.517-27.021-36.236-27.345Q800.821,94.5,687.778,98.615c-20.129,0-36.541,13.261-36.9,29.811Zm-53.523,7.11a12.839,12.839,0,0,0,0-3.555c-4.029-16.6-23.2-27.674-43.55-25.158-63.829,5.743-128.322,14.493-191.486,25.158C232.293,150.279,135.388,240.693,129.61,349.1a159.624,159.624,0,0,0,7.646,48.4,173.937,173.937,0,0,0,16.954,38.283c9.977,15.111,32.2,21.6,51.528,15.04,9.279-2.324,16.862-7.865,20.76-15.171a22.989,22.989,0,0,0-.481-22.839,132.467,132.467,0,0,1-12.633-27.345,115.5,115.5,0,0,1-5.319-35.275C212.108,270.066,283.543,203.107,379.6,189.4a1754.793,1754.793,0,0,1,184.5-24.884c18.32-1.488,32.5-13.856,33.244-28.986ZM331.4,38.182C255.7,51,185.43,79.949,127.614,122.132c-7.156,5.191-11.255,12.661-11.255,20.509s4.1,15.318,11.255,20.509c15.707,11.625,39.33,12.2,55.85,1.367,47.186-34.406,104.487-58.067,166.22-68.637A2548.182,2548.182,0,0,1,826.072,58.69c20.912,1.668,39.814-10.291,43.217-27.345h0C868.074,14.183,850.96.7,830.063.445A2653.712,2653.712,0,0,0,331.4,38.181ZM652.539,615.716a19.366,19.366,0,0,0,0-4.375c-4.639-16.554-24.2-27.24-44.547-24.337q-49.866,5.332-99.732,13.946c-90.564,15.716-184.98,4.067-265.953-32.815C165.1,534.286,108.314,475.7,85.4,406.25c-18.029-58.959-7.666-121.367,28.922-174.19a23.123,23.123,0,0,0,2.8-22.3c-2.986-7.422-9.692-13.437-18.422-16.527-18.949-7.164-41.418-1.666-52.526,12.852C1.3,270.741-11.45,347.166,10.6,419.376c28.377,84.776,97.686,156.311,191.818,197.981,98.89,44.766,214.069,58.744,324.462,39.377,31.249-5.2,62.166-9.571,92.418-12.852C637.324,642.554,651.459,630.578,652.539,615.716Zm59.839-8.75h0c0,15.1,14.884,27.345,33.244,27.345,41.7-1.164,83.437-.251,125,2.735,20.346,2.457,39.313-9,42.552-25.7a9.245,9.245,0,0,0,0-3.008c.456-7.486-2.844-14.8-9.129-20.226a37.019,37.019,0,0,0-24.115-8.486,1353.882,1353.882,0,0,0-137.963-3.008c-8.839.755-16.943,4.39-22.5,10.093s-8.114,12.989-7.088,20.254Z" transform="translate(-0.032 0.017)" fill="#707070"/>
                </g>
              </g>
            </g>
          </g>
        </g>
        <g id="arrow" transform="translate(16397.176 7524.596)">
          <line id="Line_21" data-name="Line 21" x1="1864.7" transform="translate(808.101 1780.232)" fill="none" stroke="#707070" stroke-width="100"/>
          <g id="Polygon_1" data-name="Polygon 1" transform="translate(121.523 2190.58) rotate(-90)">
            <path id="Path_3" data-name="Path 3" d="M409.834,0,819.668,705.646H0Z" fill="none"/>
            <path id="Path_4" data-name="Path 4" d="M409.834,199.112,173.722,605.646H645.946L409.834,199.112M409.834,0,819.668,705.646H0Z" fill="#707070"/>
          </g>
          <line id="Line_22" data-name="Line 22" x1="2673.82" transform="translate(0 51.422)" fill="none" stroke="#707070" stroke-width="100"/>
          <line id="Line_23" data-name="Line 23" y2="1831.65" transform="translate(2657.996)" fill="none" stroke="#707070" stroke-width="100"/>
        </g>
      </g>
      <path id="Path_30" data-name="Path 30" d="M-528.651-54.438q0,75.213-27.084,131.106t-75.731,85.909q-48.647,30.016-112.13,30.016T-856.07,162.576q-48.992-30.016-76.248-85.909T-959.574-54.438V-76.174q0-75.213,27.256-131.278t75.9-86.081q48.647-30.016,112.13-30.016t112.3,30.016q48.82,30.016,76.076,86.081t27.256,131.278ZM-638.366-76.864q0-76.593-27.6-117.132t-78.318-40.539q-51.062,0-78.318,40.367t-27.256,117.3v22.426q0,76.248,27.6,117.3t78.663,41.057q50.717,0,77.973-41.057t27.256-117.3ZM-99.8,98.4v87.289H-484.489v-62.1l245.3-352.6h-245.65v-87.634h380.551v60.378L-348.208,98.4ZM345.616-229.015H192.429V185.692H84.44V-229.015H-66.332v-87.634H345.616ZM964.227,17.325q-3.45,51.752-28.464,91.429T865.9,170.512q-44.852,22.081-105.229,22.081-64.518,0-111.785-29.5T576.6,78.91Q551.59,24.226,551.59-49.953V-80.659q0-73.833,25.876-128.863t73.143-84.7q47.267-29.671,110.4-29.671,61.758,0,105.919,22.771t68.485,62.965q24.324,40.194,29.154,92.981H856.583q-3.105-45.542-25.014-67.8t-70.555-22.253q-50.717,0-75.213,37.262T661.3-81.349v31.4q0,53.477,10.005,87.116t31.741,50.2q21.736,16.561,57.617,16.561,46.577,0,69.52-21.218t26.049-65.38Zm363.3,76.248q0,31.741,3.8,51.407a134.761,134.761,0,0,0,11.385,34.846v5.865h-104.54q-6.9-13.456-10.005-33.466-35.536,40.367-93.5,40.367-35.191,0-64.173-14.491t-45.714-40.022q-16.733-25.531-16.733-57.617,0-59,43.817-90.911T1180.9-42.362h42.437V-63.408q0-25.876-13.11-40.194T1170.9-117.92q-23.806,0-37.089,11.213t-13.283,31.914h-104.2a100.76,100.76,0,0,1,19.838-60.723Q1056-162.772,1092.4-178.643t84.011-15.871q44.162,0,78.318,14.836t53.477,44.507q19.321,29.671,19.321,72.453Zm-169.4,20.011q22.771,0,40.022-9.833t25.186-23.979V17.325h-39.677q-36.227,0-53.995,15.7T1111.9,73.909q0,17.6,12.593,28.636t33.642,11.039Zm427.473-308.1a127.032,127.032,0,0,1,16.906,1.208A90.741,90.741,0,0,1,1617-190.375l-1.38,100.744a271.6,271.6,0,0,0-36.917-2.76q-55.892,0-72.8,36.917V185.692H1401.71V-187.613h97.984l3.1,45.2q13.8-25.186,35.019-38.642t47.782-13.459ZM1985.47-344.25V185.692h-93.844l-5.175-40.022q-36.572,46.922-94.534,46.922-45.2,0-78.146-24.324t-50.027-67.105q-17.078-42.782-17.078-97.639V-3.721q0-56.927,17.078-100.054t50.027-66.933q32.949-23.806,78.836-23.806,53.132,0,88.669,40.367v-190.1ZM1818.48,108.409q43.817,0,62.793-37.262V-73.068q-17.941-37.262-62.1-37.262-35.536,0-51.925,28.981T1750.86-3.721V3.525q0,47.957,16.043,76.421T1818.48,108.409Z" transform="translate(11222.574 11335.14)" fill="#666"/>
    </g>
  </g>
</svg>
