<svg xmlns="http://www.w3.org/2000/svg" width="21280" height="5704" viewBox="0 0 21280 5704">
  <g id="To_FlashX" transform="translate(-1986 -5595)">
    <g id="Group_83" data-name="Group 83" transform="translate(-80 40)">
      <rect id="Rectangle_20" data-name="Rectangle 20" width="21280" height="5704" transform="translate(2066 5555)" fill="none"/>
    </g>
    <g id="Group_85" data-name="Group 85" transform="translate(-1303)">
      <g id="arrow" transform="translate(-1128 40)">
        <g id="Group_18" data-name="Group 18" transform="translate(23901 17123.5) rotate(180)">
          <line id="Line_21" data-name="Line 21" x2="4118" transform="translate(4071.5 8956.5)" fill="none" stroke="#707070" stroke-width="100"/>
          <g id="Polygon_1" data-name="Polygon 1" transform="translate(8840.5 8557.5) rotate(90)">
            <path id="Path_1" data-name="Path 1" d="M398.5,0,797,691H0Z" fill="none"/>
            <path id="Path_2" data-name="Path 2" d="M398.5,200.169,173.108,591H623.892L398.5,200.169M398.5,0,797,691H0Z" fill="#707070"/>
          </g>
        </g>
      </g>
      <g id="FlashX" transform="translate(-10214 4870)">
        <g id="Rectangle_4" data-name="Rectangle 4" transform="translate(19370 1605)" fill="none" stroke="#707070" stroke-width="100">
          <rect width="4684" height="955" rx="237" stroke="none"/>
          <rect x="50" y="50" width="4584" height="855" rx="187" fill="none"/>
        </g>
        <line id="Line_1" data-name="Line 1" x2="937.037" transform="translate(19838.518 2082.94)" fill="none" stroke="#707070" stroke-width="100"/>
        <g id="Ellipse_2" data-name="Ellipse 2" transform="translate(21057 1992)" fill="#707070" stroke="#707070" stroke-width="1">
          <ellipse cx="93.5" cy="90.5" rx="93.5" ry="90.5" stroke="none"/>
          <ellipse cx="93.5" cy="90.5" rx="93" ry="90" fill="none"/>
        </g>
        <g id="Ellipse_3" data-name="Ellipse 3" transform="translate(21525 1992)" fill="#707070" stroke="#707070" stroke-width="1">
          <ellipse cx="94.5" cy="90.5" rx="94.5" ry="90.5" stroke="none"/>
          <ellipse cx="94.5" cy="90.5" rx="94" ry="90" fill="none"/>
        </g>
        <line id="Line_2" data-name="Line 2" y2="869.419" transform="translate(22999.904 1605.48)" fill="none" stroke="#707070" stroke-width="100"/>
        <line id="Line_3" data-name="Line 3" y2="869.419" transform="translate(23498.602 1605.48)" fill="none" stroke="#707070" stroke-width="100"/>
        <g id="Rectangle_5" data-name="Rectangle 5" transform="translate(19371 2672)" fill="none" stroke="#707070" stroke-width="100">
          <rect width="4683" height="955" rx="237" stroke="none"/>
          <rect x="50" y="50" width="4583" height="855" rx="187" fill="none"/>
        </g>
        <line id="Line_4" data-name="Line 4" x2="937.037" transform="translate(19839.629 3148.655)" fill="none" stroke="#707070" stroke-width="100"/>
        <g id="Ellipse_4" data-name="Ellipse 4" transform="translate(21057 3058)" fill="#707070" stroke="#707070" stroke-width="1">
          <ellipse cx="94" cy="91" rx="94" ry="91" stroke="none"/>
          <ellipse cx="94" cy="91" rx="93.5" ry="90.5" fill="none"/>
        </g>
        <g id="Ellipse_5" data-name="Ellipse 5" transform="translate(21527 3058)" fill="#707070" stroke="#707070" stroke-width="1">
          <ellipse cx="93.5" cy="91" rx="93.5" ry="91" stroke="none"/>
          <ellipse cx="93.5" cy="91" rx="93" ry="90.5" fill="none"/>
        </g>
        <line id="Line_5" data-name="Line 5" y2="869.419" transform="translate(23001.018 2671.194)" fill="none" stroke="#707070" stroke-width="100"/>
        <line id="Line_6" data-name="Line 6" y2="869.419" transform="translate(23499.713 2671.194)" fill="none" stroke="#707070" stroke-width="100"/>
        <g id="Rectangle_6" data-name="Rectangle 6" transform="translate(19371 3736)" fill="none" stroke="#707070" stroke-width="100">
          <rect width="4686" height="955" rx="237" stroke="none"/>
          <rect x="50" y="50" width="4586" height="855" rx="187" fill="none"/>
        </g>
        <line id="Line_7" data-name="Line 7" x2="937.037" transform="translate(19840.742 4214.368)" fill="none" stroke="#707070" stroke-width="100"/>
        <g id="Ellipse_6" data-name="Ellipse 6" transform="translate(21059 4124)" fill="#707070" stroke="#707070" stroke-width="1">
          <ellipse cx="94.5" cy="90" rx="94.5" ry="90" stroke="none"/>
          <ellipse cx="94.5" cy="90" rx="94" ry="89.5" fill="none"/>
        </g>
        <g id="Ellipse_7" data-name="Ellipse 7" transform="translate(21527 4124)" fill="#707070" stroke="#707070" stroke-width="1">
          <ellipse cx="94.5" cy="90" rx="94.5" ry="90" stroke="none"/>
          <ellipse cx="94.5" cy="90" rx="94" ry="89.5" fill="none"/>
        </g>
        <line id="Line_8" data-name="Line 8" y2="869.419" transform="translate(23002.127 3736.908)" fill="none" stroke="#707070" stroke-width="100"/>
        <line id="Line_9" data-name="Line 9" y2="869.419" transform="translate(23500.826 3736.908)" fill="none" stroke="#707070" stroke-width="100"/>
      </g>
      <path id="Path_41" data-name="Path 41" d="M-566.606-229.015V-104.81h197.693v86.944H-566.606V185.693H-674.941V-316.649h329.834v87.634Zm278.082,414.708V-344.25h104.539V185.693Zm488.2-92.119q0,31.741,3.8,51.407a134.766,134.766,0,0,0,11.385,34.846v5.865H110.313q-6.9-13.456-10-33.466-35.537,40.367-93.5,40.367-35.191,0-64.173-14.491t-45.714-40.022q-16.733-25.531-16.733-57.617,0-59,43.817-90.911T53.041-42.362H95.477V-63.408q0-25.876-13.111-40.194T43.035-117.92q-23.806,0-37.089,11.213T-7.337-74.793H-111.531a100.76,100.76,0,0,1,19.838-60.723q19.838-27.256,56.237-43.127t84.011-15.871q44.162,0,78.318,14.836t53.477,44.507q19.321,29.671,19.321,72.453ZM30.27,113.585q22.771,0,40.022-9.833T95.477,79.773V17.326H55.8q-36.227,0-53.995,15.7T-15.962,73.908q0,17.6,12.593,28.636T30.27,113.585ZM398.4,36.3Q265.915,8.01,265.915-77.9a101.323,101.323,0,0,1,18.113-58.307q18.113-26.566,52.27-42.437t79.7-15.87q47.957,0,83.839,15.353t55.2,42.782q19.321,27.429,19.321,62.62h-104.2q0-22.426-13.456-35.019T415.651-121.37q-22.771,0-36.4,10.7t-13.628,27.6q0,16.216,15.353,26.221t52.27,16.906q44.162,8.28,74.868,21.563t48.82,36.744q18.113,23.461,18.113,59.688a95.7,95.7,0,0,1-19.493,58.825q-19.493,26.049-55.547,40.884T416.341,192.6q-50.372,0-87.116-18.458T273.332,126.7q-19.148-28.981-19.148-60.378h98.329q1.035,26.911,19.321,39.849T418.756,119.1q26.566,0,40.884-10.178T473.959,81.5a26.813,26.813,0,0,0-6.383-18.113q-6.383-7.418-22.771-13.973T398.4,36.3ZM836.914-194.514q58.652,0,91.256,34.846t32.6,111.44v233.92H856.58V-48.917q0-33.811-14.318-47.612t-43.644-13.8q-41.747,0-60.033,30.361V185.693H634.391V-344.25H738.585v196.658a127.889,127.889,0,0,1,43.644-34.846Q807.243-194.514,836.914-194.514Zm475.43-122.135H1436.2l-144.561,249.1L1440,185.693H1314.76l-93.5-173.887-93.5,173.887H1002.52L1150.88-67.548l-144.561-249.1h124.2l90.739,170.782Z" transform="translate(11116.94 10769.14)" fill="#666"/>
    </g>
  </g>
</svg>
