<svg xmlns="http://www.w3.org/2000/svg" width="21280" height="5704" viewBox="0 0 21280 5704">
  <g id="To_User" transform="translate(-1986 -5595)">
    <rect id="Rectangle_20" data-name="Rectangle 20" width="21280" height="5704" transform="translate(1986 5595)" fill="none"/>
    <g id="Group_90" data-name="Group 90" transform="translate(3338.5)">
      <g id="arrow" transform="translate(24651 16256) rotate(180)">
        <g id="Group_82" data-name="Group 82" transform="translate(-1128 40)">
          <g id="Group_18" data-name="Group 18" transform="translate(23901 17123.5) rotate(180)">
            <line id="Line_21" data-name="Line 21" x2="4118" transform="translate(4071.5 8956.5)" fill="none" stroke="#707070" stroke-width="100"/>
            <g id="Polygon_1" data-name="Polygon 1" transform="translate(8840.5 8557.5) rotate(90)">
              <path id="Path_1" data-name="Path 1" d="M398.5,0,797,691H0Z" fill="none"/>
              <path id="Path_2" data-name="Path 2" d="M398.5,200.169,173.108,591H623.892L398.5,200.169M398.5,0,797,691H0Z" fill="#707070"/>
            </g>
          </g>
        </g>
      </g>
      <g id="user">
        <g id="_001-man" data-name="001-man" transform="translate(10747.633 5593)">
          <path id="Path_9" data-name="Path 9" d="M354.17,2719.08C178.537,2718.87,36.21,2576.543,36,2400.909V1083.06a63.431,63.431,0,1,1,126.862,0V2400.91c0,105.674,85.666,191.34,191.34,191.34s191.34-85.666,191.34-191.34V93.031a63.431,63.431,0,0,1,126.862,0V2400.91c-.21,175.658-142.576,318-318.234,318.17Z" transform="translate(851.123 1723.098)" fill="#707070"/>
          <path id="Path_10" data-name="Path 10" d="M346.2,2719.08c-175.658-.176-318.024-142.512-318.234-318.171V93.031a63.431,63.431,0,0,1,126.862,0V2400.91c0,105.674,85.666,191.34,191.34,191.34s191.34-85.666,191.34-191.34V1083.06a63.431,63.431,0,1,1,126.862,0V2400.91c-.21,175.633-142.537,317.96-318.17,318.17Z" transform="translate(349.614 1723.098)" fill="#707070"/>
          <path id="Path_11" data-name="Path 11" d="M1637.7,1889.64c-133.122,0-241.038-107.917-241.038-241.038V683.941a63.431,63.431,0,0,1,126.862,0v964.153a114.176,114.176,0,1,0,228.352,0V471.13C1751.67,292.2,1606.67,147.207,1427.75,147H473.362c-178.927.21-323.923,145.206-324.133,324.133V1648.6a114.176,114.176,0,1,0,228.352,0V683.941a63.431,63.431,0,0,1,126.862,0v964.153c0,133.122-107.916,241.038-241.038,241.038S22.367,1781.22,22.367,1648.09V471.13c.28-248.962,202.033-450.716,451-450.995h954.384c248.962.28,450.715,202.033,451,451V1648.6c-.175,133.049-107.989,240.863-241.038,241.038Z" transform="translate(0 1132.188)" fill="#707070"/>
          <path id="Path_12" data-name="Path 12" d="M527.958,999.644c-275.492,0-498.822-223.331-498.822-498.822S252.466,2,527.958,2,1026.78,225.33,1026.78,500.822C1026.46,776.183,803.319,999.33,527.958,999.644Zm0-870.782C322.53,128.862,156,295.394,156,500.822s166.532,371.96,371.96,371.96S899.92,706.25,899.92,500.822c-.21-205.341-166.619-371.75-371.96-371.96Z" transform="translate(422.596)" fill="#707070"/>
        </g>
        <path id="Path_34" data-name="Path 34" d="M-2.809,56.789q0,66.053-28.423,112.891T-110.3,240.538q-50.641,24.019-117.1,24.019-66.854,0-117.9-24.019T-424.75,169.68q-28.423-46.838-28.423-112.891V-326.32h126.1V56.789q0,106.486,99.681,106.486,48.439,0,73.659-25.821t25.22-80.665V-326.32h125.7ZM230.579,83.21Q76.855,50.384,76.855-49.3a117.567,117.567,0,0,1,21.017-67.655q21.017-30.825,60.649-49.24T251-184.606q55.645,0,97.279,17.814t64.052,49.64q22.418,31.826,22.418,72.659h-120.9q0-26.021-15.613-40.633T250.6-99.737q-26.421,0-42.234,12.41T192.549-55.3q0,18.815,17.814,30.425T271.012-5.261q51.241,9.608,86.87,25.02t56.646,42.634q21.017,27.222,21.017,69.256A111.041,111.041,0,0,1,412.927,199.9q-22.618,30.224-64.452,47.438T251.4,264.557q-58.447,0-101.082-21.417T85.462,188.1q-22.218-33.627-22.218-70.057H177.336q1.2,31.225,22.418,46.237T254.2,179.288q30.825,0,47.438-11.81t16.613-31.826q0-12.41-7.406-21.017T284.423,98.423Q265.408,90.817,230.579,83.21Zm658.132-4H614.89q6.805,40.433,33.627,64.252t68.856,23.819q31.225,0,57.847-11.81a119.364,119.364,0,0,0,45.437-35.429L878.7,186.894q-22.818,32.826-66.654,55.245t-102.68,22.418q-66.454,0-115.493-28.023t-75.261-76.061q-26.221-48.039-26.221-106.086V39.175q0-64.852,24.42-115.693t70.457-79.464Q633.305-184.6,696.156-184.6q61.25,0,104.485,26.021t65.653,73.86q22.418,47.839,22.418,112.691Zm-118.5-90.473q-.8-35.228-19.416-55.645t-55.44-20.419q-34.428,0-53.843,22.818T616.091-1.658H770.215ZM1165.33-184.6a147.389,147.389,0,0,1,19.616,1.4,105.284,105.284,0,0,1,16.813,3.4l-1.6,116.894a315.126,315.126,0,0,0-42.835-3.2q-64.852,0-84.468,42.835V256.55h-120.9V-176.6h113.692l3.6,52.442q16.013-29.224,40.633-44.836t55.449-15.612Z" transform="translate(11424.236 10727.664)" fill="#666"/>
      </g>
    </g>
  </g>
</svg>
