<svg xmlns="http://www.w3.org/2000/svg" width="21280" height="5804.234" viewBox="0 0 21280 5804.234">
  <g id="User_To_FlashDapp" transform="translate(-1195 -6392)">
    <rect id="Rectangle_20" data-name="Rectangle 20" width="21280" height="5704" transform="translate(1195 6492)" fill="none"/>
    <g id="Group_54" data-name="Group 54" transform="translate(2884 220)">
      <path id="Path_34" data-name="Path 34" d="M72.317,120.7q0,77.072-33.164,131.723T-53.1,335.1q-59.088,28.026-136.627,28.026-78.006,0-137.562-28.026t-92.72-82.677q-33.164-54.651-33.164-131.723V-326.32h147.137V120.7q0,124.249,116.308,124.249,56.519,0,85.947-30.128T-74.353,120.7V-326.32H72.317Zm272.32,30.829Q165.27,113.223,165.27-3.086q0-42.973,24.523-78.94t70.766-57.454q46.243-21.487,107.9-21.487,64.927,0,113.506,20.786T556.7-82.26q26.158,37.135,26.158,84.779H441.794q0-30.362-18.217-47.411T367.992-61.941q-30.829,0-49.279,14.48T300.262-10.092q0,21.954,20.786,35.5T391.814,48.3Q451.6,59.506,493.175,77.489t66.1,49.746Q583.793,159,583.793,208.044q0,44.375-26.391,79.641t-75.2,55.352Q433.39,363.122,368.93,363.122q-68.2,0-117.943-24.99T175.316,273.9q-25.924-39.237-25.924-81.743H282.513q1.4,36.434,26.158,53.95T372.2,263.629q35.967,0,55.352-13.78t19.385-37.135q0-14.48-8.641-24.523t-30.829-18.918q-22.192-8.873-62.83-17.748Zm767.915-4.671h-319.5q7.941,47.177,39.237,74.97t80.342,27.793q36.434,0,67.5-13.78a139.276,139.276,0,0,0,53.016-41.339l67.73,78.006q-26.625,38.3-77.772,64.46T903.291,363.122q-77.539,0-134.759-32.7t-87.815-88.749q-30.6-56.052-30.6-123.782v-17.75q0-75.67,28.493-134.992t82.21-92.72q53.717-33.4,127.052-33.4,71.467,0,121.914,30.362t76.6,86.18q26.158,55.819,26.158,131.489ZM974.29,41.289q-.934-41.1-22.654-64.927T886.942-47.461q-40.171,0-62.825,26.625T794.456,52.5H974.29Zm461.03-202.255a171.971,171.971,0,0,1,22.888,1.635,122.845,122.845,0,0,1,19.618,3.97l-1.868,136.394a367.7,367.7,0,0,0-49.98-3.737q-75.671,0-98.558,49.98v326.5H1186.35v-505.4h132.657l4.2,61.19q18.684-34.1,47.411-52.315T1435.32-160.966Z" transform="translate(4136.173 11524.36)" fill="#666"/>
      <rect id="Rectangle_20-2" data-name="Rectangle 20" width="11120" height="5704" transform="translate(3391 6172)" fill="none"/>
      <path id="Path_35" data-name="Path 35" d="M-992.762-211.1V-67.58h225.319V32.888H-992.762V268.1h-123.473V-312.357H-740.31V-211.1Zm316.941,479.2V-344.25h119.148V268.1ZM-119.4,161.657q0,36.677,4.325,59.4A157.235,157.235,0,0,0-102.1,261.323V268.1H-221.251q-7.865-15.548-11.4-38.671-40.5,46.644-106.564,46.644-40.109,0-73.14-16.744t-52.1-46.245q-19.072-29.5-19.072-66.577,0-68.172,49.94-105.048T-286.526,4.582h48.367V-19.736q0-29.9-14.943-46.445T-297.93-82.725q-27.133,0-42.272,12.957t-15.139,36.877H-474.1a117.509,117.509,0,0,1,22.611-70.165q22.611-31.5,64.1-49.833t95.751-18.339q50.333,0,89.263,17.143t60.95,51.428Q-119.4-68.373-119.4-18.939ZM-312.474,184.78q25.953,0,45.614-11.362t28.706-27.707V73.552h-45.221q-41.289,0-61.54,18.139t-20.251,47.242q0,20.332,14.353,33.089t38.334,12.757ZM107.1,95.48q-151-32.691-151-131.958a118.214,118.214,0,0,1,20.644-67.375q20.644-30.7,59.574-49.036t90.835-18.339q54.659,0,95.554,17.741t62.916,49.435Q307.639-72.36,307.639-31.7H188.885q0-25.913-15.336-40.465T126.755-86.712q-25.953,0-41.485,12.359T69.737-42.46q0,18.737,17.5,30.3T146.81,7.373q50.333,9.568,85.33,24.917t55.642,42.458q20.644,27.109,20.644,68.969,0,37.873-22.217,67.972T222.9,258.931q-41.092,17.143-95.358,17.143-57.411,0-99.29-21.329t-63.7-54.817q-21.824-33.488-21.824-69.766H54.794q1.18,31.1,22.021,46.046t53.479,14.95q30.278,0,46.6-11.761t16.316-31.7q0-12.359-7.275-20.93t-25.953-16.146q-18.682-7.571-52.888-15.146ZM606.885-171.229q66.849,0,104.008,40.265T748.053-2.195V268.1H629.3V-2.992q0-39.069-16.319-55.016T563.237-73.955q-47.581,0-68.421,35.083V268.1H376.061V-344.25H494.815v227.239q21.234-26.312,49.743-40.265T606.885-171.229Zm609.9-141.128q76.679,0,136.253,34.883t93,98.072q33.424,63.189,33.424,144.516V-9.371q0,81.726-33.424,144.716t-93.195,97.872Q1293.07,268.1,1215.99,268.1H1038.26V-312.357ZM1354.02-35.683q0-86.112-35-130.762T1216.78-211.1h-55.052V167.238h54.265q67.242,0,102.632-45.249t35.391-131.36ZM1901,161.657q0,36.677,4.325,59.4a157.242,157.242,0,0,0,12.976,40.265V268.1H1799.15q-7.865-15.548-11.4-38.671-40.5,46.644-106.564,46.644-40.109,0-73.14-16.744t-52.1-46.245q-19.072-29.5-19.072-66.577,0-68.172,49.94-105.048T1733.87,4.582h48.367V-19.736q0-29.9-14.943-46.445T1722.47-82.725q-27.133,0-42.272,12.957t-15.139,36.877H1546.3a117.509,117.509,0,0,1,22.61-70.165q22.611-31.495,64.1-49.833t95.751-18.339q50.333,0,89.263,17.143t60.95,51.428q22.021,34.285,22.021,83.72ZM1707.92,184.779q25.953,0,45.614-11.362t28.706-27.707V73.552h-45.221q-41.289,0-61.54,18.139t-20.251,47.242q0,20.332,14.353,33.089T1707.92,184.779Zm497.432-356.008q53.086,0,90.442,27.109t56.428,76.344q19.071,49.235,19.071,115.414V56.01q0,63.388-19.268,113.42T2295.6,247.768q-37.16,28.3-89.459,28.3-62.13,0-101.845-45.448v203.32H1985.54v-597.2h110.1l4.325,41.461q40.115-49.435,105.385-49.435Zm47.581,218.867q0-55.813-18.875-88.7t-59.377-32.89q-51.513,0-70.388,39.867V137.737q19.661,41.461,71.174,41.461,40.5,0,58.984-33.887t18.481-89.3Zm405.81-218.867q53.086,0,90.442,27.109t56.428,76.344q19.072,49.235,19.072,115.414V56.01q0,63.388-19.268,113.42t-56.428,78.338q-37.16,28.305-89.459,28.305-62.13,0-101.846-45.448v203.32H2438.93v-597.2h110.1l4.325,41.461q40.115-49.435,105.385-49.435Zm47.581,218.867q0-55.813-18.875-88.7t-59.377-32.89q-51.513,0-70.387,39.867V137.737q19.661,41.461,71.174,41.461,40.5,0,58.984-33.887t18.481-89.3Z" transform="translate(11532.235 11542.289)" fill="#666"/>
      <g id="arrow" transform="translate(-883.5 -398.5)">
        <line id="Line_21" data-name="Line 21" x2="2670.25" transform="translate(6994.5 8894.5)" fill="none" stroke="#707070" stroke-width="100"/>
        <g id="Polygon_1" data-name="Polygon 1" transform="translate(10674.5 8495.5) rotate(90)">
          <path id="Path_1" data-name="Path 1" d="M398.5,0,797,1010.48H0Z" fill="none"/>
          <path id="Path_2" data-name="Path 2" d="M398.5,272.578l-251.568,637.9H650.068L398.5,272.578M398.5,0,797,1010.48H0Z" fill="#707070"/>
        </g>
      </g>
      <g id="user" transform="translate(3697.633 6273)">
        <path id="Path_9" data-name="Path 9" d="M354.17,2719.08C178.537,2718.87,36.21,2576.543,36,2400.909V1083.06a63.431,63.431,0,1,1,126.862,0V2400.91c0,105.674,85.666,191.34,191.34,191.34s191.34-85.666,191.34-191.34V93.031a63.431,63.431,0,0,1,126.862,0V2400.91c-.21,175.658-142.576,318-318.234,318.17Z" transform="translate(851.123 1723.098)" fill="#707070"/>
        <path id="Path_10" data-name="Path 10" d="M346.2,2719.08c-175.658-.176-318.024-142.512-318.234-318.171V93.031a63.431,63.431,0,0,1,126.862,0V2400.91c0,105.674,85.666,191.34,191.34,191.34s191.34-85.666,191.34-191.34V1083.06a63.431,63.431,0,1,1,126.862,0V2400.91c-.21,175.633-142.537,317.96-318.17,318.17Z" transform="translate(349.614 1723.098)" fill="#707070"/>
        <path id="Path_11" data-name="Path 11" d="M1637.7,1889.64c-133.122,0-241.038-107.917-241.038-241.038V683.941a63.431,63.431,0,0,1,126.862,0v964.153a114.176,114.176,0,1,0,228.352,0V471.13C1751.67,292.2,1606.67,147.207,1427.75,147H473.362c-178.927.21-323.923,145.206-324.133,324.133V1648.6a114.176,114.176,0,1,0,228.352,0V683.941a63.431,63.431,0,0,1,126.862,0v964.153c0,133.122-107.916,241.038-241.038,241.038S22.367,1781.22,22.367,1648.09V471.13c.28-248.962,202.033-450.716,451-450.995h954.384c248.962.28,450.715,202.033,451,451V1648.6c-.175,133.049-107.989,240.863-241.038,241.038Z" transform="translate(0 1132.188)" fill="#707070"/>
        <path id="Path_12" data-name="Path 12" d="M527.958,999.644c-275.492,0-498.822-223.331-498.822-498.822S252.466,2,527.958,2,1026.78,225.33,1026.78,500.822C1026.46,776.183,803.319,999.33,527.958,999.644Zm0-870.782C322.53,128.862,156,295.394,156,500.822s166.532,371.96,371.96,371.96S899.92,706.25,899.92,500.822c-.21-205.341-166.619-371.75-371.96-371.96Z" transform="translate(422.596)" fill="#707070"/>
      </g>
      <g id="Flash_Dapp" data-name="Flash Dapp" transform="translate(10300 6226)">
        <g id="Group_27" data-name="Group 27">
          <path id="Path_16" data-name="Path 16" d="M2870,2705V4133c0,197.17-159.83,357-357,357H407c-197.17,0-357-159.83-357-357V407C50,209.83,209.83,50,407,50H2513c197.17,0,357,159.83,357,357v825" fill="none" stroke="#707070" stroke-width="100"/>
          <path id="Path_17" data-name="Path 17" d="M2731,2705" fill="none" stroke="#707070" stroke-width="100"/>
          <path id="Path_18" data-name="Path 18" d="M2731,2705V3843a41,41,0,0,1-41,41H231a41,41,0,0,1-41-41V481a41,41,0,0,1,41-41H2690a41,41,0,0,1,41,41v751" fill="none" stroke="#707070" stroke-width="100"/>
          <ellipse id="Ellipse_1" data-name="Ellipse 1" cx="161" cy="162" rx="161" ry="162" transform="translate(1299 4064)" fill="none" stroke="#707070" stroke-width="50"/>
          <path id="Rectangle_3" data-name="Rectangle 3" d="M1059,166h805a47,47,0,0,1,47,47h0a47,47,0,0,1-47,47H1059a47,47,0,0,1-47-47h0a47,47,0,0,1,47-47Z" fill="none" stroke="#707070" stroke-width="50"/>
        </g>
        <g id="Group_29" data-name="Group 29">
          <g id="Rectangle_8" data-name="Rectangle 8">
            <path id="Path_19" data-name="Path 19" d="M3984,1182H1757a138,138,0,0,0-138,138.006V2617a138,138,0,0,0,138.006,138H3984a138,138,0,0,0,138-138.006V1320a138,138,0,0,0-138.006-138Z" fill="none"/>
            <path id="Path_20" data-name="Path 20" d="M2981.2,2705H1757a88,88,0,0,1-88-88V1320a88,88,0,0,1,88-88H2942.88" fill="none" stroke="#707070" stroke-width="100"/>
            <path id="Path_21" data-name="Path 21" d="M2870,1232" fill="none" stroke="#707070" stroke-width="100"/>
            <path id="Path_22" data-name="Path 22" d="M2870,1232H3984a88,88,0,0,1,88,88V2617a88,88,0,0,1-88,88H2870" fill="none" stroke="#707070" stroke-width="100"/>
          </g>
          <g id="Rectangle_9" data-name="Rectangle 9">
            <rect id="Rectangle_21" data-name="Rectangle 21" width="372" height="290" rx="90" transform="translate(1893 1736)" fill="none"/>
            <rect id="Rectangle_22" data-name="Rectangle 22" width="352" height="270" rx="80" transform="translate(1903 1746)" fill="none" stroke="#707070" stroke-width="20"/>
          </g>
          <g id="Rectangle_10" data-name="Rectangle 10">
            <rect id="Rectangle_23" data-name="Rectangle 23" width="638" height="447" transform="translate(3313 2091)" fill="none"/>
            <rect id="Rectangle_24" data-name="Rectangle 24" width="618" height="427" transform="translate(3323 2101)" fill="none" stroke="#707070" stroke-width="20"/>
          </g>
          <g id="Rectangle_11" data-name="Rectangle 11">
            <rect id="Rectangle_25" data-name="Rectangle 25" width="512" height="333" transform="translate(3376 2148)" fill="none"/>
            <rect id="Rectangle_26" data-name="Rectangle 26" width="492" height="313" transform="translate(3386 2158)" fill="none" stroke="#707070" stroke-width="20"/>
          </g>
          <g id="Path_14" data-name="Path 14">
            <path id="Path_23" data-name="Path 23" d="M3313.48,1581.62h637.792v444.5H3313.48Z" fill="none"/>
            <path id="Path_24" data-name="Path 24" d="M3333.48,1601.62v404.5h597.792v-404.5Zm-20-20h637.792v444.5H3313.48Z" fill="#707070"/>
          </g>
          <path id="Path_15" data-name="Path 15" d="M1862.6,2590.35q-22.5,0-36.045-14.831t-13.541-38.587q0-25.531,13.8-40.731t37.558-15.2q21.915,0,35.307,14.758t13.393,38.591q0,25.9-13.725,40.952T1862.6,2590.35Zm.885-98.138q-16.675,0-27.08,12.027t-10.4,31.581q0,19.554,10.146,31.47t26.453,11.917q17.415,0,27.449-11.363t10.035-31.8q0-20.957-9.74-32.393t-26.868-11.431Zm135.77-6.493-61.982,91.644h60.506v11.216h-79.027v-3.468l61.462-91.128H1923.7v-11.216h75.559Zm82.569,8.264h-30.549v94.6h-12.4v-94.6H2008.4v-11.216h73.419Zm81.609,90.169q-11.732,6.2-29.22,6.2-22.579,0-36.156-14.536t-13.577-38.148q0-25.383,15.274-41.026T2138.49,2481q15.052,0,24.94,4.353v13.208a50.578,50.578,0,0,0-25.088-6.346q-18.227,0-29.552,12.175t-11.327,32.543q0,19.332,10.589,30.806t27.781,11.474q15.938,0,27.6-7.084Zm103.451,4.427h-13.726l-11.216-29.663H2197.08l-10.552,29.663h-13.8l40.586-105.812h12.839Zm-29-40.8-16.6-45.084a43.2,43.2,0,0,1-1.623-7.084h-.3a39.451,39.451,0,0,1-1.7,7.084l-16.447,45.079Zm120.422,40.8h-14.758l-17.709-29.663a64.546,64.546,0,0,0-4.722-7.047,26.894,26.894,0,0,0-4.686-4.759,16.232,16.232,0,0,0-5.165-2.693,21.242,21.242,0,0,0-6.235-.849h-10.183v45.011h-12.4V2482.77h31.581a44.951,44.951,0,0,1,12.8,1.734,28.648,28.648,0,0,1,10.185,5.276,24.5,24.5,0,0,1,6.752,8.818,29.237,29.237,0,0,1,2.435,12.359,29.735,29.735,0,0,1-1.66,10.146,26.5,26.5,0,0,1-4.722,8.227,28.627,28.627,0,0,1-7.379,6.161,37.668,37.668,0,0,1-9.7,3.948v.3a22.329,22.329,0,0,1,4.612,2.693,25.314,25.314,0,0,1,3.726,3.579,47.313,47.313,0,0,1,3.5,4.686q1.734,2.618,3.874,6.087Zm-63.458-94.6v38.37h16.824a25.512,25.512,0,0,0,8.6-1.4,19.882,19.882,0,0,0,6.825-4.021,18.237,18.237,0,0,0,4.5-6.42,21.491,21.491,0,0,0,1.623-8.522q0-8.485-5.5-13.245t-15.9-4.759Zm77.994,94.6V2482.77h29.22q55.93,0,55.931,51.578,0,24.5-15.532,39.366t-41.579,14.868Zm12.4-94.6v83.38h15.791q20.808,0,32.393-11.142t11.585-31.581q0-40.657-43.24-40.657Z" transform="translate(0 -75)" fill="#707070"/>
          <rect id="Rectangle_13" data-name="Rectangle 13" width="538" height="88" transform="translate(3363 1881)" fill="#707070"/>
          <g id="Group_26" data-name="Group 26">
            <g id="Group_2" data-name="Group 2">
              <line id="Line_10" data-name="Line 10" x1="24.744" y2="29.163" transform="translate(3378.598 1636.687)" fill="none" stroke="#707070" stroke-width="20"/>
              <line id="Line_11" data-name="Line 11" x1="28.279" y1="29.605" transform="translate(3375.063 1663.64)" fill="none" stroke="#707070" stroke-width="20"/>
            </g>
            <g id="Group_3" data-name="Group 3">
              <line id="Line_10-2" data-name="Line 10-2" x2="26.732" y2="29.163" transform="translate(3859.783 1636.687)" fill="none" stroke="#707070" stroke-width="20"/>
              <line id="Line_11-2" data-name="Line 11-2" y1="29.605" x2="30.267" transform="translate(3859.783 1663.64)" fill="none" stroke="#707070" stroke-width="20"/>
            </g>
            <rect id="Rectangle_14" data-name="Rectangle 14" width="149.997" height="30.487" transform="translate(3567.875 1649.908)" fill="#707070"/>
          </g>
          <line id="Line_12" data-name="Line 12" y2="248.325" transform="translate(1967.848 1756.873)" fill="none" stroke="#707070" stroke-width="20"/>
          <line id="Line_13" data-name="Line 13" x1="0.442" y2="36.674" transform="translate(2079.639 1968.524)" fill="none" stroke="#707070" stroke-width="20"/>
          <line id="Line_14" data-name="Line 14" y2="248.325" transform="translate(2201.149 1756.873)" fill="none" stroke="#707070" stroke-width="20"/>
          <line id="Line_15" data-name="Line 15" x1="114.883" transform="translate(1910.849 1824.919)" fill="none" stroke="#707070" stroke-width="20"/>
          <g id="Union_1" data-name="Union 1">
            <path id="Path_25" data-name="Path 25" d="M2025.67,1914.73a53.857,53.857,0,0,1,14.081-36.36,54.657,54.657,0,1,1,78.506-2.735,54.466,54.466,0,1,1-92.587,39.1Z" fill="none"/>
            <path id="Path_26" data-name="Path 26" d="M2080.33,1949a34.511,34.511,0,0,0,34.67-34.27,33.814,33.814,0,0,0-10.57-24.639l-14.1-13.481,13.124-14.43a33.979,33.979,0,0,0,8.877-22.9,34.668,34.668,0,1,0-69.336,0,33.813,33.813,0,0,0,10.572,24.639l14.1,13.482-13.124,14.43a33.977,33.977,0,0,0-8.876,22.9A34.511,34.511,0,0,0,2080.33,1949Zm0,20a54.471,54.471,0,0,1-54.666-54.274,53.854,53.854,0,0,1,14.08-36.359,54.658,54.658,0,1,1,78.506-2.734,53.928,53.928,0,0,1,16.75,39.1A54.471,54.471,0,0,1,2080.33,1969Z" fill="#707070"/>
          </g>
          <line id="Line_17" data-name="Line 17" x1="0.442" y2="36.674" transform="translate(2079.639 1748.036)" fill="none" stroke="#707070" stroke-width="20"/>
          <line id="Line_18" data-name="Line 18" x1="124.604" transform="translate(2122.057 1824.919)" fill="none" stroke="#707070" stroke-width="20"/>
          <line id="Line_19" data-name="Line 19" x1="114.883" transform="translate(1908.639 1925.663)" fill="none" stroke="#707070" stroke-width="20"/>
          <line id="Line_20" data-name="Line 20" x1="124.604" transform="translate(2122.057 1925.663)" fill="none" stroke="#707070" stroke-width="20"/>
          <g id="fingerprint">
            <g id="Group_31" data-name="Group 31">
              <g id="Calque_2" data-name="Calque 2">
                <path id="Path_13" data-name="Path 13" d="M3593.71,2321.88c2.163,5.525,9.16,8.727,16.008,7.326a668.052,668.052,0,0,1,178.573-6.769c6.91.973,13.523-2.708,14.994-8.346a5.8,5.8,0,0,0,0-1.391c-.524-4.932-5.278-8.842-11.274-9.273a702.173,702.173,0,0,0-188.268,6.677,12.632,12.632,0,0,0-8.088,4.118,8.551,8.551,0,0,0-1.945,7.659Zm74.856,22.719c1.154,5.647,7.525,9.536,14.43,8.81a574.867,574.867,0,0,1,102.138,1.855c6.913,1.034,13.584-2.61,15.106-8.253a5.941,5.941,0,0,0,0-1.484c-.524-4.932-5.278-8.842-11.274-9.273a612.215,612.215,0,0,0-108.564-1.947c-6.7.2-11.967,4.78-11.839,10.292Zm-117.7-15.394c3.8,11.338,13.089,20.894,25.7,26.429a75.042,75.042,0,0,0,43.4,5.378c7.328-1.3,14.543-2.411,21.871-3.338a12.825,12.825,0,0,0,8.192-3.868,8.638,8.638,0,0,0,2.292-7.538c-1.724-5.622-8.555-9.108-15.445-7.882-7.666,1.02-15.332,2.226-22.547,3.524a40.277,40.277,0,0,1-23.336-2.875c-6.8-3-11.817-8.159-13.866-14.281a19.714,19.714,0,0,1,4.425-17.806c4.4-5.179,11.2-8.635,18.8-9.55a716.281,716.281,0,0,1,182.518-8.16c6.923.8,13.4-2.984,14.768-8.624v-1.205c-.56-5.1-5.623-9.061-11.837-9.273a753.867,753.867,0,0,0-191.65,8.531c-14.048,1.7-26.641,8.078-34.819,17.631s-11.242,21.447-8.465,32.908Zm9.47,33.94c-5.881-3.328-13.837-2.618-18.714,1.669a8.2,8.2,0,0,0-2.612,7.279,9.25,9.25,0,0,0,4.868,6.446,103.525,103.525,0,0,0,9.244,4.822c23.428,10.623,50.736,13.917,76.885,9.273a544.621,544.621,0,0,1,144.752-5.289c6.918.869,13.473-2.819,14.994-8.439v-1.3c-.3-5.1-5.1-9.238-11.274-9.737A581.445,581.445,0,0,0,3623.8,2373.9a97.574,97.574,0,0,1-56.368-7.048,49.916,49.916,0,0,1-7.441-3.709Zm121.417-117.862c.769,5.687,6.942,9.815,13.866,9.273,24.387-.931,48.819-.652,73.165.835,7.054.654,13.436-3.479,14.317-9.273v-.835c-.679-5.193-5.94-9.163-12.288-9.273q-38.213-2.229-76.547-.835c-6.826,0-12.392,4.5-12.514,10.109Zm-18.15,2.411a4.327,4.327,0,0,0,0-1.206c-1.366-5.63-7.867-9.385-14.768-8.531-21.645,1.947-43.516,4.915-64.936,8.531-44.094,6.207-76.956,36.868-78.915,73.63a54.124,54.124,0,0,0,2.593,16.414,58.992,58.992,0,0,0,5.75,12.982c3.383,5.124,10.921,7.324,17.474,5.1a10.825,10.825,0,0,0,7.04-5.145,7.8,7.8,0,0,0-.163-7.745,44.9,44.9,0,0,1-4.284-9.273,39.162,39.162,0,0,1-1.8-11.962c1.371-27.172,25.6-49.879,58.171-54.526a595.188,595.188,0,0,1,62.568-8.439c6.213-.5,11.023-4.7,11.274-9.83Zm-90.193-33.012c-25.665,4.346-49.5,14.163-69.1,28.468a8.245,8.245,0,0,0,0,13.91,17.128,17.128,0,0,0,18.94.464c16-11.668,35.43-19.691,56.36-23.279a864.17,864.17,0,0,1,161.551-12.612c7.092.566,13.5-3.49,14.656-9.273h0c-.406-5.815-6.212-10.388-13.3-10.475a899.906,899.906,0,0,0-169.1,12.8Zm108.9,195.85a6.557,6.557,0,0,0,0-1.484c-1.573-5.614-8.206-9.237-15.107-8.253q-16.909,1.808-33.821,4.729c-30.711,5.33-62.729,1.379-90.188-11.128-26.183-11.478-45.439-31.344-53.211-54.9-6.114-19.994-2.6-41.157,9.808-59.07a7.839,7.839,0,0,0,.949-7.563,10.241,10.241,0,0,0-6.247-5.6c-6.426-2.43-14.045-.565-17.812,4.358-15.211,21.924-19.533,47.842-12.056,72.329,9.623,28.749,33.127,53.007,65.048,67.138,33.535,15.181,72.594,19.921,110.03,13.353,10.6-1.762,21.081-3.246,31.34-4.358,6.114-.45,10.907-4.511,11.273-9.551Zm20.292-2.967h0c0,5.121,5.047,9.273,11.274,9.273,14.139-.4,28.295-.085,42.389.927,6.9.833,13.331-3.052,14.43-8.717a3.1,3.1,0,0,0,0-1.02,8.4,8.4,0,0,0-3.1-6.859,12.558,12.558,0,0,0-8.178-2.878,459.04,459.04,0,0,0-46.785-1.02,12.1,12.1,0,0,0-7.622,3.423,8.161,8.161,0,0,0-2.4,6.87Z" fill="#707070"/>
              </g>
            </g>
          </g>
        </g>
      </g>
    </g>
  </g>
</svg>
