<svg xmlns="http://www.w3.org/2000/svg" viewBox="0 0 538.35 717.47"><title>f-1</title><g id="Layer_2" data-name="Layer 2"><g id="Слой_1" data-name="Слой 1"><path d="M303.62,687a527.64,527.64,0,0,1-64,16.39A7.1,7.1,0,0,0,241,717.47a6.66,6.66,0,0,0,1.33-.13A540.08,540.08,0,0,0,308,700.51,7.1,7.1,0,0,0,303.62,687Z" style="fill:#fff"/><path d="M484.48,581a533.11,533.11,0,0,1-146.41,97.05,7.1,7.1,0,1,0,5.78,13,546.67,546.67,0,0,0,150.33-99.64,7.1,7.1,0,0,0-9.7-10.38Z" style="fill:#fff"/><path d="M366.43,638.38a7.09,7.09,0,0,0-9.47-3.32A500.47,500.47,0,0,1,165.9,683.79a7.1,7.1,0,0,0,.37,14.19h.39a514.6,514.6,0,0,0,196.45-50.11A7.09,7.09,0,0,0,366.43,638.38Z" style="fill:#fff"/><path d="M516.75,513.94A504.64,504.64,0,0,1,399,612.32a7.1,7.1,0,0,0,7.34,12.16,518.42,518.42,0,0,0,121-101.15,7.1,7.1,0,0,0-10.65-9.39Z" style="fill:#fff"/><path d="M255.45,649.12a7.11,7.11,0,0,0-8.52-5.32,488.6,488.6,0,0,1-110,12.36c-6.46,0-13-.12-20-.39a7.1,7.1,0,0,0-.53,14.2c7.21.27,13.94.4,20.58.4a503,503,0,0,0,113.25-12.73A7.11,7.11,0,0,0,255.45,649.12Z" style="fill:#fff"/><path d="M535.09,456.28a7.1,7.1,0,0,0-9.91,1.61c-44,61-99.82,109.54-165.81,144.14a471.87,471.87,0,0,1-73.94,31.12A7.1,7.1,0,0,0,287.62,647a7.18,7.18,0,0,0,2.18-.34A486.47,486.47,0,0,0,366,614.61c68-35.63,125.4-85.56,170.73-148.41A7.11,7.11,0,0,0,535.09,456.28Z" style="fill:#fff"/><path d="M534.87,403.66a7.1,7.1,0,0,0-9.73,2.49c-43.28,73-105.16,132-178.95,170.74-64.34,33.75-134.76,50.87-209.31,50.87a477.69,477.69,0,0,1-55.68-3.28,7.1,7.1,0,0,0-1.66,14.11A490.55,490.55,0,0,0,136.88,642c76.87,0,149.51-17.66,215.91-52.49,76.12-40,140-100.84,184.57-176.08A7.1,7.1,0,0,0,534.87,403.66Z" style="fill:#fff"/><path d="M48.26,134a6.9,6.9,0,0,0,1.55-.18A243.49,243.49,0,0,1,91,128.34a7.11,7.11,0,0,0,6.75-6.59,246.59,246.59,0,0,1,9.41-52.21,7.1,7.1,0,1,0-13.62-4,260.73,260.73,0,0,0-9.45,49A257,257,0,0,0,46.73,120a7.11,7.11,0,0,0,1.53,14Z" style="fill:#fff"/><path d="M339.58,564.3c88-46.15,156.49-119.95,198.16-213.43a7.1,7.1,0,0,0-13-5.78c-40.35,90.53-106.67,162-191.78,206.63-60.24,31.6-126.22,47.63-196.1,47.63a453.68,453.68,0,0,1-66.23-4.9c-5.07-.74-10.36-1.72-15.72-2.92a7.11,7.11,0,0,0-3.1,13.87c5.71,1.27,11.35,2.32,16.76,3.1a467.65,467.65,0,0,0,68.29,5C209.08,613.55,277.28,597,339.58,564.3Z" style="fill:#fff"/><path d="M118.36,138.57h.25a7.11,7.11,0,0,0,7.1-6.86,217.54,217.54,0,0,1,22.67-89.79,7.1,7.1,0,1,0-12.72-6.31,231.74,231.74,0,0,0-24.15,95.61A7.1,7.1,0,0,0,118.36,138.57Z" style="fill:#fff"/><path d="M29.58,168.81a7,7,0,0,0,2.32-.4,215.87,215.87,0,0,1,70.89-11.93,7.11,7.11,0,0,0,0-14.21A230,230,0,0,0,27.25,155a7.11,7.11,0,0,0,2.33,13.82Z" style="fill:#fff"/><path d="M136.88,585.14c67.56,0,131.33-15.47,189.52-46C427.89,485.87,503.42,389.66,535,274c1.59-5.7,6.32-16.52-1.09-19.73a7.13,7.13,0,0,0-9.71,4.81C495.57,375.91,421.05,473.42,319.8,526.58,263.67,556,202.12,570.94,136.88,570.94a428.41,428.41,0,0,1-62.06-4.59,192.85,192.85,0,0,1-39.65-10.21,7.1,7.1,0,1,0-5,13.29,207.37,207.37,0,0,0,42.58,11A442.81,442.81,0,0,0,136.88,585.14Z" style="fill:#fff"/><path d="M139.83,144.79a7.1,7.1,0,0,0,7.1,6.91h.19a7.09,7.09,0,0,0,6.91-7.28A192.25,192.25,0,0,1,193.37,23.15a7.1,7.1,0,1,0-11.28-8.63A206.47,206.47,0,0,0,139.83,144.79Z" style="fill:#fff"/><path d="M10.12,200.43a7.13,7.13,0,0,0,9.66,3.63,188.46,188.46,0,0,1,83-19.17,193.09,193.09,0,0,1,28.08,2.05,7.1,7.1,0,0,0,2.07-14.05,205.91,205.91,0,0,0-30.15-2.21A202.48,202.48,0,0,0,14,191.1,7.14,7.14,0,0,0,10.12,200.43Z" style="fill:#fff"/><path d="M136.88,556.73c62.9,0,122.22-14.38,176.31-42.74C434.43,450.36,512.63,324.83,522.37,178.2a7.1,7.1,0,1,0-14.17-.94c-9.42,141.66-84.79,262.84-201.61,324.15-52,27.28-109.13,41.12-169.71,41.12A399.89,399.89,0,0,1,79,538.26,162.65,162.65,0,0,1,21.5,518.39a7.1,7.1,0,0,0-7.09,12.31,176.89,176.89,0,0,0,62.48,21.61A414.44,414.44,0,0,0,136.88,556.73Z" style="fill:#fff"/><path d="M9.21,241.65a7,7,0,0,0,3.92-1.19A162.53,162.53,0,0,1,126.71,215a69.21,69.21,0,0,0,10.11.75c7.15,0,13.36-1.27,18-3.68,14.43-7.57,28.57-33.51,27.66-68.43A162.62,162.62,0,0,1,242.1,13.29a7.1,7.1,0,1,0-9-11,176.72,176.72,0,0,0-64.83,141.72c.8,30.59-11.25,50.86-20.06,55.48-1.46.77-4.89,2.06-11.36,2.06a53.78,53.78,0,0,1-8-.61A176.62,176.62,0,0,0,5.28,228.62a7.11,7.11,0,0,0,3.93,13Z" style="fill:#fff"/><path d="M136.88,528.32C195.15,528.32,250,515,300,488.84c124.17-65.15,198.84-200.52,194.88-353.27-.11-4.61-.46-9.32-1.05-14.38a7.1,7.1,0,0,0-14.18.63,7.86,7.86,0,0,0,.05.83c.56,4.7.87,9,1,13.27,3.82,147.31-67.94,277.73-187.28,340.35-47.9,25.11-100.55,37.85-156.5,37.85a365.65,365.65,0,0,1-53.74-4A134,134,0,0,1,14,478.27,7.1,7.1,0,1,0,4.6,488.94a148.16,148.16,0,0,0,76.46,35.24A380,380,0,0,0,136.88,528.32Z" style="fill:#fff"/><path d="M7.1,279.18a7.07,7.07,0,0,0,4.8-1.87,133.94,133.94,0,0,1,110.67-34.15,98.18,98.18,0,0,0,14.25,1c11.94,0,22.43-2.34,31.16-6.94,26.75-14,44-51.92,42.84-94.32A135.54,135.54,0,0,1,296.66,13.71,7.1,7.1,0,1,0,291.47.49a149.78,149.78,0,0,0-94.85,142.82c1,37.11-13.17,69.81-35.24,81.37-6.69,3.53-14.95,5.32-24.56,5.32a83.39,83.39,0,0,1-12.16-.89A148.23,148.23,0,0,0,2.31,266.83,7.11,7.11,0,0,0,7.1,279.18Z" style="fill:#fff"/><path d="M85.21,496.09a355.36,355.36,0,0,0,51.67,3.82c53.62,0,104.06-12.19,149.92-36.24C401.29,403.6,470.13,278.15,466.45,136.29A119.71,119.71,0,0,0,428.29,51l-1-1-.2-.1a118.55,118.55,0,0,0-35.43-22.34c-1.73-.7-3.5-1.35-5.27-2l-1.2-.57h-.52a120.92,120.92,0,0,0-39-6.37c-1,0-1.93,0-3.11,0A120.93,120.93,0,0,0,225,142.57c1.27,48.43-18.54,90.54-50.46,107.28a76.49,76.49,0,0,1-28.8,8.16,7.1,7.1,0,0,0,1.29,14.15,90.64,90.64,0,0,0,34.11-9.74c36.68-19.23,59.47-66.42,58.06-120.22A106.71,106.71,0,0,1,343,32.92c1,0,1.86,0,2.75,0a106.75,106.75,0,0,1,35.18,5.86,251,251,0,0,1,37.82,22.72,105.82,105.82,0,0,1,33.54,75.18c3.54,136.41-62.39,256.89-172,314.44-43.8,23-92,34.61-143.32,34.61A342.22,342.22,0,0,1,87.29,482a105.89,105.89,0,0,1-69.95-41.82c-1.5-2-2.93-4.12-4.26-6.18a7.1,7.1,0,1,0-12,7.66c1.49,2.33,3.1,4.66,4.8,7A120,120,0,0,0,85.21,496.09Z" style="fill:#fff"/><path d="M3.26,321.63a7.1,7.1,0,0,0,9.82-2.14c19.59-30.45,54-49.38,89.71-49.38a106,106,0,0,1,15.62,1.15,7.1,7.1,0,1,0,2.1-14.05,120.69,120.69,0,0,0-17.72-1.3c-41.15,0-79.15,20.9-101.66,55.9A7.11,7.11,0,0,0,3.26,321.63Z" style="fill:#fff"/><path d="M187.78,275c-14.95,7.85-32.1,11.83-51,11.83a140.48,140.48,0,0,1-20.48-1.52,93.3,93.3,0,0,0-13.55-1c-45.42,0-84.67,33.91-91.29,78.87A92.32,92.32,0,0,0,89.36,468a325.79,325.79,0,0,0,47.51,3.51c49,0,95-11.09,136.71-33C378.43,383.51,441.44,268,438,137A91.84,91.84,0,0,0,345.71,47.1l-2.37,0a92.46,92.46,0,0,0-89.9,94.7C255,201,229.21,253.27,187.78,275Zm79.86-133.54A78.23,78.23,0,0,1,343.7,61.33l2,0a77.71,77.71,0,0,1,78.13,76.09C427.1,262.9,367,373.47,267,425.94c-39.66,20.8-83.43,31.35-130.12,31.35a311.49,311.49,0,0,1-45.44-3.36,78.1,78.1,0,0,1-65.87-88.68,78.11,78.11,0,0,1,88.7-65.89A155,155,0,0,0,136.82,301c21.18,0,40.55-4.52,57.56-13.45C240.57,263.35,269.32,206,267.64,141.46Z" style="fill:#fff"/><path d="M112.18,313.41a63.88,63.88,0,0,0-72.57,53.91,63.9,63.9,0,0,0,53.9,72.56,297.13,297.13,0,0,0,43.36,3.2c44.37,0,85.92-10,123.51-29.71a261.21,261.21,0,0,0,55.89-39.51,7.1,7.1,0,1,0-9.65-10.43,247,247,0,0,1-52.83,37.36c-35.54,18.64-74.88,28.09-116.92,28.09a284.22,284.22,0,0,1-41.29-3.05,49.72,49.72,0,0,1-41.92-56.44,49.67,49.67,0,0,1,56.45-41.92,183.88,183.88,0,0,0,26.71,2c25.83,0,49.64-5.62,70.76-16.7C263.28,283.52,298,216,296,140.72a49.78,49.78,0,0,1,48.4-51h1.27a49.46,49.46,0,0,1,49.73,48.42c2,76.69-21.65,148.41-66.57,201.93a7.1,7.1,0,1,0,10.88,9.13c47.15-56.18,72-131.27,69.89-211.43a63.59,63.59,0,0,0-63.93-62.26l-1.63,0a64,64,0,0,0-62.24,65.56C283.66,211,251.92,273.43,201,300.16c-19.06,10-40.65,15.08-64.16,15.08A169.59,169.59,0,0,1,112.18,313.41Z" style="fill:#fff"/><path d="M214.18,325.31C175,345.86,134.84,345.47,108,341.52a35.51,35.51,0,1,0-10.37,70.26,269.76,269.76,0,0,0,39.21,2.89c39.72,0,76.83-8.9,110.31-26.46,85.53-44.88,136.9-140.55,134.06-249.7a35.51,35.51,0,1,0-71,1.84C312.34,221,274.63,293.6,214.18,325.31ZM324.44,140a21.31,21.31,0,1,1,42.6-1.11c2.69,103.69-45.76,194.41-126.45,236.75-31.43,16.48-66.32,24.84-103.72,24.84a254.07,254.07,0,0,1-37.14-2.75A21.3,21.3,0,1,1,106,355.57c28.91,4.26,72.3,4.64,114.83-17.68C286,303.68,326.68,226,324.44,140Z" style="fill:#fff"/><path d="M337.55,214.62a7.08,7.08,0,0,0,8.5-5.36,284,284,0,0,0,6.79-70,7.1,7.1,0,1,0-14.2.37,269.2,269.2,0,0,1-6.45,66.5A7.12,7.12,0,0,0,337.55,214.62Z" style="fill:#fff"/><path d="M103.88,369.62a7.1,7.1,0,1,0-2.07,14.05,241.06,241.06,0,0,0,35,2.59c28.83,0,63.09-5.35,97.13-23.21,44.38-23.28,79.92-64.12,100.09-115a7.1,7.1,0,1,0-13.2-5.23c-18.92,47.71-52.12,85.94-93.49,107.64C181.44,374.58,134.87,374.18,103.88,369.62Z" style="fill:#fff"/></g></g></svg>