<svg xmlns="http://www.w3.org/2000/svg" viewBox="0 0 538.36 706.05"><title>f-2</title><g id="Layer_2" data-name="Layer 2"><g id="Слой_1" data-name="Слой 1"><path d="M462.63,603.79a7.1,7.1,0,0,0-10,1.14,304,304,0,0,1-74.4,67.38,7.1,7.1,0,0,0,7.65,12,317.93,317.93,0,0,0,77.87-70.51A7.1,7.1,0,0,0,462.63,603.79Z" style="fill:#fff"/><path d="M488.44,580.65A242.21,242.21,0,0,1,450.57,569a7.11,7.11,0,0,0-8.48,2.55c-31.45,45.43-72.9,79-123.21,99.78a270.67,270.67,0,0,1-100,20.57,7.1,7.1,0,0,0,.09,14.2h.1a284.67,284.67,0,0,0,105.2-21.64c51.17-21.14,93.61-54.85,126.23-100.24a256.47,256.47,0,0,0,34.84,10.35,7.1,7.1,0,1,0,3.07-13.87Z" style="fill:#fff"/><path d="M503.51,554.72a218.25,218.25,0,0,1-62.93-21.66,7.11,7.11,0,0,0-9.45,2.72c-29.62,51-71,87.75-123.07,109.25-60.27,24.89-128.2,24.74-189.67-1.07-3.85-1.61-7.54-3.27-11-4.94a7.1,7.1,0,0,0-6.24,12.76c3.66,1.79,7.6,3.57,11.71,5.28,63.44,26.64,135.35,28,200.57,1.1,53-21.9,95.53-58.71,126.5-109.47a232.62,232.62,0,0,0,61,20,7.1,7.1,0,0,0,2.52-14Z" style="fill:#fff"/><path d="M181.46,18.82a307,307,0,0,1,45.1,19,7.08,7.08,0,0,0,3.27.8,7.21,7.21,0,0,0,2.62-.5A350.22,350.22,0,0,1,339,14.19,7.1,7.1,0,1,0,338.13,0a364.27,364.27,0,0,0-107.9,23.76,321.22,321.22,0,0,0-44.3-18.45,7.11,7.11,0,0,0-4.47,13.49Z" style="fill:#fff"/><path d="M515.23,527.8a192.55,192.55,0,0,1-84.92-34.51,7.17,7.17,0,0,0-6.07-1,7.32,7.32,0,0,0-4.69,4.09l-.2.44c-26.93,58.58-68,99.62-122.14,122-52.5,21.65-112.48,22.2-167.81-1-36.16-15.2-69.56-41.42-94-73.84A7.1,7.1,0,0,0,24,552.49c26,34.39,61.44,62.22,99.88,78.38,57.79,24.24,121.7,24.55,178.73,1C358,609,400.48,567.92,429,509.65a207.14,207.14,0,0,0,84.2,32.21,7.1,7.1,0,0,0,2.05-14.06Z" style="fill:#fff"/><path d="M141,37.48A272.79,272.79,0,0,1,224.64,69.2a7.06,7.06,0,0,0,6.43.33l1.46-.63A323.24,323.24,0,0,1,362.47,41.82a333.9,333.9,0,0,1,45,3.06,7.1,7.1,0,1,0,1.92-14.07,347.54,347.54,0,0,0-46.9-3.19,337.36,337.36,0,0,0-133.86,27.5A286.48,286.48,0,0,0,143.7,23.54,7.1,7.1,0,0,0,141,37.48Z" style="fill:#fff"/><path d="M523.78,500.28a162.88,162.88,0,0,1-103.64-54.4,7.11,7.11,0,0,0-12.07,2.42,381.39,381.39,0,0,1-14.52,36.63c-23.84,51.86-59.9,88.05-107.2,107.57-45.65,18.9-98,19.24-145.93-.92S52.06,530.52,32.58,482.23a211,211,0,0,1-14-54.86A7.1,7.1,0,0,0,4.48,429a225.16,225.16,0,0,0,14.93,58.54c20.86,51.73,64.05,95.51,115.51,117.13,50.72,21.34,107,21.59,156.85,1,50.72-20.93,89.3-59.54,114.69-114.77,4-8.84,7.78-17.86,11.15-26.94a177,177,0,0,0,104.52,50.47,7.1,7.1,0,0,0,1.65-14.11Z" style="fill:#fff"/><path d="M106,61.49c40.31,2.62,80.66,16.4,116.67,39.83a7,7,0,0,0,3.87,1.15,7.12,7.12,0,0,0,3.3-.81c4.61-2.41,9.33-4.67,14-6.71A294.86,294.86,0,0,1,362.47,70.23a308.4,308.4,0,0,1,93.28,14.55,7.1,7.1,0,1,0,4.3-13.53A322.09,322.09,0,0,0,362.47,56a309,309,0,0,0-124.24,25.9c-3.76,1.63-7.54,3.4-11.28,5.27-37.16-23.41-78.57-37.18-120-39.87A7.1,7.1,0,1,0,106,61.49Z" style="fill:#fff"/><path d="M529.27,472.31A134.87,134.87,0,0,1,415,381.15,54.48,54.48,0,0,0,409.75,370a7.1,7.1,0,0,0-13.09,2.76,353.53,353.53,0,0,1-28.94,100.27C347,518.19,316,549.54,275.53,566.25,235.37,582.82,191,582,151.42,565.39c-41.2-17.32-75.78-52.38-92.5-93.78a184.65,184.65,0,0,1-13.16-77.55A7.1,7.1,0,0,0,36.5,387a134,134,0,0,1-30,6,7.1,7.1,0,1,0,1.15,14.16,148.36,148.36,0,0,0,23.69-3.9,197.88,197.88,0,0,0,14.38,73.71c18.11,44.85,55.55,82.81,100.16,101.56,43.68,18.36,92,18.67,135,.9,43.87-18.12,77.41-51.9,99.68-100.39a364.73,364.73,0,0,0,26-80.18,149,149,0,0,0,121.17,87.63,7.1,7.1,0,1,0,1.43-14.13Z" style="fill:#fff"/><path d="M76.45,90.06c3.58-.31,7.43-.52,11.42-.6,1.4,0,2.78,0,4.12,0,44.54,0,90.29,16.09,128.83,45.31a7.09,7.09,0,0,0,8.15.31A185.35,185.35,0,0,1,255.22,121,267,267,0,0,1,362.47,98.64c39.27,0,78.12,8.39,115.46,24.93,4.07,1.8,7.78,3.55,11.32,5.33a7.1,7.1,0,0,0,6.39-12.69c-3.76-1.89-7.68-3.73-12-5.63-39.15-17.35-79.93-26.15-121.2-26.15A281.07,281.07,0,0,0,249.54,108a199.75,199.75,0,0,0-24.09,12.54C185.29,91.27,138.09,75.23,92,75.23c-1.43,0-2.9,0-4.41,0-4.31.09-8.48.31-12.38.65a7.1,7.1,0,1,0,1.25,14.15Z" style="fill:#fff"/><path d="M531.82,444a106.71,106.71,0,0,1-89.89-71.92c-7.81-23.11-26.64-43.2-50.37-53.73a81.74,81.74,0,0,0-11.07-4,7.1,7.1,0,0,0-9,6.91,328.89,328.89,0,0,1-29.58,140c-17.63,38.4-43.62,64.92-77.22,78.81-32.3,13.35-68.88,13.22-102.24-.81C128,524.73,99.18,495.5,85.28,461c-15.13-37.44-15-78.85.43-123.07a7.1,7.1,0,0,0-11.91-7.17,107.06,107.06,0,0,1-67.43,33.7,7.1,7.1,0,1,0,1.47,14.13,121.19,121.19,0,0,0,57.51-21.64c-9.19,38.78-6.94,75.47,6.76,109.36,15.29,38,47,70.1,84.83,86,37,15.57,77.54,15.56,113.16.84,37-15.31,65.53-44.25,84.7-86a342.39,342.39,0,0,0,30.83-135.87l.16.07c20.17,8.95,36.12,25.89,42.68,45.3a121,121,0,0,0,101.88,81.5A7.1,7.1,0,0,0,531.82,444Z" style="fill:#fff"/><path d="M52,122.72a166.39,166.39,0,0,1,36.55-4.85c1.16,0,2.29,0,3.47,0,44.77,0,91.14,19.16,127.22,52.57a7.1,7.1,0,0,0,9.43.2A151.9,151.9,0,0,1,266.59,147a238.63,238.63,0,0,1,95.88-20c35.29,0,70.25,7.56,103.91,22.48a278.07,278.07,0,0,1,44.51,25,7.1,7.1,0,1,0,8.05-11.7,291.12,291.12,0,0,0-46.8-26.24c-35.49-15.73-72.39-23.71-109.67-23.71A252.59,252.59,0,0,0,260.92,134a166.5,166.5,0,0,0-36.66,21.84c-38-33.24-85.85-52.2-132.27-52.2-1.25,0-2.52,0-3.79,0a180.64,180.64,0,0,0-39.65,5.26A7.1,7.1,0,1,0,52,122.72Z" style="fill:#fff"/><path d="M532.21,415.44A77.7,77.7,0,0,1,468.83,363c-10.28-30.52-34.86-56.92-65.76-70.62a100.17,100.17,0,0,0-40.6-9,84.37,84.37,0,0,0-15.38,1.4,7.1,7.1,0,0,0-5.76,7.77,301.35,301.35,0,0,1-25.22,156.82c-14.58,31.68-35.53,53.36-62.27,64.41-26.27,10.8-54.88,10-80.4-.75a116.75,116.75,0,0,1-61.82-62.64c-13.75-34.1-11.66-76.26,5.75-115.67,4.55-10.29,10.21-23.1,4.79-37-4.48-11.54-16.25-23-29.81-22.75-13.85.32-23.3,13-30,24A78.67,78.67,0,0,1,6.13,335.84a7.1,7.1,0,1,0,2,14.07,93,93,0,0,0,66.43-43.64c2.55-4.2,10.31-17,18.16-17.17,6.68-.18,13.65,7,16.25,13.69,3,7.86.19,15.46-4.54,26.16C85.43,371.85,83.27,418,98.45,455.67c12.53,31.07,38.5,57.4,69.49,70.43,29.42,12.36,61.91,12.86,91.31.78,30.17-12.47,53.64-36.56,69.76-71.61,22.24-48.38,31.79-104,27.11-157.43,13.39-1.19,27.33,1.38,41.2,7.52,27.31,12.11,49,35.35,58.05,62.17a91.8,91.8,0,0,0,74.92,62,7.1,7.1,0,1,0,1.92-14.07Z" style="fill:#fff"/><path d="M32.8,159.51a139.71,139.71,0,0,1,56.37-13.23c1,0,1.9,0,2.82,0,45.45,0,91.93,23.32,124.38,62.39.65.79,1.31,1.57,1.94,2.39a7.1,7.1,0,0,0,11.33-.14c11.92-16.19,28.62-29.26,48.29-37.81a210.12,210.12,0,0,1,84.54-17.62c31.29,0,62.39,6.74,92.41,20A250.3,250.3,0,0,1,522.59,220a7.1,7.1,0,1,0,9.6-10.47,264.44,264.44,0,0,0-71.55-47c-31.86-14.11-64.88-21.27-98.17-21.27a224.57,224.57,0,0,0-90.22,18.8,134.12,134.12,0,0,0-48.47,35.4C188.87,155.66,140,132.05,92,132.05c-1.06,0-2.11,0-3.17,0a153.83,153.83,0,0,0-62,14.55,7.1,7.1,0,0,0,6,12.88Z" style="fill:#fff"/><path d="M8.56,321a64.16,64.16,0,0,0,41.66-29.49c4.9-8.08,23-31.23,41.26-31.64h.65c11.44,0,26.24,8.59,36.84,21.38,9,10.83,13.5,22.77,11.75,31.17-1.07,5.1-4.26,12.83-7.08,19.66-2.44,5.93-5,12.28-7.41,19.06-12.18,34.48-12.66,66.07-1.43,93.88a102.27,102.27,0,0,0,54.12,54.86c22.68,9.57,47.55,9.79,69.48.7,35.31-14.58,50-46.67,54.79-57.2a285.11,285.11,0,0,0,23-157.61c-.29-2.08-.61-4.17-1-6.34-1-7,.23,1.65-.42-2.84a97.49,97.49,0,0,1,37.68-7.46,114.14,114.14,0,0,1,46.35,10.24c34.49,15.3,62,44.85,73.49,79a64.13,64.13,0,0,0,47.49,42.19,7.1,7.1,0,0,0,2.9-13.91,49.87,49.87,0,0,1-36.93-32.81C483,316,452.64,283.29,414.58,266.41a128.09,128.09,0,0,0-52.11-11.47,111.53,111.53,0,0,0-44.87,9.3c-4.42,2-8.14,4.46-7.58,9.26.28,2.32.73,5.31,1.15,8.08.33,2.15.64,4.15.92,6.19a270.72,270.72,0,0,1-21.81,149.71c-4.25,9.28-17.17,37.55-47.31,50-18.37,7.61-39.49,7.36-58.54-.67A87.74,87.74,0,0,1,138,439.73c-9.9-24.51-9.35-52.72,1.65-83.85,2.27-6.46,4.77-12.62,7.14-18.36,3.81-9.24,6.61-16.23,7.85-22.18,2.66-12.73-2.85-28.86-14.72-43.14-13.34-16.11-32.09-26.52-47.77-26.52h-.81c-30,.66-53,38.09-53.25,38.49A49.89,49.89,0,0,1,5.64,307.11,7.11,7.11,0,0,0,8.56,321Z" style="fill:#fff"/><path d="M485.8,208.9a7.1,7.1,0,1,0-8,11.75,227.1,227.1,0,0,1,47.95,43.85,7.1,7.1,0,1,0,11-9A241.06,241.06,0,0,0,485.8,208.9Z" style="fill:#fff"/><path d="M283.61,186.08c-20.3,8.86-36.56,22.67-47,40a7.1,7.1,0,1,0,12.15,7.35c8.94-14.76,23-26.62,40.55-34.29,48.35-21.07,103.08-20.23,154.08,2.37a7.1,7.1,0,1,0,5.76-13C394.44,164.25,335.65,163.4,283.61,186.08Z" style="fill:#fff"/><path d="M15.26,202a7.52,7.52,0,0,0,4.54-1.65c21.76-16.51,45.29-25.14,70-25.67,37.74-.83,77,18.67,104.76,52.1,26,31.24,36.79,68.81,29.64,103.07-2.6,12.47-7.35,24.08-11.54,34.32l-.11.28c-2.24,5.36-4.22,10.2-5.92,15.09a7.1,7.1,0,0,0,4.38,9,7,7,0,0,0,2.33.39,7.09,7.09,0,0,0,6.7-4.77c1.57-4.52,3.48-9.14,5.64-14.33l.13-.32c4.42-10.81,9.43-23.06,12.29-36.8,8-38.53-3.85-80.46-32.62-115-30.52-36.73-73.83-58.14-116-57.22-27.82.6-54.23,10.27-78.5,28.75a7.26,7.26,0,0,0-2.65,7.11A7.1,7.1,0,0,0,15.26,202Z" style="fill:#fff"/><path d="M10,290.9a35.25,35.25,0,0,0,16-14.12c.26-.44,26.87-44.47,65.05-45.3,20.25-.47,43.21,11.66,59.8,31.65,14.85,17.82,21.3,37.92,17.72,55.12-1.62,7.69-5.18,16.3-8.7,24.84-2.29,5.57-4.65,11.33-6.82,17.5-9.8,27.8-10.43,52.64-1.88,73.83a73.23,73.23,0,0,0,38.8,39.29c15.88,6.68,32.8,6.77,47.63.64,22.22-9.17,33.37-28.81,39.82-42.8A256.75,256.75,0,0,0,298,289.84c-.27-2-.59-4.08-.93-6.19-1-6.41-2-13-1.4-16.71.75-4.62,6.58-11.51,16.28-15.74,33.61-14.65,72.09-13.86,108.35,2.23,41.61,18.44,74.84,54.3,88.87,96a35.53,35.53,0,0,0,19.16,21,7.1,7.1,0,1,0,5.76-13,21,21,0,0,1-11.46-12.56c-15.28-45.35-51.39-84.38-96.58-104.4-39.93-17.72-82.47-18.52-119.78-2.26-13.28,5.8-22.95,16.19-24.62,26.46-1,5.89.17,13.32,1.41,21.34.3,1.9.61,3.82.87,5.79a242.43,242.43,0,0,1-19.48,133.84C259,437.42,249.76,454,232.15,461.22c-11.42,4.72-24.52,4.52-36.7-.61a58.65,58.65,0,0,1-31.13-31.5c-7.22-17.9-6.52-39.36,2.1-63.81,2.05-5.83,4.34-11.42,6.62-17,3.69-8.93,7.51-18.16,9.4-27.14,4.48-21.49-3.07-45.95-20.7-67.13-19.29-23.23-46.44-37.3-71-36.76-46,1-75.7,50.16-76.92,52.2a21.05,21.05,0,0,1-9.55,8.43,7.1,7.1,0,1,0,5.75,13Z" style="fill:#fff"/><path d="M13.23,246.07c13-15.71,40.32-42.19,77.16-43,28.88-.68,60.28,15.41,82.27,41.87,20.42,24.56,29.05,53.4,23.69,79.12-2.1,10-6,19.47-10.1,29.51-2.2,5.35-4.47,10.88-6.44,16.48-7.54,21.35-8.31,38.93-2.33,53.75A44.34,44.34,0,0,0,201,447.52c23.21,9.77,40.13-5.07,50.62-27.85a228,228,0,0,0,18.34-125.88c-.28-2-.58-3.9-.88-5.85-1.38-9-2.69-17.48-1.37-25.57,3-18.15,19-31.13,33-37.22,89.16-38.85,185.85,16,224.32,89.13a7.1,7.1,0,0,0,12.57-6.62c-21.88-41.58-59.38-76-102.87-94.47-46.44-19.71-96.05-20.08-139.69-1.06-22.23,9.67-38.06,28-41.33,47.95-1.69,10.31-.15,20.33,1.34,30,.29,1.89.59,3.78.85,5.68a213.57,213.57,0,0,1-17.17,118c-7.09,15.4-16.56,27.27-32.22,20.7a30.2,30.2,0,0,1-15.8-15.95c-4.62-11.46-3.78-25.75,2.56-43.71,1.85-5.27,4-10.63,6.18-15.81,4.18-10.19,8.5-20.73,10.86-32,6.26-30-3.46-63.19-26.66-91.1-24.7-29.71-60.56-47.75-93.51-47C47.6,189.8,16.84,219.43,2.29,237a7.1,7.1,0,1,0,10.94,9.06Z" style="fill:#fff"/></g></g></svg>