<svg xmlns="http://www.w3.org/2000/svg" viewBox="0 0 538.36 716.7"><title>f-4</title><g id="Layer_2" data-name="Layer 2"><g id="Слой_1" data-name="Слой 1"><path d="M357.91,688.92c-10.42-3.48-20.74-7.24-30.67-11.15a7.13,7.13,0,0,0-6.89.94c-11.71,8.87-23.91,17.23-36.24,24.85a7.11,7.11,0,0,0,7.47,12.09c11.59-7.17,23.07-15,34.16-23.22,9,3.49,18.3,6.83,27.67,10a7.1,7.1,0,0,0,4.5-13.47Z" style="fill:#fff"/><path d="M397.08,671.23a608.87,608.87,0,0,1-74.22-26,7.11,7.11,0,0,0-7.26,1,438.46,438.46,0,0,1-86.38,55,7.1,7.1,0,0,0,6.17,12.8A453.18,453.18,0,0,0,321.25,660a623.17,623.17,0,0,0,72,24.9,7.1,7.1,0,1,0,3.81-13.68Z" style="fill:#fff"/><path d="M502.61,180a108.17,108.17,0,0,0,10.84,5.87,7,7,0,0,0,3,.68,7.1,7.1,0,0,0,3-13.52,92.92,92.92,0,0,1-9.4-5.1,108.33,108.33,0,0,1-26.61-23.72,7.1,7.1,0,0,0-11,9A122.64,122.64,0,0,0,502.61,180Z" style="fill:#fff"/><path d="M448,111.36a184.21,184.21,0,0,0,8.1,17.18,7.13,7.13,0,0,0,6.26,3.74,7.2,7.2,0,0,0,3.37-.85,7.1,7.1,0,0,0,2.88-9.62A169.3,169.3,0,0,1,461.15,106a265.6,265.6,0,0,0-29.89-54.09,7.1,7.1,0,0,0-11.54,8.28A251.74,251.74,0,0,1,448,111.36Z" style="fill:#fff"/><path d="M244.11,669.53a7.1,7.1,0,0,0-9.63-2.85,409.51,409.51,0,0,1-51.26,23.37,7.11,7.11,0,0,0,2.5,13.76,7,7,0,0,0,2.49-.46,421.76,421.76,0,0,0,53-24.19A7.1,7.1,0,0,0,244.11,669.53Z" style="fill:#fff"/><path d="M429.22,650.07a574.13,574.13,0,0,1-110.93-37.88,7.1,7.1,0,0,0-7.65,1.1l-4,3.46a415.84,415.84,0,0,1-52.25,38.34,7.11,7.11,0,0,0,3.75,13.15,7,7,0,0,0,3.73-1.07A430.73,430.73,0,0,0,316,627.49l.55-.49A589.6,589.6,0,0,0,426,663.91a7.1,7.1,0,0,0,3.2-13.84Z" style="fill:#fff"/><path d="M337.29,20.29a219.25,219.25,0,0,1,84.43,101.83c10.28,25.14,30.06,59.77,65.91,82A137,137,0,0,0,524,219.84a7.1,7.1,0,0,0,3.72-13.71,122.62,122.62,0,0,1-32.57-14c-32.62-20.26-50.77-52.16-60.25-75.35A233.46,233.46,0,0,0,345,8.35a7.1,7.1,0,0,0-7.7,11.94Z" style="fill:#fff"/><path d="M230.46,14.19c73.7,4.73,136.92,50.21,165,118.7,11.88,29,34.91,69.13,77.17,95.42a168.66,168.66,0,0,0,56.19,21.89,6.72,6.72,0,0,0,1.4.14,7.1,7.1,0,0,0,1.38-14.06,154.65,154.65,0,0,1-51.47-20c-39-24.28-60.44-61.65-71.53-88.73C378.45,53.94,310.54,5.09,231.37,0a7.1,7.1,0,1,0-.91,14.18Z" style="fill:#fff"/><path d="M6.6,304.07c4.76.34,9.78.9,14.79,1.66a36.39,36.39,0,0,0,5.23.32,40.46,40.46,0,0,0,8.4-.78,7.09,7.09,0,0,0,5.21-4.51c2-5.61,2.59-16-2-28.38a190.57,190.57,0,0,1-10.62-88.26,7.1,7.1,0,0,0-14.11-1.65,204.78,204.78,0,0,0,11.42,94.85,37.93,37.93,0,0,1,2.57,14.52h-.89a27.28,27.28,0,0,1-3-.15c-5.49-.83-10.87-1.43-16-1.8a7.1,7.1,0,1,0-1,14.17Z" style="fill:#fff"/><path d="M455.72,626.66A546.16,546.16,0,0,1,313.4,578.28a7.1,7.1,0,0,0-8.14,1.25c-5.59,5.42-11.35,10.7-17.1,15.68A382.14,382.14,0,0,1,144.47,673a7.11,7.11,0,0,0,2,13.93,7.19,7.19,0,0,0,2-.29,396.33,396.33,0,0,0,149-80.68c4.73-4.1,9.46-8.37,14.08-12.76A560.65,560.65,0,0,0,453,640.61a7.1,7.1,0,0,0,2.68-14Z" style="fill:#fff"/><path d="M55.45,297.9a7.09,7.09,0,0,0,6,8.05,7.26,7.26,0,0,0,1,.08,7.1,7.1,0,0,0,7-6.08c1.69-11.6,0-24.91-4.63-37.48C34,179.42,76,85.62,158.58,53.38a163.31,163.31,0,0,1,210.56,90.28c13.46,32.89,39.74,78.46,88.48,108.77a198.23,198.23,0,0,0,72.47,26.88,7.11,7.11,0,1,0,2.32-14,183.76,183.76,0,0,1-67.29-24.93c-45.51-28.3-70.17-71.13-82.83-102.08A177.5,177.5,0,0,0,153.41,40.15C63.67,75.19,18,177.15,51.56,267.42,55.41,277.8,56.79,288.62,55.45,297.9Z" style="fill:#fff"/><path d="M47.22,315.3c-2.79,2.4-9.66,5-20.6,5a56.43,56.43,0,0,1-7.14-.44h-.07c-4-.6-7.93-1.07-11.72-1.38a7.1,7.1,0,0,0-1.17,14.16c3.5.29,7.15.72,10.86,1.28a1.9,1.9,0,0,0,.25,0,71.11,71.11,0,0,0,9,.56c13,0,23.58-3,29.86-8.39a7.1,7.1,0,0,0-9.26-10.77Z" style="fill:#fff"/><path d="M477.5,601.68a518.66,518.66,0,0,1-169.4-58.32,7.11,7.11,0,0,0-8.68,1.42,348.89,348.89,0,0,1-29.82,28.9C224.3,612.7,171.22,639,111.82,652a7.11,7.11,0,0,0,1.5,14,7.23,7.23,0,0,0,1.52-.17c61.73-13.42,116.92-40.8,164-81.38a360.76,360.76,0,0,0,27.24-26A533,533,0,0,0,475.24,615.7a7.1,7.1,0,0,0,2.26-14Z" style="fill:#fff"/><path d="M532.28,294.05c-30-4.39-57.65-14.34-82.16-29.57C398.18,232.19,370.28,183.88,356,149A149.1,149.1,0,0,0,163.73,66.62C88.36,96,50,181.67,78.17,257.53c11.56,31.1,6.57,63-12.43,79.31-11.34,9.77-27.53,11.83-39.12,11.83a78,78,0,0,1-11.44-.78c-2.44-.36-4.92-.69-7.39-.93A7.1,7.1,0,0,0,6.42,361.1c2.24.22,4.48.52,6.64.83a92.33,92.33,0,0,0,13.56.94c14,0,33.75-2.65,48.38-15.27,23.48-20.19,30.11-58.37,16.49-95C66,184,100.71,106.46,168.9,79.85a134.91,134.91,0,0,1,174,74.58c15.06,36.78,44.6,87.82,99.76,122.11,26.18,16.27,55.65,26.89,87.6,31.57a7.11,7.11,0,0,0,2.06-14.06Z" style="fill:#fff"/><path d="M495.16,575.57a491.15,491.15,0,0,1-192.94-68.52,7.09,7.09,0,0,0-9.27,1.62,326,326,0,0,1-41.87,43.48c-47.11,40.56-103.16,66.13-166.6,76a7.1,7.1,0,0,0,1.08,14.12,8.29,8.29,0,0,0,1.11-.08c66.1-10.29,124.53-37,173.68-79.28a339.72,339.72,0,0,0,39.75-40.53,505.54,505.54,0,0,0,193.16,67.27,7.1,7.1,0,1,0,1.9-14.08Z" style="fill:#fff"/><path d="M532.17,322.73c-35.41-4.63-68.07-16.12-97-34.13-58.41-36.31-89.57-90.08-105.42-128.79A120.7,120.7,0,0,0,174.07,93.07c-61,23.82-92.09,93.15-69.27,154.55,15.7,42.17,7.46,86.67-20.51,110.75-18,15.46-41.27,18.7-57.67,18.7A104.56,104.56,0,0,1,10.93,376c-1-.15-2-.27-2.94-.39a7.1,7.1,0,1,0-1.77,14.09c.84.11,1.68.21,2.52.34a119.64,119.64,0,0,0,17.88,1.28c18.8,0,45.68-3.84,66.94-22.15,32.45-27.93,42.32-78.75,24.55-126.46C98,188.5,125.4,127.32,179.24,106.3a106.53,106.53,0,0,1,137.32,58.89C333.2,205.84,366,262.35,427.62,300.66c30.72,19.09,65.27,31.26,102.71,36.15a7.1,7.1,0,1,0,1.84-14.08Z" style="fill:#fff"/><path d="M509,548.68c-70-8-135.23-30.58-193.87-67-6.67-4.15-13.25-8.48-19.55-12.87a7.2,7.2,0,0,0-5.37-1.15,7.11,7.11,0,0,0-4.59,3,298.46,298.46,0,0,1-53.08,60c-47.6,41-105,65.14-170.63,71.84a7.1,7.1,0,0,0,.71,14.17,6.06,6.06,0,0,0,.73,0c68.58-7,128.62-32.3,178.45-75.2a312.36,312.36,0,0,0,51.56-56.91c4.66,3.14,9.44,6.23,14.26,9.23,60.44,37.58,127.65,60.83,199.76,69.09A7.1,7.1,0,1,0,509,548.68Z" style="fill:#fff"/><path d="M6.13,418.34a153.22,153.22,0,0,0,20.49,1.35c23.62,0,57.61-5,85.46-29,41.4-35.66,54.52-99.11,32.68-157.89-14.76-39.72,5.34-84.58,44.83-100A78.06,78.06,0,0,1,290.28,176c18.23,44.54,54.26,106.52,122.34,148.85,35.24,21.9,74.88,35.56,117.8,40.62a7.1,7.1,0,1,0,1.66-14.1c-40.84-4.82-78.51-17.8-112-38.58-64.85-40.33-99.26-99.57-116.7-142.18a92.25,92.25,0,0,0-119-51c-46.65,18.22-70.41,71.23-53,118.18,19.79,53.24,8.29,110.38-28.63,142.17-24.55,21.14-55,25.58-76.19,25.58a138.79,138.79,0,0,1-18.54-1.21,7.1,7.1,0,0,0-1.95,14.07Z" style="fill:#fff"/><path d="M519.48,521.2C451,514.42,387.25,493,330.15,457.52a447.15,447.15,0,0,1-42.42-30,7.1,7.1,0,0,0-10.7,2.23,272.75,272.75,0,0,1-63,79.31c-58.49,50.39-124.88,63.85-170.28,66.27a7.1,7.1,0,0,0,.37,14.2l.38,0c47.61-2.53,117.28-16.68,178.8-69.69a285.8,285.8,0,0,0,62.24-76c11.91,9.15,24.37,17.79,37.14,25.75,59,36.62,124.72,58.75,195.43,65.75a7.1,7.1,0,0,0,1.4-14.14Z" style="fill:#fff"/><path d="M6.33,447a185.23,185.23,0,0,0,20.29,1.1c28.41,0,69.51-6.23,104-35.9,50.35-43.37,66.73-119.45,40.77-189.33a50,50,0,0,1,28.51-63.64A49.71,49.71,0,0,1,264,186.72c19.8,48.41,59.06,115.85,133.65,162.21,39.77,24.74,84.46,39.93,132.84,45.12A7.1,7.1,0,1,0,532,379.93c-46.24-5-88.92-19.45-126.87-43.06-71.36-44.35-109-109.06-128-155.53a63.92,63.92,0,0,0-119.08,46.47c23.91,64.34,9.15,134.12-36.72,173.63-31.17,26.82-68.71,32.45-94.72,32.45a172,172,0,0,1-18.74-1A7.1,7.1,0,1,0,6.33,447Z" style="fill:#fff"/><path d="M526.66,493.35c-65.91-5.91-127-26.09-181.52-60a416.87,416.87,0,0,1-67.2-52,7.11,7.11,0,0,0-11.57,2.7C251.5,424.68,227,460.45,195.48,487.55c-56.43,48.59-121.41,59.38-166,59.87a7.1,7.1,0,0,0,.07,14.2h.08c46.94-.52,115.42-11.92,175.1-63.31,30.74-26.45,55.18-60.67,71.13-99.46a431.13,431.13,0,0,0,61.77,46.59c56.43,35.06,119.6,55.94,187.74,62.06a7.1,7.1,0,0,0,1.27-14.15Z" style="fill:#fff"/><path d="M26.92,476.5c33.3,0,81.22-7.5,122.24-42.79,59.33-51.07,79-139.77,48.84-220.73a21.31,21.31,0,0,1,39.69-15.49c21.42,52.31,64,125.22,145,175.56,44.3,27.55,94.06,44.22,147.9,49.56a7.1,7.1,0,0,0,1.4-14.14c-51.65-5.12-99.36-21.1-141.81-47.48-77.77-48.34-118.68-118.52-139.3-168.88a35.51,35.51,0,0,0-66.16,25.82c28.06,75.42,10.06,157.8-44.79,205C93.8,462.6,37.82,464.12,8.54,461.48a7.1,7.1,0,0,0-1.27,14.15C13,476.14,19.58,476.5,26.92,476.5Z" style="fill:#fff"/><path d="M530.76,465.2c-62.1-5.36-119.51-24.18-170.62-55.95a390.64,390.64,0,0,1-96-84.49,7.1,7.1,0,0,0-12.51,3.42c-8.47,54.75-35,103.7-74.63,137.83C123,512.43,59.71,519.9,19,519c0,0-7.76-.65-7.76,7,0,7,7.52,7.16,7.57,7.16h0c2.33.05,4.74.08,7.21.08,43.13,0,105.92-9.8,160.15-56.46,38.57-33.2,65.44-79.48,76.65-131.54a403.56,403.56,0,0,0,89.77,76.08c53,32.95,112.54,52.48,176.88,58a7.1,7.1,0,0,0,1.23-14.15Z" style="fill:#fff"/><path d="M531.9,436.93c-57-5.17-109.76-22.6-156.76-51.8-84.26-52.37-128.4-128-150.58-182.28A7.1,7.1,0,0,0,211.33,208c32.15,86.51,10.89,181.54-52.92,236.46C106.9,488.81,44.66,492.16,12.13,490.21a7,7,0,0,0-7.51,6.67,7.1,7.1,0,0,0,6.66,7.51c4.43.27,9.36.44,14.73.44,36.7,0,93.42-8.06,141.67-49.59,53.43-46,79.07-118,71.31-191.29,26.85,45.64,67.58,95.29,128.66,133.25,48.89,30.37,103.72,48.5,163,53.88a7.1,7.1,0,0,0,1.29-14.15Z" style="fill:#fff"/></g></g></svg>