<svg xmlns="http://www.w3.org/2000/svg" viewBox="0 0 539.72 717.99"><title>f-5</title><g id="Layer_2" data-name="Layer 2"><g id="Слой_1" data-name="Слой 1"><path d="M387.61,427.56a35.17,35.17,0,1,0,35.17,35.17A35.21,35.21,0,0,0,387.61,427.56Zm0,56.13a21,21,0,1,1,21-21A21,21,0,0,1,387.61,483.69Z" style="fill:#fff"/><path d="M387.61,398.32A64.41,64.41,0,1,0,452,462.73,64.48,64.48,0,0,0,387.61,398.32Zm0,114.6a50.2,50.2,0,1,1,50.2-50.19A50.25,50.25,0,0,1,387.61,512.92Z" style="fill:#fff"/><path d="M387.61,369.09a93.64,93.64,0,1,0,93.63,93.64A93.75,93.75,0,0,0,387.61,369.09Zm0,173.07A79.43,79.43,0,1,1,467,462.73,79.52,79.52,0,0,1,387.61,542.16Z" style="fill:#fff"/><path d="M387.61,339.86A122.87,122.87,0,1,0,510.48,462.73,123,123,0,0,0,387.61,339.86Zm0,231.53A108.67,108.67,0,1,1,496.27,462.73,108.78,108.78,0,0,1,387.61,571.39Z" style="fill:#fff"/><path d="M538.29,441.91c-10.23-74.85-75-131.28-150.68-131.28a152.14,152.14,0,0,0-152.1,152.1c0,83.87,68.23,152.1,152.1,152.1A152.11,152.11,0,0,0,538.29,441.91Zm-20.72,67a138.21,138.21,0,0,1-130,91.68c-76,0-137.89-61.87-137.89-137.9a137.92,137.92,0,0,1,137.89-137.9c68.61,0,127.33,51.16,136.61,119a138.58,138.58,0,0,1-6.65,65.1Z" style="fill:#fff"/><path d="M460.22,296.53a7.1,7.1,0,1,0-5.69,13,167.36,167.36,0,0,1,70.87,58.58,7.1,7.1,0,0,0,11.7-8.05A181.53,181.53,0,0,0,460.22,296.53Z" style="fill:#fff"/><path d="M471.08,607.54a166.92,166.92,0,0,1-83.47,22.32c-92.15,0-167.13-75-167.13-167.13,0-107.74,101.23-188.67,207.61-162.19a7.1,7.1,0,1,0,3.43-13.78c-114.86-28.59-225.24,58.57-225.24,176,0,100,81.35,181.33,181.33,181.33a181.08,181.08,0,0,0,90.58-24.22,7.1,7.1,0,0,0-7.11-12.3Z" style="fill:#fff"/><path d="M421.89,656.1a196.28,196.28,0,0,1-34.28,3c-108.27,0-196.36-88.09-196.36-196.36,0-116.47,101-207.15,216-195.38a196.18,196.18,0,0,1,119,56.32,7.11,7.11,0,0,0,10-10.06,210.46,210.46,0,0,0-127.59-60.39C285.14,240.58,177.05,338,177.05,462.73c0,116.11,94.46,210.57,210.56,210.57a210.93,210.93,0,0,0,36.76-3.21,7.1,7.1,0,0,0-2.48-14Z" style="fill:#fff"/><path d="M367,687.39A225.59,225.59,0,0,1,223.54,307.92,7.1,7.1,0,0,0,214,297.43a290.53,290.53,0,0,1-60.8,36.22A293,293,0,0,1,8.82,357.3a7.1,7.1,0,0,0-1.28,14.15A307.11,307.11,0,0,0,159,346.64q13.77-6.06,26.89-13.5a238.27,238.27,0,0,0-38.05,129.59c0,124.47,94.86,227.65,217.91,238.81.22,0,.44,0,.65,0a7.1,7.1,0,0,0,.63-14.17Z" style="fill:#fff"/><path d="M303.42,703.33c-103.14-36.08-170.64-132.24-170.64-240.6a255.4,255.4,0,0,1,13.32-81.54,7.12,7.12,0,0,0-9-9,312.87,312.87,0,0,1-32.52,8.94c-9.89,2.19-20.21,3.94-30.67,5.2a331.13,331.13,0,0,1-64.59,1.3,7.1,7.1,0,1,0-1,14.17,343.44,343.44,0,0,0,67.29-1.37c10.92-1.31,21.71-3.14,32-5.42,7.09-1.55,14.11-3.36,21-5.35a267.52,267.52,0,0,0-10.09,73.07c0,114.48,71.34,215.95,180.16,254a7.1,7.1,0,1,0,4.68-13.4Z" style="fill:#fff"/><path d="M239,704.83A284.46,284.46,0,0,1,106.57,421.21a7.14,7.14,0,0,0-8.29-8c-9.54,1.73-19.44,3.09-29.44,4a362.94,362.94,0,0,1-61.12.56,7.1,7.1,0,0,0-1.07,14.16,374.41,374.41,0,0,0,63.54-.58c7.12-.68,14.15-1.62,21.1-2.69A298.5,298.5,0,0,0,231.51,716.93a7,7,0,0,0,3.71,1.06A7.11,7.11,0,0,0,239,704.83Z" style="fill:#fff"/><path d="M373.72,176a7.22,7.22,0,0,0,5.85,2.79,287.33,287.33,0,0,1,60,4.63,281.73,281.73,0,0,1,80.5,28,7.1,7.1,0,0,0,6.63-12.56,296,296,0,0,0-84.55-29.37,301.23,301.23,0,0,0-53.27-5,366.77,366.77,0,0,0,13.39-98.53c0-9.15-.34-18.47-1-27.7a7.1,7.1,0,1,0-14.17,1c.65,8.89,1,17.87,1,26.67a352.38,352.38,0,0,1-15.48,103.65A7.21,7.21,0,0,0,373.72,176Z" style="fill:#fff"/><path d="M102.9,593.64A312.31,312.31,0,0,1,74.32,462.73c0-2.57,0-5.14.11-7.7a7.17,7.17,0,0,0-7.68-7.31,390.81,390.81,0,0,1-59.3.3,7.1,7.1,0,1,0-.69,14.19,388.46,388.46,0,0,0,53.36.16c0,.12,0,.24,0,.36A326.65,326.65,0,0,0,90,599.59a7.11,7.11,0,1,0,12.91-6Z" style="fill:#fff"/><path d="M142,657.56A257.84,257.84,0,0,1,114,613a7.1,7.1,0,1,0-12.74,6.29,271,271,0,0,0,55.82,76.07,7.11,7.11,0,0,0,9.82-10.28A257.49,257.49,0,0,1,142,657.56Z" style="fill:#fff"/><path d="M446.43,123.21a7.4,7.4,0,0,0,4.43,2.81,344,344,0,0,1,37.35,9.18,6.81,6.81,0,0,0,2.08.31,7.1,7.1,0,0,0,2.07-13.89c-10.71-3.28-21.59-6-32.44-8.27.84-7.57,1.55-15.27,2-23.11.12-2,.2-4,.29-6A7.1,7.1,0,1,0,448,83.59c-.09,2-.17,3.91-.28,5.83-.57,9.78-1.45,19.44-2.63,28.72A7.38,7.38,0,0,0,446.43,123.21Z" style="fill:#fff"/><path d="M45.84,485.78a7.08,7.08,0,0,0-7.25-6.63c-4.22.09-16.19,0-29.4-.78a7.1,7.1,0,1,0-.88,14.17c8,.5,16,.74,23.89.79a356.85,356.85,0,0,0,49.27,152.6,7.1,7.1,0,0,0,12.18-7.31A342.5,342.5,0,0,1,45.84,485.78Z" style="fill:#fff"/><path d="M54.07,128.15a7.12,7.12,0,0,0,2.31-.38A65.12,65.12,0,0,0,99.74,76a7.1,7.1,0,0,0-14-2.17,50.93,50.93,0,0,1-33.93,40.49,7.1,7.1,0,0,0,2.3,13.82Z" style="fill:#fff"/><path d="M35.17,161.46A95.63,95.63,0,0,0,130.69,66a96.17,96.17,0,0,0-1.19-15.09,7.1,7.1,0,0,0-14,2.23,82.3,82.3,0,0,1,1,12.86,81.4,81.4,0,0,1-81.31,81.31,7.1,7.1,0,1,0,0,14.2Z" style="fill:#fff"/><path d="M20.53,190.79a127.54,127.54,0,0,0,14.64.85,125.45,125.45,0,0,0,111.32-67.28,7.1,7.1,0,0,0-12.57-6.61,111.31,111.31,0,0,1-98.75,59.68,112.67,112.67,0,0,1-13-.75,7.1,7.1,0,0,0-1.64,14.11Z" style="fill:#fff"/><path d="M146.22,108.24a6.85,6.85,0,0,0,2.13.33,7.09,7.09,0,0,0,6.77-5A125.53,125.53,0,0,0,160.86,66a125.92,125.92,0,0,0-4.11-32A7.1,7.1,0,0,0,143,37.57a112.11,112.11,0,0,1-1.44,61.77A7.1,7.1,0,0,0,146.22,108.24Z" style="fill:#fff"/><path d="M12.08,220.11a157.53,157.53,0,0,0,23.09,1.7C121.11,221.81,191,151.89,191,66a155.85,155.85,0,0,0-6.44-44.49A7.1,7.1,0,0,0,171,25.51,141.64,141.64,0,0,1,176.83,66c0,78.11-63.55,141.66-141.66,141.66a142.85,142.85,0,0,1-21-1.55,7.1,7.1,0,1,0-2.09,14.05Z" style="fill:#fff"/><path d="M7.36,249.92a187,187,0,0,0,76.57-4.4,186.81,186.81,0,0,0,123.54-109.4c4.17-8.27,13.72-37.21,13.72-70.18a185.42,185.42,0,0,0-7.77-53.38,7.1,7.1,0,1,0-13.6,4.09A171.26,171.26,0,0,1,207,65.94c0,23.73-5.33,48.08-12.39,64.12a.61.61,0,0,1,0,.12l0,.07A172.53,172.53,0,0,1,80.21,231.81a173.74,173.74,0,0,1-70.75,4.07,7.1,7.1,0,1,0-2.1,14Z" style="fill:#fff"/><path d="M6.14,280.22a217.33,217.33,0,0,0,95.21-8.4A216.69,216.69,0,0,0,231.58,156.43c12.55-22.39,19.81-63.24,19.81-90.49A216.73,216.73,0,0,0,243.31,7.2,7.1,7.1,0,1,0,229.64,11a202.61,202.61,0,0,1,7.55,54.9,201.77,201.77,0,0,1-18.28,84A202.38,202.38,0,0,1,97,258.3a203.33,203.33,0,0,1-88.93,7.85,7.1,7.1,0,0,0-1.92,14.07Z" style="fill:#fff"/><path d="M242.41,170.69A231.64,231.64,0,0,1,114.78,284.13,234,234,0,0,1,7.93,296.56a7.1,7.1,0,1,0-1.65,14.1,248.15,248.15,0,0,0,113.37-13.19A245.74,245.74,0,0,0,254.82,177.62c12.64-20.7,26.74-67,26.74-111.68A246.77,246.77,0,0,0,274,5.36a7.1,7.1,0,0,0-13.77,3.49,232.16,232.16,0,0,1,7.09,57.09A231,231,0,0,1,242.41,170.69Z" style="fill:#fff"/><path d="M265.14,192.29a261.58,261.58,0,0,1-46,60.7c-6.88,5.54-13.55,11.48-19.87,17.67h0a260.31,260.31,0,0,1-65.67,38.52l-.06,0-.12.05c-.12.06-.25.11-.37.18-43.34,17.49-81.86,21.05-125.25,17a7.1,7.1,0,1,0-1.31,14.14c45.4,4.2,86.36.47,132.44-18.24.19-.08.37-.16.54-.25a274.73,274.73,0,0,0,68.91-40.57h0l.22-.19a262.24,262.24,0,0,0,20.29-18h0l.13-.13A275.87,275.87,0,0,0,311.73,65.94a279,279,0,0,0-6.24-58.72,7.1,7.1,0,0,0-13.88,3,264.63,264.63,0,0,1,5.92,55.72A261.53,261.53,0,0,1,265.14,192.29Z" style="fill:#fff"/><path d="M287.36,214.25l-.06.09-.07.11-.19.29a292.55,292.55,0,0,1-43,56.05,7.11,7.11,0,0,0,9.3,10.68,225.53,225.53,0,0,1,273.56,3.75,7.1,7.1,0,0,0,8.78-11.17,239.73,239.73,0,0,0-253-27q8.73-11.92,16.31-24.64c.11-.16.21-.32.31-.48a305.65,305.65,0,0,0,42.61-156,311.64,311.64,0,0,0-4.53-52.86,7.1,7.1,0,1,0-14,2.42,297.62,297.62,0,0,1,4.33,50.44A291.53,291.53,0,0,1,287.36,214.25Z" style="fill:#fff"/><path d="M327.22,203.32a7.13,7.13,0,0,0,7.87,10,257,257,0,0,1,95.82-1.74,251.62,251.62,0,0,1,96.22,37.86,7.11,7.11,0,0,0,7.79-11.89,265.78,265.78,0,0,0-101.61-40,269.29,269.29,0,0,0-87.72-.58A335.84,335.84,0,0,0,372.07,65.94a341.53,341.53,0,0,0-2.67-42.68A7.1,7.1,0,1,0,355.31,25a326.41,326.41,0,0,1,2.56,40.9A321.91,321.91,0,0,1,327.22,203.32Z" style="fill:#fff"/><path d="M412.31,148.48a7.24,7.24,0,0,0,4.61,2.31,292,292,0,0,1,29.25,4.15,309.17,309.17,0,0,1,61.59,18.35,7.1,7.1,0,0,0,5.45-13.12A324.3,324.3,0,0,0,448.82,141c-7.56-1.46-15.23-2.65-22.9-3.53a388.59,388.59,0,0,0,6.5-71.51c0-2.39,0-4.77-.06-7.38,0,0,.09-7.67-6.93-7.69-7.42,0-7.27,8.11-7.27,8.11,0,2.3,0,4.63,0,7a384.55,384.55,0,0,1-7.61,76.37A7.24,7.24,0,0,0,412.31,148.48Z" style="fill:#fff"/></g></g></svg>