<svg xmlns="http://www.w3.org/2000/svg" xmlns:xlink="http://www.w3.org/1999/xlink" viewBox="0 0 578.78 578.18"><defs><linearGradient id="_åçûìßííûé_ãðàäèåíò_8" x1="285.17" y1="-34.59" x2="311.8" y2="642.8" gradientUnits="userSpaceOnUse"><stop offset="0" stop-color="#02c3fb"/><stop offset="1" stop-color="#003789"/></linearGradient><linearGradient id="_åçûìßííûé_ãðàäèåíò_8-2" x1="256.42" y1="-33.46" x2="283.05" y2="643.93" xlink:href="#_åçûìßííûé_ãðàäèåíò_8"/><linearGradient id="_åçûìßííûé_ãðàäèåíò_8-3" x1="335.37" y1="-36.56" x2="361.99" y2="640.82" xlink:href="#_åçûìßííûé_ãðàäèåíò_8"/><linearGradient id="_åçûìßííûé_ãðàäèåíò_8-4" x1="347.71" y1="-37.05" x2="374.34" y2="640.34" xlink:href="#_åçûìßííûé_ãðàäèåíò_8"/><linearGradient id="_åçûìßííûé_ãðàäèåíò_8-5" x1="74.33" y1="-26.3" x2="100.95" y2="651.08" xlink:href="#_åçûìßííûé_ãðàäèåíò_8"/><linearGradient id="_åçûìßííûé_ãðàäèåíò_8-6" x1="375.36" y1="-38.13" x2="401.99" y2="639.25" xlink:href="#_åçûìßííûé_ãðàäèåíò_8"/><linearGradient id="_åçûìßííûé_ãðàäèåíò_8-7" x1="261.27" y1="-33.65" x2="287.89" y2="643.73" xlink:href="#_åçûìßííûé_ãðàäèåíò_8"/><linearGradient id="_åçûìßííûé_ãðàäèåíò_8-8" x1="230.75" y1="-32.45" x2="257.37" y2="644.94" xlink:href="#_åçûìßííûé_ãðàäèåíò_8"/><linearGradient id="_åçûìßííûé_ãðàäèåíò_8-9" x1="175.66" y1="-30.29" x2="202.29" y2="647.1" xlink:href="#_åçûìßííûé_ãðàäèåíò_8"/><linearGradient id="_åçûìßííûé_ãðàäèåíò_8-10" x1="432.2" y1="-40.37" x2="458.82" y2="637.02" xlink:href="#_åçûìßííûé_ãðàäèåíò_8"/><linearGradient id="_åçûìßííûé_ãðàäèåíò_8-11" x1="368.85" y1="-37.88" x2="395.47" y2="639.51" xlink:href="#_åçûìßííûé_ãðàäèåíò_8"/><linearGradient id="_åçûìßííûé_ãðàäèåíò_8-12" x1="15.51" y1="-23.99" x2="42.13" y2="653.39" xlink:href="#_åçûìßííûé_ãðàäèåíò_8"/><linearGradient id="_åçûìßííûé_ãðàäèåíò_8-13" x1="269.33" y1="-33.97" x2="295.95" y2="643.42" xlink:href="#_åçûìßííûé_ãðàäèåíò_8"/><linearGradient id="_åçûìßííûé_ãðàäèåíò_8-14" x1="429.04" y1="-40.24" x2="455.66" y2="637.14" xlink:href="#_åçûìßííûé_ãðàäèåíò_8"/><linearGradient id="_åçûìßííûé_ãðàäèåíò_8-15" x1="495.49" y1="-42.85" x2="522.11" y2="634.53" xlink:href="#_åçûìßííûé_ãðàäèåíò_8"/><linearGradient id="_åçûìßííûé_ãðàäèåíò_8-16" x1="194.88" y1="-31.04" x2="221.5" y2="646.34" xlink:href="#_åçûìßííûé_ãðàäèåíò_8"/><linearGradient id="_åçûìßííûé_ãðàäèåíò_8-17" x1="325.22" y1="-36.16" x2="351.84" y2="641.22" xlink:href="#_åçûìßííûé_ãðàäèåíò_8"/><linearGradient id="_åçûìßííûé_ãðàäèåíò_8-18" x1="142.84" y1="-29" x2="169.46" y2="648.39" xlink:href="#_åçûìßííûé_ãðàäèåíò_8"/><linearGradient id="_åçûìßííûé_ãðàäèåíò_8-19" x1="510.73" y1="-43.45" x2="537.35" y2="633.93" xlink:href="#_åçûìßííûé_ãðàäèåíò_8"/><linearGradient id="_åçûìßííûé_ãðàäèåíò_8-20" x1="439.45" y1="-40.65" x2="466.07" y2="636.73" xlink:href="#_åçûìßííûé_ãðàäèåíò_8"/><linearGradient id="_åçûìßííûé_ãðàäèåíò_8-21" x1="500.95" y1="-43.07" x2="527.57" y2="634.32" xlink:href="#_åçûìßííûé_ãðàäèåíò_8"/><linearGradient id="_åçûìßííûé_ãðàäèåíò_8-22" x1="271.52" y1="-34.05" x2="298.14" y2="643.33" xlink:href="#_åçûìßííûé_ãðàäèåíò_8"/></defs><title>Asset 1</title><g id="Layer_2" data-name="Layer 2"><g id="_ëîé_1" data-name="‘ëîé_1"><path d="M147.32,339.26c-26.5-79.14,12.34-161.29,90.32-191.1,66.9-25.56,147,3.55,182.4,66.28,5.78,10.24,9.86,21.35,13.82,32.09,5.42,14.76,11,30,21.05,42.81a10.24,10.24,0,0,1,2.08,8,11.68,11.68,0,0,1-5.34,7.84c-5.38,3.53-11.32,2.14-15.53-3.57-5.32-7.23-10.81-15.17-14.84-24.23-3.1-7-5.75-14.2-8.31-21.2-4.86-13.31-9.88-27.07-18.19-39.19-35.22-51.42-101-69.17-160-43.17C209.35,185.05,188.15,206,175,232.78s-16.7,56.77-10,84.12c10,40.55,28.47,80.65,58.27,126.21,3.07,4.69,6.39,9.36,9.6,13.87,2.52,3.53,5.12,7.19,7.59,10.85,3.86,5.71,3.16,11.78-1.82,15.86a14,14,0,0,1-1.93,1.31c-4.38,2.39-9.21,1.24-13.8-3.37a64.81,64.81,0,0,1-5.61-6.51A348.21,348.21,0,0,1,182.1,419C166.24,392.87,155.62,364,147.32,339.26Z" style="fill:url(#_åçûìßííûé_ãðàäèåíò_8)"/><path d="M93.19,309.9c2.13,19.4,8.13,38.16,13.93,56.3l1.81,5.67c2.16,6.81.56,12.09-4.38,14.79a13.92,13.92,0,0,1-1.83.83c-4.79,1.75-11.33,1.69-15.31-8.58-22.73-58.67-24-113-3.79-166,22.82-60,67.44-105.58,125.62-128.44s121.65-19.81,179,8.49a213.31,213.31,0,0,1,72.06,57.58l.14.19c3,4.72,6.19,11.64-.42,17.25-7.38,6.28-14.3-.2-16.58-2.32a31.8,31.8,0,0,1-2.5-2.76l-.44-.52A195.9,195.9,0,0,0,321.14,94.81a198.44,198.44,0,0,0-129.83,23.73C124.31,157.17,84.87,234.08,93.19,309.9Z" style="fill:url(#_åçûìßííûé_ãðàäèåíò_8-2)"/><path d="M246,305.71c-4-12.14-3.7-23.58.94-34,8.26-18.61,24.58-29,44.77-28.43,19.9.54,36.16,13.34,42.45,33.42a262.2,262.2,0,0,0,49.53,90.77c2.43,2.88,5.6,7.26,5.13,12a10.75,10.75,0,0,1-4.38,7.37c-9,7.25-16.31-1.78-18.71-4.75-17.07-21.1-29.09-39.78-37.84-58.76-3.2-6.94-6-14.15-8.63-21.11-2.93-7.65-6-15.55-9.54-23-5.77-12-16.89-16.11-29.75-10.94-10.19,4.08-16.05,17.06-12.57,27.76,4.39,13.48,8.92,27.43,15.16,40.61,35.83,75.76,92,131.74,167,166.4a33.79,33.79,0,0,1,9.23,5.86c3.68,3.46,4.36,8.34,1.81,13a10.49,10.49,0,0,1-4.17,4.32,10.93,10.93,0,0,1-7.88.82,42,42,0,0,1-7.65-2.87l-.48-.22C369,491.65,312.86,439.86,273.64,370,260.65,347.92,252,324,246,305.71Z" style="fill:url(#_åçûìßííûé_ãðàäèåíò_8-3)"/><path d="M559.1,272.22c-23.58-9.15-39.76-26.77-48.09-52.39a246.78,246.78,0,0,0-9.21-23c-2.7-6.13-5.49-12.47-7.8-18.88-1.3-1.94-2.57-3.86-3.83-5.77-2.82-4.28-5.48-8.32-8.32-12.33C430.38,87.21,359.48,53,271.12,58.34A212.71,212.71,0,0,0,157.21,99.2c-4.7,3.41-13.44,9.76-20.28.59a10.58,10.58,0,0,1-2.33-8.14c.58-3.55,3.24-6.93,8.13-10.34A256.16,256.16,0,0,1,273.61,35.26c54.24-3.66,109.75,11.1,156.31,41.57,48.92,32,84.19,78.05,102,133.15,6.86,21.26,18.59,34.64,35.84,40.91,4.77,1.74,7.89,4.2,9.27,7.31a12.62,12.62,0,0,1-5,14.63C567.28,275.39,561.47,273.13,559.1,272.22Z" style="fill:url(#_åçûìßííûé_ãðàäèåíò_8-4)"/><path d="M53.43,387.31C23.07,305.16,30,226.65,74,154a216.22,216.22,0,0,1,28.71-37.4c6.57-6.86,12.69-7.69,18.2-2.45,6.76,6.42,1.81,13-1.54,17.43-1,1.35-2.14,2.61-3.22,3.83-.53.6-1.06,1.19-1.58,1.8-39,45.83-58.26,99-57.1,158.14,1,49.05,19.24,93.83,38.84,134.91,15.36,32.2,31.15,59.42,48.27,83.22,4.88,6.79,4.32,13.2-1.53,17.59a12.17,12.17,0,0,1-1.62,1.05c-3.72,2-8.9,2.33-14.68-4.71-2.32-2.83-4.52-5.82-6.36-8.37C108.7,502.71,98.87,484.85,89,466.46,74.36,442.64,63.4,414.3,53.43,387.31Z" style="fill:url(#_åçûìßííûé_ãðàäèåíò_8-5)"/><path d="M378.16,261.55c-8.87-26.82-28.55-48.1-54-58.39a92.7,92.7,0,0,0-77.85,4.22c-1,.52-2,1.12-3,1.73-4.09,2.42-8.73,5.16-13.27,3.82-2.78-.82-5-3-6.83-6.62-4.81-9.6,2.58-13.78,8-16.84a42.52,42.52,0,0,0,4.15-2.54l.16-.12.19-.08c10.23-4.73,21.39-9.38,33.68-11.35,59.44-9.52,112.33,23.22,131.6,81.47,15.65,47.3,45,84.15,87.16,109.53a190.18,190.18,0,0,0,55.11,22.25c4,.93,14.64,3.39,12.08,14.87-.76,3.42-2.29,5.86-4.56,7.25l-.39.23c-3.64,2-8.2,1.09-12.57,0l-.41-.1-1.65-.43C456.73,388.85,403.72,338.76,378.16,261.55Z" style="fill:url(#_åçûìßííûé_ãðàäèåíò_8-6)"/><path d="M176.76,314.44c-7.49-28.29-2.87-56.79,13.72-84.7,5-8.43,11.31-7.52,15.72-5.28s8.49,6.76,4,16.12c-.85,1.78-1.8,3.53-2.71,5.21l-.23.42c-11.71,21.61-14.06,44.83-7,69A323.69,323.69,0,0,0,225,376.52l.11.25c3.05,8.22,7.9,16,13,24.32,1.64,2.64,3.28,5.29,4.88,8,24.46,41.13,56.6,76.94,98.25,109.47,8.55,6.69,17.78,12.74,26.7,18.59,3.36,2.2,6.71,4.4,10.05,6.64,7.34,4.93,9,10.58,4.92,16.78a12.18,12.18,0,0,1-4.23,4.1c-3.51,1.92-7.92,1.43-13.17-1.46-1-.53-1.87-1.13-2.79-1.72-.56-.37-1.12-.74-1.7-1.08A404.58,404.58,0,0,1,279.9,494.8C229.19,442.09,194.49,381.41,176.76,314.44Z" style="fill:url(#_åçûìßííûé_ãðàäèåíò_8-7)"/><path d="M417.61,42.07a10.6,10.6,0,0,1-4.48,5.41c-4.18,2.28-9.4.26-13.24-1.21l-1-.4c-3.29-1.24-6.57-2.61-9.75-3.93a169.74,169.74,0,0,0-18.23-6.77C271.26,6.8,182,27.39,105.54,96.38,95,105.87,86,117.07,77.25,127.9c-1.72,2.13-3.44,4.26-5.18,6.38-3.08,3.79-7,5.78-10.85,5.46a10,10,0,0,1-7.9-5.35l0,0,0,0c-2.48-4.82-1.76-9.66,2.2-14.78,1.35-1.74,2.69-3.51,4-5.26,4.07-5.37,8.28-10.92,12.9-16,50.7-56,113.73-88.48,187.35-96.54,50.86-5.57,100.72,2.41,148.19,23.7C412.17,27.32,422.07,31.76,417.61,42.07Z" style="fill:url(#_åçûìßííûé_ãðàäèåíò_8-8)"/><path d="M130.79,394.29c-11.27-27.6-22.92-56.14-25.75-87a164.63,164.63,0,0,1,.47-37.82c.4-2.9,1.12-6.56,3.13-9.23,2.24-3,5.6-4.17,10-3.57,10.52,1.46,9.56,11.57,9.24,14.89-.24,2.56-.43,5.25-.58,8.21-1,19.52.63,36.14,5,50.82,25.77,86.89,73.06,161.46,140.56,221.64a54,54,0,0,1,8.21,8.47c3.31,4.58,3,9.85-.92,14.08a11,11,0,0,1-2.8,2.22c-3,1.64-6.56,1.56-10.18-.3a40.48,40.48,0,0,1-8-5.69c-44.35-38.85-79.52-83.08-110.69-139.21C144.22,425.06,137.78,411.39,130.79,394.29Z" style="fill:url(#_åçûìßííûé_ãðàäèåíò_8-9)"/><path d="M445.08,242.08C429.47,195.34,401,162.6,358,142c-12.52-6-25.64-9.51-38-12.58-10-2.49-10.75-8.72-9.59-13.5s4.58-10,14.51-8.2c2.16.38,4.26.91,6.24,1.42C399.29,126.8,444.85,169,466.62,234.54c12.31,37.06,36.77,64,72.69,80a121.47,121.47,0,0,0,26.35,8c5.75,1.14,9.17,4.79,9.63,10.25a10.94,10.94,0,0,1-5.38,10.74l0,0-.43.25c-4.36,2.38-8.67,1.27-12.48.3l-.78-.2C500.32,329.83,462.94,295.57,445.08,242.08Z" style="fill:url(#_åçûìßííûé_ãðàäèåíò_8-10)"/><path d="M302.94,351.43l0-.05c-1-2-2.11-4.2-3.27-6.46-2.82-5.49-6-11.71-8.62-18.15q-1.26-3.11-2.57-6.19c-3.66-8.76-7.45-17.81-9.36-27.44-2-10.12,3.62-13.2,7.15-14.15,6.2-1.65,11.33,1.06,14.14,7.57.82,1.88,1.66,3.83,2.34,5.83a303.12,303.12,0,0,0,30.8,65.1c23.55,37.45,55.2,69.15,94.07,94.22A294.52,294.52,0,0,0,482,478.89c3.71,1.43,13.53,5.22,9.76,15.64a11.23,11.23,0,0,1-5,6.42,9.65,9.65,0,0,1-3.16,1.05c-3.43.53-7.22-.62-10.15-1.68l-1.61-.62-.38-.16C397.68,470.36,342.56,421.93,303,351.48Z" style="fill:url(#_åçûìßííûé_ãðàäèåíò_8-11)"/><path d="M32.89,423.78c-.6-1.13-1.2-2.25-1.81-3.37l0-.07A290.57,290.57,0,0,1,8.31,358.61C-7.36,293.08-.85,228.44,27.65,166.49c2.09-4.56,6.46-14,16.68-9.82,3,1.24,5,3.06,6,5.39,1.72,4.15-.26,8.89-2,13.07l-.09.22c-.24.57-.51,1.13-.79,1.69-.19.39-.38.78-.56,1.18C16.37,246.79,14.71,317.71,42,389a183.33,183.33,0,0,0,9,19c2.13,4.1,4.34,8.33,6.31,12.63,3.42,7.47,2,13.56-4,16.82l-.56.29c-3.4,1.68-9.94,3.09-15.56-6.36C35.63,428.9,34.24,426.3,32.89,423.78Z" style="fill:url(#_åçûìßííûé_ãðàäèåíò_8-12)"/><path d="M236.4,375.3l-.08-.19c-2-4.87-4.25-9.85-6.38-14.66-7.68-17.38-15.63-35.34-19.54-54.77a80.65,80.65,0,0,1,86.06-96.78,79.23,79.23,0,0,1,51.11,23.91c2.62,2.65,6.09,6.71,6,11.43a10.93,10.93,0,0,1-3.75,7.79c-7.91,7.65-15.71,0-18.27-2.53a86.48,86.48,0,0,0-8.38-7.34c-18.51-14-45.82-14.66-64.9-1.52-22.1,15.21-31.73,39.21-25.13,62.64,5.32,18.88,12.91,38.12,24.59,62.39.52,1.09,1.17,2.24,1.87,3.45,2.31,4.05,4.93,8.63,3.58,13.09-.77,2.53-2.65,4.59-5.75,6.28l-.7.36c-10.13,5.07-14.26-2.6-17.58-8.77-.85-1.58-1.73-3.21-2.67-4.62Z" style="fill:url(#_åçûìßííûé_ãðàäèåíò_8-13)"/><path d="M352.85,293.58c-2.37-6.2-6-15.53,4.2-19.65,10.77-4.33,15.34,6.77,17.07,10.95,21,50.88,56.88,90.36,106.7,117.33,16,8.65,33,14.22,49,19,7.31,2.16,10.54,7.34,8.84,14.21a10.82,10.82,0,0,1-5.15,7.29c-2.47,1.35-5.67,1.66-9.42.85-2.58-.57-5.09-1.3-7.19-1.94-66.48-20.33-117.68-61.43-152.18-122.16A171.1,171.1,0,0,1,352.85,293.58Z" style="fill:url(#_åçûìßííûé_ãðàäèåíò_8-14)"/><path d="M553.3,228.72c-4.3-2.17-6-7.47-7.51-12.14l-.22-.66c-.08-.25-.17-.5-.26-.75-.15-.42-.3-.85-.43-1.28-16.7-57.46-50.24-105.08-99.68-141.55l-.6-.44a37.09,37.09,0,0,1-6.07-5.18c-3.66-4.14-4-8.9-1-13.06,3.47-4.77,8.4-6.14,13.52-3.75A54.44,54.44,0,0,1,459.34,55c34.59,24.5,62.87,56.4,84,94.79h0c11,20.12,19.08,39.36,24.56,58.84l.07.26c1.68,5.95,4.13,14.68-3.57,18.89a16.75,16.75,0,0,1-2.51,1.08C558.6,230,555.7,229.93,553.3,228.72Z" style="fill:url(#_åçûìßííûé_ãðàäèåíò_8-15)"/><path d="M124,206.45c18.28-35.34,44-61.77,76.37-78.51,1.42-.78,2.82-1.58,4.22-2.38,3.09-1.76,6.28-3.58,9.59-5.1a178.65,178.65,0,0,1,59.71-15.61c4.43-.37,7.92.5,10.37,2.61a11,11,0,0,1,3.63,8c.28,4-.88,10.72-11.74,11.81l-.28,0c-1.92.19-3.9.38-5.8.68-59.17,9.11-102.21,40.45-127.92,93.15-.32.66-.64,1.33-.95,2a50.22,50.22,0,0,1-3.48,6.54,11.94,11.94,0,0,1-4.18,4,10.69,10.69,0,0,1-9.21.37c-5.32-2.07-7.78-7-6.26-12.69A75.67,75.67,0,0,1,124,206.45Z" style="fill:url(#_åçûìßííûé_ãðàäèåíò_8-16)"/><path d="M267.25,425.36l-.05-.08c-4.12-6.45-3.43-12.33,1.95-16.54,5.18-4.06,11.05-3.2,15.71,2.28,2.47,2.9,4.78,6,7,8.92,1.49,2,3,3.93,4.51,5.86a378.75,378.75,0,0,0,119,99c5,2.66,14.34,7.62,9.46,17.81a12.11,12.11,0,0,1-4.88,5.64,8.14,8.14,0,0,1-1.32.58c-4.38,1.48-9.09-.92-13.24-3.05l-1.06-.54a332.13,332.13,0,0,1-39.3-23.8C326.16,494.65,293.24,462.31,267.25,425.36Z" style="fill:url(#_åçûìßííûé_ãðàäèåíò_8-17)"/><path d="M105.63,413.69c1-2.42,3-4.28,6.08-5.54a11.21,11.21,0,0,1,8.82-.23c3.41,1.43,6.28,4.81,8.31,9.77a209.15,209.15,0,0,0,11.67,24.05c23.84,41.27,48.25,74.86,74.63,102.71,3.11,3.27,10.37,10.94,2.62,19.11a13.86,13.86,0,0,1-3.36,2.65,9.44,9.44,0,0,1-4.63,1.2c-3.57,0-7.2-2.14-11.12-6.42-41-44.82-70.69-88.68-90.91-134.11C105.77,422.46,104,417.8,105.63,413.69Z" style="fill:url(#_åçûìßííûé_ãðàäèåíò_8-18)"/><path d="M560,308.82c-31.23-7.81-55.49-26.78-74.15-58l-.09-.16L481,238.37c-4.5-11.57-9.6-24.68-14.48-37.58-2.12-5.59-.51-10.61,4.31-13.43,4.58-2.63,9.48-2,13.94,1.86,3.82,3.28,5.65,7.75,7.33,12.41,1.25,3.48,2.43,7,3.62,10.48,2.42,7.19,4.92,14.61,8,21.57,12.43,27.81,33.55,45.74,62.81,53.33,4.52,1.17,10.16,2.63,11.86,8.93a11.58,11.58,0,0,1-5.62,12.89c-4,2.21-8.41,1.1-12,.19Z" style="fill:url(#_åçûìßííûé_ãðàäèåíò_8-19)"/><path d="M401.64,417.71l-.23-.27c-4.22-5.75-4.13-11.28.26-15.58,7.37-7.21,15.07-1,17.6,1,27.82,22.29,56.36,37.89,87.23,47.7,3.86,1.23,8.55,3.16,10.57,7.23,1.23,2.49,1.26,5.43.09,8.74a11.11,11.11,0,0,1-5,6.38c-4.76,2.6-10.83.47-13.33-.41-23.83-8.38-42.55-16.9-58.91-26.82C427.59,438.21,413.41,429.05,401.64,417.71Z" style="fill:url(#_åçûìßííûé_ãðàäèåíò_8-20)"/><path d="M470,339c-5.7-4.8-6.4-11-1.88-16.66,4.07-5.08,10-5.36,15.92-.77a183.86,183.86,0,0,0,74.72,35.29,12.09,12.09,0,0,1,5.46,3,10.57,10.57,0,0,1,3.23,9,12.22,12.22,0,0,1-6.22,9.17l-.43.25-.48,0c-.35,0-.76.08-1.23.15a16.54,16.54,0,0,1-5.41.12A179.39,179.39,0,0,1,470,339Z" style="fill:url(#_åçûìßííûé_ãðàäèåíò_8-21)"/><path d="M255.12,519.42c-.93-1-1.8-2-2.62-2.82l-.29-.39c-3.53-6.11-3-11.44,1.6-15.85,3.89-3.71,9-3.92,14.05-.57a40,40,0,0,1,6.25,5.54l.26.27a414,414,0,0,0,54.71,47.23c4.08,2.92,8.12,6.15,8.81,10.65.41,2.68-.46,5.48-2.59,8.3a13,13,0,0,1-4.08,3.69c-6,3.26-12.31-1.37-16.05-4.09a510.3,510.3,0,0,1-52.68-44.27C259.83,524.54,257.32,521.82,255.12,519.42Z" style="fill:url(#_åçûìßííûé_ãðàäèåíò_8-22)"/></g></g></svg>